<svg xmlns="http://www.w3.org/2000/svg" viewBox="0 0 1000 1000">
  <defs>
    <style>
      .cls-1 {
        fill: #fff;
      }
    </style>
  </defs>
  <title>mean</title>
  <g id="mean">
    <g>
      <path class="cls-1" d="M873.93,576.5H791.5c47.32,190.43,67,365.43,67.17,367.38a40,40,0,0,0,39.71,35.62,40.77,40.77,0,0,0,4.42-.24,40,40,0,0,0,35.39-44.13C937.32,927.23,919,763.52,873.93,576.5Z"/>
      <path class="cls-1" d="M256.5,423.5c28.32-83.48,59.11-152,91.9-204.44C397.56,140.39,449.59,100.5,503,100.5s105,39.74,153.61,118.12c32.58,52.49,63,121.17,91,204.88h84.09c-32-101-67.84-183.78-106.85-246.73C660.55,73.08,585.93,20.5,503,20.5S345.33,73,280.5,176.63c-39.39,63-75.71,145.82-108.31,246.87Z"/>
      <path class="cls-1" d="M129.1,576.5C83,763.42,63.75,927,62.84,934.9a40,40,0,1,0,79.46,9.2c.23-1.94,20.82-176.9,69.3-367.6Z"/>
    </g>
    <path class="cls-1" d="M938,529.5H813v-60H938Zm-225,0H563v-60H713Zm-250,0H313v-60H463Zm-250,0H63v-60H213Z"/>
  </g>
</svg>
