<svg xmlns="http://www.w3.org/2000/svg" viewBox="0 0 1000 1000">
  <defs>
    <style>
      .cls-1 {
        fill: #fff;
      }
    </style>
  </defs>
  <title>median</title>
  <g id="median">
    <path class="cls-1" d="M570.92,359.27C552.37,209,501.56,107.35,419.91,57.16,379.5,32.34,332,20.43,278.56,21.78c-40.24,1-84.55,9.84-128.13,25.54a42.17,42.17,0,1,0,29.74,78.92c69.42-27.55,129.39-27.18,178.22,1.1,36.26,21,66.33,57,89.38,106.88,23,49.73,31.66,98.19,34.33,116.72l1,7.29,7.28,1.16c34.51,5.5,42.63,6.77,46.53,7.37s4,.63,22.44,3.62l13.16,2.13Z"/>
    <path class="cls-1" d="M843.09,916l-.52-1.17a43.25,43.25,0,0,0-42.07-25.29c-29.35,1.9-74,1.89-120.09-8.92-48.85-11.46-86.87-32.26-113-61.83-39.69-44.91-51.73-110.29-35.78-194.33l1.94-10.24-84.82-12.43-1.53,9.79c-5.09,32.67-9.42,82.89-1.07,136.61,9.19,59.13,31.48,108,66.27,145.37,52.85,56.69,133.08,85.28,239.08,85.27q26.91,0,56-2.46a42.42,42.42,0,0,0,33.32-21A43,43,0,0,0,843.09,916Z"/>
    <path class="cls-1" d="M928.8,581.64,805.17,563.22,814,503.87l123.64,18.42ZM706.26,548.48,557.9,526.38,566.74,467,715.1,489.1ZM459,511.65l-148.36-22.1,8.87-59.35,148.36,22.1ZM211.72,474.81,63.35,452.71l8.85-59.35,148.36,22.11Z"/>
  </g>
</svg>
