<svg xmlns="http://www.w3.org/2000/svg" viewBox="0 0 1000 1000">
  <defs>
    <style>
      .cls-1 {
        fill: #fff;
      }
    </style>
  </defs>
  <title>mode</title>
  <g id="mode">
    <path class="cls-1" d="M674.06,139C847.5,157.85,984.27,312.79,988.4,491.13,992.64,674.35,861.59,830.22,672.85,860,804,771.63,876.26,653.7,876.4,499.63,876.5,344.77,804.36,226.28,674.06,139Z"/>
    <path class="cls-1" d="M333.5,408.44V553.73c0,61-1.52,62.71-61.05,68.25-1.38.12-2.65,1.47-5.2,3v28.68h208.5V622.29c-4.56-.71-8.33-1.16-12-1.91-44.4-9-49.34-14.91-49.25-60.28.11-54.17.23-108.33.75-162.49.17-17.87,1.6-35.72,2.6-56.5-15.81,2.42-31.31.19-39.68,6.88-31.63,25.3-66.9,35.53-106.46,34.59-2-.05-4,1.52-6.83,2.65.43,7.21.85,14.1,1.39,23.21Z"/>
    <path class="cls-1" d="M375.5,868C172.3,867.74,7.79,702.81,8.05,499.61S173.24,131.9,376.43,132.16,744.14,297.35,743.89,500.55A367.92,367.92,0,0,1,375.5,868Zm0-658c-159.61,0-289,129.38-289,289s129.38,289,289,289,289-129.38,289-289a289,289,0,0,0-289-289Z"/>
  </g>
</svg>
