<svg id="range" xmlns="http://www.w3.org/2000/svg" viewBox="0 0 1000 1000">
  <defs>
    <style>
      .cls-1 {
        fill: #fff;
      }
    </style>
  </defs>
  <title>range</title>
  <path class="cls-1" d="M500.5,80a121,121,0,1,1-85.56,35.44A121,121,0,0,1,500.5,80m0-80c-111,0-201,90-201,201s90,201,201,201,201-90,201-201S611.5,0,500.5,0Z"/>
  <path class="cls-1" d="M500.5,678a121,121,0,1,1-85.56,35.44A121,121,0,0,1,500.5,678m0-80c-111,0-201,90-201,201s90,201,201,201,201-90,201-201S611.5,598,500.5,598Z"/>
  <g>
    <path class="cls-1" d="M313.44,725.3q3.6-9.13,8.05-17.81,2.22-4.32,4.64-8.54a201.37,201.37,0,0,1,19.27-27.8q6.15-7.46,13-14.28,1.71-1.71,3.45-3.37,3.5-3.33,7.14-6.49t7.45-6.14q1.53-1.2,3.09-2.37v-277q-1.56-1.17-3.09-2.37-1.9-1.5-3.76-3a201.64,201.64,0,0,1-27.25-27.25q-1.5-1.86-3-3.76a191,191,0,0,1-11.2-15.75q-2.62-4.08-5-8.29-4.85-8.41-8.87-17.33-2-4.46-3.82-9a200.34,200.34,0,0,1-12.33-48.1A203.74,203.74,0,0,1,299.5,201V799a200.84,200.84,0,0,1,9-59.77Q310.74,732.15,313.44,725.3Z"/>
    <path class="cls-1" d="M699.89,226.6a200.34,200.34,0,0,1-12.33,48.1q-1.8,4.56-3.82,9A193.6,193.6,0,0,1,674.87,301q-2.42,4.22-5,8.29-5.22,8.15-11.2,15.75-1.5,1.9-3,3.76a201.64,201.64,0,0,1-27.25,27.25q-1.86,1.5-3.76,3-1.53,1.2-3.09,2.37v277q1.56,1.17,3.09,2.37,3.81,3,7.45,6.14t7.14,6.49q1.74,1.66,3.45,3.37,6.82,6.82,13,14.28A202.27,202.27,0,0,1,674.87,699q2.42,4.21,4.64,8.54a191.14,191.14,0,0,1,8,17.81q2.7,6.84,4.9,13.93A200.56,200.56,0,0,1,701.5,799V201A204.73,204.73,0,0,1,699.89,226.6Z"/>
  </g>
</svg>
