<svg xmlns="http://www.w3.org/2000/svg" xmlns:xlink="http://www.w3.org/1999/xlink" viewBox="0 0 1000 1000">
  <defs>
    <style>
      .cls-1 {
        fill: none;
      }

      .cls-2 {
        isolation: isolate;
      }

      .cls-3 {
        clip-path: url(#clip-path);
      }

      .cls-4 {
        fill: #858585;
      }

      .cls-5 {
        fill: #8a8a8a;
      }

      .cls-6 {
        fill: #8f8f8f;
      }

      .cls-7 {
        fill: #949494;
      }

      .cls-8 {
        fill: #999;
      }

      .cls-9 {
        fill: #9e9e9e;
      }

      .cls-10 {
        fill: #a3a3a3;
      }

      .cls-11 {
        fill: #a8a8a8;
      }

      .cls-12 {
        fill: #adadad;
      }

      .cls-13 {
        fill: #b3b3b3;
      }

      .cls-14 {
        fill: #b8b8b8;
      }

      .cls-15 {
        clip-path: url(#clip-path-2);
      }

      .cls-16 {
        fill: #dcdcdc;
      }

      .cls-17 {
        clip-path: url(#clip-path-3);
      }

      .cls-18 {
        clip-path: url(#clip-path-4);
      }

      .cls-19 {
        clip-path: url(#clip-path-5);
      }

      .cls-20 {
        clip-path: url(#clip-path-6);
      }

      .cls-21 {
        clip-path: url(#clip-path-7);
      }

      .cls-22 {
        clip-path: url(#clip-path-8);
      }

      .cls-23 {
        clip-path: url(#clip-path-9);
      }
    </style>
    <clipPath id="clip-path">
      <path class="cls-1" d="M793.51,684.33l-.12,40.76c.1-32.52-24.92-64.67-71.94-91.82C692.45,616.53,657,602.63,616,592c-40.18-10.44-83.81-17.33-129.69-20.47a785.79,785.79,0,0,0-136,2.34c-45.4,4.81-87.17,13.53-124.13,25.91S159.48,627.33,137.8,645c-20.3,16.51-32.71,34.41-36.89,53.24a64.1,64.1,0,0,0-1.53,13.72l.11-40.76A63.49,63.49,0,0,1,101,657.43c4.17-18.82,16.58-36.73,36.89-53.23,21.67-17.62,51.38-32.83,88.29-45.2S305,537.9,350.35,533.09a785.75,785.75,0,0,1,136-2.34c45.87,3.14,89.51,10,129.69,20.47,41,10.66,76.49,24.55,105.49,41.29C768.59,619.66,793.6,651.81,793.51,684.33Z"/>
    </clipPath>
    <clipPath id="clip-path-2">
      <path class="cls-1" d="M873.53,684.4l-.11,40.76a92.49,92.49,0,0,1-2.21,19.69c-5.86,26.45-23,51.41-51,74.16l.11-40.75c28-22.76,45.17-47.72,51-74.17A91.22,91.22,0,0,0,873.53,684.4Z"/>
    </clipPath>
    <clipPath id="clip-path-3">
      <path class="cls-1" d="M19.35,711.82l.12-40.75c-.06,18.77,5.78,37.44,17.44,55.71,16,25,42.27,48.24,78.14,69,70.56,40.74,170.87,67.38,282.44,75,111.2,7.61,221.12-4.52,309.54-34.14,46.82-15.69,84.93-35.32,113.26-58.34L820.18,819c-28.33,23-66.44,42.66-113.27,58.35C618.5,907,508.57,919.11,397.38,911.5c-111.58-7.63-211.88-34.27-282.44-75-35.88-20.71-62.17-43.91-78.14-69C25.14,749.27,19.3,730.6,19.35,711.82Z"/>
    </clipPath>
    <clipPath id="clip-path-4">
      <path class="cls-1" d="M845.4,490.68l-.12,40.76c.09-32.52-24.92-64.67-71.93-91.82-29-16.74-64.5-30.63-105.5-41.29C627.67,387.89,584,381,538.15,377.86a785.65,785.65,0,0,0-136,2.34C356.71,385,314.94,393.73,278,406.11s-66.61,27.57-88.29,45.19c-20.3,16.51-32.71,34.42-36.89,53.25a64.67,64.67,0,0,0-1.54,13.71l.12-40.76a64,64,0,0,1,1.53-13.71c4.18-18.83,16.59-36.74,36.89-53.24,21.68-17.62,51.39-32.83,88.29-45.19s78.74-21.11,124.15-25.92a785.64,785.64,0,0,1,136-2.34c45.88,3.14,89.51,10,129.7,20.47,41,10.66,76.49,24.55,105.49,41.3C820.48,426,845.49,458.17,845.4,490.68Z"/>
    </clipPath>
    <clipPath id="clip-path-5">
      <path class="cls-1" d="M925.42,490.77l-.11,40.76a92.24,92.24,0,0,1-2.21,19.67c-5.87,26.46-23,51.41-51,74.17l.12-40.76c28-22.76,45.17-47.71,51-74.17A92.22,92.22,0,0,0,925.42,490.77Z"/>
    </clipPath>
    <clipPath id="clip-path-6">
      <path class="cls-1" d="M71.24,518.18l.12-40.75c-.06,18.77,5.77,37.44,17.44,55.71,16,25,42.26,48.23,78.13,69,70.57,40.74,170.87,67.37,282.45,75,111.19,7.6,221.12-4.52,309.53-34.15,46.83-15.69,84.93-35.32,113.27-58.34l-.12,40.76c-28.33,23-66.44,42.65-113.27,58.34-88.41,29.63-198.33,41.75-309.53,34.15-111.57-7.64-211.88-34.28-282.44-75-35.88-20.71-62.16-43.9-78.14-68.94C77,555.62,71.19,537,71.24,518.18Z"/>
    </clipPath>
    <clipPath id="clip-path-7">
      <path class="cls-1" d="M902.63,277.09l-.12,40.76c.1-32.51-24.93-64.67-71.94-91.81-29-16.75-64.49-30.64-105.49-41.29-40.18-10.44-83.82-17.33-129.7-20.47a786.66,786.66,0,0,0-136,2.33c-45.41,4.81-87.17,13.53-124.14,25.92s-66.62,27.57-88.29,45.19C226.61,254.22,214.2,272.14,210,291a64.1,64.1,0,0,0-1.53,13.72l.11-40.76a63.49,63.49,0,0,1,1.54-13.72c4.16-18.82,16.58-36.73,36.88-53.24,21.68-17.62,51.38-32.82,88.29-45.19s78.74-21.1,124.15-25.92a786.53,786.53,0,0,1,136-2.33c45.89,3.14,89.53,10,129.7,20.47,41,10.66,76.49,24.55,105.49,41.29C877.7,212.42,902.72,244.58,902.63,277.09Z"/>
    </clipPath>
    <clipPath id="clip-path-8">
      <path class="cls-1" d="M982.65,277.19l-.12,40.75a92.31,92.31,0,0,1-2.2,19.68c-5.87,26.45-23,51.4-51,74.16l.12-40.76c28-22.76,45.16-47.71,51-74.16A91.6,91.6,0,0,0,982.65,277.19Z"/>
    </clipPath>
    <clipPath id="clip-path-9">
      <path class="cls-1" d="M128.47,304.6l.12-40.75c-.06,18.77,5.78,37.43,17.44,55.7,16,25,42.26,48.24,78.14,68.95,70.56,40.74,170.86,67.38,282.44,75,111.19,7.61,221.12-4.52,309.53-34.14C863,413.68,901.07,394.05,929.41,371l-.12,40.76c-28.33,23-66.44,42.66-113.27,58.35-88.4,29.62-198.33,41.75-309.53,34.14-111.57-7.63-211.87-34.27-282.44-75-35.87-20.72-62.16-43.91-78.14-68.95C134.25,342,128.42,323.37,128.47,304.6Z"/>
    </clipPath>
  </defs>
  <title>class</title>
  <g id="class">
    <g>
      <g class="cls-2">
        <g class="cls-2">
          <g class="cls-3">
            <g class="cls-2">
              <path class="cls-4" d="M793.51,684.33l-.12,40.76c.1-32.52-24.92-64.67-71.94-91.82a354.81,354.81,0,0,0-47.59-22.67l.12-40.76a355.4,355.4,0,0,1,47.59,22.67c47,27.15,72,59.3,71.94,91.82"/>
              <path class="cls-5" d="M674,569.84l-.12,40.76q-21.12-8.31-45.05-15.13l.11-40.75q23.91,6.79,45.06,15.12"/>
              <path class="cls-6" d="M628.92,554.72l-.11,40.75q-6.33-1.8-12.85-3.49-15.08-3.91-30.78-7.17l.12-40.76q15.69,3.26,30.78,7.17c4.34,1.13,8.63,2.29,12.84,3.5"/>
              <path class="cls-7" d="M585.3,544.05l-.12,40.76q-21.1-4.37-43.24-7.5l.11-40.76q22.11,3.13,43.25,7.5"/>
              <path class="cls-8" d="M542.05,536.55l-.11,40.76q-21.83-3.09-44.52-5l.11-40.76q22.68,1.88,44.52,5"/>
              <path class="cls-9" d="M497.53,531.59l-.11,40.76q-5.55-.47-11.15-.84-17.52-1.2-35-1.64l.12-40.75q17.44.43,35,1.63,5.6.39,11.14.84"/>
              <path class="cls-10" d="M451.4,529.12l-.12,40.75q-23.52-.58-46.81.21l.12-40.76q23.27-.8,46.81-.2"/>
              <path class="cls-11" d="M404.59,529.32l-.12,40.76q-24.89.84-49.31,3.26l.11-40.76q24.41-2.42,49.32-3.26"/>
              <path class="cls-12" d="M355.27,532.58l-.11,40.76c-1.64.16-3.29.33-4.93.51q-25.16,2.65-48.76,6.91l.11-40.75q23.58-4.25,48.77-6.92c1.64-.18,3.28-.34,4.92-.51"/>
              <path class="cls-13" d="M301.58,540l-.11,40.75a544.74,544.74,0,0,0-69.59,17.11l.11-40.76A543.91,543.91,0,0,1,301.58,540"/>
              <path class="cls-14" d="M232,557.11l-.11,40.76q-2.91.93-5.78,1.89c-25.49,8.54-47.54,18.43-65.88,29.54l.11-40.76c18.35-11.11,40.4-21,65.88-29.54q2.86-1,5.78-1.89"/>
              <path class="cls-13" d="M160.33,588.54l-.11,40.76A198.59,198.59,0,0,0,137.8,645q-4,3.27-7.6,6.59l.11-40.76q3.6-3.33,7.61-6.58a198.09,198.09,0,0,1,22.41-15.66"/>
              <path class="cls-12" d="M130.31,610.78l-.11,40.76a124.4,124.4,0,0,0-13.3,14.3l.12-40.76a124.29,124.29,0,0,1,13.29-14.3"/>
              <path class="cls-11" d="M117,625.08l-.12,40.76a95.44,95.44,0,0,0-8,11.92L109,637a93.39,93.39,0,0,1,8-11.93"/>
              <path class="cls-10" d="M109,637l-.12,40.75a79.09,79.09,0,0,0-5.15,11l.12-40.76A77.85,77.85,0,0,1,109,637"/>
              <path class="cls-9" d="M103.84,648l-.12,40.76a69.53,69.53,0,0,0-2.81,9.43c-.1.44-.19.88-.28,1.32l.12-40.75c.09-.45.18-.89.28-1.33a69.53,69.53,0,0,1,2.81-9.43"/>
              <path class="cls-8" d="M100.75,658.76l-.12,40.75a65.46,65.46,0,0,0-1.23,10.74l.12-40.76a63.12,63.12,0,0,1,1.23-10.73"/>
              <path class="cls-7" d="M99.52,669.49l-.12,40.76c0,.55,0,1.1,0,1.66l.11-40.76c0-.55,0-1.11,0-1.66"/>
            </g>
          </g>
        </g>
        <g class="cls-2">
          <g class="cls-15">
            <g class="cls-2">
              <path class="cls-7" d="M873.53,684.4l-.11,40.76c0,.79,0,1.58,0,2.37l.12-40.76q0-1.18,0-2.37"/>
              <path class="cls-8" d="M873.5,686.77l-.12,40.76A92.25,92.25,0,0,1,871.61,743l.11-40.76a91.12,91.12,0,0,0,1.78-15.42"/>
              <path class="cls-9" d="M871.72,702.19,871.61,743c-.13.63-.26,1.26-.4,1.9a100,100,0,0,1-4,13.46l.12-40.76a100,100,0,0,0,4-13.46c.14-.63.28-1.27.4-1.9"/>
              <path class="cls-10" d="M867.32,717.55l-.12,40.76a109.74,109.74,0,0,1-7.27,15.51l.12-40.76a110.87,110.87,0,0,0,7.27-15.51"/>
              <path class="cls-11" d="M860.05,733.06l-.12,40.76a131.08,131.08,0,0,1-11.18,16.62l.12-40.76a132.15,132.15,0,0,0,11.18-16.62"/>
              <path class="cls-12" d="M848.87,749.68l-.12,40.76a169.67,169.67,0,0,1-18.25,19.63l.12-40.76a170.55,170.55,0,0,0,18.25-19.63"/>
              <path class="cls-13" d="M830.62,769.31l-.12,40.76q-4.89,4.53-10.32,8.94l.11-40.75q5.44-4.43,10.33-9"/>
            </g>
          </g>
        </g>
        <path class="cls-16" d="M820.29,778.26C792,801.28,753.85,820.91,707,836.6c-88.42,29.62-198.34,41.75-309.54,34.14-111.57-7.63-211.88-34.27-282.44-75-35.87-20.71-62.16-43.91-78.14-69-15.73-24.65-20.86-50-15.23-75.4,5.86-26.44,23-51.4,51-74.16,28.34-23,66.44-42.66,113.27-58.34,88.41-29.63,198.34-41.75,309.53-34.15,111.57,7.64,211.88,34.28,282.44,75,35.88,20.71,62.16,43.9,78.14,68.94,15.74,24.65,20.86,50,15.23,75.4C865.46,730.54,848.29,755.5,820.29,778.26ZM666.8,796.47c36.91-12.36,66.61-27.57,88.29-45.19,20.3-16.5,32.71-34.41,36.89-53.24,8.22-37.09-16.79-74.57-70.41-105.53-29-16.74-64.5-30.63-105.49-41.29-40.18-10.44-83.82-17.33-129.69-20.47a785.75,785.75,0,0,0-136,2.34C305,537.9,263.18,546.62,226.21,559s-66.62,27.58-88.29,45.2c-20.31,16.5-32.72,34.41-36.89,53.23C92.8,694.53,117.81,732,171.44,763c29,16.73,64.48,30.63,105.49,41.29,40.18,10.44,83.81,17.33,129.69,20.47a786.75,786.75,0,0,0,136-2.34c45.4-4.81,87.17-13.53,124.14-25.92"/>
        <g class="cls-2">
          <g class="cls-17">
            <g class="cls-2">
              <path class="cls-13" d="M820.29,778.26,820.18,819a263.62,263.62,0,0,1-29.76,20.8l.11-40.76a263.06,263.06,0,0,0,29.76-20.79"/>
              <path class="cls-14" d="M790.53,799.05l-.11,40.76c-23.53,14.24-51.48,26.82-83.51,37.55-2.22.74-4.46,1.48-6.7,2.2l.11-40.76c2.25-.72,4.48-1.45,6.71-2.2,32-10.73,60-23.3,83.5-37.55"/>
              <path class="cls-13" d="M700.32,838.8l-.11,40.76a666.86,666.86,0,0,1-85.22,21l.11-40.76a664.78,664.78,0,0,0,85.22-21"/>
              <path class="cls-12" d="M615.1,859.79,615,900.55c-20.62,3.71-41.87,6.66-63.57,8.81l.11-40.76c21.71-2.15,43-5.1,63.57-8.81"/>
              <path class="cls-11" d="M551.53,868.6l-.11,40.76c-18.94,1.88-38.22,3.16-57.73,3.82l.12-40.76c19.51-.66,38.79-1.94,57.72-3.82"/>
              <path class="cls-10" d="M493.81,872.42l-.12,40.76q-27.35.93-55.2.24l.12-40.76q27.81.71,55.2-.24"/>
              <path class="cls-9" d="M438.61,872.66l-.12,40.76q-20.49-.51-41.11-1.92-6.58-.45-13.12-1l.11-40.76q6.54.54,13.12,1,20.61,1.41,41.12,1.92"/>
              <path class="cls-8" d="M384.37,869.75l-.11,40.76q-26.76-2.21-52.51-5.86l.12-40.75q25.71,3.63,52.5,5.85"/>
              <path class="cls-7" d="M331.87,863.9l-.12,40.75q-26.26-3.72-51.24-8.88l.12-40.76q24.92,5.15,51.24,8.89"/>
              <path class="cls-6" d="M280.63,855l-.12,40.76q-26.6-5.5-51.41-12.57l.11-40.76q24.78,7,51.42,12.57"/>
              <path class="cls-5" d="M229.21,842.44l-.11,40.76c-19.21-5.47-37.54-11.63-54.81-18.43L174.4,824c17.28,6.79,35.6,13,54.81,18.42"/>
              <path class="cls-4" d="M174.4,824l-.11,40.75a443.4,443.4,0,0,1-59.35-28.28c-35.88-20.71-62.17-43.91-78.14-69-11.66-18.27-17.5-36.94-17.45-55.72l.12-40.75c-.06,18.77,5.78,37.44,17.44,55.71,16,25,42.27,48.24,78.14,69A444,444,0,0,0,174.4,824"/>
            </g>
          </g>
        </g>
      </g>
      <g class="cls-2">
        <g class="cls-2">
          <g class="cls-18">
            <g class="cls-2">
              <path class="cls-4" d="M845.4,490.68l-.12,40.76c.09-32.52-24.92-64.67-71.93-91.82A356.48,356.48,0,0,0,725.77,417l.11-40.76a354.09,354.09,0,0,1,47.58,22.67c47,27.14,72,59.3,71.94,91.81"/>
              <path class="cls-5" d="M725.88,376.2,725.77,417q-21.12-8.31-45.07-15.13l.11-40.76q23.93,6.81,45.07,15.13"/>
              <path class="cls-6" d="M680.81,361.07l-.11,40.76q-6.33-1.8-12.85-3.5-15.08-3.91-30.8-7.17l.12-40.76q15.71,3.25,30.8,7.17c4.34,1.13,8.63,2.3,12.84,3.5"/>
              <path class="cls-7" d="M637.17,350.4l-.12,40.76q-21.09-4.37-43.22-7.5l.12-40.75Q616,346,637.17,350.4"/>
              <path class="cls-8" d="M594,342.91l-.12,40.75q-21.8-3.07-44.46-5l.11-40.76q22.65,1.86,44.47,5"/>
              <path class="cls-9" d="M549.48,338l-.11,40.76q-5.6-.46-11.22-.85-17.53-1.2-35-1.63l.12-40.76q17.46.43,35,1.63,5.63.39,11.21.85"/>
              <path class="cls-10" d="M503.26,335.47l-.12,40.76q-23.52-.6-46.82.2l.12-40.76q23.26-.8,46.82-.2"/>
              <path class="cls-11" d="M456.44,335.67l-.12,40.76q-24.87.84-49.29,3.26l.11-40.76q24.39-2.42,49.3-3.26"/>
              <path class="cls-12" d="M407.14,338.93,407,379.69c-1.64.16-3.27.33-4.91.51q-25.15,2.66-48.76,6.91l.12-40.75q23.58-4.25,48.76-6.92c1.63-.18,3.26-.34,4.9-.51"/>
              <path class="cls-13" d="M353.48,346.36l-.12,40.75a545.15,545.15,0,0,0-69.59,17.11l.11-40.76a543.65,543.65,0,0,1,69.6-17.1"/>
              <path class="cls-14" d="M283.88,363.46l-.11,40.76c-1.94.62-3.88,1.25-5.79,1.89-25.49,8.54-47.54,18.44-65.89,29.55l.12-40.76c18.35-11.11,40.4-21,65.88-29.54q2.88-1,5.79-1.9"/>
              <path class="cls-13" d="M212.21,394.9l-.12,40.76a197.86,197.86,0,0,0-22.4,15.64q-4,3.26-7.6,6.59l.11-40.76q3.6-3.33,7.6-6.58a196.77,196.77,0,0,1,22.41-15.65"/>
              <path class="cls-12" d="M182.2,417.13l-.11,40.76a123.41,123.41,0,0,0-13.29,14.29l.11-40.76a123.41,123.41,0,0,1,13.29-14.29"/>
              <path class="cls-11" d="M168.91,431.42l-.11,40.76a95.28,95.28,0,0,0-8,11.93l.12-40.76a96.27,96.27,0,0,1,8-11.93"/>
              <path class="cls-10" d="M160.88,443.35l-.12,40.76a79.2,79.2,0,0,0-5.15,11l.11-40.76a78.14,78.14,0,0,1,5.16-11"/>
              <path class="cls-9" d="M155.72,454.36l-.11,40.76a69.11,69.11,0,0,0-2.81,9.43c-.1.43-.19.87-.28,1.3l.12-40.75c.08-.44.18-.88.27-1.31a71,71,0,0,1,2.81-9.43"/>
              <path class="cls-8" d="M152.64,465.1l-.12,40.75a63.47,63.47,0,0,0-1.23,10.75l.12-40.76a63.35,63.35,0,0,1,1.23-10.74"/>
              <path class="cls-7" d="M151.41,475.84l-.12,40.76c0,.55,0,1.1,0,1.66l.12-40.76c0-.55,0-1.11,0-1.66"/>
            </g>
          </g>
        </g>
        <g class="cls-2">
          <g class="cls-19">
            <g class="cls-2">
              <path class="cls-7" d="M925.42,490.77l-.11,40.76c0,.79,0,1.58,0,2.37l.12-40.76q0-1.18,0-2.37"/>
              <path class="cls-8" d="M925.39,493.14l-.12,40.76a91.9,91.9,0,0,1-1.77,15.4l.12-40.76a91.78,91.78,0,0,0,1.77-15.4"/>
              <path class="cls-9" d="M923.62,508.54l-.12,40.76c-.13.64-.26,1.27-.4,1.9a99.27,99.27,0,0,1-4,13.44l.11-40.75a99.88,99.88,0,0,0,4-13.45c.14-.63.27-1.26.4-1.9"/>
              <path class="cls-10" d="M919.21,523.89l-.11,40.75a111,111,0,0,1-7.27,15.52L912,539.4a109.67,109.67,0,0,0,7.26-15.51"/>
              <path class="cls-11" d="M912,539.4l-.12,40.76a133.24,133.24,0,0,1-11.18,16.62l.11-40.76A132.25,132.25,0,0,0,912,539.4"/>
              <path class="cls-12" d="M900.76,556l-.11,40.76a170.67,170.67,0,0,1-18.26,19.64l.12-40.76A170.62,170.62,0,0,0,900.76,556"/>
              <path class="cls-13" d="M882.51,575.66l-.12,40.76q-4.89,4.53-10.33,9l.12-40.76q5.43-4.43,10.33-9"/>
            </g>
          </g>
        </g>
        <path class="cls-16" d="M872.18,584.61c-28.34,23-66.44,42.65-113.27,58.34C670.5,672.58,560.57,684.7,449.38,677.1c-111.58-7.64-211.88-34.27-282.45-75-35.87-20.72-62.16-43.91-78.13-69-15.74-24.65-20.86-50-15.23-75.4,5.86-26.45,23-51.41,51-74.17,28.33-23,66.44-42.65,113.27-58.34,88.41-29.62,198.33-41.75,309.52-34.14,111.58,7.63,211.89,34.27,282.46,75C865.71,386.81,892,410,908,435c15.73,24.65,20.86,50,15.24,75.4C917.35,536.9,900.17,561.85,872.18,584.61ZM594.54,628.74c45.4-4.81,87.17-13.53,124.14-25.92s66.61-27.57,88.29-45.19c20.31-16.5,32.72-34.41,36.89-53.23,8.22-37.1-16.78-74.58-70.4-105.53-29-16.75-64.49-30.64-105.49-41.3-40.19-10.44-83.82-17.33-129.7-20.47a785.64,785.64,0,0,0-136,2.34c-45.41,4.81-87.18,13.53-124.15,25.92s-66.61,27.57-88.29,45.19c-20.3,16.5-32.71,34.41-36.89,53.24-8.21,37.09,16.78,74.57,70.41,105.53,29,16.74,64.49,30.63,105.49,41.29,40.18,10.44,83.82,17.33,129.7,20.47a785.65,785.65,0,0,0,136-2.34"/>
        <g class="cls-2">
          <g class="cls-20">
            <g class="cls-2">
              <path class="cls-13" d="M872.18,584.61l-.12,40.76a264.88,264.88,0,0,1-29.76,20.79l.12-40.75a264.92,264.92,0,0,0,29.76-20.8"/>
              <path class="cls-14" d="M842.42,605.41l-.12,40.75c-23.53,14.25-51.48,26.82-83.51,37.55q-3.35,1.13-6.73,2.21l.12-40.76q3.39-1.08,6.73-2.21c32-10.73,60-23.3,83.51-37.54"/>
              <path class="cls-13" d="M752.18,645.16l-.12,40.76a664.31,664.31,0,0,1-85.19,21l.12-40.76a664.72,664.72,0,0,0,85.19-21"/>
              <path class="cls-12" d="M667,666.14l-.12,40.76c-20.61,3.72-41.86,6.66-63.57,8.81l.12-40.75c21.71-2.16,43-5.1,63.57-8.82"/>
              <path class="cls-11" d="M603.42,675l-.12,40.75c-18.93,1.88-38.22,3.16-57.74,3.82l.12-40.75q29.28-1,57.74-3.82"/>
              <path class="cls-10" d="M545.68,678.78l-.12,40.75q-27.36.93-55.23.24l.12-40.75q27.82.69,55.23-.24"/>
              <path class="cls-9" d="M490.45,679l-.12,40.75q-20.46-.51-41.07-1.91-6.56-.45-13.06-1l.12-40.76q6.49.54,13.06,1Q470,678.51,490.45,679"/>
              <path class="cls-8" d="M436.32,676.11l-.12,40.76q-26.77-2.21-52.54-5.86l.12-40.76q25.73,3.64,52.54,5.86"/>
              <path class="cls-7" d="M383.78,670.25,383.66,711q-26.28-3.72-51.26-8.89l.11-40.76q24.94,5.16,51.27,8.89"/>
              <path class="cls-6" d="M332.51,661.36l-.11,40.76c-17.73-3.67-34.91-7.87-51.42-12.57l.11-40.76q24.78,7.07,51.42,12.57"/>
              <path class="cls-5" d="M281.09,648.79,281,689.55c-19.22-5.47-37.54-11.63-54.82-18.42l.12-40.76c17.28,6.79,35.6,13,54.81,18.42"/>
              <path class="cls-4" d="M226.28,630.37l-.12,40.76a443.86,443.86,0,0,1-59.34-28.29c-35.88-20.71-62.16-43.9-78.14-68.94C77,555.62,71.19,537,71.24,518.18l.12-40.75c-.06,18.77,5.77,37.44,17.44,55.71,16,25,42.26,48.23,78.13,69a444.63,444.63,0,0,0,59.35,28.28"/>
            </g>
          </g>
        </g>
      </g>
      <g class="cls-2">
        <g class="cls-2">
          <g class="cls-21">
            <g class="cls-2">
              <path class="cls-4" d="M902.63,277.09l-.12,40.76c.1-32.51-24.93-64.67-71.94-91.81A355.26,355.26,0,0,0,783,203.37l.11-40.76a354.09,354.09,0,0,1,47.58,22.67c47,27.14,72,59.3,72,91.81"/>
              <path class="cls-5" d="M783.1,162.61,783,203.37q-21.12-8.31-45.06-15.13l.12-40.75q23.91,6.8,45.05,15.12"/>
              <path class="cls-6" d="M738.05,147.49l-.12,40.75q-6.33-1.8-12.85-3.49-15.09-3.93-30.79-7.17l.11-40.76q15.71,3.24,30.79,7.17,6.52,1.69,12.86,3.5"/>
              <path class="cls-7" d="M694.4,136.82l-.11,40.76q-21.1-4.37-43.22-7.5l.12-40.76q22.09,3.13,43.21,7.5"/>
              <path class="cls-8" d="M651.19,129.32l-.12,40.76q-21.8-3.09-44.47-5l.12-40.75q22.63,1.86,44.47,4.95"/>
              <path class="cls-9" d="M606.72,124.37l-.12,40.75c-3.72-.3-7.47-.58-11.22-.84q-17.53-1.2-35-1.64l.12-40.76q17.46.45,35,1.64,5.64.39,11.23.85"/>
              <path class="cls-10" d="M560.48,121.88l-.12,40.76q-23.5-.58-46.79.2l.11-40.75q23.27-.8,46.8-.21"/>
              <path class="cls-11" d="M513.68,122.09l-.11,40.75q-24.89.85-49.31,3.27l.11-40.76q24.4-2.41,49.31-3.26"/>
              <path class="cls-12" d="M464.37,125.35l-.11,40.76-4.91.5q-25.16,2.67-48.76,6.92l.11-40.76q23.58-4.25,48.77-6.92l4.9-.5"/>
              <path class="cls-13" d="M410.7,132.77l-.11,40.76a545.33,545.33,0,0,0-69.6,17.1l.11-40.75a545.73,545.73,0,0,1,69.6-17.11"/>
              <path class="cls-14" d="M341.1,149.88,341,190.63q-2.91.94-5.78,1.9c-25.49,8.54-47.54,18.43-65.88,29.53l.12-40.75c18.34-11.11,40.39-21,65.87-29.54,1.92-.64,3.84-1.27,5.78-1.89"/>
              <path class="cls-13" d="M269.45,181.31l-.12,40.75a199.38,199.38,0,0,0-22.41,15.66q-4,3.25-7.61,6.59l.12-40.76q3.6-3.33,7.6-6.59a198.59,198.59,0,0,1,22.42-15.65"/>
              <path class="cls-12" d="M239.43,203.55l-.12,40.76A123.41,123.41,0,0,0,226,258.6l.12-40.76a123.41,123.41,0,0,1,13.29-14.29"/>
              <path class="cls-11" d="M226.14,217.84,226,258.6a95.08,95.08,0,0,0-8,11.92l.12-40.75a94.1,94.1,0,0,1,8-11.93"/>
              <path class="cls-10" d="M218.11,229.77,218,270.52a79,79,0,0,0-5.15,11l.12-40.76a78.87,78.87,0,0,1,5.15-11"/>
              <path class="cls-9" d="M213,240.75l-.12,40.76A69.37,69.37,0,0,0,210,291c-.09.43-.19.87-.27,1.3l.11-40.76c.09-.43.18-.87.28-1.3a70.23,70.23,0,0,1,2.81-9.45"/>
              <path class="cls-8" d="M209.87,251.5l-.11,40.76A64.76,64.76,0,0,0,208.52,303l.12-40.76a63.7,63.7,0,0,1,1.23-10.76"/>
              <path class="cls-7" d="M208.64,262.26,208.52,303c0,.56,0,1.11,0,1.66l.11-40.76c0-.55,0-1.1,0-1.66"/>
            </g>
          </g>
        </g>
        <g class="cls-2">
          <g class="cls-22">
            <g class="cls-2">
              <path class="cls-7" d="M982.65,277.19l-.12,40.75c0,.79,0,1.59,0,2.38l.12-40.76c0-.79,0-1.58,0-2.37"/>
              <path class="cls-8" d="M982.61,279.56l-.12,40.76a91.88,91.88,0,0,1-1.76,15.4l.11-40.76a91.9,91.9,0,0,0,1.77-15.4"/>
              <path class="cls-9" d="M980.84,295l-.11,40.76c-.13.63-.26,1.26-.4,1.9a101.61,101.61,0,0,1-4,13.44l.11-40.76a99.69,99.69,0,0,0,4-13.44c.14-.63.28-1.27.4-1.9"/>
              <path class="cls-10" d="M976.44,310.3l-.11,40.76a111,111,0,0,1-7.28,15.52l.12-40.76a111,111,0,0,0,7.27-15.52"/>
              <path class="cls-11" d="M969.17,325.82l-.12,40.76a131.08,131.08,0,0,1-11.18,16.62l.11-40.76a131.53,131.53,0,0,0,11.19-16.62"/>
              <path class="cls-12" d="M958,342.44l-.11,40.76a171.44,171.44,0,0,1-18.25,19.64l.11-40.76A168.06,168.06,0,0,0,958,342.44"/>
              <path class="cls-13" d="M939.73,362.08l-.11,40.76q-4.89,4.52-10.33,8.94l.12-40.76q5.43-4.41,10.32-8.94"/>
            </g>
          </g>
        </g>
        <path class="cls-16" d="M929.41,371c-28.34,23-66.44,42.66-113.27,58.35C727.73,459,617.8,471.12,506.61,463.51c-111.58-7.63-211.88-34.27-282.44-75C188.29,367.79,162,344.59,146,319.55c-15.73-24.65-20.86-50-15.23-75.4,5.86-26.45,23-51.4,51-74.16,28.33-23,66.44-42.66,113.27-58.35C383.51,82,493.43,69.9,604.63,77.5c111.57,7.64,211.87,34.27,282.44,75,35.87,20.72,62.16,43.91,78.14,69,15.73,24.65,20.85,50,15.23,75.4C974.57,323.31,957.41,348.26,929.41,371Zm-153.5,18.22c36.91-12.37,66.62-27.57,88.29-45.19,20.31-16.51,32.72-34.41,36.89-53.24,8.23-37.09-16.78-74.57-70.41-105.53-29-16.74-64.48-30.63-105.49-41.29-40.17-10.44-83.81-17.33-129.7-20.47a786.53,786.53,0,0,0-136,2.33c-45.41,4.82-87.18,13.53-124.15,25.92S268.71,179.34,247,197c-20.3,16.51-32.72,34.42-36.88,53.24-8.23,37.1,16.77,74.57,70.4,105.54,29,16.74,64.5,30.63,105.49,41.28,40.18,10.45,83.82,17.33,129.69,20.47a786.76,786.76,0,0,0,136-2.33c45.41-4.82,87.17-13.53,124.14-25.92"/>
        <g class="cls-2">
          <g class="cls-23">
            <g class="cls-2">
              <path class="cls-13" d="M929.41,371l-.12,40.76a262.72,262.72,0,0,1-29.76,20.8l.12-40.76A263.62,263.62,0,0,0,929.41,371"/>
              <path class="cls-14" d="M899.65,391.82l-.12,40.76C876,446.82,848.05,459.4,816,470.13c-2.23.75-4.48,1.48-6.74,2.21l.12-40.76c2.26-.73,4.51-1.46,6.74-2.21,32-10.73,60-23.3,83.51-37.55"/>
              <path class="cls-13" d="M809.4,431.58l-.12,40.76a665.82,665.82,0,0,1-85.18,21l.12-40.76a664.57,664.57,0,0,0,85.18-21"/>
              <path class="cls-12" d="M724.22,452.56l-.12,40.76c-20.61,3.71-41.85,6.66-63.56,8.81l.12-40.76c21.7-2.15,43-5.1,63.56-8.81"/>
              <path class="cls-11" d="M660.66,461.37l-.12,40.76c-18.93,1.88-38.21,3.16-57.72,3.82l.12-40.76c19.51-.66,38.79-1.94,57.72-3.82"/>
              <path class="cls-10" d="M602.94,465.19,602.82,506q-27.35.93-55.2.24l.11-40.76c18.54.46,37,.38,55.21-.24"/>
              <path class="cls-9" d="M547.73,465.43l-.11,40.76q-20.5-.51-41.13-1.92-6.58-.45-13.11-1l.11-40.76q6.54.54,13.12,1,20.61,1.41,41.12,1.92"/>
              <path class="cls-8" d="M493.49,462.52l-.11,40.76q-26.76-2.2-52.51-5.86l.11-40.76q25.71,3.64,52.51,5.86"/>
              <path class="cls-7" d="M441,456.66l-.11,40.76q-26.28-3.72-51.24-8.89l.11-40.76q24.93,5.16,51.24,8.89"/>
              <path class="cls-6" d="M389.74,447.77l-.11,40.76Q363,483,338.22,476l.11-40.76q24.78,7.05,51.41,12.56"/>
              <path class="cls-5" d="M338.33,435.21,338.22,476c-19.21-5.48-37.54-11.63-54.81-18.43l.11-40.76c17.28,6.8,35.6,13,54.81,18.43"/>
              <path class="cls-4" d="M283.52,416.78l-.11,40.76a443.55,443.55,0,0,1-59.36-28.28c-35.87-20.72-62.16-43.91-78.14-68.95-11.66-18.27-17.49-36.94-17.44-55.71l.12-40.75c-.06,18.77,5.78,37.43,17.44,55.7,16,25,42.26,48.24,78.14,68.95a443.4,443.4,0,0,0,59.35,28.28"/>
            </g>
          </g>
        </g>
      </g>
    </g>
  </g>
</svg>
