<svg xmlns="http://www.w3.org/2000/svg" xmlns:xlink="http://www.w3.org/1999/xlink" viewBox="0 0 1000 1000">
  <defs>
    <style>
      .cls-1 {
        fill: none;
      }

      .cls-2 {
        isolation: isolate;
      }

      .cls-3 {
        clip-path: url(#clip-path);
      }

      .cls-4 {
        fill: #858585;
      }

      .cls-5 {
        fill: #8a8a8a;
      }

      .cls-6 {
        fill: #8f8f8f;
      }

      .cls-7 {
        fill: #949494;
      }

      .cls-8 {
        fill: #999;
      }

      .cls-9 {
        fill: #9e9e9e;
      }

      .cls-10 {
        fill: #a3a3a3;
      }

      .cls-11 {
        fill: #a8a8a8;
      }

      .cls-12 {
        fill: #adadad;
      }

      .cls-13 {
        fill: #b3b3b3;
      }

      .cls-14 {
        fill: #b8b8b8;
      }

      .cls-15 {
        fill: #bdbdbd;
      }

      .cls-16 {
        fill: #c2c2c2;
      }

      .cls-17 {
        fill: #c7c7c7;
      }

      .cls-18 {
        fill: #ccc;
      }

      .cls-19 {
        fill: #d1d1d1;
      }

      .cls-20 {
        fill: #d6d6d6;
      }

      .cls-21 {
        fill: #dbdbdb;
      }

      .cls-22 {
        fill: #e0e0e0;
      }

      .cls-23 {
        fill: #e6e6e6;
      }

      .cls-24 {
        fill: #ebebeb;
      }

      .cls-25 {
        fill: #f0f0f0;
      }

      .cls-26 {
        fill: #f5f5f5;
      }

      .cls-27 {
        fill: #fafafa;
      }

      .cls-28 {
        fill: #fff;
      }

      .cls-29 {
        fill: #898989;
      }

      .cls-30 {
        clip-path: url(#clip-path-2);
      }

      .cls-31 {
        clip-path: url(#clip-path-3);
      }
    </style>
    <clipPath id="clip-path">
      <path class="cls-1" d="M447.69,380.88l35.23-20.48c-17.18,10-30.3,26.86-36.53,49.7C430.64,467.85,465,541.85,523,575.38c35.11,20.27,70.87,21.11,97.15,5.84L584.94,601.7c-26.28,15.27-62,14.43-97.15-5.84-58.08-33.53-92.39-107.53-76.64-165.28C417.38,407.74,430.5,390.87,447.69,380.88Z"/>
    </clipPath>
    <clipPath id="clip-path-2">
      <path class="cls-1" d="M199.65,268.34l35.24-20.48c100.35-58.32,236.85-55.07,370.87,22.31l-35.24,20.48C436.5,213.27,300,210,199.65,268.34Z"/>
    </clipPath>
    <clipPath id="clip-path-3">
      <path class="cls-1" d="M570.52,290.65l35.24-20.48C827.58,398.23,958.63,680.86,898.47,901.43l-35.24,20.48C923.39,701.34,792.34,418.71,570.52,290.65Z"/>
    </clipPath>
  </defs>
  <title>constructor</title>
  <g id="constructor-2" data-name="constructor">
    <g class="cls-2">
      <g class="cls-2">
        <g class="cls-3">
          <g class="cls-2">
            <path class="cls-4" d="M447.69,380.88l35.23-20.48a75.29,75.29,0,0,0-25.69,24.84L422,405.72a75.23,75.23,0,0,1,25.7-24.84"/>
            <path class="cls-5" d="M422,405.72l35.24-20.48a85.59,85.59,0,0,0-5.06,9.15l-35.24,20.48a84.63,84.63,0,0,1,5.06-9.15"/>
            <path class="cls-6" d="M416.93,414.87l35.24-20.48c-1.13,2.39-2.18,4.86-3.13,7.43L413.8,422.3c1-2.57,2-5,3.13-7.43"/>
            <path class="cls-7" d="M413.8,422.3,449,401.82c-.77,2.08-1.48,4.23-2.13,6.43l-35.23,20.48c.64-2.2,1.35-4.35,2.12-6.43"/>
            <path class="cls-8" d="M411.68,428.73l35.23-20.48c-.17.61-.35,1.23-.52,1.85-.37,1.36-.71,2.72-1,4.09l-35.24,20.48c.32-1.37.66-2.73,1-4.09.17-.62.35-1.24.53-1.85"/>
            <path class="cls-9" d="M410.12,434.67l35.24-20.48c-.42,1.86-.8,3.73-1.12,5.62L409,440.29c.32-1.89.7-3.76,1.12-5.62"/>
            <path class="cls-10" d="M409,440.29l35.24-20.48c-.3,1.68-.55,3.37-.76,5.07l-35.24,20.48c.21-1.7.46-3.39.76-5.07"/>
            <path class="cls-11" d="M408.24,445.36l35.24-20.48c-.21,1.63-.38,3.27-.52,4.92l-35.24,20.48c.14-1.65.31-3.29.52-4.92"/>
            <path class="cls-12" d="M407.72,450.28,443,429.8c-.12,1.55-.22,3.1-.29,4.66l-35.24,20.48c.07-1.56.17-3.11.29-4.66"/>
            <path class="cls-13" d="M407.43,454.94l35.24-20.48c-.06,1.51-.1,3-.1,4.54l-35.24,20.47c0-1.51,0-3,.1-4.53"/>
            <path class="cls-14" d="M407.33,459.47,442.57,439c0,1.45,0,2.91.05,4.37l-35.24,20.48c0-1.46-.06-2.92-.05-4.38"/>
            <path class="cls-15" d="M407.38,463.85l35.24-20.48c0,1.44.11,2.89.2,4.33l-35.24,20.48c-.09-1.44-.16-2.89-.2-4.33"/>
            <path class="cls-16" d="M407.58,468.18l35.24-20.48q.14,2.12.33,4.23l-35.24,20.48q-.2-2.12-.33-4.23"/>
            <path class="cls-17" d="M407.91,472.41l35.24-20.48c.14,1.4.29,2.81.47,4.22l-35.24,20.48c-.18-1.41-.33-2.82-.47-4.22"/>
            <path class="cls-18" d="M408.38,476.63l35.24-20.48q.27,2.09.6,4.17L409,480.8q-.33-2.08-.6-4.17"/>
            <path class="cls-19" d="M409,480.8l35.24-20.48q.33,2.08.72,4.17L409.7,485q-.39-2.09-.72-4.17"/>
            <path class="cls-20" d="M409.7,485l35.24-20.48c.26,1.39.54,2.77.84,4.16l-35.24,20.48c-.3-1.39-.58-2.77-.84-4.16"/>
            <path class="cls-21" d="M410.54,489.13l35.24-20.48c.3,1.38.62,2.77,1,4.15l-35.24,20.48c-.35-1.38-.67-2.77-1-4.15"/>
            <path class="cls-22" d="M411.51,493.28l35.24-20.48c.33,1.36.69,2.71,1.06,4.07l-35.24,20.48c-.37-1.36-.73-2.71-1.06-4.07"/>
            <path class="cls-23" d="M412.57,497.35l35.24-20.48c.38,1.34.77,2.67,1.17,4l-35.23,20.48c-.41-1.34-.8-2.67-1.18-4"/>
            <path class="cls-24" d="M413.75,501.36,449,480.88c.4,1.3.82,2.6,1.25,3.9L415,505.26c-.43-1.3-.85-2.6-1.24-3.9"/>
            <path class="cls-25" d="M415,505.26l35.24-20.48c.42,1.23.84,2.46,1.29,3.68l-35.24,20.48c-.45-1.22-.87-2.45-1.29-3.68"/>
            <path class="cls-26" d="M416.28,508.94l35.24-20.48c.44,1.23.9,2.45,1.37,3.67l-35.24,20.48c-.47-1.22-.93-2.44-1.37-3.67"/>
            <path class="cls-27" d="M417.65,512.61l35.24-20.48c.45,1.16.92,2.32,1.4,3.47l-35.24,20.48c-.48-1.15-.95-2.31-1.4-3.47"/>
            <path class="cls-28" d="M419.05,516.08l35.24-20.48c.47,1.15,1,2.28,1.46,3.42L420.51,519.5c-.5-1.14-1-2.28-1.46-3.42"/>
            <path class="cls-28" d="M420.51,519.5,455.75,499q.78,1.75,1.59,3.48L422.1,523c-.54-1.15-1.07-2.32-1.59-3.48"/>
            <path class="cls-28" d="M422.1,523l35.24-20.48c.61,1.3,1.24,2.6,1.88,3.88L424,526.86c-.64-1.29-1.27-2.58-1.88-3.88"/>
            <path class="cls-28" d="M424,526.86l35.24-20.48c.64,1.29,1.31,2.57,2,3.84L426,530.7c-.67-1.27-1.34-2.55-2-3.84"/>
            <path class="cls-28" d="M426,530.7l35.24-20.48q1.91,3.57,4,7.07L430,537.77q-2.08-3.49-4-7.07"/>
            <path class="cls-28" d="M430,537.77l35.23-20.48q2.06,3.45,4.27,6.81l-35.24,20.47q-2.22-3.35-4.26-6.8"/>
            <path class="cls-28" d="M434.21,544.57l35.24-20.47q2.43,3.69,5.07,7.28l-35.24,20.48q-2.64-3.58-5.07-7.29"/>
            <path class="cls-28" d="M439.28,551.86l35.24-20.48q1.68,2.28,3.44,4.52l-35.24,20.48q-1.75-2.24-3.44-4.52"/>
            <path class="cls-28" d="M442.72,556.38,478,535.9c.94,1.19,1.89,2.36,2.85,3.53l-35.24,20.48c-1-1.17-1.91-2.34-2.85-3.53"/>
            <path class="cls-28" d="M445.57,559.91l35.24-20.48q1.45,1.74,2.95,3.44l-35.24,20.48q-1.5-1.7-2.95-3.44"/>
            <path class="cls-28" d="M448.52,563.35l35.24-20.48q1.53,1.75,3.12,3.46l-35.24,20.48q-1.59-1.71-3.12-3.46"/>
            <path class="cls-27" d="M451.64,566.81l35.24-20.48q1.59,1.71,3.23,3.39L454.87,570.2q-1.64-1.68-3.23-3.39"/>
            <path class="cls-26" d="M454.87,570.2l35.24-20.48q1.72,1.75,3.51,3.46l-35.24,20.48q-1.78-1.71-3.51-3.46"/>
            <path class="cls-25" d="M458.38,573.66l35.24-20.48c1.21,1.17,2.45,2.31,3.7,3.44L462.08,577.1c-1.25-1.13-2.49-2.27-3.7-3.44"/>
            <path class="cls-24" d="M462.08,577.1l35.24-20.48c1.27,1.15,2.56,2.27,3.87,3.38L466,580.48c-1.31-1.11-2.6-2.23-3.87-3.38"/>
            <path class="cls-23" d="M466,580.48,501.19,560q2,1.66,4,3.27L470,583.75q-2-1.61-4-3.27"/>
            <path class="cls-22" d="M470,583.75l35.24-20.48q2,1.59,4.09,3.11l-35.24,20.48q-2.07-1.51-4.09-3.11"/>
            <path class="cls-21" d="M474.05,586.86l35.24-20.48c1.37,1,2.76,2,4.17,3l-35.24,20.48q-2.12-1.46-4.17-3"/>
            <path class="cls-20" d="M478.22,589.83l35.24-20.48c1.39.95,2.81,1.89,4.24,2.8l-35.24,20.47c-1.43-.9-2.85-1.84-4.24-2.79"/>
            <path class="cls-19" d="M482.46,592.62l35.24-20.47q2.13,1.35,4.32,2.64l-35.24,20.48q-2.19-1.29-4.32-2.65"/>
            <path class="cls-18" d="M486.78,595.27,522,574.79l1,.59c1.14.66,2.28,1.3,3.43,1.92l-35.24,20.48c-1.15-.62-2.29-1.26-3.43-1.92l-1-.59"/>
            <path class="cls-17" d="M491.22,597.78l35.24-20.48c1.49.8,3,1.57,4.46,2.31l-35.24,20.48c-1.49-.74-3-1.51-4.46-2.31"/>
            <path class="cls-16" d="M495.68,600.09l35.24-20.48q2.31,1.14,4.61,2.17l-35.24,20.48q-2.3-1-4.61-2.17"/>
            <path class="cls-15" d="M500.29,602.26l35.24-20.48c1.55.69,3.1,1.35,4.64,2l-35.24,20.48q-2.31-.93-4.64-2"/>
            <path class="cls-14" d="M504.93,604.22l35.24-20.48q2.46,1,4.91,1.85l-35.24,20.48c-1.63-.58-3.27-1.19-4.91-1.85"/>
            <path class="cls-13" d="M509.84,606.07l35.24-20.48c1.67.58,3.33,1.13,5,1.63L514.82,607.7c-1.65-.5-3.31-1.05-5-1.63"/>
            <path class="cls-12" d="M514.82,607.7l35.24-20.48c1.78.53,3.54,1,5.3,1.46l-35.24,20.48c-1.76-.44-3.52-.93-5.3-1.46"/>
            <path class="cls-11" d="M520.12,609.16l35.24-20.48c1.87.46,3.72.87,5.57,1.23l-35.24,20.48c-1.85-.36-3.7-.77-5.57-1.23"/>
            <path class="cls-10" d="M525.69,610.39l35.24-20.48c1.94.38,3.88.7,5.8,1l-35.24,20.48c-1.92-.26-3.86-.58-5.8-1"/>
            <path class="cls-9" d="M531.49,611.35l35.24-20.48c2.14.29,4.26.5,6.36.65L537.85,612c-2.1-.15-4.22-.36-6.36-.65"/>
            <path class="cls-8" d="M537.85,612l35.24-20.48q3.49.24,6.92.23l-35.24,20.48q-3.42,0-6.92-.23"/>
            <path class="cls-7" d="M544.77,612.23,580,591.75q3.88,0,7.66-.37l-35.24,20.48q-3.78.35-7.66.37"/>
            <path class="cls-6" d="M552.43,611.86l35.24-20.48a84.15,84.15,0,0,0,8.75-1.26L561.18,610.6a83.77,83.77,0,0,1-8.75,1.26"/>
            <path class="cls-5" d="M561.18,610.6l35.24-20.48a78.49,78.49,0,0,0,10.85-3L572,607.64a78.52,78.52,0,0,1-10.85,3"/>
            <path class="cls-4" d="M572,607.64l35.24-20.47a75.57,75.57,0,0,0,12.91-5.95L584.94,601.7A74.77,74.77,0,0,1,572,607.64"/>
          </g>
        </g>
      </g>
      <path class="cls-29" d="M570.52,290.65C792.34,418.71,923.39,701.34,863.23,921.91L59.82,458.67C120.12,237.57,348.7,162.58,570.52,290.65Zm51,261.36c15.75-57.76-18.56-131.75-76.64-165.28s-117.93-13.9-133.68,43.85,18.56,131.75,76.64,165.28S605.72,609.76,621.47,552"/>
      <g class="cls-2">
        <g class="cls-30">
          <g class="cls-2">
            <path class="cls-4" d="M199.65,268.34l35.24-20.48a287,287,0,0,1,49.31-22.7L249,245.64a287,287,0,0,0-49.31,22.7"/>
            <path class="cls-5" d="M249,245.64l35.24-20.48a303.35,303.35,0,0,1,41.41-11.29l-35.24,20.48A303.35,303.35,0,0,0,249,245.64"/>
            <path class="cls-6" d="M290.37,234.35l35.24-20.48a320,320,0,0,1,33.4-4.81l-35.24,20.48a320,320,0,0,0-33.4,4.81"/>
            <path class="cls-7" d="M323.77,229.54,359,209.06q14.42-1.32,29.2-1.38L353,228.16q-14.79.06-29.21,1.38"/>
            <path class="cls-8" d="M353,228.16l35.23-20.48q13.08-.06,26.42.86L379.39,229q-13.33-.93-26.41-.86"/>
            <path class="cls-9" d="M379.39,229l35.24-20.48q12.06.84,24.28,2.49l-35.24,20.48q-12.23-1.65-24.28-2.49"/>
            <path class="cls-10" d="M403.67,231.51,438.91,211q11,1.5,22.16,3.65l-35.24,20.48q-11.15-2.16-22.16-3.65"/>
            <path class="cls-11" d="M425.83,235.16l35.24-20.48q10.56,2.06,21.22,4.71l-35.24,20.47q-10.65-2.66-21.22-4.7"/>
            <path class="cls-12" d="M447.05,239.86l35.24-20.47q10.08,2.51,20.23,5.57l-35.24,20.48q-10.14-3.06-20.23-5.58"/>
            <path class="cls-13" d="M467.28,245.44,502.52,225q9.5,2.86,19,6.22l-35.24,20.48q-9.54-3.36-19-6.22"/>
            <path class="cls-14" d="M486.31,251.66l35.24-20.48q9.35,3.28,18.74,7L505.05,258.7q-9.39-3.75-18.74-7"/>
            <path class="cls-15" d="M505.05,258.7l35.24-20.48q8.85,3.54,17.71,7.51l-35.24,20.48q-8.87-4-17.71-7.51"/>
            <path class="cls-16" d="M522.76,266.21,558,245.73q8.81,3.93,17.61,8.29L540.37,274.5q-8.8-4.35-17.61-8.29"/>
            <path class="cls-17" d="M540.37,274.5,575.61,254q8.52,4.21,17,8.82l-35.24,20.48q-8.52-4.6-17-8.82"/>
            <path class="cls-18" d="M557.42,283.32l35.24-20.48q6.55,3.56,13.1,7.33l-35.24,20.48q-6.54-3.78-13.1-7.33"/>
          </g>
        </g>
      </g>
      <g class="cls-2">
        <g class="cls-31">
          <g class="cls-2">
            <path class="cls-18" d="M570.52,290.65l35.24-20.48q1.93,1.11,3.86,2.25L574.38,292.9q-1.92-1.14-3.86-2.25"/>
            <path class="cls-19" d="M574.38,292.9l35.24-20.48q8.34,4.9,16.51,10.1L590.89,303q-8.16-5.19-16.51-10.1"/>
            <path class="cls-20" d="M590.89,303l35.24-20.48q8.18,5.21,16.18,10.69l-35.24,20.48q-8-5.49-16.18-10.69"/>
            <path class="cls-21" d="M607.07,313.69l35.24-20.48q8.07,5.52,15.93,11.31L623,325q-7.86-5.79-15.93-11.31"/>
            <path class="cls-22" d="M623,325l35.24-20.48q7.89,5.82,15.6,11.89L638.6,336.89Q630.89,330.81,623,325"/>
            <path class="cls-23" d="M638.6,336.89l35.24-20.48q7.75,6.12,15.32,12.51L653.92,349.4q-7.56-6.39-15.32-12.51"/>
            <path class="cls-24" d="M653.92,349.4l35.24-20.48q7.5,6.31,14.79,12.89l-35.24,20.48q-7.29-6.57-14.79-12.89"/>
            <path class="cls-25" d="M668.71,362.29,704,341.81q7.17,6.46,14.14,13.14l-35.24,20.48q-7-6.68-14.14-13.14"/>
            <path class="cls-26" d="M682.85,375.43,718.09,355q6.79,6.51,13.39,13.23l-35.24,20.48q-6.6-6.72-13.39-13.23"/>
            <path class="cls-27" d="M696.24,388.66l35.24-20.48q6.25,6.38,12.35,12.94l-35.24,20.47q-6.09-6.55-12.35-12.93"/>
            <path class="cls-28" d="M708.59,401.59l35.24-20.47q6,6.51,11.91,13.19L720.5,414.79q-5.87-6.68-11.91-13.2"/>
            <path class="cls-28" d="M720.5,414.79l35.24-20.48q5.71,6.51,11.26,13.17L731.76,428q-5.53-6.66-11.26-13.17"/>
            <path class="cls-28" d="M731.76,428,767,407.48q5.54,6.66,10.89,13.46l-35.24,20.48q-5.35-6.8-10.89-13.46"/>
            <path class="cls-28" d="M742.65,441.42l35.24-20.48q6.72,8.55,13.16,17.29l-35.24,20.48q-6.43-8.74-13.16-17.29"/>
            <path class="cls-28" d="M755.81,458.71l35.24-20.48Q801.1,451.9,810.42,466l-35.24,20.48q-9.31-14.13-19.37-27.81"/>
            <path class="cls-28" d="M775.18,486.52,810.42,466q8.45,12.81,16.26,26L791.44,512.5q-7.82-13.15-16.26-26"/>
            <path class="cls-28" d="M791.44,512.5,826.68,492q7.94,13.35,15.21,27l-35.24,20.48q-7.26-13.66-15.21-27"/>
            <path class="cls-28" d="M806.65,539.51,841.89,519q3.89,7.29,7.57,14.66l-35.24,20.48q-3.68-7.36-7.57-14.66"/>
            <path class="cls-28" d="M814.22,554.17l35.24-20.48q3.69,7.38,7.18,14.81L821.4,569q-3.48-7.44-7.18-14.81"/>
            <path class="cls-28" d="M821.4,569l35.24-20.48q3.11,6.63,6.05,13.29l-35.24,20.48q-2.94-6.67-6.05-13.29"/>
            <path class="cls-28" d="M827.45,582.27l35.24-20.48q2.88,6.5,5.59,13L833,595.3q-2.71-6.54-5.59-13"/>
            <path class="cls-27" d="M833,595.3l35.24-20.48q2.75,6.6,5.33,13.25l-35.24,20.48q-2.6-6.64-5.33-13.25"/>
            <path class="cls-26" d="M838.37,608.55l35.24-20.48q2.71,7,5.26,14l-35.24,20.48q-2.53-7-5.26-14"/>
            <path class="cls-25" d="M843.63,622.58l35.24-20.48q2.55,7,4.91,14.09l-35.24,20.48q-2.35-7.06-4.91-14.09"/>
            <path class="cls-24" d="M848.54,636.67l35.24-20.48q2.49,7.44,4.78,14.9l-35.24,20.48q-2.3-7.46-4.78-14.9"/>
            <path class="cls-23" d="M853.32,651.57l35.24-20.48q2.34,7.65,4.47,15.33L857.79,666.9q-2.13-7.68-4.47-15.33"/>
            <path class="cls-22" d="M857.79,666.9,893,646.42q2.15,7.76,4.07,15.53l-35.24,20.48q-1.92-7.77-4.07-15.53"/>
            <path class="cls-21" d="M861.86,682.43,897.1,662q2,7.92,3.7,15.86l-35.24,20.48q-1.74-7.93-3.7-15.86"/>
            <path class="cls-20" d="M865.56,698.29l35.24-20.48q1.73,7.94,3.22,15.88l-35.24,20.48q-1.5-7.93-3.22-15.88"/>
            <path class="cls-19" d="M868.78,714.17,904,693.69q1.5,8,2.75,15.94l-35.24,20.48q-1.26-8-2.75-15.94"/>
            <path class="cls-18" d="M871.53,730.11l35.24-20.48q1.26,8,2.27,15.93L873.8,746q-1-8-2.27-15.93"/>
            <path class="cls-17" d="M873.8,746,909,725.56q1,8.07,1.79,16.13l-35.24,20.48q-.78-8.05-1.79-16.13"/>
            <path class="cls-16" d="M875.59,762.17l35.24-20.48q.76,8.07,1.27,16.12l-35.24,20.48q-.5-8-1.27-16.12"/>
            <path class="cls-15" d="M876.86,778.29l35.24-20.48q.52,8.3.77,16.55l-35.24,20.48q-.24-8.26-.77-16.55"/>
            <path class="cls-14" d="M877.63,794.84l35.24-20.48q.25,8.39.21,16.72l-35.24,20.48q0-8.34-.21-16.72"/>
            <path class="cls-13" d="M877.84,811.56l35.24-20.48q0,8.7-.42,17.33l-35.24,20.48q.38-8.64.42-17.33"/>
            <path class="cls-12" d="M877.42,828.89l35.24-20.48q-.37,8.94-1.11,17.8l-35.24,20.47q.74-8.85,1.11-17.79"/>
            <path class="cls-11" d="M876.31,846.68l35.24-20.47q-.76,9.43-1.95,18.78l-35.24,20.48q1.18-9.35,1.95-18.79"/>
            <path class="cls-10" d="M874.36,865.47,909.6,845q-1.23,9.75-2.9,19.39l-35.24,20.48q1.66-9.63,2.9-19.39"/>
            <path class="cls-9" d="M871.46,884.86l35.24-20.48q-1.87,10.8-4.32,21.44L867.14,906.3q2.45-10.63,4.32-21.44"/>
            <path class="cls-8" d="M867.14,906.3l35.24-20.48q-1.8,7.86-3.91,15.61l-35.24,20.48q2.12-7.75,3.91-15.61"/>
          </g>
        </g>
      </g>
    </g>
  </g>
</svg>
