<svg xmlns="http://www.w3.org/2000/svg" xmlns:xlink="http://www.w3.org/1999/xlink" viewBox="0 0 1000 1000">
  <defs>
    <style>
      .cls-1 {
        fill: none;
      }

      .cls-2 {
        isolation: isolate;
      }

      .cls-3 {
        clip-path: url(#clip-path);
      }

      .cls-4 {
        fill: #e0e0e0;
      }

      .cls-5 {
        fill: #dbdbdb;
      }

      .cls-6 {
        fill: #d6d6d6;
      }

      .cls-7 {
        fill: #d1d1d1;
      }

      .cls-8 {
        fill: #ccc;
      }

      .cls-9 {
        fill: #c7c7c7;
      }

      .cls-10 {
        fill: #c2c2c2;
      }

      .cls-11 {
        fill: #bdbdbd;
      }

      .cls-12 {
        fill: #b8b8b8;
      }

      .cls-13 {
        fill: #b3b3b3;
      }

      .cls-14 {
        fill: #adadad;
      }

      .cls-15 {
        fill: #a8a8a8;
      }

      .cls-16 {
        fill: #a3a3a3;
      }

      .cls-17 {
        fill: #9e9e9e;
      }

      .cls-18 {
        fill: #999;
      }

      .cls-19 {
        fill: #949494;
      }

      .cls-20 {
        fill: #8f8f8f;
      }

      .cls-21 {
        fill: #8a8a8a;
      }

      .cls-22 {
        fill: #858585;
      }

      .cls-23 {
        clip-path: url(#clip-path-2);
      }

      .cls-24 {
        fill: #e6e6e6;
      }

      .cls-25 {
        fill: #ebebeb;
      }

      .cls-26 {
        fill: #f0f0f0;
      }

      .cls-27 {
        fill: #f5f5f5;
      }

      .cls-28 {
        fill: #fafafa;
      }

      .cls-29 {
        fill: #fff;
      }

      .cls-30 {
        clip-path: url(#clip-path-3);
      }

      .cls-31 {
        fill: #929292;
      }

      .cls-32 {
        clip-path: url(#clip-path-4);
      }
    </style>
    <clipPath id="clip-path">
      <path class="cls-1" d="M600.5,222.59l35.24,20.48c19.13,11.12,26.8,40.92,18,84.42L618.47,307C627.3,263.51,619.64,233.71,600.5,222.59Z"/>
    </clipPath>
    <clipPath id="clip-path-2">
      <path class="cls-1" d="M461.38,533.34l-35.24-20.48c14.17,8.24,34.63,6.23,59.34-8,58.08-33.53,117.62-122.1,133-197.82l35.24,20.48c-15.37,75.72-74.91,164.28-133,197.82C496,539.57,475.55,541.58,461.38,533.34Z"/>
    </clipPath>
    <clipPath id="clip-path-3">
      <path class="cls-1" d="M792.88,74.55,828.12,95C774,63.57,695.83,71.22,601.46,125.71l-35.24-20.48C660.59,50.74,738.75,43.09,792.88,74.55Z"/>
    </clipPath>
    <clipPath id="clip-path-4">
      <path class="cls-1" d="M93.37,881.93,58.13,861.45C117,571.57,344.39,233.3,566.22,105.23l35.24,20.48C379.63,253.78,152.22,592.05,93.37,881.93Z"/>
    </clipPath>
  </defs>
  <title>constructor_1</title>
  <g id="constructor">
    <g class="cls-2">
      <g class="cls-2">
        <g class="cls-3">
          <g class="cls-2">
            <path class="cls-4" d="M653.71,327.49,618.47,307c.36-1.74.68-3.46,1-5.16l35.24,20.48c-.3,1.7-.62,3.42-1,5.16"/>
            <path class="cls-5" d="M654.69,322.33l-35.24-20.48q.6-3.33,1-6.56l35.24,20.48q-.45,3.23-1,6.56"/>
            <path class="cls-6" d="M655.74,315.77,620.5,295.29q.43-3,.73-5.81L656.47,310c-.2,1.9-.45,3.84-.73,5.81"/>
            <path class="cls-7" d="M656.47,310l-35.24-20.48c.21-1.86.37-3.69.51-5.49L657,304.47c-.14,1.8-.3,3.63-.51,5.49"/>
            <path class="cls-8" d="M657,304.47,621.74,284c.12-1.7.22-3.37.28-5l35.24,20.47c-.06,1.65-.16,3.32-.28,5"/>
            <path class="cls-9" d="M657.26,299.45,622,279c.06-1.62.1-3.2.1-4.76l35.24,20.48c0,1.56,0,3.14-.1,4.75"/>
            <path class="cls-10" d="M657.36,294.7l-35.24-20.48c0-1.5,0-3-.07-4.42l35.24,20.48c.05,1.45.07,2.92.07,4.42"/>
            <path class="cls-11" d="M657.29,290.28,622.05,269.8c0-1.44-.12-2.85-.22-4.24L657.07,286c.1,1.39.17,2.8.22,4.24"/>
            <path class="cls-12" d="M657.07,286l-35.24-20.48c-.1-1.36-.23-2.7-.37-4L656.7,282c.14,1.31.27,2.65.37,4"/>
            <path class="cls-13" d="M656.7,282l-35.24-20.48c-.15-1.31-.33-2.6-.53-3.86l35.24,20.48c.2,1.26.38,2.55.53,3.86"/>
            <path class="cls-14" d="M656.17,278.17l-35.24-20.48c-.2-1.27-.43-2.52-.68-3.73l35.24,20.48c.25,1.21.48,2.46.68,3.73"/>
            <path class="cls-15" d="M655.49,274.44,620.25,254c-.25-1.23-.53-2.43-.83-3.6l35.24,20.48c.3,1.17.58,2.37.83,3.6"/>
            <path class="cls-16" d="M654.66,270.84l-35.24-20.48c-.32-1.22-.66-2.42-1-3.59l35.24,20.48c.38,1.17.72,2.37,1,3.59"/>
            <path class="cls-17" d="M653.62,267.25l-35.24-20.48c-.38-1.18-.78-2.33-1.22-3.45L652.4,263.8c.44,1.12.84,2.27,1.22,3.45"/>
            <path class="cls-18" d="M652.4,263.8l-35.24-20.48c-.47-1.23-1-2.41-1.53-3.55l35.24,20.48c.55,1.14,1.06,2.32,1.53,3.55"/>
            <path class="cls-19" d="M650.87,260.25l-35.24-20.48c-.58-1.24-1.21-2.42-1.87-3.56L649,256.69c.66,1.14,1.29,2.32,1.87,3.56"/>
            <path class="cls-20" d="M649,256.69l-35.24-20.48a41.2,41.2,0,0,0-2.34-3.6l35.24,20.48a41.2,41.2,0,0,1,2.34,3.6"/>
            <path class="cls-21" d="M646.66,253.09l-35.24-20.48a37.7,37.7,0,0,0-3.5-4.19l35.24,20.48a37.7,37.7,0,0,1,3.5,4.19"/>
            <path class="cls-22" d="M643.16,248.9l-35.24-20.48a34,34,0,0,0-7.42-5.83l35.24,20.48a34,34,0,0,1,7.42,5.83"/>
          </g>
        </g>
      </g>
      <g class="cls-2">
        <g class="cls-23">
          <g class="cls-2">
            <path class="cls-22" d="M461.38,533.34l-35.24-20.48a35.9,35.9,0,0,0,14,4.55l35.24,20.48a35.9,35.9,0,0,1-14-4.55"/>
            <path class="cls-21" d="M475.36,537.89l-35.24-20.48a42.94,42.94,0,0,0,5.73.29l35.24,20.48a42.94,42.94,0,0,1-5.73-.29"/>
            <path class="cls-20" d="M481.09,538.18,445.85,517.7c1.58,0,3.2-.11,4.85-.28l35.24,20.48c-1.65.17-3.27.27-4.85.28"/>
            <path class="cls-19" d="M485.94,537.9,450.7,517.42c1.5-.16,3-.38,4.58-.67l35.24,20.48c-1.56.29-3.08.51-4.58.67"/>
            <path class="cls-18" d="M490.52,537.23l-35.24-20.48c1.41-.26,2.84-.57,4.29-.94l35.24,20.48c-1.45.37-2.88.68-4.29.94"/>
            <path class="cls-17" d="M494.81,536.29l-35.24-20.48c1.38-.34,2.77-.74,4.18-1.18L499,535.11c-1.41.44-2.8.84-4.18,1.18"/>
            <path class="cls-16" d="M499,535.11l-35.24-20.48c1.37-.43,2.76-.9,4.17-1.42l35.24,20.48c-1.41.52-2.8,1-4.17,1.42"/>
            <path class="cls-15" d="M503.16,533.69l-35.24-20.48c1.36-.51,2.74-1.05,4.14-1.64l35.24,20.48c-1.4.59-2.78,1.13-4.14,1.64"/>
            <path class="cls-14" d="M507.3,532.05l-35.24-20.48c1.38-.59,2.79-1.22,4.21-1.89l35.23,20.48c-1.41.67-2.82,1.3-4.2,1.89"/>
            <path class="cls-13" d="M511.5,530.16l-35.23-20.48c1.41-.67,2.84-1.39,4.29-2.14L515.8,528c-1.45.75-2.88,1.47-4.3,2.14"/>
            <path class="cls-12" d="M515.8,528l-35.24-20.48c1.45-.76,2.92-1.56,4.39-2.41l35.24,20.48c-1.47.85-2.94,1.65-4.39,2.41"/>
            <path class="cls-11" d="M520.19,525.61,485,505.13l.53-.3q2-1.17,4-2.43l35.24,20.48q-2,1.26-4,2.43l-.53.3"/>
            <path class="cls-10" d="M524.77,522.88,489.53,502.4c1.53-.95,3.06-1.93,4.59-3l35.24,20.48c-1.53,1-3.06,2-4.59,3"/>
            <path class="cls-9" d="M529.36,519.92l-35.24-20.48q2.44-1.62,4.87-3.37l35.24,20.48c-1.62,1.16-3.24,2.29-4.87,3.37"/>
            <path class="cls-8" d="M534.23,516.55,499,496.07c1.64-1.18,3.29-2.4,4.93-3.66l35.24,20.48c-1.64,1.26-3.29,2.48-4.93,3.66"/>
            <path class="cls-7" d="M539.16,512.89l-35.24-20.48q2.61-2,5.2-4.13l35.24,20.48q-2.6,2.13-5.2,4.13"/>
            <path class="cls-6" d="M544.36,508.76l-35.24-20.48q2.73-2.23,5.43-4.6l35.24,20.48q-2.7,2.37-5.43,4.6"/>
            <path class="cls-5" d="M549.79,504.16l-35.24-20.48c1.88-1.64,3.76-3.33,5.62-5.06l35.24,20.48q-2.8,2.59-5.62,5.06"/>
            <path class="cls-4" d="M555.41,499.1l-35.24-20.48q3-2.82,6-5.79l35.24,20.47q-3,3-6,5.8"/>
            <path class="cls-24" d="M561.44,493.3,526.2,472.83q3.13-3.1,6.22-6.36L567.66,487q-3.09,3.26-6.22,6.35"/>
            <path class="cls-25" d="M567.66,487l-35.24-20.48q3.23-3.41,6.4-7L574.06,480q-3.18,3.56-6.4,7"/>
            <path class="cls-26" d="M574.06,480l-35.24-20.48q3.3-3.7,6.54-7.58l35.24,20.48q-3.24,3.87-6.54,7.58"/>
            <path class="cls-27" d="M580.6,472.41l-35.24-20.48q3.4-4.08,6.74-8.31l35.24,20.48q-3.33,4.23-6.74,8.31"/>
            <path class="cls-28" d="M587.34,464.1,552.1,443.62q3.6-4.59,7.08-9.34l35.24,20.48q-3.48,4.75-7.08,9.34"/>
            <path class="cls-29" d="M594.42,454.76l-35.24-20.48q4-5.46,7.85-11.11l35.24,20.47q-3.84,5.66-7.85,11.12"/>
            <path class="cls-29" d="M602.27,443.64,567,423.17Q573.24,414,579,404.45l35.23,20.48q-5.7,9.56-11.92,18.71"/>
            <path class="cls-29" d="M614.19,424.93,579,404.45q5.76-9.65,10.93-19.6l35.24,20.48q-5.16,9.93-10.94,19.6"/>
            <path class="cls-29" d="M625.13,405.33l-35.24-20.48q5-9.68,9.4-19.51l35.24,20.48c-2.91,6.55-6.06,13.06-9.4,19.51"/>
            <path class="cls-29" d="M634.53,385.82l-35.24-20.48q2.65-6,5-11.93l35.24,20.48q-2.39,6-5,11.93"/>
            <path class="cls-28" d="M639.57,373.89l-35.24-20.48q2-5.1,3.87-10.21l35.24,20.48q-1.83,5.1-3.87,10.21"/>
            <path class="cls-27" d="M643.44,363.68,608.2,343.2c1.13-3.14,2.2-6.29,3.21-9.42l35.24,20.48q-1.51,4.69-3.21,9.42"/>
            <path class="cls-26" d="M646.65,354.26l-35.24-20.48c1-3,1.84-5.9,2.68-8.84l35.24,20.48q-1.26,4.4-2.68,8.84"/>
            <path class="cls-25" d="M649.33,345.42l-35.24-20.48q1.18-4.19,2.22-8.33l35.24,20.48q-1,4.14-2.22,8.33"/>
            <path class="cls-24" d="M651.55,337.09l-35.24-20.48q1-3.87,1.77-7.71l35.24,20.48q-.81,3.84-1.77,7.71"/>
            <path class="cls-4" d="M653.32,329.38,618.08,308.9c.13-.63.27-1.26.39-1.89l35.24,20.48c-.12.63-.26,1.26-.39,1.89"/>
          </g>
        </g>
      </g>
      <g class="cls-2">
        <g class="cls-30">
          <g class="cls-2">
            <path class="cls-11" d="M601.46,125.71l-35.24-20.48,2-1.15,35.24,20.48c-.67.38-1.34.76-2,1.15"/>
            <path class="cls-12" d="M603.46,124.56l-35.24-20.48q8.47-4.85,16.77-9.19l35.24,20.48q-8.29,4.35-16.77,9.19"/>
            <path class="cls-13" d="M620.23,115.37,585,94.89q8.31-4.33,16.42-8.19l35.24,20.48q-8.11,3.85-16.42,8.19"/>
            <path class="cls-14" d="M636.65,107.18,601.41,86.7q8.13-3.84,16.06-7.2L652.71,100q-7.94,3.34-16.06,7.2"/>
            <path class="cls-15" d="M652.71,100,617.47,79.5q8-3.39,15.82-6.27l35.24,20.48q-7.81,2.88-15.82,6.27"/>
            <path class="cls-16" d="M668.53,93.71,633.29,73.23q8.07-3,15.92-5.44l35.24,20.48q-7.86,2.46-15.92,5.44"/>
            <path class="cls-17" d="M684.45,88.27,649.21,67.79q8.09-2.54,15.95-4.51L700.4,83.76q-7.86,2-15.95,4.51"/>
            <path class="cls-18" d="M700.4,83.76,665.16,63.28q8.34-2.1,16.41-3.59l35.24,20.48q-8.07,1.48-16.41,3.59"/>
            <path class="cls-19" d="M716.81,80.17,681.57,59.69q8.91-1.63,17.48-2.54l35.24,20.48q-8.56.9-17.48,2.54"/>
            <path class="cls-20" d="M734.29,77.63,699.05,57.15q9.48-1,18.52-1.09l35.24,20.48q-9,.09-18.52,1.09"/>
            <path class="cls-21" d="M752.81,76.54,717.57,56.06a170.09,170.09,0,0,1,21.89,1.12L774.7,77.66a170.09,170.09,0,0,0-21.89-1.12"/>
            <path class="cls-22" d="M774.7,77.66,739.46,57.18a137.08,137.08,0,0,1,53.42,17.37L828.12,95A137.23,137.23,0,0,0,774.7,77.66"/>
          </g>
        </g>
      </g>
      <path class="cls-31" d="M601.46,125.71c221.81-128.06,354,2.57,295.32,291.77L93.37,881.93C152.22,592.05,379.63,253.78,601.46,125.71Zm52.25,201.78c15.37-75.72-19.24-109.92-77.32-76.39s-117.62,122.1-133,197.81,19.24,109.93,77.32,76.4,117.62-122.1,133-197.82"/>
      <g class="cls-2">
        <g class="cls-32">
          <g class="cls-2">
            <path class="cls-4" d="M93.37,881.93,58.13,861.45q.73-3.6,1.5-7.23L94.87,874.7q-.77,3.63-1.5,7.23"/>
            <path class="cls-24" d="M94.87,874.7,59.63,854.22q3.12-14.72,6.81-29.57l35.24,20.48Q98,860,94.87,874.7"/>
            <path class="cls-25" d="M101.68,845.13,66.44,824.65q3.93-15.9,8.5-31.95l35.24,20.48q-4.56,16-8.5,32"/>
            <path class="cls-26" d="M110.18,813.18,74.94,792.7q4.8-16.87,10.26-33.86l35.24,20.48q-5.44,17-10.26,33.86"/>
            <path class="cls-27" d="M120.44,779.32,85.2,758.84q5.79-18,12.29-36.08l35.24,20.48q-6.49,18.07-12.29,36.08"/>
            <path class="cls-28" d="M132.73,743.24,97.49,722.76q7-19.57,14.87-39.19l35.24,20.48q-7.83,19.61-14.87,39.19"/>
            <path class="cls-29" d="M147.6,704.05l-35.24-20.48q9.17-22.94,19.35-45.81L167,658.24q-10.19,22.86-19.35,45.81"/>
            <path class="cls-29" d="M167,658.24l-35.24-20.48q16.62-37.34,35.75-74.17l35.24,20.47Q183.62,620.83,167,658.24"/>
            <path class="cls-29" d="M202.7,584.06l-35.24-20.47q19.72-38,41.82-75l35.23,20.48q-22,36.9-41.81,75"/>
            <path class="cls-29" d="M244.51,509.07l-35.23-20.48Q231.14,452,255,416.83l35.24,20.48q-23.81,35-45.73,71.76"/>
            <path class="cls-29" d="M290.24,437.31,255,416.83q14.63-21.56,29.91-42.36L320.14,395q-15.25,20.79-29.9,42.36"/>
            <path class="cls-28" d="M320.14,395l-35.23-20.48q13.26-18.08,27-35.53l35.24,20.48q-13.69,17.44-27,35.53"/>
            <path class="cls-27" d="M347.11,359.42l-35.24-20.48q12.72-16.2,25.79-31.81l35.24,20.48q-13,15.58-25.79,31.81"/>
            <path class="cls-26" d="M372.9,327.61l-35.24-20.48Q350,292.39,362.6,278.24l35.24,20.48q-12.6,14.13-24.94,28.89"/>
            <path class="cls-25" d="M397.84,298.72,362.6,278.24q12.11-13.58,24.4-26.56l35.24,20.48q-12.3,13-24.4,26.56"/>
            <path class="cls-24" d="M422.24,272.16,387,251.68q11.79-12.42,23.74-24.27L446,247.89q-12,11.84-23.74,24.27"/>
            <path class="cls-4" d="M446,247.89l-35.24-20.48q11.46-11.34,23-22.12L469,225.77q-11.58,10.77-23,22.12"/>
            <path class="cls-5" d="M469,225.77l-35.24-20.48q10.67-9.91,21.43-19.32l35.24,20.48q-10.76,9.39-21.43,19.32"/>
            <path class="cls-6" d="M490.45,206.45,455.21,186q10.34-9,20.73-17.55l35.24,20.48q-10.4,8.5-20.73,17.55"/>
            <path class="cls-7" d="M511.18,188.9l-35.24-20.48q9.92-8.13,19.88-15.78l35.24,20.48q-10,7.65-19.88,15.78"/>
            <path class="cls-8" d="M531.06,173.12l-35.24-20.48q9.39-7.21,18.82-14l35.24,20.48q-9.42,6.77-18.82,14"/>
            <path class="cls-9" d="M549.88,159.14l-35.24-20.48q9.27-6.65,18.57-12.86l35.24,20.48q-9.3,6.19-18.57,12.86"/>
            <path class="cls-10" d="M568.45,146.28,533.21,125.8q8.76-5.86,17.54-11.31L586,135q-8.78,5.44-17.54,11.31"/>
            <path class="cls-11" d="M586,135l-35.24-20.48q7.74-4.78,15.47-9.26l35.24,20.48Q593.72,130.18,586,135"/>
          </g>
        </g>
      </g>
    </g>
  </g>
</svg>
