<svg xmlns="http://www.w3.org/2000/svg" xmlns:xlink="http://www.w3.org/1999/xlink" viewBox="0 0 1000 1000">
  <defs>
    <style>
      .cls-1 {
        fill: none;
      }

      .cls-2 {
        isolation: isolate;
      }

      .cls-3 {
        clip-path: url(#clip-path);
      }

      .cls-4 {
        fill: #949494;
      }

      .cls-5 {
        fill: #999;
      }

      .cls-6 {
        fill: #9e9e9e;
      }

      .cls-7 {
        fill: #a3a3a3;
      }

      .cls-8 {
        fill: #a8a8a8;
      }

      .cls-9 {
        fill: #adadad;
      }

      .cls-10 {
        fill: #b3b3b3;
      }

      .cls-11 {
        fill: #b8b8b8;
      }

      .cls-12 {
        fill: #8f8f8f;
      }

      .cls-13 {
        fill: #8a8a8a;
      }

      .cls-14 {
        fill: #858585;
      }

      .cls-15 {
        fill: #dcdcdc;
      }

      .cls-16 {
        fill: #c4c4c4;
      }

      .cls-17 {
        fill: #898989;
      }
    </style>
    <clipPath id="clip-path">
      <path class="cls-1" d="M384.12,412.37,384,453.12c0,11.18-11.12,22.06-32.38,29.18-37,12.4-90.77,8.73-120.1-8.21C219,466.89,213,458.44,213,450.17l.12-40.76c0,8.28,6,16.72,18.5,23.92,29.33,16.94,83.09,20.61,120.09,8.22C373,434.42,384.09,423.55,384.12,412.37Z"/>
    </clipPath>
  </defs>
  <title>enumeration member</title>
  <g id="enumeration_member" data-name="enumeration member">
    <g>
      <g class="cls-2">
        <g class="cls-2">
          <g class="cls-3">
            <g class="cls-2">
              <path class="cls-4" d="M384.12,412.37,384,453.12v.43l.11-40.75c0-.15,0-.29,0-.43"/>
              <path class="cls-5" d="M384.11,412.8,384,453.55a17.52,17.52,0,0,1-.33,2.89l.11-40.75a15.8,15.8,0,0,0,.33-2.89"/>
              <path class="cls-6" d="M383.78,415.69l-.11,40.75a17.94,17.94,0,0,1-.83,2.87l.12-40.76a17.79,17.79,0,0,0,.82-2.86"/>
              <path class="cls-7" d="M383,418.55l-.12,40.76a21.16,21.16,0,0,1-1.38,2.95l.11-40.76a21.24,21.24,0,0,0,1.39-2.95"/>
              <path class="cls-8" d="M381.57,421.5l-.11,40.76a25.77,25.77,0,0,1-2.15,3.18l.11-40.76a24.7,24.7,0,0,0,2.15-3.18"/>
              <path class="cls-9" d="M379.42,424.68l-.11,40.76a33.43,33.43,0,0,1-3.53,3.79l.11-40.76a31.7,31.7,0,0,0,3.53-3.79"/>
              <path class="cls-10" d="M375.89,428.47l-.11,40.76a48.36,48.36,0,0,1-7.91,5.81l.11-40.76a47.52,47.52,0,0,0,7.91-5.81"/>
              <path class="cls-11" d="M368,434.28,367.87,475a83,83,0,0,1-16.25,7.26l-1.21.4.11-40.76,1.21-.39A82.68,82.68,0,0,0,368,434.28"/>
              <path class="cls-10" d="M350.52,441.94l-.11,40.76A132.28,132.28,0,0,1,333.18,487l.11-40.75a133.5,133.5,0,0,0,17.23-4.26"/>
              <path class="cls-9" d="M333.29,446.2,333.18,487c-4.23.77-8.56,1.36-13,1.8l.11-40.76c4.4-.43,8.74-1,13-1.79"/>
              <path class="cls-8" d="M320.33,448l-.11,40.76c-3.92.39-7.89.65-11.88.79l.12-40.76c4-.14,8-.4,11.87-.79"/>
              <path class="cls-7" d="M308.46,448.78l-.12,40.76c-3.76.12-7.54.14-11.31,0l.11-40.76c3.77.09,7.55.08,11.32-.05"/>
              <path class="cls-6" d="M297.14,448.83,297,489.59c-3.68-.1-7.35-.29-11-.59l.11-40.76c3.64.3,7.31.5,11,.59"/>
              <path class="cls-5" d="M286.16,448.24,286.05,489q-5.42-.45-10.7-1.2l.11-40.75c3.52.49,7.1.89,10.7,1.19"/>
              <path class="cls-4" d="M275.46,447.05l-.11,40.75q-5.36-.75-10.51-1.82l.11-40.76q5.15,1.06,10.51,1.83"/>
              <path class="cls-12" d="M265,445.22,264.84,486c-3.61-.75-7.13-1.6-10.52-2.57l.11-40.76c3.4,1,6.92,1.83,10.52,2.57"/>
              <path class="cls-13" d="M254.43,442.65l-.11,40.76c-3.87-1.11-7.59-2.35-11.1-3.74l.12-40.76c3.51,1.39,7.22,2.64,11.09,3.74"/>
              <path class="cls-14" d="M243.34,438.91l-.12,40.76a88.06,88.06,0,0,1-11.7-5.58C219,466.89,213,458.44,213,450.17l.12-40.76c0,8.28,6,16.72,18.5,23.92a87.47,87.47,0,0,0,11.7,5.58"/>
            </g>
          </g>
        </g>
        <path class="cls-15" d="M365.62,388.44c29.33,16.93,23.11,40.71-13.89,53.11s-90.76,8.72-120.09-8.22-23.12-40.71,13.88-53.1S336.29,371.51,365.62,388.44Z"/>
      </g>
      <g class="cls-2">
        <polygon class="cls-15" points="817.79 653.94 692.84 695.81 335.13 489.29 460.09 447.42 817.79 653.94"/>
        <polygon class="cls-16" points="817.79 653.94 817.68 694.7 692.72 736.57 692.84 695.81 817.79 653.94"/>
        <polygon class="cls-17" points="692.84 695.81 692.72 736.57 335.02 530.04 335.13 489.29 692.84 695.81"/>
      </g>
    </g>
  </g>
</svg>
