<svg xmlns="http://www.w3.org/2000/svg" xmlns:xlink="http://www.w3.org/1999/xlink" viewBox="0 0 1000 1000">
  <defs>
    <style>
      .cls-1 {
        fill: none;
      }

      .cls-2 {
        isolation: isolate;
      }

      .cls-3 {
        fill: #dcdcdc;
      }

      .cls-4 {
        clip-path: url(#clip-path);
      }

      .cls-5 {
        fill: #949494;
      }

      .cls-6 {
        fill: #999;
      }

      .cls-7 {
        fill: #9e9e9e;
      }

      .cls-8 {
        fill: #a3a3a3;
      }

      .cls-9 {
        fill: #a8a8a8;
      }

      .cls-10 {
        fill: #adadad;
      }

      .cls-11 {
        fill: #b3b3b3;
      }

      .cls-12 {
        fill: #b8b8b8;
      }

      .cls-13 {
        fill: #8f8f8f;
      }

      .cls-14 {
        fill: #8a8a8a;
      }

      .cls-15 {
        fill: #858585;
      }

      .cls-16 {
        clip-path: url(#clip-path-2);
      }

      .cls-17 {
        fill: #c4c4c4;
      }

      .cls-18 {
        fill: #898989;
      }

      .cls-19 {
        clip-path: url(#clip-path-3);
      }
    </style>
    <clipPath id="clip-path">
      <path class="cls-1" d="M385.55,417.64l-.11,40.75c0,9.76-9.72,19.26-28.27,25.48-32.3,10.83-79.24,7.61-104.85-7.17-10.89-6.29-16.17-13.66-16.15-20.89l.12-40.76c0,7.23,5.26,14.6,16.15,20.89,25.61,14.78,72.54,18,104.84,7.17C375.84,436.89,385.52,427.4,385.55,417.64Z"/>
    </clipPath>
    <clipPath id="clip-path-2">
      <path class="cls-1" d="M590.92,349.05l-.11,40.75c0,9.76-9.72,19.26-28.27,25.47-32.3,10.83-79.23,7.62-104.84-7.16-10.89-6.29-16.17-13.66-16.15-20.89l.12-40.76c0,7.23,5.25,14.6,16.15,20.89,25.6,14.78,72.54,18,104.83,7.17C581.21,368.3,590.9,358.8,590.92,349.05Z"/>
    </clipPath>
    <clipPath id="clip-path-3">
      <path class="cls-1" d="M180.66,486.51l-.12,40.75c0,9.76-9.71,19.26-28.27,25.48C120,563.56,73,560.35,47.42,545.57c-10.89-6.29-16.16-13.66-16.14-20.89l.11-40.75c0,7.22,5.26,14.59,16.15,20.88,25.6,14.78,72.54,18,104.85,7.17C170.94,505.76,180.63,496.27,180.66,486.51Z"/>
    </clipPath>
  </defs>
  <title>enumeration</title>
  <g id="enumeration">
    <g>
      <g class="cls-2">
        <path class="cls-3" d="M369.4,396.75c25.61,14.78,20.17,35.54-12.12,46.36s-79.23,7.61-104.84-7.17-20.18-35.54,12.12-46.36S343.8,382,369.4,396.75Z"/>
        <g class="cls-2">
          <g class="cls-4">
            <g class="cls-2">
              <path class="cls-5" d="M385.55,417.64l-.11,40.75c0,.13,0,.26,0,.38l.11-40.76c0-.12,0-.25,0-.37"/>
              <path class="cls-6" d="M385.54,418l-.11,40.76a14.31,14.31,0,0,1-.29,2.52l.12-40.76a15.19,15.19,0,0,0,.28-2.52"/>
              <path class="cls-7" d="M385.26,420.53l-.12,40.76a16.46,16.46,0,0,1-.72,2.5l.12-40.76a16.13,16.13,0,0,0,.72-2.5"/>
              <path class="cls-8" d="M384.54,423l-.12,40.76a17.68,17.68,0,0,1-1.21,2.58l.12-40.76a18.78,18.78,0,0,0,1.21-2.58"/>
              <path class="cls-9" d="M383.33,425.61l-.12,40.76a23.33,23.33,0,0,1-1.87,2.78l.11-40.76a21.58,21.58,0,0,0,1.88-2.78"/>
              <path class="cls-10" d="M381.45,428.39l-.11,40.76a29.49,29.49,0,0,1-3.09,3.31l.12-40.76a28.53,28.53,0,0,0,3.08-3.31"/>
              <path class="cls-11" d="M378.37,431.7l-.12,40.76a42.08,42.08,0,0,1-6.9,5.07l.11-40.76a42.19,42.19,0,0,0,6.91-5.07"/>
              <path class="cls-12" d="M371.46,436.77l-.11,40.76a73,73,0,0,1-14.18,6.34l-1.07.35.12-40.76,1.06-.35a72.7,72.7,0,0,0,14.18-6.34"/>
              <path class="cls-11" d="M356.22,443.46l-.12,40.76a117.64,117.64,0,0,1-15,3.71l.12-40.76a116,116,0,0,0,15-3.71"/>
              <path class="cls-10" d="M341.18,447.17l-.12,40.76c-3.69.66-7.47,1.19-11.3,1.57l.11-40.76c3.84-.38,7.62-.9,11.31-1.57"/>
              <path class="cls-9" d="M329.87,448.74l-.11,40.76c-3.42.34-6.89.56-10.37.68l.12-40.75c3.48-.12,6.94-.35,10.36-.69"/>
              <path class="cls-8" d="M319.51,449.43l-.12,40.75c-3.28.11-6.58.13-9.87.05l.12-40.76q4.94.12,9.87,0"/>
              <path class="cls-7" d="M309.64,449.47l-.12,40.76c-3.21-.08-6.41-.26-9.58-.52l.11-40.75q4.77.39,9.59.51"/>
              <path class="cls-6" d="M300.05,449l-.11,40.75c-3.15-.26-6.27-.6-9.34-1l.11-40.76c3.07.44,6.2.79,9.34,1"/>
              <path class="cls-5" d="M290.71,447.91l-.11,40.76q-4.68-.66-9.18-1.59l.12-40.76c3,.62,6.06,1.15,9.17,1.59"/>
              <path class="cls-13" d="M281.54,446.32l-.12,40.76c-3.15-.65-6.22-1.4-9.18-2.25l.11-40.76c3,.85,6,1.6,9.19,2.25"/>
              <path class="cls-14" d="M272.35,444.07l-.11,40.76q-5.08-1.44-9.7-3.26l.12-40.76c3.07,1.21,6.31,2.3,9.69,3.26"/>
              <path class="cls-15" d="M262.66,440.81l-.12,40.76a78,78,0,0,1-10.22-4.87c-10.89-6.29-16.17-13.66-16.15-20.89l.12-40.76c0,7.23,5.26,14.6,16.15,20.89a77.43,77.43,0,0,0,10.22,4.87"/>
            </g>
          </g>
        </g>
      </g>
      <g class="cls-2">
        <path class="cls-3" d="M574.78,328.16c25.6,14.78,20.17,35.54-12.13,46.36s-79.23,7.61-104.83-7.17S437.64,331.81,469.94,321,549.17,313.38,574.78,328.16Z"/>
        <g class="cls-2">
          <g class="cls-16">
            <g class="cls-2">
              <path class="cls-5" d="M590.92,349.05l-.11,40.75c0,.13,0,.25,0,.38l.12-40.76v-.37"/>
              <path class="cls-6" d="M590.92,349.42l-.12,40.76a15.43,15.43,0,0,1-.28,2.52l.11-40.76a15.32,15.32,0,0,0,.29-2.52"/>
              <path class="cls-7" d="M590.63,351.94l-.11,40.76a16.46,16.46,0,0,1-.72,2.5l.11-40.76a16.46,16.46,0,0,0,.72-2.5"/>
              <path class="cls-8" d="M589.91,354.44l-.11,40.76a18.78,18.78,0,0,1-1.21,2.58L588.7,357a17.68,17.68,0,0,0,1.21-2.58"/>
              <path class="cls-9" d="M588.7,357l-.11,40.76a23.05,23.05,0,0,1-1.88,2.78l.12-40.76A23.33,23.33,0,0,0,588.7,357"/>
              <path class="cls-10" d="M586.83,359.8l-.12,40.76a28.47,28.47,0,0,1-3.08,3.3l.11-40.76a28.58,28.58,0,0,0,3.09-3.3"/>
              <path class="cls-11" d="M583.74,363.1l-.11,40.76a42.19,42.19,0,0,1-6.91,5.07l.12-40.75a41.12,41.12,0,0,0,6.9-5.08"/>
              <path class="cls-12" d="M576.84,368.18l-.12,40.75a71.53,71.53,0,0,1-14.18,6.34l-1.06.35.11-40.75,1.06-.35a72.8,72.8,0,0,0,14.19-6.34"/>
              <path class="cls-11" d="M561.59,374.87l-.11,40.75a116,116,0,0,1-15,3.71l.11-40.75a117.64,117.64,0,0,0,15-3.71"/>
              <path class="cls-10" d="M546.55,378.58l-.11,40.75c-3.69.67-7.47,1.19-11.31,1.57l.12-40.76c3.83-.38,7.62-.9,11.3-1.56"/>
              <path class="cls-9" d="M535.25,380.14l-.12,40.76q-5.13.51-10.37.69l.12-40.76c3.48-.12,7-.35,10.37-.69"/>
              <path class="cls-8" d="M524.88,380.83l-.12,40.76c-3.28.11-6.58.12-9.87,0l.12-40.76c3.29.09,6.59.07,9.87,0"/>
              <path class="cls-7" d="M515,380.87l-.12,40.76q-4.81-.12-9.59-.51l.12-40.76c3.17.26,6.38.43,9.59.51"/>
              <path class="cls-6" d="M505.42,380.36l-.12,40.76c-3.14-.26-6.27-.61-9.34-1l.12-40.76c3.07.43,6.19.78,9.34,1"/>
              <path class="cls-5" d="M496.08,379.32,496,420.08c-3.11-.45-6.18-1-9.17-1.6l.11-40.75c3,.61,6.06,1.15,9.18,1.59"/>
              <path class="cls-13" d="M486.9,377.73l-.11,40.75c-3.15-.65-6.22-1.4-9.19-2.24l.12-40.76c3,.84,6,1.59,9.18,2.25"/>
              <path class="cls-14" d="M477.72,375.48l-.12,40.76c-3.38-1-6.62-2.05-9.69-3.26l.12-40.76c3.07,1.21,6.31,2.3,9.69,3.26"/>
              <path class="cls-15" d="M468,372.22,467.91,413a77.9,77.9,0,0,1-10.21-4.87c-10.89-6.29-16.17-13.66-16.15-20.89l.12-40.76c0,7.23,5.25,14.6,16.15,20.89A77.29,77.29,0,0,0,468,372.22"/>
            </g>
          </g>
        </g>
      </g>
      <g class="cls-2">
        <polygon class="cls-3" points="969.51 559.93 860.43 596.48 548.16 416.19 657.24 379.64 969.51 559.93"/>
        <polygon class="cls-17" points="969.51 559.93 969.39 600.69 860.31 637.24 860.43 596.48 969.51 559.93"/>
        <polygon class="cls-18" points="860.43 596.48 860.31 637.24 548.05 456.95 548.16 416.19 860.43 596.48"/>
      </g>
      <g class="cls-2">
        <polygon class="cls-3" points="764.14 628.52 655.06 665.07 342.79 484.79 451.87 448.24 764.14 628.52"/>
        <polygon class="cls-17" points="764.14 628.52 764.02 669.28 654.94 705.83 655.06 665.07 764.14 628.52"/>
        <polygon class="cls-18" points="655.06 665.07 654.94 705.83 342.67 525.54 342.79 484.79 655.06 665.07"/>
      </g>
      <g class="cls-2">
        <path class="cls-3" d="M164.51,465.62c25.6,14.78,20.17,35.54-12.12,46.36s-79.25,7.61-104.85-7.17-20.18-35.54,12.13-46.36S138.9,450.84,164.51,465.62Z"/>
        <g class="cls-2">
          <g class="cls-19">
            <g class="cls-2">
              <path class="cls-5" d="M180.66,486.51l-.12,40.75v.38l.11-40.76c0-.12,0-.25,0-.37"/>
              <path class="cls-6" d="M180.65,486.88l-.11,40.76a15.32,15.32,0,0,1-.29,2.52l.11-40.75a14.42,14.42,0,0,0,.29-2.53"/>
              <path class="cls-7" d="M180.36,489.41l-.11,40.75a16.46,16.46,0,0,1-.72,2.5l.12-40.76a15.23,15.23,0,0,0,.71-2.49"/>
              <path class="cls-8" d="M179.65,491.9l-.12,40.76a18.78,18.78,0,0,1-1.21,2.58l.12-40.76a18.78,18.78,0,0,0,1.21-2.58"/>
              <path class="cls-9" d="M178.44,494.48l-.12,40.76a21.58,21.58,0,0,1-1.88,2.78l.12-40.76a22.65,22.65,0,0,0,1.88-2.78"/>
              <path class="cls-10" d="M176.56,497.26,176.44,538a28.47,28.47,0,0,1-3.08,3.31l.11-40.76a28.65,28.65,0,0,0,3.09-3.31"/>
              <path class="cls-11" d="M173.47,500.57l-.11,40.76a41.76,41.76,0,0,1-6.91,5.07l.12-40.76a41.66,41.66,0,0,0,6.9-5.07"/>
              <path class="cls-12" d="M166.57,505.64l-.12,40.76a72.7,72.7,0,0,1-14.18,6.34l-1.05.34.12-40.75,1-.35a72.7,72.7,0,0,0,14.18-6.34"/>
              <path class="cls-11" d="M151.34,512.33l-.12,40.75a115.75,115.75,0,0,1-15.05,3.72l.12-40.76a117.8,117.8,0,0,0,15.05-3.71"/>
              <path class="cls-10" d="M136.29,516l-.12,40.76c-3.69.66-7.47,1.18-11.31,1.57l.12-40.76c3.84-.38,7.62-.91,11.31-1.57"/>
              <path class="cls-9" d="M125,517.61l-.12,40.76c-3.42.34-6.89.56-10.37.68l.12-40.76c3.48-.11,7-.34,10.37-.68"/>
              <path class="cls-8" d="M114.61,518.29l-.12,40.76c-3.28.11-6.58.13-9.88.05l.12-40.76c3.29.08,6.59.07,9.88-.05"/>
              <path class="cls-7" d="M104.73,518.34l-.12,40.76c-3.21-.08-6.41-.26-9.58-.52l.11-40.76q4.77.4,9.59.52"/>
              <path class="cls-6" d="M95.14,517.82,95,558.58q-4.73-.39-9.35-1l.12-40.76c3.07.44,6.19.78,9.34,1"/>
              <path class="cls-5" d="M85.8,516.78l-.12,40.76c-3.11-.44-6.18-1-9.17-1.59l.11-40.76q4.5.93,9.18,1.59"/>
              <path class="cls-13" d="M76.62,515.19,76.51,556c-3.15-.65-6.22-1.4-9.19-2.25l.12-40.76c3,.85,6,1.6,9.18,2.25"/>
              <path class="cls-14" d="M67.44,512.94l-.12,40.76c-3.38-1-6.62-2.05-9.68-3.26l.11-40.76c3.07,1.21,6.31,2.3,9.69,3.26"/>
              <path class="cls-15" d="M57.75,509.68l-.11,40.76a76.19,76.19,0,0,1-10.22-4.87c-10.89-6.29-16.16-13.66-16.14-20.89l.11-40.75c0,7.22,5.26,14.59,16.15,20.88a76.64,76.64,0,0,0,10.21,4.87"/>
            </g>
          </g>
        </g>
      </g>
      <g class="cls-2">
        <polygon class="cls-3" points="559.25 697.4 450.16 733.94 137.9 553.66 246.98 517.11 559.25 697.4"/>
        <polygon class="cls-17" points="559.25 697.4 559.13 738.15 450.04 774.7 450.16 733.94 559.25 697.4"/>
        <polygon class="cls-18" points="450.16 733.94 450.04 774.7 137.78 594.41 137.9 553.66 450.16 733.94"/>
      </g>
    </g>
  </g>
</svg>
