<svg xmlns="http://www.w3.org/2000/svg" xmlns:xlink="http://www.w3.org/1999/xlink" viewBox="0 0 1000 1000">
  <defs>
    <style>
      .cls-1 {
        fill: none;
      }

      .cls-2 {
        isolation: isolate;
      }

      .cls-3 {
        clip-path: url(#clip-path);
      }

      .cls-4 {
        fill: #858585;
      }

      .cls-5 {
        clip-path: url(#clip-path-2);
      }

      .cls-6 {
        clip-path: url(#clip-path-3);
      }

      .cls-7 {
        fill: #8a8a8a;
      }

      .cls-8 {
        fill: #8f8f8f;
      }

      .cls-9 {
        fill: #949494;
      }

      .cls-10 {
        fill: #999;
      }

      .cls-11 {
        fill: #9e9e9e;
      }

      .cls-12 {
        fill: #a3a3a3;
      }

      .cls-13 {
        fill: #a8a8a8;
      }

      .cls-14 {
        fill: #adadad;
      }

      .cls-15 {
        fill: #b3b3b3;
      }

      .cls-16 {
        fill: #b8b8b8;
      }

      .cls-17 {
        fill: #898989;
      }

      .cls-18 {
        clip-path: url(#clip-path-4);
      }

      .cls-19 {
        clip-path: url(#clip-path-5);
      }

      .cls-20 {
        fill: #8c8c8c;
      }

      .cls-21 {
        clip-path: url(#clip-path-6);
      }

      .cls-22 {
        clip-path: url(#clip-path-7);
      }

      .cls-23 {
        clip-path: url(#clip-path-8);
      }

      .cls-24 {
        clip-path: url(#clip-path-9);
      }

      .cls-25 {
        fill: #dcdcdc;
      }
    </style>
    <clipPath id="clip-path">
      <path class="cls-1" d="M552.4,480.13l.11-40.76q0,4.62,9.29,10l-.12,40.76Q552.38,484.75,552.4,480.13Z"/>
    </clipPath>
    <clipPath id="clip-path-2">
      <path class="cls-1" d="M911.74,455.42l-.11,40.76q-5.57-4-17.68-11l.11-40.75Q906.18,451.42,911.74,455.42Z"/>
    </clipPath>
    <clipPath id="clip-path-3">
      <path class="cls-1" d="M894.06,444.43,894,485.18Q869.61,471.94,851.69,475t-89.8,30l.11-40.75q71.85-27,89.8-30T894.06,444.43Z"/>
    </clipPath>
    <clipPath id="clip-path-4">
      <path class="cls-1" d="M762,464.17l-.11,40.75q-32.76,13.23-54.38,21.23l.12-40.76Q729.24,477.4,762,464.17Z"/>
    </clipPath>
    <clipPath id="clip-path-5">
      <path class="cls-1" d="M978.54,466.34l-.11,40.76q0,11.25-15.5,20.23-13.38,7.78-34.28,8.44t-34.9-7.43q-9.91-5.72-10.07-12.75v-.27l.12-40.76a2.43,2.43,0,0,0,0,.27q.15,7,10.06,12.75,14,8.09,34.9,7.44T963,486.57Q978.52,477.59,978.54,466.34Z"/>
    </clipPath>
    <clipPath id="clip-path-6">
      <path class="cls-1" d="M742.41,552.05l-.11,40.75a84.7,84.7,0,0,1-12.21-6.15l.11-40.76A86.61,86.61,0,0,0,742.41,552.05Z"/>
    </clipPath>
    <clipPath id="clip-path-7">
      <path class="cls-1" d="M787.14,535.83,787,576.59q0,3.48-5.32,6.57Q757.92,597,742.3,592.8l.11-40.75q15.65,4.17,39.41-9.65Q787.13,539.31,787.14,535.83Z"/>
    </clipPath>
    <clipPath id="clip-path-8">
      <path class="cls-1" d="M139.92,610.78l-.12,40.76c0,4.88-3.1,9.13-9.28,12.72q-6.83,4-19.18,6.79l.11-40.76q12.36-2.82,19.19-6.79C136.82,619.91,139.9,615.66,139.92,610.78Z"/>
    </clipPath>
    <clipPath id="clip-path-9">
      <path class="cls-1" d="M44.17,660.64l.12-40.76a21.23,21.23,0,0,0,3.27,10.77q10.44,17.73,33,30.79,63.15,36.46,212.84-14.5,90.22-30.42,364.66-142.23L658,545.47Q383.55,657.28,293.32,687.7q-149.67,51-212.84,14.5-22.61-13.05-33-30.8A21.19,21.19,0,0,1,44.17,660.64Z"/>
    </clipPath>
  </defs>
  <title>function</title>
  <g id="function">
    <g class="cls-2">
      <g class="cls-2">
        <g class="cls-3">
          <g class="cls-2">
            <path class="cls-4" d="M561.8,449.36l-.12,40.76q-9.3-5.37-9.28-10l.11-40.76q0,4.62,9.29,10"/>
          </g>
        </g>
      </g>
      <g class="cls-2">
        <g class="cls-5">
          <g class="cls-2">
            <path class="cls-4" d="M911.74,455.42l-.11,40.76q-5.57-4-17.68-11l.11-40.75q12.12,7,17.68,11"/>
          </g>
        </g>
      </g>
      <g class="cls-2">
        <g class="cls-6">
          <g class="cls-2">
            <path class="cls-4" d="M894.06,444.43,894,485.18a113.12,113.12,0,0,0-12.52-5.9l.11-40.76a110.67,110.67,0,0,1,12.52,5.91"/>
            <path class="cls-7" d="M881.54,438.52l-.11,40.76c-2.57-1-5.08-1.87-7.52-2.57L874,436c2.45.7,5,1.56,7.52,2.57"/>
            <path class="cls-8" d="M874,436l-.11,40.76c-1.62-.46-3.22-.85-4.79-1.18l.12-40.75c1.57.32,3.16.71,4.78,1.17"/>
            <path class="cls-9" d="M869.24,434.78l-.12,40.75q-1.82-.37-3.6-.63l.12-40.75q1.77.24,3.6.63"/>
            <path class="cls-10" d="M865.64,434.15l-.12,40.75c-1-.14-2-.26-3-.34l.11-40.76c1,.08,2,.2,3.06.35"/>
            <path class="cls-11" d="M862.58,433.8l-.11,40.76c-.93-.08-1.85-.13-2.75-.15l.11-40.76c.91,0,1.83.07,2.75.15"/>
            <path class="cls-12" d="M859.83,433.65l-.11,40.76c-.89,0-1.77,0-2.64,0l.11-40.76c.87,0,1.75,0,2.64,0"/>
            <path class="cls-13" d="M857.19,433.66l-.11,40.76q-1.38,0-2.73.18l.12-40.76c.89-.09,1.8-.15,2.72-.18"/>
            <path class="cls-14" d="M854.47,433.84l-.12,40.76c-.9.09-1.79.21-2.66.36l-.68.12.12-40.76.67-.12q1.32-.22,2.67-.36"/>
            <path class="cls-15" d="M851.13,434.32,851,475.08q-7.44,1.35-23.23,6.41l.12-40.76q15.78-5.06,23.23-6.41"/>
            <path class="cls-16" d="M827.9,440.73l-.12,40.76q-23.61,7.58-65.89,23.43l.11-40.75q42.29-15.87,65.9-23.44"/>
          </g>
        </g>
      </g>
      <polygon class="cls-17" points="615.12 480.15 615 520.9 561.68 490.12 561.8 449.36 615.12 480.15"/>
      <g class="cls-2">
        <g class="cls-18">
          <g class="cls-2">
            <path class="cls-16" d="M762,464.17l-.11,40.75q-32.76,13.23-54.38,21.23l.12-40.76q21.61-8,54.37-21.22"/>
          </g>
        </g>
      </g>
      <g class="cls-2">
        <g class="cls-19">
          <g class="cls-2">
            <path class="cls-9" d="M978.54,466.34l-.11,40.76c0,.14,0,.28,0,.42l.12-40.76v-.42"/>
            <path class="cls-10" d="M978.54,466.76l-.12,40.76a17.18,17.18,0,0,1-.3,2.68l.11-40.76a15.94,15.94,0,0,0,.31-2.68"/>
            <path class="cls-11" d="M978.23,469.44l-.11,40.76a17.74,17.74,0,0,1-.73,2.53l.12-40.76a16.17,16.17,0,0,0,.72-2.53"/>
            <path class="cls-12" d="M977.51,472l-.12,40.76a17.3,17.3,0,0,1-1.2,2.55l.12-40.75a19.13,19.13,0,0,0,1.2-2.56"/>
            <path class="cls-13" d="M976.31,474.53l-.12,40.75a21,21,0,0,1-1.85,2.75l.12-40.76a22,22,0,0,0,1.85-2.74"/>
            <path class="cls-14" d="M974.46,477.27,974.34,518a29.18,29.18,0,0,1-3.07,3.3l.11-40.76a28.41,28.41,0,0,0,3.08-3.3"/>
            <path class="cls-15" d="M971.38,480.57l-.11,40.76a45.84,45.84,0,0,1-7.44,5.47l.11-40.76a45.41,45.41,0,0,0,7.44-5.47"/>
            <path class="cls-16" d="M963.94,486l-.11,40.76-.9.53a54.14,54.14,0,0,1-10.78,4.73l.12-40.75A54.65,54.65,0,0,0,963,486.57c.31-.17.61-.35.9-.53"/>
            <path class="cls-15" d="M952.27,491.31l-.12,40.75a69.91,69.91,0,0,1-9.2,2.27l.12-40.76a72.36,72.36,0,0,0,9.2-2.26"/>
            <path class="cls-14" d="M943.07,493.57,943,534.33q-3.39.61-7.05,1l.12-40.76q3.65-.36,7.05-1"/>
            <path class="cls-13" d="M936,494.55l-.12,40.76q-3.39.33-7,.46L929,495c2.4-.08,4.73-.24,7-.46"/>
            <path class="cls-12" d="M929,495l-.12,40.76h-.26q-2.76.09-5.4,0l.12-40.76c1.76,0,3.56,0,5.39,0H929"/>
            <path class="cls-11" d="M923.37,495l-.12,40.76c-1.64,0-3.25-.13-4.82-.26l.12-40.76c1.57.13,3.18.22,4.82.26"/>
            <path class="cls-10" d="M918.55,494.78l-.12,40.76c-1.49-.12-2.95-.29-4.37-.49l.11-40.76c1.43.21,2.89.37,4.38.49"/>
            <path class="cls-9" d="M914.17,494.29l-.11,40.76c-1.44-.2-2.85-.45-4.22-.73l.12-40.76c1.37.29,2.78.53,4.21.73"/>
            <path class="cls-8" d="M910,493.56l-.12,40.76c-1.49-.31-3-.67-4.37-1.07l.11-40.76c1.42.41,2.88.76,4.38,1.07"/>
            <path class="cls-7" d="M905.58,492.49l-.11,40.76a53.53,53.53,0,0,1-5.1-1.72l.12-40.76q2.46,1,5.09,1.72"/>
            <path class="cls-4" d="M900.49,490.77l-.12,40.76a49.91,49.91,0,0,1-6.62-3.19q-9.91-5.72-10.07-12.75v-.27l.12-40.76a2.43,2.43,0,0,0,0,.27q.15,7,10.06,12.75a48.26,48.26,0,0,0,6.63,3.19"/>
          </g>
        </g>
      </g>
      <polygon class="cls-20" points="664.33 507.86 664.21 548.62 657.98 545.47 658.1 504.71 664.33 507.86"/>
      <polygon class="cls-17" points="730.2 545.89 730.09 586.65 664.21 548.62 664.33 507.86 730.2 545.89"/>
      <g class="cls-2">
        <g class="cls-21">
          <g class="cls-2">
            <path class="cls-7" d="M742.41,552.05l-.11,40.75c-.22-.07-.44-.16-.67-.25l.11-40.76.67.26"/>
            <path class="cls-4" d="M741.74,551.79l-.11,40.76a93.66,93.66,0,0,1-11.54-5.9l.11-40.76a95.11,95.11,0,0,0,11.54,5.9"/>
          </g>
        </g>
      </g>
      <g class="cls-2">
        <g class="cls-22">
          <g class="cls-2">
            <path class="cls-9" d="M787.14,535.83,787,576.59s0,.08,0,.12l.12-40.76v-.12"/>
            <path class="cls-10" d="M787.14,536,787,576.71a4.11,4.11,0,0,1-.08.77l.11-40.76a5,5,0,0,0,.09-.77"/>
            <path class="cls-11" d="M787.05,536.72l-.11,40.76a5.31,5.31,0,0,1-.22.75l.11-40.76a4.25,4.25,0,0,0,.22-.75"/>
            <path class="cls-12" d="M786.83,537.47l-.11,40.76a5.51,5.51,0,0,1-.37.78l.12-40.75a5.53,5.53,0,0,0,.36-.79"/>
            <path class="cls-13" d="M786.47,538.26,786.35,579a6.86,6.86,0,0,1-.6.88l.12-40.75a7.63,7.63,0,0,0,.6-.88"/>
            <path class="cls-14" d="M785.87,539.14l-.12,40.75a8.42,8.42,0,0,1-1,1.09l.12-40.76a11.09,11.09,0,0,0,1-1.08"/>
            <path class="cls-15" d="M784.86,540.22,784.74,581a16.39,16.39,0,0,1-2.72,2l.12-40.76a16.39,16.39,0,0,0,2.72-2"/>
            <path class="cls-16" d="M782.14,542.21,782,583l-.31.19a92.32,92.32,0,0,1-17.83,8.21l.12-40.76a91.39,91.39,0,0,0,17.82-8.21l.32-.19"/>
            <path class="cls-15" d="M764,550.61l-.12,40.76a53.81,53.81,0,0,1-6.85,1.74l.12-40.76a54.24,54.24,0,0,0,6.85-1.74"/>
            <path class="cls-14" d="M757.15,552.35,757,593.11c-1.15.2-2.27.36-3.38.47l.12-40.75c1.1-.11,2.23-.27,3.38-.48"/>
            <path class="cls-13" d="M753.77,552.83l-.12,40.75c-.83.09-1.65.14-2.45.17l.11-40.76c.81,0,1.63-.08,2.46-.16"/>
            <path class="cls-12" d="M751.31,553l-.11,40.76c-.69,0-1.37,0-2,0l.11-40.76c.67,0,1.35,0,2,0"/>
            <path class="cls-11" d="M749.27,553l-.11,40.76c-.62,0-1.23,0-1.83-.1l.11-40.75q.9.08,1.83.09"/>
            <path class="cls-10" d="M747.44,552.91l-.11,40.75c-.59,0-1.18-.11-1.75-.19l.11-40.76c.58.08,1.16.15,1.75.2"/>
            <path class="cls-9" d="M745.69,552.71l-.11,40.76c-.6-.09-1.2-.19-1.78-.31l.11-40.76c.59.12,1.18.23,1.78.31"/>
            <path class="cls-8" d="M743.91,552.4l-.11,40.76c-.51-.11-1-.22-1.5-.36l.11-40.75c.5.13,1,.25,1.5.35"/>
          </g>
        </g>
      </g>
      <g class="cls-2">
        <g class="cls-23">
          <g class="cls-2">
            <path class="cls-9" d="M139.92,610.78l-.12,40.76c0,.09,0,.19,0,.29l.12-40.76a2.81,2.81,0,0,1,0-.29"/>
            <path class="cls-10" d="M139.91,611.07l-.12,40.76a9.74,9.74,0,0,1-.21,1.87l.12-40.76a11.51,11.51,0,0,0,.21-1.87"/>
            <path class="cls-11" d="M139.7,612.94l-.12,40.76a10.4,10.4,0,0,1-.49,1.71l.12-40.76a11.48,11.48,0,0,0,.49-1.71"/>
            <path class="cls-12" d="M139.21,614.65l-.12,40.76a11.34,11.34,0,0,1-.78,1.66l.12-40.75a11.45,11.45,0,0,0,.78-1.67"/>
            <path class="cls-13" d="M138.43,616.32l-.12,40.75a12.84,12.84,0,0,1-1.16,1.74l.11-40.76a12.53,12.53,0,0,0,1.17-1.73"/>
            <path class="cls-14" d="M137.26,618.05l-.11,40.76a16.51,16.51,0,0,1-1.87,2l.12-40.75a17.31,17.31,0,0,0,1.86-2"/>
            <path class="cls-15" d="M135.4,620.06l-.12,40.75A25.78,25.78,0,0,1,131,664l.12-40.76a25.76,25.76,0,0,0,4.24-3.13"/>
            <path class="cls-16" d="M131.16,623.19,131,664l-.52.31a53.21,53.21,0,0,1-10.4,4.42l.12-40.76a53.48,53.48,0,0,0,10.4-4.42l.52-.31"/>
            <path class="cls-15" d="M120.24,627.92l-.12,40.76q-4,1.27-8.78,2.37l.11-40.76q4.81-1.1,8.79-2.37"/>
          </g>
        </g>
      </g>
      <g class="cls-2">
        <g class="cls-24">
          <g class="cls-2">
            <path class="cls-16" d="M658.1,504.71,658,545.47Q383.55,657.28,293.32,687.7q-7.53,2.56-14.84,4.9l.12-40.75q7.31-2.36,14.84-4.91,90.22-30.42,364.66-142.23"/>
            <path class="cls-15" d="M278.6,651.85l-.12,40.75Q237.4,705.77,203.21,712l.11-40.76q34.19-6.18,75.28-19.34"/>
            <path class="cls-14" d="M203.32,671.19,203.21,712q-15,2.71-28.74,4.08l.11-40.75q13.71-1.37,28.74-4.09"/>
            <path class="cls-13" d="M174.58,675.28,174.47,716q-9.36.93-18.1,1.24l.11-40.76q8.75-.3,18.1-1.23"/>
            <path class="cls-12" d="M156.48,676.51l-.11,40.76q-6.94.24-13.51.07l.12-40.75q6.56.15,13.5-.08"/>
            <path class="cls-11" d="M143,676.59l-.12,40.75q-5.7-.14-11.1-.58l.12-40.76c3.6.3,7.3.49,11.1.59"/>
            <path class="cls-10" d="M131.88,676l-.12,40.76q-5-.42-9.8-1.09l.12-40.76c3.18.45,6.45.82,9.8,1.09"/>
            <path class="cls-9" d="M122.08,674.91,122,715.67c-3.15-.44-6.21-1-9.19-1.59l.12-40.76q4.47.93,9.19,1.59"/>
            <path class="cls-8" d="M112.89,673.32l-.12,40.76q-4.74-1-9.21-2.26l.12-40.76q4.45,1.28,9.21,2.26"/>
            <path class="cls-7" d="M103.68,671.06l-.12,40.76q-5.36-1.53-10.29-3.48l.11-40.76q5,1.95,10.3,3.48"/>
            <path class="cls-4" d="M93.38,667.58l-.11,40.76a95,95,0,0,1-12.79-6.14q-22.61-13.05-33-30.8a21.19,21.19,0,0,1-3.27-10.76l.12-40.76a21.23,21.23,0,0,0,3.27,10.77q10.44,17.73,33,30.79a95.45,95.45,0,0,0,12.78,6.14"/>
          </g>
        </g>
      </g>
      <path class="cls-25" d="M939.82,422.67q24,13.83,35.1,32.19T963,486.57q-13.37,7.79-34.28,8.45t-34.9-7.44q-9.9-5.71-10.06-12.75t9.09-12.41q6.87-4,18.85-7-5.57-4-17.68-11-24.33-13.26-42.26-10.23t-89.8,30q-32.75,13.21-54.37,21.22l70.54,40.73q15.89,9.17,3.65,16.28-23.79,13.82-39.41,9.65a86.61,86.61,0,0,1-12.21-6.16l-65.87-38-6.23-3.15Q383.67,616.52,293.44,646.94q-149.68,51-212.84,14.5-22.62-13.05-33-30.79t12.25-30.92q14.79-8.58,35.48-9.34c13.84-.5,25.39,1.93,34.74,7.33q9.91,5.73,9.89,13.06c0,4.88-3.1,9.13-9.28,12.72q-6.84,4-19.19,6.79,6.26,4.4,14.89,9.4,15.27,8.8,37.88,6.76t74.64-22q52-20,163.84-62.89,72.75-28,122.35-47t66.24-25.44q16.65-6.39,23.83-9L561.8,449.36q-16.27-9.39-4-16.5,6.29-3.64,19.2-7.52t20.28-2.07c2.78.54,6.53,2.16,11.18,4.84L665,460.8l77.26-29.68q19.71-7.56,41.92-14.66a321.06,321.06,0,0,1,38.38-10.1,256.64,256.64,0,0,1,60.46-.93Q915.28,408.51,939.82,422.67Z"/>
    </g>
  </g>
</svg>
