<svg xmlns="http://www.w3.org/2000/svg" xmlns:xlink="http://www.w3.org/1999/xlink" viewBox="0 0 1000 1000">
  <defs>
    <style>
      .cls-1 {
        fill: none;
      }

      .cls-2 {
        isolation: isolate;
      }

      .cls-3 {
        clip-path: url(#clip-path);
      }

      .cls-4 {
        fill: #858585;
      }

      .cls-5 {
        clip-path: url(#clip-path-2);
      }

      .cls-6 {
        clip-path: url(#clip-path-3);
      }

      .cls-7 {
        fill: #8a8a8a;
      }

      .cls-8 {
        fill: #8f8f8f;
      }

      .cls-9 {
        fill: #949494;
      }

      .cls-10 {
        fill: #999;
      }

      .cls-11 {
        fill: #9e9e9e;
      }

      .cls-12 {
        fill: #a3a3a3;
      }

      .cls-13 {
        fill: #a8a8a8;
      }

      .cls-14 {
        fill: #adadad;
      }

      .cls-15 {
        fill: #b3b3b3;
      }

      .cls-16 {
        fill: #b8b8b8;
      }

      .cls-17 {
        fill: #898989;
      }

      .cls-18 {
        clip-path: url(#clip-path-4);
      }

      .cls-19 {
        clip-path: url(#clip-path-5);
      }

      .cls-20 {
        fill: #8c8c8c;
      }

      .cls-21 {
        clip-path: url(#clip-path-6);
      }

      .cls-22 {
        clip-path: url(#clip-path-7);
      }

      .cls-23 {
        clip-path: url(#clip-path-8);
      }

      .cls-24 {
        clip-path: url(#clip-path-9);
      }

      .cls-25 {
        fill: #dcdcdc;
      }

      .cls-26 {
        clip-path: url(#clip-path-10);
      }

      .cls-27 {
        fill: #a0a0a0;
      }

      .cls-28 {
        clip-path: url(#clip-path-11);
      }

      .cls-29 {
        fill: gray;
      }

      .cls-30 {
        clip-path: url(#clip-path-12);
      }

      .cls-31 {
        clip-path: url(#clip-path-13);
      }

      .cls-32 {
        clip-path: url(#clip-path-14);
      }

      .cls-33 {
        clip-path: url(#clip-path-15);
      }

      .cls-34 {
        clip-path: url(#clip-path-16);
      }
    </style>
    <clipPath id="clip-path">
      <path class="cls-1" d="M537.39,394.13l.12-40.76q0,4.63,9.29,10l-.11,40.76Q537.38,398.76,537.39,394.13Z"/>
    </clipPath>
    <clipPath id="clip-path-2">
      <path class="cls-1" d="M896.74,369.42l-.12,40.76q-5.55-4-17.67-11l.12-40.76Q891.19,365.42,896.74,369.42Z"/>
    </clipPath>
    <clipPath id="clip-path-3">
      <path class="cls-1" d="M879.07,358.42,879,399.18Q854.62,385.94,836.69,389t-89.8,30l.12-40.76q71.84-27,89.79-30T879.07,358.42Z"/>
    </clipPath>
    <clipPath id="clip-path-4">
      <path class="cls-1" d="M747,378.17l-.12,40.76q-32.76,13.21-54.37,21.22l.12-40.76Q714.25,391.4,747,378.17Z"/>
    </clipPath>
    <clipPath id="clip-path-5">
      <path class="cls-1" d="M963.54,380.35l-.11,40.76q0,11.24-15.49,20.22-13.38,7.79-34.29,8.44t-34.9-7.43q-9.9-5.71-10.07-12.75v-.25l.11-40.75v.24q.16,7,10.08,12.76,14,8.09,34.9,7.42t34.28-8.43Q963.52,391.58,963.54,380.35Z"/>
    </clipPath>
    <clipPath id="clip-path-6">
      <path class="cls-1" d="M727.42,466.05l-.12,40.76a87.16,87.16,0,0,1-12.21-6.16l.12-40.76A86.61,86.61,0,0,0,727.42,466.05Z"/>
    </clipPath>
    <clipPath id="clip-path-7">
      <path class="cls-1" d="M772.15,449.84,772,490.59c0,2.32-1.78,4.51-5.32,6.57Q742.94,511,727.3,506.81l.12-40.76q15.63,4.17,39.41-9.65Q772.14,453.31,772.15,449.84Z"/>
    </clipPath>
    <clipPath id="clip-path-8">
      <path class="cls-1" d="M124.92,524.78l-.12,40.75q0,7.35-9.27,12.73-6.84,4-19.18,6.79l.11-40.76q12.35-2.82,19.19-6.79C121.83,533.91,124.9,529.67,124.92,524.78Z"/>
    </clipPath>
    <clipPath id="clip-path-9">
      <path class="cls-1" d="M29.18,574.64l.12-40.75a21.22,21.22,0,0,0,3.27,10.76q10.44,17.75,33,30.8,63.16,36.46,212.85-14.51,90.23-30.42,364.66-142.23L643,459.47Q368.57,571.28,278.33,601.7q-149.68,51-212.85,14.5-22.62-13.05-33-30.79A21.23,21.23,0,0,1,29.18,574.64Z"/>
    </clipPath>
    <clipPath id="clip-path-10">
      <path class="cls-1" d="M316.31,649.92l.11-40.75a10.52,10.52,0,0,0,1.18,4.43l-.12,40.75A10.57,10.57,0,0,1,316.31,649.92Z"/>
    </clipPath>
    <clipPath id="clip-path-11">
      <path class="cls-1" d="M558.11,656.49,558,697.25c0,1.5-.92,2.78-2.76,3.85a13.31,13.31,0,0,1-6.11,1.56,23.28,23.28,0,0,1-5.57-.26l-6.86-1.48.12-40.76c3.32.71,5.6,1.21,6.86,1.49a23.32,23.32,0,0,0,5.57.25,13.23,13.23,0,0,0,6.1-1.56Q558.11,658.73,558.11,656.49Z"/>
    </clipPath>
    <clipPath id="clip-path-12">
      <path class="cls-1" d="M385.72,715.78l-.11,40.76a5.28,5.28,0,0,1-2.84,4.81,15.26,15.26,0,0,1-7.85,1.86,15.91,15.91,0,0,1-8.05-2c-1.11-.64-2.39-2.18-3.86-4.62l.12-40.76q2.19,3.66,3.85,4.62a16,16,0,0,0,8.06,2,15.26,15.26,0,0,0,7.85-1.85A5.27,5.27,0,0,0,385.72,715.78Z"/>
    </clipPath>
    <clipPath id="clip-path-13">
      <path class="cls-1" d="M606.87,736.88l.11-40.75a10.44,10.44,0,0,0,.92,4l-.12,40.76A10.46,10.46,0,0,1,606.87,736.88Z"/>
    </clipPath>
    <clipPath id="clip-path-14">
      <path class="cls-1" d="M434.63,796.73l.12-40.76c0,1.6,1.06,3,3.2,4.26a23.55,23.55,0,0,0,6.95,2.34l-.11,40.75a23.24,23.24,0,0,1-7-2.34C435.69,799.75,434.63,798.33,434.63,796.73Z"/>
    </clipPath>
    <clipPath id="clip-path-15">
      <path class="cls-1" d="M648.92,792.44l-.12,40.76q-.84-1.92-6.39-14.46l.11-40.75Z"/>
    </clipPath>
    <clipPath id="clip-path-16">
      <path class="cls-1" d="M676,802.84l-.11,40.76a5.09,5.09,0,0,1-2.81,4.6,13.33,13.33,0,0,1-2.64,1.17,10.24,10.24,0,0,1-3,.48c-1.07,0-2,0-2.74.09a17.53,17.53,0,0,1-3.21-.24l-2.59-.36c-.35,0-1.21-.22-2.59-.54l.11-40.76c1.38.32,2.24.5,2.59.54l2.6.36a16.67,16.67,0,0,0,3.21.24c.75,0,1.67-.06,2.74-.09a10,10,0,0,0,3-.48,13.21,13.21,0,0,0,2.63-1.16A5.1,5.1,0,0,0,676,802.84Z"/>
    </clipPath>
  </defs>
  <title>function with type parameter</title>
  <g id="function_with_type_parameter" data-name="function with type parameter">
    <g class="cls-2">
      <g class="cls-2">
        <g class="cls-3">
          <g class="cls-2">
            <path class="cls-4" d="M546.8,363.37l-.11,40.76q-9.32-5.37-9.3-10l.12-40.76q0,4.63,9.29,10"/>
          </g>
        </g>
      </g>
      <g class="cls-2">
        <g class="cls-5">
          <g class="cls-2">
            <path class="cls-4" d="M896.74,369.42l-.12,40.76q-5.55-4-17.67-11l.12-40.76q12.12,7,17.67,11"/>
          </g>
        </g>
      </g>
      <g class="cls-2">
        <g class="cls-6">
          <g class="cls-2">
            <path class="cls-4" d="M879.07,358.42,879,399.18a112.17,112.17,0,0,0-12.51-5.9l.11-40.76a113.12,113.12,0,0,1,12.52,5.9"/>
            <path class="cls-7" d="M866.55,352.52l-.11,40.76q-3.86-1.51-7.52-2.57L859,350c2.45.69,5,1.55,7.52,2.56"/>
            <path class="cls-8" d="M859,350l-.11,40.75c-1.63-.46-3.22-.85-4.79-1.18l.12-40.75c1.56.32,3.16.71,4.78,1.18"/>
            <path class="cls-9" d="M854.25,348.78l-.12,40.75q-1.83-.37-3.6-.63l.11-40.76c1.19.17,2.39.38,3.61.64"/>
            <path class="cls-10" d="M850.64,348.14l-.11,40.76c-1-.14-2-.26-3.06-.34l.12-40.76c1,.08,2,.2,3,.34"/>
            <path class="cls-11" d="M847.59,347.8l-.12,40.76c-.93-.08-1.85-.13-2.75-.15l.11-40.76q1.36,0,2.76.15"/>
            <path class="cls-12" d="M844.83,347.65l-.11,40.76c-.89,0-1.78,0-2.65,0l.12-40.76c.87,0,1.75,0,2.64,0"/>
            <path class="cls-13" d="M842.19,347.66l-.12,40.76q-1.38,0-2.73.18l.12-40.76q1.35-.13,2.73-.18"/>
            <path class="cls-14" d="M839.46,347.84l-.12,40.76c-.89.09-1.78.21-2.65.36l-.65.11.11-40.76.65-.11c.88-.15,1.76-.27,2.66-.36"/>
            <path class="cls-15" d="M836.15,348.31,836,389.07q-7.44,1.35-23.24,6.42l.11-40.76q15.81-5.07,23.24-6.42"/>
            <path class="cls-16" d="M812.91,354.73l-.11,40.76q-23.62,7.58-65.91,23.44l.12-40.76q42.29-15.87,65.9-23.44"/>
          </g>
        </g>
      </g>
      <polygon class="cls-17" points="600.12 394.15 600 434.91 546.69 404.13 546.8 363.37 600.12 394.15"/>
      <g class="cls-2">
        <g class="cls-18">
          <g class="cls-2">
            <path class="cls-16" d="M747,378.17l-.12,40.76q-32.76,13.21-54.37,21.22l.12-40.76q21.61-8,54.37-21.22"/>
          </g>
        </g>
      </g>
      <g class="cls-2">
        <g class="cls-19">
          <g class="cls-2">
            <path class="cls-9" d="M963.54,380.35l-.11,40.76c0,.14,0,.28,0,.42l.12-40.76v-.42"/>
            <path class="cls-10" d="M963.54,380.77l-.12,40.76a15.17,15.17,0,0,1-.3,2.68l.11-40.76a16.06,16.06,0,0,0,.31-2.68"/>
            <path class="cls-11" d="M963.23,383.45l-.11,40.76a15.47,15.47,0,0,1-.73,2.53l.12-40.76a16.49,16.49,0,0,0,.72-2.53"/>
            <path class="cls-12" d="M962.51,386l-.12,40.76a18.31,18.31,0,0,1-1.19,2.55l.11-40.76a17.3,17.3,0,0,0,1.2-2.55"/>
            <path class="cls-13" d="M961.31,388.53l-.11,40.76a22.94,22.94,0,0,1-1.86,2.75l.12-40.76a21,21,0,0,0,1.85-2.75"/>
            <path class="cls-14" d="M959.46,391.28,959.34,432a27.45,27.45,0,0,1-3.07,3.29l.12-40.75a29.18,29.18,0,0,0,3.07-3.3"/>
            <path class="cls-15" d="M956.39,394.58l-.12,40.75a45.73,45.73,0,0,1-7.43,5.47L949,400a46,46,0,0,0,7.44-5.46"/>
            <path class="cls-16" d="M949,400l-.11,40.76-.9.53a54.31,54.31,0,0,1-10.77,4.73l.11-40.76a54.36,54.36,0,0,0,10.77-4.72l.9-.54"/>
            <path class="cls-15" d="M937.28,405.3l-.11,40.76a70.7,70.7,0,0,1-9.2,2.27l.11-40.76a69.91,69.91,0,0,0,9.2-2.27"/>
            <path class="cls-14" d="M928.08,407.57,928,448.33c-2.27.41-4.61.73-7.05,1l.11-40.75q3.66-.36,7.05-1"/>
            <path class="cls-13" d="M921,408.55l-.11,40.75q-3.37.34-7,.46l.12-40.76q3.6-.12,7-.45"/>
            <path class="cls-12" d="M914.06,409l-.12,40.76h-.29c-1.85.06-3.66.07-5.43,0l.12-40.75q2.65.06,5.43,0h.29"/>
            <path class="cls-11" d="M908.34,409l-.12,40.75c-1.63,0-3.23-.12-4.8-.25l.11-40.76c1.57.13,3.17.22,4.81.26"/>
            <path class="cls-10" d="M903.53,408.78l-.11,40.76c-1.49-.12-2.94-.28-4.36-.49l.11-40.75c1.43.2,2.88.36,4.36.48"/>
            <path class="cls-9" d="M899.17,408.3l-.11,40.75c-1.44-.2-2.84-.44-4.21-.73l.11-40.75c1.38.28,2.78.52,4.21.73"/>
            <path class="cls-8" d="M895,407.57l-.11,40.75c-1.49-.31-3-.66-4.37-1.07l.12-40.75c1.42.4,2.87.76,4.36,1.07"/>
            <path class="cls-7" d="M890.6,406.5l-.12,40.75q-2.62-.75-5.09-1.72l.11-40.75c1.64.64,3.34,1.22,5.1,1.72"/>
            <path class="cls-4" d="M885.5,404.78l-.11,40.75a49,49,0,0,1-6.64-3.19q-9.9-5.71-10.07-12.75v-.25l.11-40.75v.24q.16,7,10.08,12.76a50.65,50.65,0,0,0,6.63,3.19"/>
          </g>
        </g>
      </g>
      <polygon class="cls-20" points="649.34 421.86 649.22 462.62 642.99 459.47 643.11 418.71 649.34 421.86"/>
      <polygon class="cls-17" points="715.21 459.89 715.09 500.65 649.22 462.62 649.34 421.86 715.21 459.89"/>
      <g class="cls-2">
        <g class="cls-21">
          <g class="cls-2">
            <path class="cls-7" d="M727.42,466.05l-.12,40.76-.62-.24.11-40.76.63.24"/>
            <path class="cls-4" d="M726.79,465.81l-.11,40.76a94.28,94.28,0,0,1-11.59-5.92l.12-40.76a94.3,94.3,0,0,0,11.58,5.92"/>
          </g>
        </g>
      </g>
      <g class="cls-2">
        <g class="cls-22">
          <g class="cls-2">
            <path class="cls-9" d="M772.15,449.84,772,490.59v.12l.12-40.76v-.11"/>
            <path class="cls-10" d="M772.15,450,772,490.71a4,4,0,0,1-.08.77l.11-40.76a5,5,0,0,0,.09-.77"/>
            <path class="cls-11" d="M772.06,450.72,772,491.48a5.31,5.31,0,0,1-.22.75l.11-40.76a4.25,4.25,0,0,0,.22-.75"/>
            <path class="cls-12" d="M771.84,451.47l-.11,40.76a5.61,5.61,0,0,1-.37.79l.11-40.76a4.34,4.34,0,0,0,.37-.79"/>
            <path class="cls-13" d="M771.47,452.26,771.36,493a8.61,8.61,0,0,1-.6.88l.12-40.76a6.44,6.44,0,0,0,.59-.88"/>
            <path class="cls-14" d="M770.88,453.14l-.12,40.76a10,10,0,0,1-1,1.08l.12-40.76a11.09,11.09,0,0,0,1-1.08"/>
            <path class="cls-15" d="M769.87,454.22,769.75,495a16.39,16.39,0,0,1-2.72,2l.12-40.76a16.39,16.39,0,0,0,2.72-2"/>
            <path class="cls-16" d="M767.15,456.21,767,497l-.32.19a92,92,0,0,1-17.82,8.21l.12-40.76a91.39,91.39,0,0,0,17.82-8.21l.32-.19"/>
            <path class="cls-15" d="M749,464.61l-.12,40.76a54,54,0,0,1-6.86,1.74l.12-40.76a54.37,54.37,0,0,0,6.86-1.74"/>
            <path class="cls-14" d="M742.15,466.35,742,507.11c-1.15.21-2.28.37-3.38.48l.11-40.76q1.66-.16,3.39-.48"/>
            <path class="cls-13" d="M738.76,466.83l-.11,40.76c-.83.08-1.65.14-2.46.16l.12-40.75c.81,0,1.62-.09,2.45-.17"/>
            <path class="cls-12" d="M736.31,467l-.12,40.75c-.69,0-1.37,0-2,0l.12-40.75c.67,0,1.35,0,2,0"/>
            <path class="cls-11" d="M734.27,467l-.12,40.75q-.93,0-1.83-.09l.12-40.76c.6,0,1.21.08,1.83.1"/>
            <path class="cls-10" d="M732.44,466.91l-.12,40.76c-.59-.05-1.17-.12-1.75-.2l.12-40.76c.57.08,1.16.15,1.75.2"/>
            <path class="cls-9" d="M730.69,466.71l-.12,40.76c-.6-.08-1.19-.19-1.77-.31l.11-40.76c.58.13,1.18.23,1.78.31"/>
            <path class="cls-8" d="M728.91,466.4l-.11,40.76c-.51-.1-1-.22-1.5-.35l.12-40.76c.49.13,1,.25,1.49.35"/>
          </g>
        </g>
      </g>
      <g class="cls-2">
        <g class="cls-23">
          <g class="cls-2">
            <path class="cls-9" d="M124.92,524.78l-.12,40.75v.29l.11-40.76a2.62,2.62,0,0,0,0-.28"/>
            <path class="cls-10" d="M124.91,525.06l-.11,40.76a11.63,11.63,0,0,1-.21,1.88L124.7,527a10,10,0,0,0,.21-1.89"/>
            <path class="cls-11" d="M124.7,527l-.11,40.75a11.27,11.27,0,0,1-.49,1.72l.11-40.76a11.48,11.48,0,0,0,.49-1.71"/>
            <path class="cls-12" d="M124.21,528.66l-.11,40.76a13.87,13.87,0,0,1-.78,1.66l.11-40.75a11.45,11.45,0,0,0,.78-1.67"/>
            <path class="cls-13" d="M123.43,530.33l-.11,40.75a15.58,15.58,0,0,1-1.17,1.74l.11-40.76a12.53,12.53,0,0,0,1.17-1.73"/>
            <path class="cls-14" d="M122.26,532.06l-.11,40.76a18.09,18.09,0,0,1-1.86,2l.12-40.76a16.3,16.3,0,0,0,1.85-2"/>
            <path class="cls-15" d="M120.41,534.06l-.12,40.76a25.76,25.76,0,0,1-4.24,3.13l.12-40.76a26.19,26.19,0,0,0,4.24-3.13"/>
            <path class="cls-16" d="M116.17,537.19,116.05,578l-.52.31a53.63,53.63,0,0,1-10.39,4.42l.11-40.76a52.87,52.87,0,0,0,10.4-4.42l.52-.31"/>
            <path class="cls-15" d="M105.25,541.92l-.11,40.76q-4,1.27-8.79,2.37l.11-40.76q4.82-1.1,8.79-2.37"/>
          </g>
        </g>
      </g>
      <g class="cls-2">
        <g class="cls-24">
          <g class="cls-2">
            <path class="cls-16" d="M643.11,418.71,643,459.47Q368.57,571.28,278.33,601.7q-7.51,2.55-14.81,4.89l.12-40.75q7.29-2.34,14.81-4.9,90.23-30.42,364.66-142.23"/>
            <path class="cls-15" d="M263.64,565.84l-.12,40.75Q222.41,619.78,188.21,626l.11-40.76q34.2-6.18,75.32-19.35"/>
            <path class="cls-14" d="M188.32,585.19,188.21,626q-15,2.73-28.75,4.09l.12-40.76q13.69-1.37,28.74-4.09"/>
            <path class="cls-13" d="M159.58,589.28,159.46,630q-9.36.93-18.1,1.23l.12-40.76q8.73-.3,18.1-1.23"/>
            <path class="cls-12" d="M141.48,590.51l-.12,40.76q-6.95.24-13.5.08l.11-40.76q6.56.17,13.51-.08"/>
            <path class="cls-11" d="M128,590.59l-.11,40.76c-3.8-.1-7.5-.29-11.1-.59l.12-40.76c3.59.3,7.29.49,11.09.59"/>
            <path class="cls-10" d="M116.88,590l-.12,40.76c-3.36-.27-6.62-.64-9.8-1.09l.11-40.75q4.77.68,9.81,1.08"/>
            <path class="cls-9" d="M107.07,588.92,107,629.67q-4.72-.66-9.19-1.59l.11-40.76q4.47.93,9.19,1.6"/>
            <path class="cls-8" d="M97.88,587.32l-.11,40.76q-4.76-1-9.21-2.26l.12-40.76c3,.85,6,1.61,9.2,2.26"/>
            <path class="cls-7" d="M88.68,585.06l-.12,40.76q-5.36-1.53-10.29-3.48l.11-40.75q5,1.95,10.3,3.47"/>
            <path class="cls-4" d="M78.38,581.59l-.11,40.75a95.58,95.58,0,0,1-12.79-6.14q-22.62-13.05-33-30.79a21.23,21.23,0,0,1-3.27-10.77l.12-40.75a21.22,21.22,0,0,0,3.27,10.76q10.44,17.75,33,30.8a96.68,96.68,0,0,0,12.78,6.14"/>
          </g>
        </g>
      </g>
      <path class="cls-25" d="M924.81,336.67q24,13.84,35.11,32.19t-11.87,31.72q-13.38,7.77-34.28,8.43t-34.9-7.42q-9.92-5.73-10.08-12.76t9.11-12.41q6.86-4,18.84-7-5.57-4-17.67-11-24.33-13.23-42.27-10.22t-89.79,30q-32.76,13.23-54.37,21.22l70.54,40.73q15.89,9.17,3.65,16.28-23.79,13.83-39.41,9.65a86.61,86.61,0,0,1-12.21-6.16l-65.87-38-6.23-3.15Q368.67,530.52,278.45,560.94q-149.68,51-212.85,14.51-22.62-13.07-33-30.8t12.25-30.92q14.77-8.58,35.47-9.34T115,511.72q9.9,5.71,9.88,13.06c0,4.89-3.09,9.13-9.27,12.72q-6.84,4-19.19,6.79,6.23,4.4,14.89,9.39,15.25,8.82,37.88,6.77t74.64-22l163.82-62.89,122.36-47,66.24-25.45q16.65-6.41,23.83-9L546.8,363.37q-16.27-9.4-4-16.51,6.29-3.64,19.21-7.52t20.27-2.06c2.79.54,6.54,2.15,11.19,4.83L650,374.8l77.27-29.68q19.71-7.56,41.91-14.66a326.21,326.21,0,0,1,38.38-10.11,257.26,257.26,0,0,1,60.47-.93Q900.29,322.51,924.81,336.67Z"/>
    </g>
    <g>
      <g class="cls-2">
        <g class="cls-2">
          <g class="cls-26">
            <g class="cls-2">
              <path class="cls-4" d="M317.6,613.6l-.12,40.75a10.57,10.57,0,0,1-1.17-4.43l.11-40.75a10.52,10.52,0,0,0,1.18,4.43"/>
            </g>
          </g>
        </g>
        <polygon class="cls-27" points="536.82 660.16 536.7 700.92 343.97 659.91 344.09 619.15 536.82 660.16"/>
        <g class="cls-2">
          <g class="cls-28">
            <g class="cls-2">
              <path class="cls-9" d="M558.11,656.49,558,697.25a.28.28,0,0,1,0,.09l.12-40.76v-.09"/>
              <path class="cls-10" d="M558.11,656.58,558,697.34a2.88,2.88,0,0,1-.06.59l.11-40.76a3.81,3.81,0,0,0,.07-.59"/>
              <path class="cls-11" d="M558,657.17l-.11,40.76a4.61,4.61,0,0,1-.15.53l.11-40.76a2.46,2.46,0,0,0,.15-.53"/>
              <path class="cls-12" d="M557.89,657.7l-.11,40.76q-.1.25-.24.51l.11-40.76a2.93,2.93,0,0,0,.24-.51"/>
              <path class="cls-13" d="M557.65,658.21,557.54,699a3.46,3.46,0,0,1-.36.52l.12-40.75a4.41,4.41,0,0,0,.35-.53"/>
              <path class="cls-14" d="M557.3,658.74l-.12,40.75a4.39,4.39,0,0,1-.55.6l.11-40.75a6.14,6.14,0,0,0,.56-.6"/>
              <path class="cls-15" d="M556.74,659.34l-.11,40.75a7.83,7.83,0,0,1-1.24.92l.11-40.76a7.37,7.37,0,0,0,1.24-.91"/>
              <path class="cls-16" d="M555.5,660.25,555.39,701l-.15.09a10.8,10.8,0,0,1-2,.88l.12-40.76a9.84,9.84,0,0,0,2-.88l.15-.09"/>
              <path class="cls-15" d="M553.35,661.22,553.23,702a13.37,13.37,0,0,1-1.71.42l.12-40.76a14.25,14.25,0,0,0,1.71-.42"/>
              <path class="cls-14" d="M551.64,661.64l-.12,40.76c-.42.08-.85.14-1.3.18l.11-40.76c.45,0,.89-.1,1.31-.18"/>
              <path class="cls-13" d="M550.33,661.82l-.11,40.76c-.36,0-.72.06-1.09.08l-.49,0,.12-40.76.49,0c.37,0,.73,0,1.08-.08"/>
              <path class="cls-12" d="M548.76,661.92l-.12,40.76c-.81,0-1.55,0-2.21,0l.11-40.76c.67,0,1.41,0,2.22,0"/>
              <path class="cls-11" d="M546.54,661.93l-.11,40.76c-.46,0-.89,0-1.28-.06l.11-40.76c.4,0,.82,0,1.28.06"/>
              <path class="cls-10" d="M545.26,661.87l-.11,40.76-.86-.1.12-40.76.85.1"/>
              <path class="cls-9" d="M544.41,661.77l-.12,40.76-.62-.1.11-40.76.63.1"/>
              <path class="cls-8" d="M543.78,661.67l-.11,40.76-.11,0-6.86-1.48.12-40.76c3.32.71,5.6,1.21,6.86,1.49l.1,0"/>
            </g>
          </g>
        </g>
        <polygon class="cls-29" points="363.13 715.83 363.01 756.59 317.48 654.35 317.6 613.6 363.13 715.83"/>
        <path class="cls-25" d="M554.69,651.57q3,1.74,3.38,4.36c.25,1.74-.65,3.21-2.72,4.41a13.23,13.23,0,0,1-6.1,1.56,23.32,23.32,0,0,1-5.57-.25c-1.26-.28-3.54-.78-6.86-1.49l-192.73-41c1.38,2.8,2.36,4.85,2.91,6.13l37.77,86.28q2.6,6.44-1.88,9a15.26,15.26,0,0,1-7.85,1.85,16,16,0,0,1-8.06-2q-1.67-1-3.85-4.62L317.6,613.6q-3-6.42,1.81-9.25a13.21,13.21,0,0,1,2.63-1.16,10,10,0,0,1,3-.48c1.07,0,2,0,2.85,0A23.18,23.18,0,0,1,331,603c1.21.17,2.1.32,2.7.42s1.49.27,2.74.51a15.38,15.38,0,0,1,2.07.47l209.29,45.12A26,26,0,0,1,554.69,651.57Z"/>
        <g class="cls-2">
          <g class="cls-30">
            <g class="cls-2">
              <path class="cls-9" d="M385.72,715.78l-.11,40.76a1.09,1.09,0,0,1,0,.18l.12-40.76v-.18"/>
              <path class="cls-10" d="M385.72,716l-.12,40.76a5.7,5.7,0,0,1-.11,1l.12-40.76a6.77,6.77,0,0,0,.11-1"/>
              <path class="cls-11" d="M385.61,717l-.12,40.76a5.39,5.39,0,0,1-.23.81l.11-40.76a5.41,5.41,0,0,0,.24-.81"/>
              <path class="cls-12" d="M385.37,717.8l-.11,40.76a5.42,5.42,0,0,1-.32.69l.11-40.76a3.6,3.6,0,0,0,.32-.69"/>
              <path class="cls-13" d="M385.05,718.49l-.11,40.76a4.31,4.31,0,0,1-.42.63l.11-40.76a4.31,4.31,0,0,0,.42-.63"/>
              <path class="cls-14" d="M384.63,719.12l-.11,40.76a6.53,6.53,0,0,1-.57.62l.11-40.76a5.51,5.51,0,0,0,.57-.62"/>
              <path class="cls-15" d="M384.06,719.74,384,760.5a6.83,6.83,0,0,1-1.08.79l.12-40.75a6.94,6.94,0,0,0,1.07-.8"/>
              <path class="cls-16" d="M383,720.54l-.12,40.75-.1.06a12.3,12.3,0,0,1-2.48,1.1l.11-40.76a12.68,12.68,0,0,0,2.49-1.09l.1-.06"/>
              <path class="cls-15" d="M380.4,721.69l-.11,40.76a14.4,14.4,0,0,1-1.91.47l.12-40.75a14.27,14.27,0,0,0,1.9-.48"/>
              <path class="cls-14" d="M378.5,722.17l-.12,40.75c-.44.08-.89.15-1.36.19l.12-40.76c.46,0,.92-.11,1.36-.18"/>
              <path class="cls-13" d="M377.14,722.35,377,763.11c-.41,0-.84.07-1.27.09l.11-40.76c.44,0,.86-.05,1.28-.09"/>
              <path class="cls-12" d="M375.86,722.44l-.11,40.76h-1.28l.11-40.76h1.28"/>
              <path class="cls-11" d="M374.58,722.44l-.11,40.76q-.59,0-1.14-.06l.11-40.76,1.14.06"/>
              <path class="cls-10" d="M373.44,722.38l-.11,40.76c-.36,0-.72-.07-1.07-.12l.12-40.76c.35,0,.7.09,1.06.12"/>
              <path class="cls-9" d="M372.38,722.26,372.26,763q-.54-.07-1.05-.18l.11-40.76c.35.07.7.13,1.06.18"/>
              <path class="cls-8" d="M371.32,722.08l-.11,40.76c-.39-.08-.76-.17-1.13-.28l.12-40.75c.37.1.74.19,1.12.27"/>
              <path class="cls-7" d="M370.2,721.81l-.12,40.75q-.69-.19-1.35-.45l.11-40.76c.44.17.89.32,1.36.46"/>
              <path class="cls-4" d="M368.84,721.35l-.11,40.76a14.52,14.52,0,0,1-1.86-.9c-1.11-.64-2.39-2.18-3.86-4.62l.12-40.76q2.19,3.66,3.85,4.62a15.93,15.93,0,0,0,1.86.9"/>
            </g>
          </g>
        </g>
      </g>
      <g class="cls-2">
        <g class="cls-2">
          <g class="cls-31">
            <g class="cls-2">
              <path class="cls-4" d="M607.9,700.11l-.12,40.76a10.46,10.46,0,0,1-.91-4l.11-40.75a10.44,10.44,0,0,0,.92,4"/>
            </g>
          </g>
        </g>
        <g class="cls-2">
          <g class="cls-32">
            <g class="cls-2">
              <path class="cls-9" d="M444.9,762.57l-.11,40.75-.2,0,.11-40.76.2.05"/>
              <path class="cls-8" d="M444.7,762.52l-.11,40.76c-.93-.19-1.79-.4-2.58-.62l.11-40.76c.8.23,1.66.43,2.58.62"/>
              <path class="cls-7" d="M442.12,761.9,442,802.66c-.8-.23-1.53-.47-2.19-.73l.11-40.76c.67.26,1.4.5,2.19.73"/>
              <path class="cls-4" d="M439.93,761.17l-.11,40.76a16.09,16.09,0,0,1-2-.95c-2.14-1.23-3.2-2.65-3.2-4.25l.12-40.76c0,1.6,1.06,3,3.2,4.26a15.28,15.28,0,0,0,2,.94"/>
            </g>
          </g>
        </g>
        <polygon class="cls-29" points="642.52 777.99 642.41 818.74 607.78 740.87 607.9 700.11 642.52 777.99"/>
        <g class="cls-2">
          <g class="cls-33">
            <g class="cls-2">
              <path class="cls-4" d="M648.92,792.44l-.12,40.76q-.84-1.92-6.39-14.46l.11-40.75,6.4,14.45"/>
            </g>
          </g>
        </g>
        <polygon class="cls-27" points="654.38 807.56 654.27 848.32 444.79 803.33 444.9 762.57 654.38 807.56"/>
        <polygon class="cls-11" points="656.46 808.04 656.35 848.8 654.27 848.32 654.38 807.56 656.46 808.04"/>
        <g class="cls-2">
          <g class="cls-34">
            <g class="cls-2">
              <path class="cls-9" d="M676,802.84l-.11,40.76v.16L676,803v-.16"/>
              <path class="cls-10" d="M676,803l-.11,40.76a5.63,5.63,0,0,1-.11.93l.12-40.76a5.63,5.63,0,0,0,.1-.93"/>
              <path class="cls-11" d="M675.94,803.93l-.12,40.76a5,5,0,0,1-.21.76l.11-40.76a4.75,4.75,0,0,0,.22-.76"/>
              <path class="cls-12" d="M675.72,804.69l-.11,40.76a5.51,5.51,0,0,1-.31.65l.12-40.76a4.22,4.22,0,0,0,.3-.65"/>
              <path class="cls-13" d="M675.42,805.34l-.12,40.76a4.65,4.65,0,0,1-.41.61L675,806a5,5,0,0,0,.41-.61"/>
              <path class="cls-14" d="M675,806l-.12,40.76a4,4,0,0,1-.57.61l.12-40.75A6.53,6.53,0,0,0,675,806"/>
              <path class="cls-15" d="M674.44,806.57l-.12,40.75a5.94,5.94,0,0,1-1.1.82l.12-40.76a7.28,7.28,0,0,0,1.1-.81"/>
              <path class="cls-16" d="M673.34,807.38l-.12,40.76-.1.06a13.33,13.33,0,0,1-2.64,1.17l0,0,.12-40.76,0,0a13.21,13.21,0,0,0,2.63-1.16l.11-.07"/>
              <path class="cls-15" d="M670.56,808.63l-.12,40.76a9.54,9.54,0,0,1-1.2.29l.11-40.75a11.26,11.26,0,0,0,1.21-.3"/>
              <path class="cls-14" d="M669.35,808.93l-.11,40.75c-.27.05-.54.09-.82.12l.12-40.76.81-.11"/>
              <path class="cls-13" d="M668.54,809l-.12,40.76-.74.05.12-40.76.74-.05"/>
              <path class="cls-12" d="M667.8,809.09l-.12,40.76h-.2l-1.55,0,.11-40.76,1.56,0h.2"/>
              <path class="cls-13" d="M666,809.13l-.11,40.76-1.19.05h-.13l.11-40.76h.14l1.18,0"/>
              <path class="cls-12" d="M664.72,809.19,664.61,850h-.53l.12-40.76h.52"/>
              <path class="cls-11" d="M664.2,809.19,664.08,850c-.25,0-.53,0-.83-.05l.12-40.75c.3,0,.57,0,.83,0"/>
              <path class="cls-10" d="M663.37,809.15l-.12,40.75c-.46,0-1-.09-1.53-.17l.11-40.76c.57.08,1.08.14,1.54.18"/>
              <path class="cls-9" d="M661.83,809l-.11,40.76-.19,0-1.1-.16.11-40.76,1.11.16.18,0"/>
              <path class="cls-10" d="M660.54,808.78l-.11,40.76-1.49-.2h-.08l.11-40.76h.08l1.49.2"/>
              <path class="cls-9" d="M659,808.57l-.11,40.76c-.17,0-.42-.07-.75-.14l.11-40.76.75.14"/>
              <path class="cls-8" d="M658.22,808.43l-.11,40.76-1.76-.39.11-40.76,1.76.39"/>
            </g>
          </g>
        </g>
        <path class="cls-25" d="M625.67,691.35q1.65,1,3.85,4.62l45.32,102.35c2,4.29,1.5,7.32-1.61,9.13a13.21,13.21,0,0,1-2.63,1.16,10,10,0,0,1-3,.48c-1.07,0-2,0-2.74.09a16.67,16.67,0,0,1-3.21-.24l-2.6-.36c-.35,0-1.21-.22-2.59-.54l-2.08-.48-209.48-45a23.55,23.55,0,0,1-6.95-2.34q-3.43-2-3.18-4.59t3.24-4.35a16.16,16.16,0,0,1,4.23-1.74,14.67,14.67,0,0,1,5.44-.09c2.17.3,3.56.5,4.15.6l4.92.93,192.17,41.45L642.52,778,607.9,700.11c-1.69-4.08-1-7,1.92-8.7a15.91,15.91,0,0,1,7.81-1.95A15.2,15.2,0,0,1,625.67,691.35Z"/>
      </g>
    </g>
  </g>
</svg>
