<svg xmlns="http://www.w3.org/2000/svg" xmlns:xlink="http://www.w3.org/1999/xlink" viewBox="0 0 1000 1000">
  <defs>
    <style>
      .cls-1 {
        fill: none;
      }

      .cls-2 {
        isolation: isolate;
      }

      .cls-3 {
        fill: #dcdcdc;
      }

      .cls-4 {
        clip-path: url(#clip-path);
      }

      .cls-5 {
        fill: #ccc;
      }

      .cls-6 {
        fill: #d1d1d1;
      }

      .cls-7 {
        fill: #d6d6d6;
      }

      .cls-8 {
        fill: #dbdbdb;
      }

      .cls-9 {
        fill: #e0e0e0;
      }

      .cls-10 {
        fill: #e6e6e6;
      }

      .cls-11 {
        fill: #ebebeb;
      }

      .cls-12 {
        fill: #f0f0f0;
      }

      .cls-13 {
        fill: #f5f5f5;
      }

      .cls-14 {
        fill: #fafafa;
      }

      .cls-15 {
        fill: #fff;
      }

      .cls-16 {
        fill: #c7c7c7;
      }

      .cls-17 {
        fill: #c2c2c2;
      }

      .cls-18 {
        fill: #bdbdbd;
      }

      .cls-19 {
        fill: #b8b8b8;
      }

      .cls-20 {
        fill: #b3b3b3;
      }

      .cls-21 {
        fill: #adadad;
      }

      .cls-22 {
        fill: #a8a8a8;
      }

      .cls-23 {
        fill: #a3a3a3;
      }

      .cls-24 {
        fill: #9e9e9e;
      }

      .cls-25 {
        fill: #999;
      }

      .cls-26 {
        fill: #949494;
      }

      .cls-27 {
        fill: #8f8f8f;
      }

      .cls-28 {
        fill: #8a8a8a;
      }

      .cls-29 {
        fill: #858585;
      }

      .cls-30 {
        clip-path: url(#clip-path-2);
      }

      .cls-31 {
        clip-path: url(#clip-path-3);
      }

      .cls-32 {
        clip-path: url(#clip-path-4);
      }

      .cls-33 {
        fill: #a6a6a6;
      }

      .cls-34 {
        clip-path: url(#clip-path-5);
      }

      .cls-35 {
        fill: #898989;
      }

      .cls-36 {
        clip-path: url(#clip-path-6);
      }

      .cls-37 {
        clip-path: url(#clip-path-7);
      }

      .cls-38 {
        clip-path: url(#clip-path-8);
      }

      .cls-39 {
        fill: #a5a5a5;
      }

      .cls-40 {
        clip-path: url(#clip-path-9);
      }
    </style>
    <clipPath id="clip-path">
      <path class="cls-1" d="M412.87,842.16l-35.24,20.48q7.15-4.15,7.21-23.91,0-14.7-17.61-24.9l35.24-20.48q17.65,10.2,17.61,24.91Q420,838,412.87,842.16Z"/>
    </clipPath>
    <clipPath id="clip-path-2">
      <path class="cls-1" d="M457.62,871.06l35.24-20.48a5.61,5.61,0,0,1,2-.71L459.6,870.35A5.61,5.61,0,0,0,457.62,871.06Z"/>
    </clipPath>
    <clipPath id="clip-path-3">
      <path class="cls-1" d="M459.6,870.35l35.24-20.48q3.46-1.2,10.07,2.62L469.67,873Q463.07,869.16,459.6,870.35Z"/>
    </clipPath>
    <clipPath id="clip-path-4">
      <path class="cls-1" d="M584.48,942.44l-35.24,20.48q4.25-2.46,12.34-35.46L596.82,907Q588.72,940,584.48,942.44Z"/>
    </clipPath>
    <clipPath id="clip-path-5">
      <path class="cls-1" d="M453.18,99.75l35.24-20.48.2-.11q4-2.1,12.24,2.67l-35.24,20.48q-8.26-4.77-12.24-2.67Z"/>
    </clipPath>
    <clipPath id="clip-path-6">
      <path class="cls-1" d="M581.37,170.73l-35.24,20.48q6.84-4,6.89-23.7,0-14.72-14.07-22.86l35.24-20.48q14.1,8.14,14.07,22.86Q588.2,166.77,581.37,170.73Z"/>
    </clipPath>
    <clipPath id="clip-path-7">
      <path class="cls-1" d="M626.26,199.82l35.24-20.48a9.11,9.11,0,0,1,1.52-.7l-35.24,20.48A9.11,9.11,0,0,0,626.26,199.82Z"/>
    </clipPath>
    <clipPath id="clip-path-8">
      <path class="cls-1" d="M627.78,199.12,663,178.64c3.24-.24,6.83.76,10.76,3l-35.24,20.48C634.61,199.87,631,198.88,627.78,199.12Z"/>
    </clipPath>
    <clipPath id="clip-path-9">
      <path class="cls-1" d="M708.94,242.79l35.24-20.48q18.38,10.6,18.34,25.34a36.79,36.79,0,0,1-1.48,8.71L725.8,276.84a36.79,36.79,0,0,0,1.48-8.71Q727.31,253.42,708.94,242.79Z"/>
    </clipPath>
  </defs>
  <title>index signature_1</title>
  <g id="index_signature-2" data-name="index signature">
    <g class="cls-2">
      <polygon class="cls-3" points="328.81 791.65 364.05 771.17 402.47 793.35 367.23 813.83 328.81 791.65"/>
      <g class="cls-2">
        <g class="cls-4">
          <g class="cls-2">
            <path class="cls-5" d="M367.23,813.83l35.24-20.48.44.26-35.24,20.47-.44-.25"/>
            <path class="cls-6" d="M367.67,814.08l35.24-20.47c.61.36,1.21.72,1.79,1.09l-35.24,20.48c-.58-.37-1.18-.73-1.79-1.1"/>
            <path class="cls-7" d="M369.46,815.18,404.7,794.7l1.56,1L371,816.21c-.5-.35-1-.69-1.56-1"/>
            <path class="cls-8" d="M371,816.21l35.24-20.48c.48.33.94.65,1.39,1l-35.24,20.48c-.45-.33-.91-.65-1.39-1"/>
            <path class="cls-9" d="M372.41,817.19l35.24-20.48c.42.31.83.63,1.23.94l-35.24,20.48c-.4-.31-.81-.63-1.23-.94"/>
            <path class="cls-10" d="M373.64,818.13l35.24-20.48c.37.3.74.59,1.09.89L374.73,819c-.35-.3-.72-.59-1.09-.89"/>
            <path class="cls-11" d="M374.73,819,410,798.54l1,.84L375.7,819.86l-1-.84"/>
            <path class="cls-12" d="M375.7,819.86l35.24-20.48.86.8-35.24,20.48-.86-.8"/>
            <path class="cls-13" d="M376.56,820.66l35.24-20.48c.26.25.51.5.76.76l-35.24,20.47-.76-.75"/>
            <path class="cls-14" d="M377.32,821.41l35.24-20.47c.22.22.43.44.64.67L378,822.09l-.64-.68"/>
            <path class="cls-15" d="M378,822.09l35.24-20.48q.32.33.6.66l-35.24,20.48q-.29-.33-.6-.66"/>
            <path class="cls-15" d="M378.56,822.75l35.24-20.48c.18.21.36.41.53.62l-35.24,20.48c-.17-.21-.35-.41-.53-.62"/>
            <path class="cls-15" d="M379.09,823.37l35.24-20.48.51.63L379.6,824l-.51-.63"/>
            <path class="cls-15" d="M379.6,824l35.24-20.48c.19.24.37.47.54.71l-35.24,20.48c-.17-.24-.35-.47-.54-.71"/>
            <path class="cls-15" d="M380.14,824.71l35.24-20.48c.28.38.55.77.81,1.16L381,825.86c-.26-.38-.53-.77-.81-1.15"/>
            <path class="cls-15" d="M381,825.86l35.24-20.47c.2.31.4.62.59.94l-35.24,20.48c-.19-.32-.39-.63-.59-.95"/>
            <path class="cls-15" d="M381.54,826.81l35.24-20.48c.21.35.42.71.61,1.07l-35.24,20.48c-.19-.36-.4-.72-.61-1.07"/>
            <path class="cls-15" d="M382.15,827.88l35.24-20.48.29.55-35.24,20.48-.29-.55"/>
            <path class="cls-15" d="M382.44,828.43,417.68,808l.27.56L382.71,829l-.27-.56"/>
            <path class="cls-15" d="M382.71,829,418,808.51l.21.47-35.24,20.48-.21-.47"/>
            <path class="cls-15" d="M382.92,829.46,418.16,809l.2.47-35.24,20.48c-.06-.16-.13-.31-.2-.47"/>
            <path class="cls-14" d="M383.12,829.93l35.24-20.48.2.48-35.24,20.48-.2-.48"/>
            <path class="cls-13" d="M383.32,830.41l35.24-20.48.19.51-35.24,20.48-.19-.51"/>
            <path class="cls-12" d="M383.51,830.92l35.24-20.48.18.52-35.24,20.48-.18-.52"/>
            <path class="cls-11" d="M383.69,831.44,418.93,811c.06.18.11.36.17.54L383.86,832c-.06-.18-.11-.36-.17-.54"/>
            <path class="cls-10" d="M383.86,832,419.1,811.5c.06.2.11.39.17.58L384,832.56c0-.19-.11-.39-.17-.58"/>
            <path class="cls-9" d="M384,832.56l35.24-20.48.15.59-35.24,20.47-.15-.58"/>
            <path class="cls-8" d="M384.18,833.14l35.24-20.47.15.62-35.24,20.47-.15-.62"/>
            <path class="cls-7" d="M384.33,833.76l35.24-20.47.12.62-35.24,20.48-.12-.63"/>
            <path class="cls-6" d="M384.45,834.39l35.24-20.48.12.66-35.24,20.48-.12-.66"/>
            <path class="cls-5" d="M384.57,835.05l35.24-20.48.09.67-35.24,20.48-.09-.67"/>
            <path class="cls-16" d="M384.66,835.72l35.24-20.48c0,.23.06.47.08.71l-35.24,20.48c0-.24-.05-.48-.08-.71"/>
            <path class="cls-17" d="M384.74,836.43,420,816l.06.73L384.8,837.16l-.06-.73"/>
            <path class="cls-18" d="M384.8,837.16,420,816.68c0,.27,0,.53,0,.8L384.83,838c0-.27,0-.53,0-.8"/>
            <path class="cls-19" d="M384.83,838l35.24-20.48c0,.26,0,.52,0,.78v.22L384.84,839v-.23c0-.25,0-.51,0-.77"/>
            <path class="cls-20" d="M384.84,839l35.24-20.48c0,1.22,0,2.4-.08,3.54L384.76,842.5c.05-1.14.08-2.32.08-3.54"/>
            <path class="cls-21" d="M384.76,842.5,420,822q-.06,1.58-.18,3l-35.24,20.48q.12-1.46.18-3"/>
            <path class="cls-22" d="M384.58,845.53l35.24-20.48q-.1,1.35-.27,2.61l-35.24,20.48q.17-1.26.27-2.61"/>
            <path class="cls-23" d="M384.31,848.14l35.24-20.48c-.1.8-.21,1.57-.34,2.31L384,850.45c.13-.74.24-1.51.34-2.31"/>
            <path class="cls-24" d="M384,850.45,419.21,830c-.12.71-.26,1.39-.41,2l-35.24,20.48c.15-.65.29-1.33.41-2"/>
            <path class="cls-25" d="M383.56,852.49,418.8,832c-.14.64-.3,1.26-.48,1.85l-35.24,20.48c.18-.59.34-1.21.48-1.85"/>
            <path class="cls-26" d="M383.08,854.34l35.24-20.48c-.17.6-.36,1.17-.56,1.71l-35.24,20.48c.2-.54.39-1.11.56-1.71"/>
            <path class="cls-27" d="M382.52,856.05l35.24-20.48c-.21.58-.44,1.12-.68,1.63l-35.24,20.48c.24-.51.47-1,.68-1.63"/>
            <path class="cls-28" d="M381.84,857.68l35.24-20.48a17.17,17.17,0,0,1-.91,1.66l-35.24,20.47a15.87,15.87,0,0,0,.91-1.65"/>
            <path class="cls-29" d="M380.93,859.33l35.24-20.47a9.72,9.72,0,0,1-3.3,3.3l-35.24,20.48a9.66,9.66,0,0,0,3.3-3.31"/>
          </g>
        </g>
      </g>
      <g class="cls-2">
        <g class="cls-30">
          <g class="cls-2">
            <path class="cls-29" d="M457.62,871.06l35.24-20.48a5.77,5.77,0,0,1,1-.47l-35.24,20.48a5.77,5.77,0,0,0-1,.47"/>
            <path class="cls-28" d="M458.63,870.59l35.24-20.48a6.21,6.21,0,0,1,.74-.2l-35.24,20.48a6.21,6.21,0,0,0-.74.2"/>
            <path class="cls-27" d="M459.37,870.39l35.24-20.48.23,0L459.6,870.35l-.23,0"/>
          </g>
        </g>
      </g>
      <g class="cls-2">
        <g class="cls-31">
          <g class="cls-2">
            <path class="cls-28" d="M459.6,870.35l35.24-20.48a6.16,6.16,0,0,1,.65-.18l-35.24,20.48a6.16,6.16,0,0,0-.65.18"/>
            <path class="cls-27" d="M460.25,870.17l35.24-20.48.59-.08-35.24,20.48-.59.08"/>
            <path class="cls-26" d="M460.84,870.09l35.24-20.48a5.15,5.15,0,0,1,.56,0L461.4,870.06a5.12,5.12,0,0,0-.56,0"/>
            <path class="cls-25" d="M461.4,870.06l35.24-20.47a5.09,5.09,0,0,1,.55,0L462,870.08l-.55,0"/>
            <path class="cls-24" d="M462,870.08l35.24-20.48.57.06-35.24,20.48-.57-.06"/>
            <path class="cls-23" d="M462.52,870.14l35.24-20.48.58.1L463.1,870.24l-.58-.1"/>
            <path class="cls-22" d="M463.1,870.24l35.24-20.48c.2,0,.41.08.62.14l-35.24,20.48c-.21-.06-.42-.1-.62-.14"/>
            <path class="cls-21" d="M463.72,870.38,499,849.9l.65.18-35.24,20.48-.65-.18"/>
            <path class="cls-20" d="M464.37,870.56l35.24-20.48.71.23-35.24,20.48c-.24-.09-.48-.16-.71-.23"/>
            <path class="cls-19" d="M465.08,870.79l35.24-20.48.77.29-35.24,20.48c-.26-.11-.52-.2-.77-.29"/>
            <path class="cls-18" d="M465.85,871.08l35.24-20.48.85.36L466.7,871.44l-.85-.36"/>
            <path class="cls-17" d="M466.7,871.44,501.94,851l.95.45-35.24,20.48-.95-.45"/>
            <path class="cls-16" d="M467.65,871.89l35.24-20.48c.35.17.71.36,1.08.56l-35.24,20.48c-.37-.2-.73-.39-1.08-.56"/>
            <path class="cls-5" d="M468.73,872.45,504,852l.94.52L469.67,873l-.94-.52"/>
          </g>
        </g>
      </g>
      <polygon class="cls-3" points="469.67 872.97 504.91 852.5 551.8 879.57 516.56 900.04 469.67 872.97"/>
      <g class="cls-2">
        <g class="cls-32">
          <g class="cls-2">
            <path class="cls-25" d="M561.58,927.46,596.82,907q-2.46,10-4.56,17.22L557,944.68q2.1-7.2,4.56-17.22"/>
            <path class="cls-26" d="M557,944.68l35.24-20.48q-1.72,5.92-3.22,9.94L553.8,954.62q1.5-4,3.22-9.94"/>
            <path class="cls-27" d="M553.8,954.62,589,934.14c-.62,1.69-1.22,3.13-1.78,4.32L552,958.94c.56-1.19,1.16-2.63,1.78-4.32"/>
            <path class="cls-28" d="M552,958.94l35.24-20.48a22.52,22.52,0,0,1-1.19,2.21l-35.24,20.48a20.57,20.57,0,0,0,1.19-2.21"/>
            <path class="cls-29" d="M550.83,961.15l35.24-20.48a5.25,5.25,0,0,1-1.59,1.77l-35.24,20.48a5.25,5.25,0,0,0,1.59-1.77"/>
          </g>
        </g>
      </g>
      <polygon class="cls-33" points="486.85 162.74 522.09 142.26 364.05 771.17 328.81 791.65 486.85 162.74"/>
      <g class="cls-2">
        <g class="cls-34">
          <g class="cls-2">
            <path class="cls-29" d="M453.18,99.75l35.24-20.48.2-.11a4.94,4.94,0,0,1,.7-.31L454.08,99.33a4.94,4.94,0,0,0-.7.31l-.2.11"/>
            <path class="cls-28" d="M454.08,99.33l35.24-20.48a7.81,7.81,0,0,1,.77-.21L454.85,99.12a7.81,7.81,0,0,0-.77.21"/>
            <path class="cls-27" d="M454.85,99.12l35.24-20.48c.22,0,.45-.07.68-.09L455.53,99c-.23,0-.46,0-.68.09"/>
            <path class="cls-26" d="M455.53,99l35.24-20.48c.21,0,.43,0,.65,0L456.18,99c-.22,0-.44,0-.65,0"/>
            <path class="cls-25" d="M456.18,99l35.24-20.48c.21,0,.42,0,.64,0L456.82,99c-.22,0-.43,0-.64,0"/>
            <path class="cls-24" d="M456.82,99l35.24-20.48c.21,0,.43,0,.65.07L457.47,99.09c-.22,0-.44-.06-.65-.07"/>
            <path class="cls-23" d="M457.47,99.09l35.24-20.48c.22,0,.44.06.67.11L458.14,99.2c-.23,0-.45-.08-.67-.11"/>
            <path class="cls-22" d="M458.14,99.2l35.24-20.48c.23,0,.46.1.7.16L458.84,99.35l-.7-.15"/>
            <path class="cls-21" d="M458.84,99.35l35.24-20.47.75.2L459.59,99.56l-.75-.21"/>
            <path class="cls-20" d="M459.59,99.56l35.24-20.48q.41.12.81.27L460.4,99.83q-.4-.15-.81-.27"/>
            <path class="cls-19" d="M460.4,99.83l35.24-20.48.88.33-35.24,20.48-.88-.33"/>
            <path class="cls-18" d="M461.28,100.16l35.24-20.48c.32.13.64.26,1,.41l-35.24,20.48c-.33-.15-.65-.28-1-.41"/>
            <path class="cls-17" d="M462.25,100.57l35.24-20.48,1.08.51-35.24,20.48-1.08-.51"/>
            <path class="cls-16" d="M463.33,101.08,498.57,80.6c.4.2.81.41,1.23.64l-35.24,20.48c-.42-.23-.83-.44-1.23-.64"/>
            <path class="cls-5" d="M464.56,101.72,499.8,81.24c.35.18.7.38,1.06.59l-35.24,20.48c-.36-.21-.71-.41-1.06-.59"/>
          </g>
        </g>
      </g>
      <polygon class="cls-3" points="465.62 102.31 500.86 81.83 574.19 124.17 538.95 144.65 465.62 102.31"/>
      <path class="cls-35" d="M539,144.65q14.1,8.13,14.07,22.86Q553,191,543.3,192.15q-4.83.4-10.68-3l-45.77-26.43-158,628.91,38.42,22.18q17.65,10.2,17.61,24.9-.06,22.65-9.45,24.79c-3.24.26-6.95-.82-11.1-3.22l-71.1-41Q275.51,809,275.54,794.33q0-4,8.06-32.8l163.72-651q2.08-8.74,6.06-10.85t12.24,2.67Z"/>
      <g class="cls-2">
        <g class="cls-36">
          <g class="cls-2">
            <path class="cls-5" d="M539,144.65l35.24-20.48.28.16-35.24,20.48-.28-.16"/>
            <path class="cls-6" d="M539.23,144.81l35.24-20.48,1.18.72-35.24,20.48-1.18-.72"/>
            <path class="cls-7" d="M540.41,145.53l35.24-20.48,1.05.69-35.24,20.48-1.05-.69"/>
            <path class="cls-8" d="M541.46,146.22l35.24-20.48.95.68L542.41,146.9l-.95-.68"/>
            <path class="cls-9" d="M542.41,146.9l35.24-20.48c.3.22.59.44.87.67l-35.24,20.47-.87-.66"/>
            <path class="cls-10" d="M543.28,147.56l35.24-20.47c.28.21.55.43.81.65l-35.24,20.48-.81-.66"/>
            <path class="cls-11" d="M544.09,148.22l35.24-20.48.73.64-35.24,20.47-.73-.63"/>
            <path class="cls-12" d="M544.82,148.85l35.24-20.47.65.6-35.24,20.48-.65-.61"/>
            <path class="cls-13" d="M545.47,149.46,580.71,129q.31.3.6.6l-35.24,20.48-.6-.6"/>
            <path class="cls-14" d="M546.07,150.06l35.24-20.48c.18.17.35.35.52.54L546.59,150.6c-.17-.19-.34-.37-.52-.54"/>
            <path class="cls-15" d="M546.59,150.6l35.24-20.48c.16.17.33.35.48.54l-35.23,20.48c-.16-.19-.33-.37-.49-.54"/>
            <path class="cls-15" d="M547.08,151.14l35.23-20.48.44.51-35.23,20.48-.44-.51"/>
            <path class="cls-15" d="M547.52,151.65l35.23-20.48c.15.17.29.35.43.52l-35.24,20.48-.42-.52"/>
            <path class="cls-15" d="M547.94,152.17l35.24-20.48.48.64-35.24,20.48-.48-.64"/>
            <path class="cls-15" d="M548.42,152.81l35.24-20.48c.25.33.48.66.7,1l-35.24,20.48c-.22-.34-.45-.67-.7-1"/>
            <path class="cls-15" d="M549.12,153.81l35.24-20.48.58.92L549.7,154.73l-.58-.92"/>
            <path class="cls-15" d="M549.7,154.73l35.24-20.48c.19.31.36.63.54.95l-35.24,20.48c-.18-.32-.35-.64-.54-1"/>
            <path class="cls-15" d="M550.24,155.68l35.24-20.48c.09.17.18.35.26.52L550.5,156.2c-.08-.17-.17-.35-.26-.52"/>
            <path class="cls-15" d="M550.5,156.2l35.24-20.48c.09.17.17.35.25.52l-35.24,20.48c-.08-.18-.16-.35-.25-.52"/>
            <path class="cls-15" d="M550.75,156.72,586,136.24c.08.16.15.31.22.47L551,157.19c-.07-.16-.14-.31-.22-.47"/>
            <path class="cls-15" d="M551,157.19l35.24-20.48.2.47-35.24,20.48-.2-.47"/>
            <path class="cls-14" d="M551.17,157.66l35.24-20.48c.07.16.13.32.19.48l-35.24,20.48c-.06-.16-.12-.32-.19-.48"/>
            <path class="cls-13" d="M551.36,158.14l35.24-20.48c.07.17.13.35.2.52l-35.24,20.48c-.07-.18-.13-.35-.2-.52"/>
            <path class="cls-12" d="M551.56,158.66l35.24-20.48.18.52-35.24,20.48-.18-.52"/>
            <path class="cls-11" d="M551.74,159.18,587,138.7l.19.58-35.24,20.48-.19-.58"/>
            <path class="cls-10" d="M551.93,159.76l35.24-20.48c.06.2.11.4.17.6L552.1,160.36c-.05-.2-.11-.4-.17-.6"/>
            <path class="cls-9" d="M552.1,160.36l35.24-20.48c.06.22.12.43.17.65L552.27,161c0-.21-.11-.42-.17-.64"/>
            <path class="cls-8" d="M552.27,161l35.24-20.47c0,.22.11.44.15.66l-35.24,20.48c0-.22-.1-.44-.15-.67"/>
            <path class="cls-7" d="M552.42,161.67l35.24-20.48c.06.24.1.47.15.71l-35.24,20.48c-.05-.24-.09-.47-.15-.71"/>
            <path class="cls-6" d="M552.57,162.38l35.24-20.48.12.73-35.24,20.48-.12-.73"/>
            <path class="cls-5" d="M552.69,163.11l35.24-20.48c0,.26.08.52.11.78L552.8,163.89c0-.26-.07-.52-.11-.78"/>
            <path class="cls-16" d="M552.8,163.89,588,143.41q.06.41.09.81L552.89,164.7q0-.4-.09-.81"/>
            <path class="cls-17" d="M552.89,164.7l35.24-20.48c0,.3,0,.59.07.89L553,165.59c0-.3,0-.6-.07-.89"/>
            <path class="cls-18" d="M553,165.59l35.24-20.48c0,.32,0,.64,0,1L553,166.55c0-.32,0-.64,0-1"/>
            <path class="cls-19" d="M553,166.55l35.24-20.48c0,.32,0,.64,0,1v.23L553,167.74v-.23c0-.32,0-.64,0-1"/>
            <path class="cls-20" d="M553,167.74l35.24-20.48c0,1.28,0,2.51-.08,3.68l-35.24,20.48c0-1.17.07-2.4.08-3.68"/>
            <path class="cls-21" d="M552.94,171.42l35.24-20.48c0,1.08-.11,2.11-.19,3.1l-35.24,20.48c.08-1,.14-2,.19-3.1"/>
            <path class="cls-22" d="M552.75,174.52,588,154c-.08.92-.17,1.81-.27,2.65l-35.24,20.48c.1-.84.19-1.73.27-2.65"/>
            <path class="cls-23" d="M552.48,177.17l35.24-20.48c-.1.81-.22,1.57-.34,2.31l-35.24,20.48c.12-.74.24-1.51.34-2.31"/>
            <path class="cls-24" d="M552.14,179.48,587.38,159c-.13.71-.26,1.38-.41,2l-35.24,20.48c.15-.65.28-1.32.41-2"/>
            <path class="cls-25" d="M551.73,181.51,587,161c-.14.63-.3,1.24-.47,1.81l-35.24,20.48c.17-.57.33-1.18.47-1.81"/>
            <path class="cls-26" d="M551.26,183.32l35.24-20.48c-.17.59-.35,1.14-.55,1.67L550.71,185c.2-.53.38-1.08.55-1.67"/>
            <path class="cls-27" d="M550.71,185,586,164.51c-.2.55-.42,1.07-.65,1.56l-35.24,20.48c.23-.49.45-1,.65-1.56"/>
            <path class="cls-28" d="M550.06,186.55l35.24-20.48a14.91,14.91,0,0,1-.87,1.59l-35.24,20.48a14.91,14.91,0,0,0,.87-1.59"/>
            <path class="cls-29" d="M549.19,188.14l35.24-20.48a9.06,9.06,0,0,1-3.06,3.07l-35.24,20.48a9.06,9.06,0,0,0,3.06-3.07"/>
          </g>
        </g>
      </g>
      <g class="cls-2">
        <g class="cls-37">
          <g class="cls-2">
            <path class="cls-29" d="M626.26,199.82l35.24-20.48a9.11,9.11,0,0,1,1.52-.7l-35.24,20.48a9.11,9.11,0,0,0-1.52.7"/>
            <polyline class="cls-28" points="627.78 199.12 663.02 178.64 663.02 178.64 627.78 199.12 627.78 199.12"/>
          </g>
        </g>
      </g>
      <g class="cls-2">
        <g class="cls-38">
          <g class="cls-2">
            <path class="cls-26" d="M627.78,199.12,663,178.64c.3,0,.61,0,.92,0L628.7,199.09c-.31,0-.62,0-.92,0"/>
            <path class="cls-25" d="M628.7,199.09l35.24-20.48,1,0L629.7,199.12c-.34,0-.67,0-1,0"/>
            <path class="cls-24" d="M629.7,199.12l35.24-20.48c.31,0,.62.05.93.1l-35.24,20.48c-.31-.05-.62-.08-.93-.1"/>
            <path class="cls-23" d="M630.63,199.22l35.24-20.48.9.15-35.24,20.47-.9-.14"/>
            <path class="cls-22" d="M631.53,199.36l35.24-20.47c.29.05.58.12.88.19l-35.24,20.48-.88-.2"/>
            <path class="cls-21" d="M632.41,199.56l35.24-20.48.86.24L633.27,199.8l-.86-.24"/>
            <path class="cls-20" d="M633.27,199.8l35.24-20.48.86.28-35.24,20.48c-.29-.1-.57-.2-.86-.28"/>
            <path class="cls-19" d="M634.13,200.08l35.24-20.48.88.33L635,200.41l-.88-.33"/>
            <path class="cls-18" d="M635,200.41l35.24-20.48c.29.12.59.24.89.38L635.9,200.79c-.3-.14-.6-.26-.89-.38"/>
            <path class="cls-17" d="M635.9,200.79l35.24-20.48c.3.13.61.28.92.43l-35.24,20.48c-.31-.15-.62-.3-.92-.43"/>
            <path class="cls-16" d="M636.82,201.22l35.24-20.48c.31.16.63.32,1,.5l-35.24,20.48c-.32-.18-.64-.34-.95-.5"/>
            <path class="cls-5" d="M637.77,201.72,673,181.24c.26.13.51.28.77.43l-35.24,20.48c-.26-.15-.51-.3-.77-.43"/>
          </g>
        </g>
      </g>
      <polygon class="cls-39" points="725.8 276.84 761.04 256.36 596.82 906.98 561.58 927.46 725.8 276.84"/>
      <polygon class="cls-3" points="638.54 202.15 673.78 181.67 744.18 222.31 708.94 242.79 638.54 202.15"/>
      <g class="cls-2">
        <g class="cls-40">
          <g class="cls-2">
            <path class="cls-5" d="M708.94,242.79l35.24-20.48.47.28-35.24,20.48-.47-.28"/>
            <path class="cls-6" d="M709.41,243.07l35.24-20.48c.66.38,1.3.78,1.93,1.17l-35.24,20.48c-.63-.39-1.27-.79-1.93-1.17"/>
            <path class="cls-7" d="M711.34,244.24l35.24-20.48c.57.37,1.13.74,1.67,1.11L713,245.35c-.54-.38-1.1-.74-1.67-1.11"/>
            <path class="cls-8" d="M713,245.35l35.24-20.48c.5.34,1,.69,1.47,1l-35.24,20.48c-.48-.35-1-.7-1.47-1"/>
            <path class="cls-9" d="M714.48,246.39l35.24-20.48c.45.33.88.66,1.31,1l-35.24,20.48c-.43-.33-.86-.66-1.31-1"/>
            <path class="cls-10" d="M715.79,247.38,751,226.9l1.16.95L717,248.33l-1.16-1"/>
            <path class="cls-11" d="M717,248.33l35.24-20.48,1,.88L718,249.21c-.33-.3-.67-.59-1-.88"/>
            <path class="cls-12" d="M718,249.21l35.24-20.48.89.83L718.85,250l-.89-.83"/>
            <path class="cls-13" d="M718.85,250l35.24-20.48c.27.26.54.52.8.79l-35.24,20.47-.8-.78"/>
            <path class="cls-14" d="M719.65,250.82l35.24-20.47c.23.23.45.46.67.7l-35.24,20.48-.67-.71"/>
            <path class="cls-15" d="M720.32,251.53l35.24-20.48c.21.22.41.45.61.68L720.93,252.2c-.2-.22-.4-.45-.61-.67"/>
            <path class="cls-15" d="M720.93,252.2l35.24-20.47.55.63-35.24,20.48-.55-.64"/>
            <path class="cls-15" d="M721.48,252.84l35.24-20.48.53.67L722,253.51l-.54-.67"/>
            <path class="cls-15" d="M722,253.51,757.25,233c.19.23.36.46.53.69L722.55,254.2l-.53-.69"/>
            <path class="cls-15" d="M722.55,254.2l35.23-20.48c.28.38.54.75.8,1.13l-35.24,20.48-.79-1.13"/>
            <path class="cls-15" d="M723.34,255.33l35.24-20.48q.31.48.6,1l-35.24,20.48q-.29-.48-.6-1"/>
            <path class="cls-15" d="M723.94,256.29l35.24-20.48c.22.37.44.74.64,1.11L724.58,257.4c-.2-.37-.41-.74-.64-1.11"/>
            <path class="cls-15" d="M724.58,257.4l35.24-20.48.31.61L724.89,258c-.1-.2-.2-.41-.31-.61"/>
            <path class="cls-15" d="M724.89,258l35.24-20.48.27.55-35.24,20.48c-.09-.19-.17-.37-.27-.55"/>
            <path class="cls-15" d="M725.16,258.56l35.24-20.48.21.47L725.37,259l-.21-.47"/>
            <path class="cls-15" d="M725.37,259l35.24-20.48.21.47L725.58,259.5l-.21-.47"/>
            <path class="cls-14" d="M725.58,259.5,760.82,239c.06.17.13.33.19.49L725.77,260l-.19-.49"/>
            <path class="cls-13" d="M725.77,260,761,239.51c.07.17.13.34.19.5L726,260.49c-.06-.17-.12-.33-.19-.5"/>
            <path class="cls-12" d="M726,260.49,761.2,240l.18.5L726.14,261l-.18-.5"/>
            <path class="cls-11" d="M726.14,261l35.24-20.48c.06.19.12.37.17.56l-35.24,20.48c0-.19-.11-.37-.17-.56"/>
            <path class="cls-10" d="M726.31,261.55l35.24-20.48c.06.19.12.37.17.56l-35.24,20.48c-.05-.19-.11-.37-.17-.56"/>
            <path class="cls-9" d="M726.48,262.11l35.24-20.48.15.58-35.24,20.48-.15-.58"/>
            <path class="cls-8" d="M726.63,262.69l35.24-20.48c0,.21.1.41.14.61L726.77,263.3c0-.2-.09-.41-.14-.61"/>
            <path class="cls-7" d="M726.77,263.3,762,242.82c0,.2.09.41.13.61L726.9,263.91c0-.2-.08-.41-.13-.61"/>
            <path class="cls-6" d="M726.9,263.91l35.24-20.48c0,.22.07.43.11.65L727,264.56c0-.22-.07-.43-.11-.65"/>
            <path class="cls-5" d="M727,264.56l35.24-20.48.09.65L727.1,265.21l-.09-.65"/>
            <path class="cls-16" d="M727.1,265.21l35.24-20.48c0,.23,0,.46.08.69L727.18,265.9c0-.23,0-.46-.08-.69"/>
            <path class="cls-17" d="M727.18,265.9l35.24-20.48c0,.24,0,.47.05.71l-35.24,20.48c0-.24,0-.47-.05-.71"/>
            <path class="cls-18" d="M727.23,266.61l35.24-20.48c0,.26,0,.51,0,.77l-35.24,20.48c0-.26,0-.52,0-.77"/>
            <path class="cls-19" d="M727.27,267.38l35.24-20.48c0,.25,0,.5,0,.75v0l-35.24,20.48v0c0-.25,0-.5,0-.75"/>
            <path class="cls-20" d="M727.28,268.16l35.24-20.48c0,.18,0,.37,0,.57l-35.24,20.48c0-.2,0-.39,0-.57"/>
            <path class="cls-21" d="M727.26,268.73l35.24-20.48c0,.24,0,.49,0,.75l-35.24,20.48c0-.26,0-.51,0-.75"/>
            <path class="cls-22" d="M727.22,269.48,762.46,249c0,.33-.07.68-.11,1l-35.24,20.48c0-.36.08-.71.11-1"/>
            <path class="cls-23" d="M727.11,270.52,762.35,250c-.06.48-.14,1-.23,1.51L726.88,272c.09-.53.17-1,.23-1.51"/>
            <path class="cls-24" d="M726.88,272l35.24-20.48c-.13.77-.3,1.58-.5,2.45l-35.24,20.48c.2-.87.37-1.69.5-2.45"/>
            <path class="cls-25" d="M726.38,274.48,761.62,254c-.17.75-.36,1.54-.58,2.36L725.8,276.84c.22-.82.41-1.61.58-2.36"/>
          </g>
        </g>
      </g>
      <path class="cls-35" d="M708.94,242.79q18.38,10.61,18.34,25.34a36.79,36.79,0,0,1-1.48,8.71L561.58,927.46q-8.25,33.6-12.5,35.54c-2.76,1.06-6.68.13-11.73-2.78L463.88,917.8q-14.83-8.56-14.79-23.27c0-3.18,1-7.87,2.82-14.09s4.43-9.58,7.69-10.09q3.47-1.2,10.07,2.62l46.89,27.08L675.22,271.5l-39.47-22.79q-17.12-9.89-17.07-24.59.08-21.85,9.1-25c3.24-.24,6.83.75,10.76,3Z"/>
    </g>
  </g>
</svg>
