<svg xmlns="http://www.w3.org/2000/svg" xmlns:xlink="http://www.w3.org/1999/xlink" viewBox="0 0 1000 1000">
  <defs>
    <style>
      .cls-1 {
        fill: none;
      }

      .cls-2 {
        isolation: isolate;
      }

      .cls-3 {
        fill: #dbdbdb;
      }

      .cls-4 {
        clip-path: url(#clip-path);
      }

      .cls-5 {
        fill: #b8b8b8;
      }

      .cls-6 {
        fill: #bdbdbd;
      }

      .cls-7 {
        fill: #c2c2c2;
      }

      .cls-8 {
        fill: #c7c7c7;
      }

      .cls-9 {
        fill: #ccc;
      }

      .cls-10 {
        clip-path: url(#clip-path-2);
      }

      .cls-11 {
        fill: #858585;
      }

      .cls-12 {
        fill: #8a8a8a;
      }

      .cls-13 {
        fill: #8f8f8f;
      }

      .cls-14 {
        fill: #949494;
      }

      .cls-15 {
        fill: #999;
      }

      .cls-16 {
        fill: #9e9e9e;
      }

      .cls-17 {
        fill: #a3a3a3;
      }

      .cls-18 {
        fill: #a8a8a8;
      }

      .cls-19 {
        fill: #adadad;
      }

      .cls-20 {
        fill: #b3b3b3;
      }

      .cls-21 {
        clip-path: url(#clip-path-3);
      }

      .cls-22 {
        clip-path: url(#clip-path-4);
      }

      .cls-23 {
        fill: #989898;
      }

      .cls-24 {
        clip-path: url(#clip-path-5);
      }

      .cls-25 {
        clip-path: url(#clip-path-6);
      }

      .cls-26 {
        fill: #c5c5c5;
      }

      .cls-27 {
        clip-path: url(#clip-path-7);
      }

      .cls-28 {
        clip-path: url(#clip-path-8);
      }

      .cls-29 {
        fill: #979797;
      }

      .cls-30 {
        clip-path: url(#clip-path-9);
      }
    </style>
    <clipPath id="clip-path">
      <path class="cls-1" d="M491.52,836l-35.24-20.48a25,25,0,0,1,8.53-7.63l35.24,20.48A25,25,0,0,0,491.52,836Z"/>
    </clipPath>
    <clipPath id="clip-path-2">
      <path class="cls-1" d="M485.46,874.13l-35.24-20.48q-2.69-1.56-2.71-7.32,0-4.07,2.32-14.73c1.56-7.11,3.7-12.46,6.45-16.09L491.52,836q-4.12,5.43-6.45,16.09c-1.54,7.1-2.32,12-2.32,14.73C482.77,870.65,483.67,873.08,485.46,874.13Z"/>
    </clipPath>
    <clipPath id="clip-path-3">
      <path class="cls-1" d="M390.06,855.28l35.24,20.48q-3.66-2.13-12.4,2.91L377.66,858.2Q386.39,853.15,390.06,855.28Z"/>
    </clipPath>
    <clipPath id="clip-path-4">
      <path class="cls-1" d="M337.9,958.74l-35.24-20.48Q300,936.73,300,931.5q0-3.37,6.51-35.59l35.24,20.48q-6.52,32.21-6.51,35.59C335.26,955.46,336.14,957.72,337.9,958.74Z"/>
    </clipPath>
    <clipPath id="clip-path-5">
      <path class="cls-1" d="M677.36,36.53,712.6,57q-3.78-2.2-13,3.13L664.35,39.66Q673.58,34.34,677.36,36.53Z"/>
    </clipPath>
    <clipPath id="clip-path-6">
      <path class="cls-1" d="M630.7,102.62,595.46,82.14a33,33,0,0,1,9.12-8l35.24,20.48A33,33,0,0,0,630.7,102.62Z"/>
    </clipPath>
    <clipPath id="clip-path-7">
      <path class="cls-1" d="M625.78,139.63l-35.24-20.48q-2.64-1.55-2.66-6.88-.06-18.6,7.58-30.13l35.24,20.48q-7.63,11.52-7.58,30.13Q623.14,138.09,625.78,139.63Z"/>
    </clipPath>
    <clipPath id="clip-path-8">
      <path class="cls-1" d="M529.77,120.86,565,141.34c-2-1.17-5.15-.53-9.39,1.92l-35.24-20.48C524.62,120.33,527.76,119.69,529.77,120.86Z"/>
    </clipPath>
    <clipPath id="clip-path-9">
      <path class="cls-1" d="M477.34,204.38,442.1,183.9c1.17-6.32,2.86-11.37,5.12-15.16A28,28,0,0,1,457.66,159l35.24,20.48a28,28,0,0,0-10.44,9.75C480.2,193,478.51,198.06,477.34,204.38Z"/>
    </clipPath>
  </defs>
  <title>index signature_2</title>
  <g id="index_signature" data-name="index signature">
    <g class="cls-2">
      <polygon class="cls-3" points="500.05 828.36 464.81 807.88 504.56 784.93 539.8 805.41 500.05 828.36"/>
      <g class="cls-2">
        <g class="cls-4">
          <g class="cls-2">
            <path class="cls-5" d="M491.52,836l-35.24-20.48.27-.39,35.24,20.48-.27.39"/>
            <path class="cls-6" d="M491.79,835.6l-35.24-20.48c.18-.26.37-.52.57-.77l35.24,20.48c-.2.25-.39.51-.57.77"/>
            <path class="cls-7" d="M492.36,834.83l-35.24-20.48c.24-.31.48-.61.74-.91l35.24,20.48c-.26.3-.5.6-.74.91"/>
            <path class="cls-8" d="M493.1,833.92l-35.24-20.48c.37-.42.75-.83,1.16-1.23l35.24,20.48c-.41.4-.79.81-1.16,1.23"/>
            <path class="cls-9" d="M494.26,832.69,459,812.21a27.85,27.85,0,0,1,5.79-4.33l35.24,20.48a27.85,27.85,0,0,0-5.79,4.33"/>
          </g>
        </g>
      </g>
      <g class="cls-2">
        <g class="cls-10">
          <g class="cls-2">
            <path class="cls-11" d="M485.46,874.13l-35.24-20.48q-2.69-1.56-2.71-7.32a31,31,0,0,1,.3-3.8L483.05,863a31,31,0,0,0-.3,3.8c0,3.84.92,6.27,2.71,7.32"/>
            <path class="cls-12" d="M483.05,863l-35.24-20.48c.33-2.54.94-5.85,1.8-9.92l35.24,20.48c-.86,4.07-1.47,7.38-1.8,9.92"/>
            <path class="cls-13" d="M484.85,853.09l-35.24-20.48c.08-.33.15-.67.22-1,.31-1.39.63-2.71,1-4l35.24,20.48c-.35,1.25-.67,2.57-1,4-.07.34-.14.68-.22,1"/>
            <path class="cls-14" d="M486.05,848.12l-35.24-20.48c.27-1,.56-1.92.86-2.82l35.24,20.48c-.3.9-.59,1.84-.86,2.82"/>
            <path class="cls-15" d="M486.91,845.3l-35.24-20.48c.23-.7.47-1.37.72-2l35.24,20.48c-.25.65-.49,1.32-.72,2"/>
            <path class="cls-16" d="M487.63,843.28,452.39,822.8c.21-.55.43-1.07.65-1.58l35.24,20.48c-.22.51-.44,1-.65,1.58"/>
            <path class="cls-17" d="M488.28,841.7,453,821.22c.19-.45.39-.88.59-1.3l35.24,20.48c-.2.42-.4.85-.59,1.3"/>
            <path class="cls-18" d="M488.87,840.4l-35.24-20.48c.19-.38.37-.75.56-1.1l35.24,20.48c-.19.35-.38.72-.56,1.1"/>
            <path class="cls-19" d="M489.43,839.3l-35.24-20.48c.18-.33.36-.66.54-1L490,838.33c-.18.31-.36.64-.54,1"/>
            <path class="cls-20" d="M490,838.33l-35.24-20.48c.18-.3.36-.6.54-.88l35.24,20.48c-.18.28-.36.58-.54.88"/>
            <path class="cls-5" d="M490.51,837.45,455.27,817c.18-.28.36-.56.55-.83l35.24,20.48c-.19.27-.37.54-.55.83"/>
            <path class="cls-6" d="M491.06,836.62l-35.24-20.48.46-.63L491.52,836l-.46.63"/>
          </g>
        </g>
      </g>
      <g class="cls-2">
        <g class="cls-21">
          <g class="cls-2">
            <path class="cls-9" d="M412.9,878.67,377.66,858.2a37.94,37.94,0,0,1,4.49-2.27l35.24,20.48a39.33,39.33,0,0,0-4.49,2.26"/>
            <path class="cls-8" d="M417.39,876.41l-35.24-20.48a21.59,21.59,0,0,1,2.47-.86l35.24,20.48a21.59,21.59,0,0,0-2.47.86"/>
            <path class="cls-7" d="M419.86,875.55l-35.24-20.48a13,13,0,0,1,1.44-.31l35.24,20.48a13,13,0,0,0-1.44.31"/>
            <path class="cls-6" d="M421.3,875.24l-35.24-20.48a9.75,9.75,0,0,1,1-.1l35.24,20.48a7.64,7.64,0,0,0-1,.1"/>
            <path class="cls-5" d="M422.32,875.14l-35.24-20.48a6.94,6.94,0,0,1,.79,0l35.24,20.48a5.21,5.21,0,0,0-.79,0"/>
            <path class="cls-20" d="M423.11,875.14l-35.24-20.48a4.62,4.62,0,0,1,.65.08l35.24,20.47c-.21,0-.43-.06-.65-.07"/>
            <path class="cls-19" d="M423.76,875.21l-35.24-20.47a5.05,5.05,0,0,1,.56.12l35.24,20.48-.56-.13"/>
            <path class="cls-18" d="M424.32,875.34l-35.24-20.48a4.09,4.09,0,0,1,.49.18l35.24,20.48a4.09,4.09,0,0,0-.49-.18"/>
            <path class="cls-17" d="M424.81,875.52,389.57,855a3.55,3.55,0,0,1,.44.21l35.24,20.48a3.55,3.55,0,0,0-.44-.21"/>
            <path class="cls-16" d="M425.25,875.73,390,855.25l.05,0,35.24,20.48-.05,0"/>
          </g>
        </g>
      </g>
      <polygon class="cls-3" points="380.21 897.54 344.97 877.07 377.66 858.2 412.9 878.67 380.21 897.54"/>
      <g class="cls-2">
        <g class="cls-22">
          <g class="cls-2">
            <path class="cls-11" d="M337.9,958.74l-35.24-20.48Q300,936.73,300,931.5a17.42,17.42,0,0,1,.17-1.86l35.24,20.48a15.07,15.07,0,0,0-.17,1.86c0,3.48.89,5.74,2.65,6.76"/>
            <path class="cls-12" d="M335.42,950.12l-35.24-20.48q.88-6.75,6.34-33.73l35.24,20.48q-5.46,27-6.34,33.73"/>
          </g>
        </g>
      </g>
      <polygon class="cls-23" points="539.8 805.41 504.56 784.93 635.95 97.06 671.18 117.54 539.8 805.41"/>
      <g class="cls-2">
        <g class="cls-24">
          <g class="cls-2">
            <path class="cls-9" d="M699.59,60.14,664.35,39.66a41.57,41.57,0,0,1,4.8-2.42l35.24,20.48a41.57,41.57,0,0,0-4.8,2.42"/>
            <path class="cls-8" d="M704.39,57.72,669.15,37.24a21,21,0,0,1,2.61-.91L707,56.81a21,21,0,0,0-2.61.91"/>
            <path class="cls-7" d="M707,56.81,671.76,36.33c.53-.14,1-.25,1.52-.33l35.23,20.48c-.48.08-1,.19-1.51.33"/>
            <path class="cls-6" d="M708.51,56.48,673.28,36a9.78,9.78,0,0,1,1.05-.1l35.24,20.48a10.21,10.21,0,0,0-1.06.1"/>
            <path class="cls-5" d="M709.57,56.38,674.33,35.9a7.11,7.11,0,0,1,.8,0l35.24,20.48a7.11,7.11,0,0,0-.8,0"/>
            <path class="cls-20" d="M710.37,56.38,675.13,35.9a6.62,6.62,0,0,1,.66.08L711,56.46a6.62,6.62,0,0,0-.66-.08"/>
            <path class="cls-19" d="M711,56.46,675.79,36a4.76,4.76,0,0,1,.57.13L711.6,56.59a3.39,3.39,0,0,0-.57-.13"/>
            <path class="cls-18" d="M711.6,56.59,676.36,36.11l.5.17L712.1,56.76l-.5-.17"/>
            <path class="cls-17" d="M712.1,56.76,676.86,36.28a4.71,4.71,0,0,1,.45.22L712.55,57a4.71,4.71,0,0,0-.45-.22"/>
            <path class="cls-16" d="M712.55,57,677.31,36.5l.05,0L712.6,57l-.05,0"/>
          </g>
        </g>
      </g>
      <polygon class="cls-3" points="639.82 94.64 604.58 74.17 664.35 39.66 699.59 60.14 639.82 94.64"/>
      <g class="cls-2">
        <g class="cls-25">
          <g class="cls-2">
            <path class="cls-7" d="M630.7,102.62,595.46,82.14c.3-.37.61-.73.91-1.09l35.24,20.48c-.3.36-.61.72-.91,1.09"/>
            <path class="cls-8" d="M631.61,101.53,596.37,81.05c.63-.71,1.26-1.39,1.92-2l35.24,20.48c-.66.65-1.29,1.33-1.92,2"/>
            <path class="cls-9" d="M633.53,99.49,598.29,79a31.06,31.06,0,0,1,6.29-4.85l35.24,20.48a31.06,31.06,0,0,0-6.29,4.85"/>
          </g>
        </g>
      </g>
      <path class="cls-26" d="M699.59,60.14q15.6-9,15.64,3.5a53.57,53.57,0,0,1-1.15,8.8l-136,712.15q-6.46,36.33-9.89,42a28.9,28.9,0,0,1-10,9.17L495.45,872q-12.65,7.31-12.7-5.21c0-2.71.78-7.63,2.32-14.73s3.7-12.47,6.45-16.09a25,25,0,0,1,8.53-7.63l39.75-23L671.19,117.54l-33.51,19.34q-14.53,8.4-14.56-4.13-.06-18.6,7.58-30.13a33,33,0,0,1,9.12-8Z"/>
      <g class="cls-2">
        <g class="cls-27">
          <g class="cls-2">
            <path class="cls-11" d="M625.78,139.63l-35.24-20.48q-2.64-1.55-2.66-6.88a76.54,76.54,0,0,1,.6-10.06l35.24,20.48a76.54,76.54,0,0,0-.6,10.06q0,5.34,2.66,6.88"/>
            <path class="cls-12" d="M623.72,122.69l-35.24-20.48c.21-1.68.49-3.29.82-4.86l35.24,20.48c-.33,1.56-.61,3.18-.82,4.86"/>
            <path class="cls-13" d="M624.54,117.83,589.3,97.35c.23-1.07.49-2.11.77-3.13l35.24,20.48c-.29,1-.54,2.06-.77,3.13"/>
            <path class="cls-14" d="M625.31,114.7,590.07,94.22c.22-.8.46-1.59.72-2.36L626,112.34c-.26.77-.5,1.56-.72,2.36"/>
            <path class="cls-15" d="M626,112.34,590.79,91.86c.22-.66.45-1.31.7-2l35.24,20.48c-.25.64-.48,1.29-.7,2"/>
            <path class="cls-16" d="M626.73,110.39,591.49,89.91c.22-.57.45-1.13.69-1.69l35.24,20.48c-.24.55-.47,1.12-.69,1.69"/>
            <path class="cls-17" d="M627.42,108.7,592.18,88.22c.22-.51.45-1,.69-1.51l35.24,20.48c-.24.5-.47,1-.69,1.51"/>
            <path class="cls-18" d="M628.11,107.19,592.87,86.71c.22-.47.46-.94.71-1.4l35.24,20.48c-.25.46-.49.93-.71,1.4"/>
            <path class="cls-19" d="M628.82,105.79,593.58,85.31c.24-.45.49-.9.74-1.34l35.24,20.48c-.26.44-.5.89-.74,1.34"/>
            <path class="cls-20" d="M629.56,104.45,594.32,84c.26-.44.53-.88.8-1.31l35.24,20.48c-.27.43-.54.87-.8,1.31"/>
            <path class="cls-5" d="M630.36,103.14,595.12,82.66c.11-.17.23-.34.34-.52l35.24,20.48-.34.52"/>
          </g>
        </g>
      </g>
      <g class="cls-2">
        <g class="cls-28">
          <g class="cls-2">
            <path class="cls-9" d="M555.62,143.26l-35.24-20.48a26.78,26.78,0,0,1,3-1.52l35.24,20.48a25.2,25.2,0,0,0-3,1.52"/>
            <path class="cls-8" d="M558.65,141.74l-35.24-20.48a15.39,15.39,0,0,1,1.82-.64l35.24,20.48a15.39,15.39,0,0,0-1.82.64"/>
            <path class="cls-7" d="M560.47,141.1l-35.24-20.48c.39-.1.77-.18,1.13-.24l35.24,20.48a10.42,10.42,0,0,0-1.13.24"/>
            <path class="cls-6" d="M561.6,140.86l-35.24-20.48a7.84,7.84,0,0,1,.82-.08l35.24,20.48a7.84,7.84,0,0,0-.82.08"/>
            <path class="cls-5" d="M562.42,140.78,527.18,120.3h.65l35.24,20.48h-.65"/>
            <path class="cls-20" d="M563.07,140.78,527.83,120.3a5,5,0,0,1,.56.06l35.24,20.48a5,5,0,0,0-.56-.06"/>
            <path class="cls-19" d="M563.63,140.84l-35.24-20.48a3.89,3.89,0,0,1,.49.12L564.12,141a3.89,3.89,0,0,0-.49-.12"/>
            <path class="cls-18" d="M564.12,141l-35.24-20.48a3.26,3.26,0,0,1,.44.15l35.24,20.48a3.26,3.26,0,0,0-.44-.15"/>
            <path class="cls-17" d="M564.56,141.11l-35.24-20.48.41.2L565,141.31l-.41-.2"/>
            <path class="cls-16" d="M565,141.31l-35.24-20.48,0,0L565,141.34l0,0"/>
          </g>
        </g>
      </g>
      <polygon class="cls-3" points="492.9 179.47 457.66 158.99 520.38 122.78 555.62 143.26 492.9 179.47"/>
      <polygon class="cls-29" points="341.76 916.39 306.52 895.91 442.1 183.9 477.34 204.38 341.76 916.39"/>
      <g class="cls-2">
        <g class="cls-30">
          <g class="cls-2">
            <path class="cls-12" d="M477.34,204.38,442.1,183.9c.13-.72.27-1.43.42-2.12l35.24,20.48c-.15.69-.29,1.4-.42,2.12"/>
            <path class="cls-13" d="M477.76,202.26l-35.24-20.48c.28-1.31.59-2.56.92-3.75l35.24,20.48c-.33,1.19-.64,2.44-.92,3.75"/>
            <path class="cls-14" d="M478.68,198.51,443.44,178c.24-.87.49-1.7.76-2.5L479.44,196c-.27.8-.52,1.63-.76,2.5"/>
            <path class="cls-15" d="M479.44,196,444.2,175.53q.32-1,.66-1.86l35.24,20.48q-.35.9-.66,1.86"/>
            <path class="cls-16" d="M480.1,194.15l-35.24-20.48.6-1.47,35.24,20.48q-.3.72-.6,1.47"/>
            <path class="cls-17" d="M480.7,192.68,445.46,172.2,446,171l35.24,20.48q-.28.6-.57,1.23"/>
            <path class="cls-18" d="M481.27,191.45,446,171c.17-.37.35-.72.54-1.07l35.24,20.48c-.19.34-.37.7-.54,1.07"/>
            <path class="cls-19" d="M481.81,190.38,446.57,169.9c.17-.33.35-.65.54-1l35.24,20.48c-.19.32-.37.64-.54,1"/>
            <path class="cls-20" d="M482.35,189.41l-35.24-20.48.11-.19c.12-.2.24-.4.37-.6l35.24,20.48c-.13.2-.25.4-.37.6l-.11.19"/>
            <path class="cls-5" d="M482.83,188.62l-35.24-20.48.54-.81,35.24,20.48-.54.81"/>
            <path class="cls-6" d="M483.37,187.81l-35.24-20.48.65-.88L484,186.93l-.65.88"/>
            <path class="cls-7" d="M484,186.93l-35.24-20.48c.27-.35.56-.7.86-1l35.24,20.48c-.3.34-.59.69-.86,1"/>
            <path class="cls-8" d="M484.88,185.89l-35.24-20.48c.41-.48.86-.95,1.32-1.41l35.24,20.48c-.46.46-.91.93-1.32,1.41"/>
            <path class="cls-9" d="M486.2,184.48,451,164a33.16,33.16,0,0,1,6.7-5l35.24,20.48a33.16,33.16,0,0,0-6.7,5"/>
          </g>
        </g>
      </g>
      <path class="cls-26" d="M555.62,143.26q12.06-7,12.1,5.55.06,20-8.2,30.49a33.16,33.16,0,0,1-9.15,8L511.07,210,380.21,897.54l32.69-18.87q15-8.67,15.05,3.85,0,19.29-7.88,30.3a33.71,33.71,0,0,1-9.41,8.15L350.3,955.82q-15,8.67-15.05-3.84,0-3.37,6.51-35.59l135.58-712c1.17-6.32,2.86-11.37,5.12-15.16a28,28,0,0,1,10.44-9.75Z"/>
    </g>
  </g>
</svg>
