<svg xmlns="http://www.w3.org/2000/svg" xmlns:xlink="http://www.w3.org/1999/xlink" viewBox="0 0 1000 1000">
  <defs>
    <style>
      .cls-1 {
        fill: none;
      }

      .cls-2 {
        isolation: isolate;
      }

      .cls-3 {
        fill: #898989;
      }

      .cls-4 {
        clip-path: url(#clip-path);
      }

      .cls-5 {
        fill: #949494;
      }

      .cls-6 {
        fill: #8f8f8f;
      }

      .cls-7 {
        fill: #8a8a8a;
      }

      .cls-8 {
        fill: #858585;
      }

      .cls-9 {
        clip-path: url(#clip-path-2);
      }

      .cls-10 {
        fill: #999;
      }

      .cls-11 {
        fill: #9e9e9e;
      }

      .cls-12 {
        fill: #a3a3a3;
      }

      .cls-13 {
        fill: #a8a8a8;
      }

      .cls-14 {
        fill: #adadad;
      }

      .cls-15 {
        fill: #b3b3b3;
      }

      .cls-16 {
        fill: #b8b8b8;
      }

      .cls-17 {
        clip-path: url(#clip-path-3);
      }

      .cls-18 {
        clip-path: url(#clip-path-4);
      }

      .cls-19 {
        fill: #c4c4c4;
      }

      .cls-20 {
        clip-path: url(#clip-path-5);
      }

      .cls-21 {
        clip-path: url(#clip-path-6);
      }

      .cls-22 {
        fill: #dcdcdc;
      }

      .cls-23 {
        clip-path: url(#clip-path-7);
      }

      .cls-24 {
        clip-path: url(#clip-path-8);
      }

      .cls-25 {
        clip-path: url(#clip-path-9);
      }

      .cls-26 {
        clip-path: url(#clip-path-10);
      }
    </style>
    <clipPath id="clip-path">
      <path class="cls-1" d="M776.08,398.16,776,438.92a31.26,31.26,0,0,1-10.82-3.7l.11-40.76A31.39,31.39,0,0,0,776.08,398.16Z"/>
    </clipPath>
    <clipPath id="clip-path-2">
      <path class="cls-1" d="M809.6,384.76l-.11,40.76c0,2-1.61,3.87-4.82,5.73q-16.24,9.45-28.71,7.67l.12-40.76q12.45,1.77,28.71-7.67C808,388.63,809.6,386.72,809.6,384.76Z"/>
    </clipPath>
    <clipPath id="clip-path-3">
      <path class="cls-1" d="M839.48,474.25l.12-40.75q0,3.87,7.83,8.4l-.12,40.76Q839.47,478.13,839.48,474.25Z"/>
    </clipPath>
    <clipPath id="clip-path-4">
      <path class="cls-1" d="M947.79,465.38l-.11,40.76c0,1.9-1.4,3.65-4.17,5.27a51.4,51.4,0,0,1-7.72,3.2l.11-40.76a50.35,50.35,0,0,0,7.72-3.2Q947.79,468.24,947.79,465.38Z"/>
    </clipPath>
    <clipPath id="clip-path-5">
      <path class="cls-1" d="M36.36,625.06l.11-40.76q0,4,8.22,8.75l-.11,40.75Q36.35,629.06,36.36,625.06Z"/>
    </clipPath>
    <clipPath id="clip-path-6">
      <path class="cls-1" d="M112.56,629.68l-.11,40.76a31.93,31.93,0,0,1-11.07-3.84l.12-40.76A31.8,31.8,0,0,0,112.56,629.68Z"/>
    </clipPath>
    <clipPath id="clip-path-7">
      <path class="cls-1" d="M145.24,616.5l-.12,40.76c0,1.91-1.43,3.69-4.26,5.34q-15.71,9.12-28.41,7.84l.11-40.76Q125.29,631,141,621.84,145.23,619.37,145.24,616.5Z"/>
    </clipPath>
    <clipPath id="clip-path-8">
      <path class="cls-1" d="M174.77,705.53l.11-40.76q0,3.43,6.42,7.15l-.11,40.76Q174.76,709,174.77,705.53Z"/>
    </clipPath>
    <clipPath id="clip-path-9">
      <path class="cls-1" d="M252.51,709.84l-.12,40.76a27.27,27.27,0,0,1-12.18-3.84l.12-40.76A27.14,27.14,0,0,0,252.51,709.84Z"/>
    </clipPath>
    <clipPath id="clip-path-10">
      <path class="cls-1" d="M291.44,698.11l-.11,40.76q-32.67,11.82-38.94,11.73l.12-40.76Q258.77,709.93,291.44,698.11Z"/>
    </clipPath>
  </defs>
  <title>index signature</title>
  <g id="index_signature-3" data-name="index signature">
    <g class="cls-2">
      <polygon class="cls-3" points="765.25 394.46 765.14 435.22 728.15 413.86 728.27 373.11 765.25 394.46"/>
      <g class="cls-2">
        <g class="cls-4">
          <g class="cls-2">
            <path class="cls-5" d="M776.08,398.16,776,438.92c-.58-.09-1.15-.2-1.72-.32l.12-40.75c.56.11,1.14.22,1.72.31"/>
            <path class="cls-6" d="M774.36,397.85l-.12,40.75c-.84-.17-1.65-.37-2.45-.6l.12-40.75c.79.22,1.61.42,2.45.6"/>
            <path class="cls-7" d="M771.91,397.25,771.79,438c-1-.28-1.95-.6-2.87-1l.11-40.76c.93.36,1.89.68,2.88,1"/>
            <path class="cls-8" d="M769,396.28,768.92,437a28.67,28.67,0,0,1-3.78-1.82l.11-40.76a28.62,28.62,0,0,0,3.78,1.82"/>
          </g>
        </g>
      </g>
      <g class="cls-2">
        <g class="cls-9">
          <g class="cls-2">
            <path class="cls-5" d="M809.6,384.76l-.11,40.76s0,.06,0,.09l.12-40.76v-.09"/>
            <path class="cls-10" d="M809.6,384.85l-.12,40.76a3.27,3.27,0,0,1-.07.62l.12-40.76a4.36,4.36,0,0,0,.07-.62"/>
            <path class="cls-11" d="M809.53,385.47l-.12,40.76a4.63,4.63,0,0,1-.17.61l.11-40.76a3.52,3.52,0,0,0,.18-.61"/>
            <path class="cls-12" d="M809.35,386.08l-.11,40.76a6.53,6.53,0,0,1-.31.66l.11-40.76a3.92,3.92,0,0,0,.31-.66"/>
            <path class="cls-13" d="M809,386.74l-.11,40.76a6.42,6.42,0,0,1-.5.74l.11-40.76a4.81,4.81,0,0,0,.5-.74"/>
            <path class="cls-14" d="M808.54,387.48l-.11,40.76a10.55,10.55,0,0,1-.93,1l.11-40.75a7.77,7.77,0,0,0,.93-1"/>
            <path class="cls-15" d="M807.61,388.48l-.11,40.75a15.87,15.87,0,0,1-2.51,1.84l.11-40.76a16,16,0,0,0,2.51-1.83"/>
            <path class="cls-16" d="M805.1,390.31,805,431.07l-.32.18a66.56,66.56,0,0,1-13,6l.12-40.76a66.83,66.83,0,0,0,13-6l.31-.18"/>
            <path class="cls-15" d="M791.78,396.45l-.12,40.76a43.12,43.12,0,0,1-5.61,1.42l.12-40.76a43.53,43.53,0,0,0,5.61-1.42"/>
            <path class="cls-14" d="M786.17,397.87l-.12,40.76c-1,.18-1.91.31-2.85.41l.11-40.76c.94-.1,1.89-.23,2.86-.41"/>
            <path class="cls-13" d="M783.31,398.28,783.2,439c-.73.07-1.44.12-2.15.14l.12-40.76c.7,0,1.42-.07,2.14-.14"/>
            <path class="cls-12" d="M781.17,398.42l-.12,40.76c-.6,0-1.2,0-1.8,0l.12-40.76c.59,0,1.19,0,1.8,0"/>
            <path class="cls-11" d="M779.37,398.43l-.12,40.76c-.56,0-1.11,0-1.66-.09l.12-40.76c.54.05,1.1.08,1.66.09"/>
            <path class="cls-10" d="M777.71,398.34l-.12,40.76c-.54,0-1.08-.11-1.62-.18l.12-40.76q.79.12,1.62.18"/>
            <polyline class="cls-5" points="776.09 398.16 775.98 438.92 775.96 438.92 776.08 398.16 776.09 398.16"/>
          </g>
        </g>
      </g>
      <g class="cls-2">
        <g class="cls-17">
          <g class="cls-2">
            <path class="cls-8" d="M847.43,441.9l-.12,40.76q-7.84-4.53-7.83-8.41l.12-40.75q0,3.87,7.83,8.4"/>
          </g>
        </g>
      </g>
      <polygon class="cls-3" points="878.96 460.11 878.85 500.87 847.32 482.66 847.43 441.9 878.96 460.11"/>
      <g class="cls-2">
        <g class="cls-18">
          <g class="cls-2">
            <path class="cls-5" d="M947.79,465.38l-.11,40.76v.1l.11-40.76v-.1"/>
            <path class="cls-10" d="M947.79,465.48l-.11,40.76a4.81,4.81,0,0,1-.08.65l.12-40.76a4.62,4.62,0,0,0,.07-.65"/>
            <path class="cls-11" d="M947.72,466.13l-.12,40.76a3.38,3.38,0,0,1-.18.62l.12-40.75a3.73,3.73,0,0,0,.18-.63"/>
            <path class="cls-12" d="M947.54,466.76l-.12,40.75a4.22,4.22,0,0,1-.3.65l.11-40.76a3.75,3.75,0,0,0,.31-.64"/>
            <path class="cls-13" d="M947.23,467.4l-.11,40.76a5.91,5.91,0,0,1-.48.71l.12-40.76a5.13,5.13,0,0,0,.47-.71"/>
            <path class="cls-14" d="M946.76,468.11l-.12,40.76a6.75,6.75,0,0,1-.83.88l.12-40.76a7.5,7.5,0,0,0,.83-.88"/>
            <path class="cls-15" d="M945.93,469l-.12,40.76a12.34,12.34,0,0,1-2.07,1.52l.11-40.76a12.45,12.45,0,0,0,2.08-1.52"/>
            <path class="cls-16" d="M943.85,470.51l-.11,40.76-.23.14a51.4,51.4,0,0,1-7.72,3.2l.11-40.76a50.35,50.35,0,0,0,7.72-3.2l.23-.14"/>
          </g>
        </g>
      </g>
      <polygon class="cls-19" points="728.27 373.11 728.15 413.86 106.15 630.77 106.26 590.01 728.27 373.11"/>
      <g class="cls-2">
        <g class="cls-20">
          <g class="cls-2">
            <path class="cls-8" d="M44.69,593.05l-.11,40.75q-8.23-4.74-8.22-8.74l.11-40.76q0,4,8.22,8.75"/>
          </g>
        </g>
      </g>
      <polygon class="cls-3" points="101.5 625.84 101.38 666.6 44.58 633.8 44.69 593.05 101.5 625.84"/>
      <g class="cls-2">
        <g class="cls-21">
          <g class="cls-2">
            <path class="cls-5" d="M112.56,629.68l-.11,40.76c-.56-.09-1.11-.19-1.66-.3l.12-40.76c.54.11,1.1.21,1.65.3"/>
            <path class="cls-6" d="M110.91,629.38l-.12,40.76c-.82-.17-1.62-.37-2.41-.59l.11-40.76c.79.22,1.6.42,2.42.59"/>
            <path class="cls-7" d="M108.49,628.79l-.11,40.76q-1.51-.43-2.94-1l.11-40.76q1.44.56,2.94,1"/>
            <path class="cls-8" d="M105.55,627.8l-.11,40.76a31,31,0,0,1-4.06-2l.12-40.76a30.86,30.86,0,0,0,4,2"/>
          </g>
        </g>
      </g>
      <path class="cls-22" d="M803.61,378q11.35,6.56,1.18,12.48-16.26,9.45-28.71,7.67a31.39,31.39,0,0,1-10.83-3.7l-37-21.36L106.26,590,137,607.77q14.13,8.16,3.95,14.07-15.69,9.12-28.41,7.84a31.8,31.8,0,0,1-11.06-3.84L44.69,593.05q-14.13-8.16-4-14.08,2.75-1.59,32.07-11.44L717,343c5.7-2,10.61-3,14.76-3a26.32,26.32,0,0,1,12.87,3.92Z"/>
      <g class="cls-2">
        <g class="cls-23">
          <g class="cls-2">
            <path class="cls-5" d="M145.24,616.5l-.12,40.76v.1l.11-40.76a.31.31,0,0,0,0-.1"/>
            <path class="cls-10" d="M145.23,616.6l-.11,40.76a4.48,4.48,0,0,1-.07.64l.11-40.75a3.59,3.59,0,0,0,.07-.65"/>
            <path class="cls-11" d="M145.16,617.25,145.05,658a5.79,5.79,0,0,1-.18.63l.11-40.75a3.73,3.73,0,0,0,.18-.63"/>
            <path class="cls-12" d="M145,617.88l-.11,40.75a5.51,5.51,0,0,1-.31.65l.12-40.76a4.6,4.6,0,0,0,.3-.64"/>
            <path class="cls-13" d="M144.68,618.52l-.12,40.76a7.5,7.5,0,0,1-.48.72l.11-40.76a5.39,5.39,0,0,0,.49-.72"/>
            <path class="cls-14" d="M144.19,619.24,144.08,660a7.68,7.68,0,0,1-.84.89l.12-40.76a7.56,7.56,0,0,0,.83-.89"/>
            <path class="cls-15" d="M143.36,620.13l-.12,40.76a12.76,12.76,0,0,1-2.14,1.57l.12-40.76a13.19,13.19,0,0,0,2.14-1.57"/>
            <path class="cls-16" d="M141.22,621.7l-.12,40.76-.24.14a66.7,66.7,0,0,1-13,5.93l.12-40.75a66.7,66.7,0,0,0,13-5.94l.25-.14"/>
            <path class="cls-15" d="M128,627.78l-.12,40.75a44,44,0,0,1-5.8,1.47l.11-40.76a45.73,45.73,0,0,0,5.81-1.46"/>
            <path class="cls-14" d="M122.18,629.24,122.07,670c-1,.19-2,.33-3,.43l.11-40.76c1-.1,2-.24,3-.43"/>
            <path class="cls-13" d="M119.15,629.67,119,670.43c-.76.07-1.52.12-2.26.15l.11-40.76c.75,0,1.5-.08,2.26-.15"/>
            <path class="cls-12" d="M116.89,629.82l-.11,40.76c-.66,0-1.31,0-2,0l.11-40.76c.65,0,1.3,0,2,0"/>
            <path class="cls-11" d="M114.93,629.83l-.11,40.76c-.61,0-1.21-.05-1.81-.1l.12-40.76c.59,0,1.2.09,1.8.1"/>
            <path class="cls-10" d="M113.13,629.73,113,670.49l-.56,0,.11-40.76.57.05"/>
          </g>
        </g>
      </g>
      <g class="cls-2">
        <g class="cls-24">
          <g class="cls-2">
            <path class="cls-8" d="M181.3,671.92l-.11,40.76q-6.44-3.72-6.42-7.15l.11-40.76q0,3.43,6.42,7.15"/>
          </g>
        </g>
      </g>
      <polygon class="cls-19" points="935.9 473.85 935.79 514.61 291.33 738.87 291.44 698.11 935.9 473.85"/>
      <polygon class="cls-3" points="240.33 706 240.21 746.76 181.19 712.68 181.3 671.92 240.33 706"/>
      <g class="cls-2">
        <g class="cls-25">
          <g class="cls-2">
            <path class="cls-11" d="M252.51,709.84l-.12,40.76-.68-.05.11-40.76.69.05"/>
            <path class="cls-10" d="M251.82,709.79l-.11,40.76c-.46,0-.92-.09-1.37-.15l.11-40.76c.46.06.92.12,1.37.15"/>
            <path class="cls-5" d="M250.45,709.64l-.11,40.76c-.51-.07-1-.16-1.51-.27l.11-40.75c.51.1,1,.19,1.51.26"/>
            <path class="cls-6" d="M248.94,709.38l-.11,40.75c-.61-.12-1.21-.27-1.81-.44l.11-40.76c.61.17,1.21.32,1.81.45"/>
            <path class="cls-7" d="M247.13,708.93,247,749.69c-.84-.24-1.68-.53-2.53-.86l.12-40.75c.84.33,1.68.61,2.52.85"/>
            <path class="cls-8" d="M244.61,708.08l-.12,40.75a32.83,32.83,0,0,1-4.28-2.07l.12-40.76a33.6,33.6,0,0,0,4.28,2.08"/>
          </g>
        </g>
      </g>
      <g class="cls-2">
        <g class="cls-26">
          <g class="cls-2">
            <path class="cls-16" d="M291.44,698.11l-.11,40.76q-12.74,4.61-21.46,7.4l.11-40.75q8.73-2.81,21.46-7.41"/>
            <path class="cls-15" d="M270,705.52l-.11,40.75a126.18,126.18,0,0,1-14.53,4l.12-40.76a127.72,127.72,0,0,0,14.52-4"/>
            <path class="cls-14" d="M255.46,709.51l-.12,40.76c-.67.13-1.27.21-1.79.27l.12-40.76c.52-.06,1.11-.14,1.79-.27"/>
            <path class="cls-13" d="M253.67,709.78l-.12,40.76-.75.05.11-40.76c.23,0,.48,0,.76-.05"/>
            <path class="cls-12" d="M252.91,709.83l-.11,40.76h-.41l.12-40.76h.4"/>
          </g>
        </g>
      </g>
      <path class="cls-22" d="M939.12,456.25q14.68,8.47,4.5,14.4a50.35,50.35,0,0,1-7.72,3.2L291.44,698.11q-32.65,11.82-38.93,11.73A27.14,27.14,0,0,1,240.33,706l-59-34.08q-11.9-6.87-1.72-12.8,3.3-1.92,13.08-5t16.15-2.32a23.57,23.57,0,0,1,10.24,3.36l37.41,21.6L879,460.11,847.43,441.9Q833.75,434,844,428.09q15.13-8.79,28.12-8a31,31,0,0,1,10.8,3.68Z"/>
    </g>
  </g>
</svg>
