<svg xmlns="http://www.w3.org/2000/svg" xmlns:xlink="http://www.w3.org/1999/xlink" viewBox="0 0 1000 1000">
  <defs>
    <style>
      .cls-1 {
        fill: none;
      }

      .cls-2 {
        isolation: isolate;
      }

      .cls-3 {
        clip-path: url(#clip-path);
      }

      .cls-4 {
        fill: #e0e0e0;
      }

      .cls-5 {
        fill: #dbdbdb;
      }

      .cls-6 {
        fill: #d6d6d6;
      }

      .cls-7 {
        fill: #d1d1d1;
      }

      .cls-8 {
        fill: #ccc;
      }

      .cls-9 {
        fill: #c7c7c7;
      }

      .cls-10 {
        fill: #c2c2c2;
      }

      .cls-11 {
        fill: #bdbdbd;
      }

      .cls-12 {
        fill: #b8b8b8;
      }

      .cls-13 {
        fill: #b3b3b3;
      }

      .cls-14 {
        fill: #adadad;
      }

      .cls-15 {
        fill: #a8a8a8;
      }

      .cls-16 {
        fill: #a3a3a3;
      }

      .cls-17 {
        fill: #9e9e9e;
      }

      .cls-18 {
        fill: #999;
      }

      .cls-19 {
        fill: #949494;
      }

      .cls-20 {
        fill: #8f8f8f;
      }

      .cls-21 {
        fill: #8a8a8a;
      }

      .cls-22 {
        fill: #858585;
      }

      .cls-23 {
        clip-path: url(#clip-path-2);
      }

      .cls-24 {
        fill: #e6e6e6;
      }

      .cls-25 {
        fill: #ebebeb;
      }

      .cls-26 {
        fill: #f0f0f0;
      }

      .cls-27 {
        fill: #f5f5f5;
      }

      .cls-28 {
        fill: #fafafa;
      }

      .cls-29 {
        fill: #fff;
      }

      .cls-30 {
        clip-path: url(#clip-path-3);
      }

      .cls-31 {
        fill: #929292;
      }

      .cls-32 {
        clip-path: url(#clip-path-4);
      }

      .cls-33 {
        clip-path: url(#clip-path-5);
      }

      .cls-34 {
        clip-path: url(#clip-path-6);
      }

      .cls-35 {
        clip-path: url(#clip-path-7);
      }

      .cls-36 {
        clip-path: url(#clip-path-8);
      }
    </style>
    <clipPath id="clip-path">
      <path class="cls-1" d="M566.5,193.59l35.24,20.48c19.13,11.12,26.8,40.92,18,84.42L584.47,278C593.3,234.51,585.64,204.71,566.5,193.59Z"/>
    </clipPath>
    <clipPath id="clip-path-2">
      <path class="cls-1" d="M427.38,504.34l-35.24-20.48c14.17,8.24,34.63,6.23,59.34-8,58.08-33.53,117.62-122.1,133-197.82l35.24,20.48c-15.37,75.72-74.91,164.28-133,197.82C462,510.57,441.55,512.58,427.38,504.34Z"/>
    </clipPath>
    <clipPath id="clip-path-3">
      <path class="cls-1" d="M758.88,45.55,794.12,66C740,34.57,661.83,42.22,567.46,96.71L532.22,76.23C626.59,21.74,704.75,14.09,758.88,45.55Z"/>
    </clipPath>
    <clipPath id="clip-path-4">
      <path class="cls-1" d="M59.37,852.93,24.13,832.45C83,542.57,310.39,204.3,532.22,76.23l35.24,20.48C345.63,224.78,118.22,563.05,59.37,852.93Z"/>
    </clipPath>
    <clipPath id="clip-path-5">
      <path class="cls-1" d="M731.61,459.86l35.24,20.48c14.89,8.65,20.86,31.83,14,65.67l-35.24-20.48C752.47,491.69,746.5,468.51,731.61,459.86Z"/>
    </clipPath>
    <clipPath id="clip-path-6">
      <path class="cls-1" d="M631.24,706.1,596,685.62c11,6.41,26.94,4.85,46.16-6.25,45.17-26.08,91.48-95,103.43-153.84L780.83,546c-12,58.88-58.26,127.76-103.43,153.84C658.18,711,642.27,712.51,631.24,706.1Z"/>
    </clipPath>
    <clipPath id="clip-path-7">
      <path class="cls-1" d="M881.24,344.73l35.24,20.47c-42.1-24.46-102.89-18.5-176.29,23.87L705,368.59C778.35,326.22,839.14,320.26,881.24,344.73Z"/>
    </clipPath>
    <clipPath id="clip-path-8">
      <path class="cls-1" d="M345,977.21,309.8,956.73C355.57,731.27,532.44,468.2,705,368.59l35.24,20.48C567.68,488.67,390.81,751.75,345,977.21Z"/>
    </clipPath>
  </defs>
  <title>inherited constructor</title>
  <g id="inherited_constructor" data-name="inherited constructor">
    <g class="cls-2">
      <g class="cls-2">
        <g class="cls-3">
          <g class="cls-2">
            <path class="cls-4" d="M619.71,298.49,584.47,278c.36-1.74.68-3.46,1-5.16l35.24,20.48c-.3,1.7-.62,3.42-1,5.16"/>
            <path class="cls-5" d="M620.69,293.33l-35.24-20.48q.6-3.33,1-6.56l35.24,20.48q-.45,3.23-1,6.56"/>
            <path class="cls-6" d="M621.74,286.77,586.5,266.29q.43-3,.73-5.81L622.47,281c-.2,1.9-.45,3.84-.73,5.81"/>
            <path class="cls-7" d="M622.47,281l-35.24-20.48c.21-1.86.37-3.69.51-5.49L623,275.47c-.14,1.8-.3,3.63-.51,5.49"/>
            <path class="cls-8" d="M623,275.47,587.74,255c.12-1.7.22-3.37.28-5l35.24,20.47c-.06,1.65-.16,3.32-.28,5"/>
            <path class="cls-9" d="M623.26,270.45,588,250c.06-1.62.1-3.2.1-4.76l35.24,20.48c0,1.56,0,3.14-.1,4.75"/>
            <path class="cls-10" d="M623.36,265.7l-35.24-20.48c0-1.5,0-3-.07-4.42l35.24,20.48c.05,1.45.07,2.92.07,4.42"/>
            <path class="cls-11" d="M623.29,261.28,588.05,240.8c0-1.44-.12-2.85-.22-4.24L623.07,257c.1,1.39.17,2.8.22,4.24"/>
            <path class="cls-12" d="M623.07,257l-35.24-20.48c-.1-1.36-.23-2.7-.37-4L622.7,253c.14,1.31.27,2.65.37,4"/>
            <path class="cls-13" d="M622.7,253l-35.24-20.48c-.15-1.31-.33-2.6-.53-3.86l35.24,20.48c.2,1.26.38,2.55.53,3.86"/>
            <path class="cls-14" d="M622.17,249.17l-35.24-20.48c-.2-1.27-.43-2.52-.68-3.73l35.24,20.48c.25,1.21.48,2.46.68,3.73"/>
            <path class="cls-15" d="M621.49,245.44,586.25,225c-.25-1.23-.53-2.43-.83-3.6l35.24,20.48c.3,1.17.58,2.37.83,3.6"/>
            <path class="cls-16" d="M620.66,241.84l-35.24-20.48c-.32-1.22-.66-2.42-1-3.59l35.24,20.48c.38,1.17.72,2.37,1,3.59"/>
            <path class="cls-17" d="M619.62,238.25l-35.24-20.48c-.38-1.18-.78-2.33-1.22-3.45L618.4,234.8c.44,1.12.84,2.27,1.22,3.45"/>
            <path class="cls-18" d="M618.4,234.8l-35.24-20.48c-.47-1.23-1-2.41-1.53-3.55l35.24,20.48c.55,1.14,1.06,2.32,1.53,3.55"/>
            <path class="cls-19" d="M616.87,231.25l-35.24-20.48c-.58-1.24-1.21-2.42-1.87-3.56L615,227.69c.66,1.14,1.29,2.32,1.87,3.56"/>
            <path class="cls-20" d="M615,227.69l-35.24-20.48a41.2,41.2,0,0,0-2.34-3.6l35.24,20.48a41.2,41.2,0,0,1,2.34,3.6"/>
            <path class="cls-21" d="M612.66,224.09l-35.24-20.48a37.7,37.7,0,0,0-3.5-4.19l35.24,20.48a37.7,37.7,0,0,1,3.5,4.19"/>
            <path class="cls-22" d="M609.16,219.9l-35.24-20.48a34,34,0,0,0-7.42-5.83l35.24,20.48a34,34,0,0,1,7.42,5.83"/>
          </g>
        </g>
      </g>
      <g class="cls-2">
        <g class="cls-23">
          <g class="cls-2">
            <path class="cls-22" d="M427.38,504.34l-35.24-20.48a35.9,35.9,0,0,0,14,4.55l35.24,20.48a35.9,35.9,0,0,1-14-4.55"/>
            <path class="cls-21" d="M441.36,508.89l-35.24-20.48a42.94,42.94,0,0,0,5.73.29l35.24,20.48a42.94,42.94,0,0,1-5.73-.29"/>
            <path class="cls-20" d="M447.09,509.18,411.85,488.7c1.58,0,3.2-.11,4.85-.28l35.24,20.48c-1.65.17-3.27.27-4.85.28"/>
            <path class="cls-19" d="M451.94,508.9,416.7,488.42c1.5-.16,3-.38,4.58-.67l35.24,20.48c-1.56.29-3.08.51-4.58.67"/>
            <path class="cls-18" d="M456.52,508.23l-35.24-20.48c1.41-.26,2.84-.57,4.29-.94l35.24,20.48c-1.45.37-2.88.68-4.29.94"/>
            <path class="cls-17" d="M460.81,507.29l-35.24-20.48c1.38-.34,2.77-.74,4.18-1.18L465,506.11c-1.41.44-2.8.84-4.18,1.18"/>
            <path class="cls-16" d="M465,506.11l-35.24-20.48c1.37-.43,2.76-.9,4.17-1.42l35.24,20.48c-1.41.52-2.8,1-4.17,1.42"/>
            <path class="cls-15" d="M469.16,504.69l-35.24-20.48c1.36-.51,2.74-1,4.14-1.64l35.24,20.48c-1.4.59-2.78,1.13-4.14,1.64"/>
            <path class="cls-14" d="M473.3,503.05l-35.24-20.48c1.38-.59,2.79-1.22,4.21-1.89l35.23,20.48c-1.41.67-2.82,1.3-4.2,1.89"/>
            <path class="cls-13" d="M477.5,501.16l-35.23-20.48c1.41-.67,2.84-1.39,4.29-2.14L481.8,499c-1.45.75-2.88,1.47-4.3,2.14"/>
            <path class="cls-12" d="M481.8,499l-35.24-20.48c1.45-.76,2.92-1.56,4.39-2.41l35.24,20.48c-1.47.85-2.94,1.65-4.39,2.41"/>
            <path class="cls-11" d="M486.19,496.61,451,476.13l.53-.3q2-1.17,4-2.43l35.24,20.48q-2,1.26-4,2.43l-.53.3"/>
            <path class="cls-10" d="M490.77,493.88,455.53,473.4c1.53-.95,3.06-1.93,4.59-3l35.24,20.48c-1.53,1-3.06,2-4.59,3"/>
            <path class="cls-9" d="M495.36,490.92l-35.24-20.48q2.44-1.62,4.87-3.37l35.24,20.48c-1.62,1.16-3.24,2.29-4.87,3.37"/>
            <path class="cls-8" d="M500.23,487.55,465,467.07c1.64-1.18,3.29-2.4,4.93-3.66l35.24,20.48c-1.64,1.26-3.29,2.48-4.93,3.66"/>
            <path class="cls-7" d="M505.16,483.89l-35.24-20.48q2.61-2,5.2-4.13l35.24,20.48q-2.6,2.13-5.2,4.13"/>
            <path class="cls-6" d="M510.36,479.76l-35.24-20.48q2.73-2.23,5.43-4.6l35.24,20.48q-2.7,2.37-5.43,4.6"/>
            <path class="cls-5" d="M515.79,475.16l-35.24-20.48c1.88-1.64,3.76-3.33,5.62-5.06l35.24,20.48q-2.8,2.59-5.62,5.06"/>
            <path class="cls-4" d="M521.41,470.1l-35.24-20.48q3-2.82,6-5.79l35.24,20.47q-3,3-6,5.8"/>
            <path class="cls-24" d="M527.44,464.3,492.2,443.83q3.14-3.1,6.22-6.36L533.66,458q-3.09,3.26-6.22,6.35"/>
            <path class="cls-25" d="M533.66,458l-35.24-20.48q3.22-3.41,6.4-7L540.06,451q-3.18,3.56-6.4,7"/>
            <path class="cls-26" d="M540.06,451l-35.24-20.48q3.3-3.7,6.54-7.58l35.24,20.48q-3.24,3.87-6.54,7.58"/>
            <path class="cls-27" d="M546.6,443.41l-35.24-20.48q3.4-4.08,6.74-8.31l35.24,20.48q-3.33,4.23-6.74,8.31"/>
            <path class="cls-28" d="M553.34,435.1,518.1,414.62q3.6-4.59,7.08-9.34l35.24,20.48q-3.48,4.75-7.08,9.34"/>
            <path class="cls-29" d="M560.42,425.76l-35.24-20.48q4-5.46,7.85-11.11l35.24,20.47q-3.84,5.66-7.85,11.12"/>
            <path class="cls-29" d="M568.27,414.64,533,394.17Q539.24,385,545,375.45l35.23,20.48q-5.7,9.56-11.92,18.71"/>
            <path class="cls-29" d="M580.19,395.93,545,375.45q5.76-9.65,10.93-19.6l35.24,20.48q-5.16,9.93-10.94,19.6"/>
            <path class="cls-29" d="M591.13,376.33l-35.24-20.48q5-9.68,9.4-19.51l35.24,20.48c-2.91,6.55-6.06,13.06-9.4,19.51"/>
            <path class="cls-29" d="M600.53,356.82l-35.24-20.48q2.65-6,5-11.93l35.24,20.48q-2.39,6-5,11.93"/>
            <path class="cls-28" d="M605.57,344.89l-35.24-20.48q2-5.1,3.87-10.21l35.24,20.48q-1.83,5.1-3.87,10.21"/>
            <path class="cls-27" d="M609.44,334.68,574.2,314.2c1.13-3.14,2.2-6.29,3.21-9.42l35.24,20.48q-1.51,4.69-3.21,9.42"/>
            <path class="cls-26" d="M612.65,325.26l-35.24-20.48c1-3,1.84-5.9,2.68-8.84l35.24,20.48q-1.26,4.4-2.68,8.84"/>
            <path class="cls-25" d="M615.33,316.42l-35.24-20.48q1.18-4.19,2.22-8.33l35.24,20.48q-1,4.14-2.22,8.33"/>
            <path class="cls-24" d="M617.55,308.09l-35.24-20.48q1-3.87,1.77-7.71l35.24,20.48q-.81,3.84-1.77,7.71"/>
            <path class="cls-4" d="M619.32,300.38,584.08,279.9c.13-.63.27-1.26.39-1.89l35.24,20.48c-.12.63-.26,1.26-.39,1.89"/>
          </g>
        </g>
      </g>
      <g class="cls-2">
        <g class="cls-30">
          <g class="cls-2">
            <path class="cls-11" d="M567.46,96.71,532.22,76.23l2-1.15,35.24,20.48c-.67.38-1.34.76-2,1.15"/>
            <path class="cls-12" d="M569.46,95.56,534.22,75.08q8.47-4.85,16.77-9.19l35.24,20.48q-8.29,4.35-16.77,9.19"/>
            <path class="cls-13" d="M586.23,86.37,551,65.89q8.31-4.34,16.42-8.19l35.24,20.48q-8.11,3.85-16.42,8.19"/>
            <path class="cls-14" d="M602.65,78.18,567.41,57.7q8.13-3.84,16.06-7.2L618.71,71q-7.94,3.34-16.06,7.2"/>
            <path class="cls-15" d="M618.71,71,583.47,50.5q8-3.39,15.82-6.27l35.24,20.48q-7.81,2.88-15.82,6.27"/>
            <path class="cls-16" d="M634.53,64.71,599.29,44.23q8.07-3,15.92-5.44l35.24,20.48q-7.86,2.46-15.92,5.44"/>
            <path class="cls-17" d="M650.45,59.27,615.21,38.79q8.09-2.53,15.95-4.51L666.4,54.76q-7.86,2-15.95,4.51"/>
            <path class="cls-18" d="M666.4,54.76,631.16,34.28q8.34-2.1,16.41-3.59l35.24,20.48q-8.07,1.48-16.41,3.59"/>
            <path class="cls-19" d="M682.81,51.17,647.57,30.69q8.91-1.64,17.48-2.54l35.24,20.48q-8.56.9-17.48,2.54"/>
            <path class="cls-20" d="M700.29,48.63,665.05,28.15q9.48-1,18.52-1.09l35.24,20.48q-9,.09-18.52,1.09"/>
            <path class="cls-21" d="M718.81,47.54,683.57,27.06a170.09,170.09,0,0,1,21.89,1.12L740.7,48.66a170.09,170.09,0,0,0-21.89-1.12"/>
            <path class="cls-22" d="M740.7,48.66,705.46,28.18a137.08,137.08,0,0,1,53.42,17.37L794.12,66A137.23,137.23,0,0,0,740.7,48.66"/>
          </g>
        </g>
      </g>
      <path class="cls-31" d="M567.46,96.71c221.81-128.06,354,2.57,295.32,291.77L59.37,852.93C118.22,563.05,345.63,224.78,567.46,96.71Zm52.25,201.78c15.37-75.72-19.24-109.92-77.32-76.39s-117.62,122.1-133,197.81,19.24,109.93,77.32,76.4,117.62-122.1,133-197.82"/>
      <g class="cls-2">
        <g class="cls-32">
          <g class="cls-2">
            <path class="cls-4" d="M59.37,852.93,24.13,832.45q.74-3.6,1.5-7.23L60.87,845.7q-.76,3.63-1.5,7.23"/>
            <path class="cls-24" d="M60.87,845.7,25.63,825.22q3.12-14.72,6.81-29.57l35.24,20.48Q64,831,60.87,845.7"/>
            <path class="cls-25" d="M67.68,816.13,32.44,795.65q3.93-15.9,8.5-31.95l35.24,20.48q-4.56,16-8.5,32"/>
            <path class="cls-26" d="M76.18,784.18,40.94,763.7q4.8-16.87,10.26-33.86l35.24,20.48q-5.44,17-10.26,33.86"/>
            <path class="cls-27" d="M86.44,750.32,51.2,729.84q5.79-18,12.29-36.08l35.24,20.48q-6.49,18.07-12.29,36.08"/>
            <path class="cls-28" d="M98.73,714.24,63.49,693.76q7-19.57,14.87-39.19l35.24,20.48q-7.83,19.61-14.87,39.19"/>
            <path class="cls-29" d="M113.6,675.05,78.36,654.57q9.17-22.94,19.35-45.81L133,629.24q-10.18,22.86-19.35,45.81"/>
            <path class="cls-29" d="M133,629.24,97.71,608.76q16.62-37.34,35.75-74.17l35.24,20.47Q149.62,591.83,133,629.24"/>
            <path class="cls-29" d="M168.7,555.06l-35.24-20.47q19.72-38,41.82-75l35.23,20.48q-22,36.9-41.81,75"/>
            <path class="cls-29" d="M210.51,480.07l-35.23-20.48Q197.14,423,221,387.83l35.24,20.48q-23.81,35-45.73,71.76"/>
            <path class="cls-29" d="M256.24,408.31,221,387.83q14.63-21.56,29.91-42.36L286.14,366q-15.25,20.79-29.9,42.36"/>
            <path class="cls-28" d="M286.14,366l-35.23-20.48q13.26-18.08,27-35.53l35.24,20.48q-13.69,17.44-27,35.53"/>
            <path class="cls-27" d="M313.11,330.42l-35.24-20.48q12.72-16.2,25.79-31.81l35.24,20.48q-13,15.58-25.79,31.81"/>
            <path class="cls-26" d="M338.9,298.61l-35.24-20.48Q316,263.39,328.6,249.24l35.24,20.48q-12.6,14.13-24.94,28.89"/>
            <path class="cls-25" d="M363.84,269.72,328.6,249.24q12.11-13.58,24.4-26.56l35.24,20.48q-12.3,13-24.4,26.56"/>
            <path class="cls-24" d="M388.24,243.16,353,222.68q11.79-12.42,23.74-24.27L412,218.89q-12,11.84-23.74,24.27"/>
            <path class="cls-4" d="M412,218.89l-35.24-20.48q11.46-11.34,23-22.12L435,196.77q-11.58,10.77-23,22.12"/>
            <path class="cls-5" d="M435,196.77l-35.24-20.48q10.67-9.91,21.43-19.32l35.24,20.48q-10.76,9.39-21.43,19.32"/>
            <path class="cls-6" d="M456.45,177.45,421.21,157q10.34-9,20.73-17.55l35.24,20.48q-10.4,8.5-20.73,17.55"/>
            <path class="cls-7" d="M477.18,159.9l-35.24-20.48q9.92-8.13,19.88-15.78l35.24,20.48q-10,7.65-19.88,15.78"/>
            <path class="cls-8" d="M497.06,144.12l-35.24-20.48q9.39-7.22,18.82-14l35.24,20.48q-9.42,6.77-18.82,14"/>
            <path class="cls-9" d="M515.88,130.14l-35.24-20.48q9.27-6.64,18.57-12.86l35.24,20.48q-9.3,6.19-18.57,12.86"/>
            <path class="cls-10" d="M534.45,117.28,499.21,96.8q8.76-5.86,17.54-11.31L552,106q-8.78,5.44-17.54,11.31"/>
            <path class="cls-11" d="M552,106,516.75,85.49q7.74-4.78,15.47-9.26l35.24,20.48Q559.72,101.18,552,106"/>
          </g>
        </g>
      </g>
    </g>
    <g class="cls-2">
      <g class="cls-2">
        <g class="cls-33">
          <g class="cls-2">
            <path class="cls-4" d="M780.83,546l-35.24-20.48c.28-1.36.53-2.7.77-4L781.6,542c-.24,1.32-.49,2.66-.77,4"/>
            <path class="cls-5" d="M781.6,542l-35.24-20.48c.31-1.73.58-3.43.82-5.1l35.24,20.48c-.24,1.67-.51,3.37-.82,5.1"/>
            <path class="cls-6" d="M782.42,536.89l-35.24-20.48c.21-1.54.4-3,.56-4.52L783,532.37c-.16,1.48-.35,3-.56,4.52"/>
            <path class="cls-7" d="M783,532.37l-35.24-20.48c.16-1.45.29-2.87.39-4.27l35.24,20.48c-.1,1.4-.23,2.82-.39,4.27"/>
            <path class="cls-8" d="M783.37,528.1l-35.24-20.48c.1-1.32.17-2.62.22-3.9l35.24,20.48c-.05,1.27-.12,2.58-.22,3.9"/>
            <path class="cls-9" d="M783.59,524.2l-35.24-20.48c0-1.26.08-2.49.08-3.7l35.24,20.48c0,1.21,0,2.44-.08,3.7"/>
            <path class="cls-10" d="M783.67,520.5,748.43,500c0-1.17,0-2.31,0-3.44l35.24,20.48c0,1.13.06,2.27,0,3.44"/>
            <path class="cls-11" d="M783.62,517.06l-35.24-20.48c0-1.12-.1-2.22-.17-3.29l35.24,20.48c.07,1.07.13,2.17.17,3.29"/>
            <path class="cls-12" d="M783.45,513.77l-35.24-20.48c-.08-1.06-.18-2.1-.29-3.12l35.24,20.48c.11,1,.21,2.06.29,3.12"/>
            <path class="cls-13" d="M783.16,510.65l-35.24-20.48c-.12-1-.26-2-.41-3l35.24,20.48c.15,1,.29,2,.41,3"/>
            <path class="cls-14" d="M782.75,507.65l-35.24-20.48c-.16-1-.33-2-.53-2.91l35.24,20.48c.2.95.37,1.92.53,2.91"/>
            <path class="cls-15" d="M782.22,504.74,747,484.26c-.2-.95-.41-1.88-.65-2.79L781.57,502c.24.9.45,1.84.65,2.79"/>
            <path class="cls-16" d="M781.57,502l-35.24-20.48c-.25-1-.51-1.89-.8-2.8l35.24,20.48c.29.91.55,1.84.8,2.8"/>
            <path class="cls-17" d="M780.77,499.15l-35.24-20.48c-.3-.92-.62-1.81-.95-2.68l35.24,20.48c.33.87.65,1.76.95,2.68"/>
            <path class="cls-18" d="M779.82,496.47,744.58,476c-.37-.95-.77-1.88-1.19-2.76l35.24,20.47c.42.89.82,1.81,1.19,2.77"/>
            <path class="cls-19" d="M778.63,493.7l-35.24-20.47c-.46-1-.94-1.89-1.46-2.77l35.24,20.48c.52.88,1,1.8,1.46,2.76"/>
            <path class="cls-20" d="M777.17,490.94l-35.24-20.48a32.86,32.86,0,0,0-1.82-2.8l35.24,20.48a32.86,32.86,0,0,1,1.82,2.8"/>
            <path class="cls-21" d="M775.35,488.14l-35.24-20.48a28.82,28.82,0,0,0-2.72-3.26l35.24,20.48a28.82,28.82,0,0,1,2.72,3.26"/>
            <path class="cls-22" d="M772.63,484.88,737.39,464.4a27,27,0,0,0-5.78-4.54l35.24,20.48a26.73,26.73,0,0,1,5.78,4.54"/>
          </g>
        </g>
      </g>
      <g class="cls-2">
        <g class="cls-34">
          <g class="cls-2">
            <path class="cls-22" d="M631.24,706.1,596,685.62a28.09,28.09,0,0,0,10.88,3.54l35.24,20.48a28.09,28.09,0,0,1-10.88-3.54"/>
            <path class="cls-21" d="M642.12,709.64l-35.24-20.48a36.08,36.08,0,0,0,4.46.23l35.24,20.47a36.11,36.11,0,0,1-4.46-.22"/>
            <path class="cls-20" d="M646.58,709.86l-35.24-20.47c1.23,0,2.48-.09,3.77-.23l35.24,20.48a37.66,37.66,0,0,1-3.77.22"/>
            <path class="cls-19" d="M650.35,709.64l-35.24-20.48c1.16-.12,2.35-.29,3.56-.51l35.24,20.47c-1.21.23-2.4.4-3.56.52"/>
            <path class="cls-18" d="M653.91,709.12l-35.24-20.47c1.1-.21,2.21-.45,3.34-.74l35.24,20.48c-1.13.29-2.24.53-3.34.73"/>
            <path class="cls-17" d="M657.25,708.39,622,687.91c1.07-.26,2.15-.57,3.25-.91l35.24,20.48c-1.1.34-2.18.65-3.25.91"/>
            <path class="cls-16" d="M660.5,707.48,625.26,687q1.61-.51,3.24-1.11l35.24,20.48q-1.63.6-3.24,1.11"/>
            <path class="cls-15" d="M663.74,706.37,628.5,685.89c1.06-.39,2.14-.82,3.22-1.28L667,705.09c-1.08.46-2.16.89-3.22,1.28"/>
            <path class="cls-14" d="M667,705.09l-35.24-20.48c1.08-.45,2.17-.94,3.28-1.47l35.24,20.48c-1.11.53-2.2,1-3.28,1.47"/>
            <path class="cls-13" d="M670.24,703.62,635,683.14c1.1-.52,2.21-1.07,3.34-1.66L673.58,702c-1.13.59-2.24,1.15-3.34,1.67"/>
            <path class="cls-12" d="M673.58,702l-35.24-20.47c1.13-.59,2.26-1.22,3.41-1.88L677,700.08c-1.15.66-2.28,1.29-3.41,1.87"/>
            <path class="cls-11" d="M677,700.08,641.75,679.6l.41-.23c1.05-.61,2.1-1.23,3.15-1.89L680.55,698q-1.57,1-3.15,1.89l-.41.23"/>
            <path class="cls-10" d="M680.55,698l-35.24-20.48c1.19-.73,2.38-1.5,3.57-2.3l35.24,20.48c-1.19.8-2.38,1.56-3.57,2.3"/>
            <path class="cls-9" d="M684.12,695.66l-35.24-20.48q1.9-1.26,3.79-2.62L687.91,693q-1.89,1.37-3.79,2.62"/>
            <path class="cls-8" d="M687.91,693l-35.24-20.48c1.28-.92,2.55-1.87,3.83-2.84l35.24,20.47c-1.28,1-2.55,1.93-3.83,2.85"/>
            <path class="cls-7" d="M691.74,690.19,656.5,669.72q2-1.56,4-3.22L695.79,687q-2,1.66-4,3.21"/>
            <path class="cls-6" d="M695.79,687,660.55,666.5c1.41-1.15,2.82-2.35,4.22-3.57L700,683.41q-2.1,1.83-4.22,3.57"/>
            <path class="cls-5" d="M700,683.41l-35.24-20.48Q667,661,669.14,659l35.24,20.48q-2.18,2-4.37,3.94"/>
            <path class="cls-4" d="M704.38,679.47,669.14,659q2.36-2.19,4.69-4.51L709.07,675c-1.56,1.54-3.12,3-4.69,4.51"/>
            <path class="cls-24" d="M709.07,675l-35.24-20.48c1.62-1.6,3.24-3.25,4.84-4.94L713.91,670c-1.6,1.69-3.22,3.34-4.84,4.94"/>
            <path class="cls-25" d="M713.91,670l-35.24-20.48c1.67-1.76,3.33-3.57,5-5.41l35.24,20.48c-1.64,1.84-3.3,3.65-5,5.41"/>
            <path class="cls-26" d="M718.88,664.61l-35.24-20.48c1.71-1.93,3.41-3.89,5.09-5.9L724,658.71c-1.68,2-3.38,4-5.09,5.9"/>
            <path class="cls-27" d="M724,658.71l-35.24-20.48c1.77-2.11,3.52-4.27,5.24-6.46l35.24,20.48c-1.72,2.19-3.47,4.35-5.24,6.46"/>
            <path class="cls-28" d="M729.21,652.25,694,631.77q2.81-3.57,5.51-7.26L734.72,645q-2.72,3.69-5.51,7.26"/>
            <path class="cls-29" d="M734.72,645l-35.24-20.48q3.12-4.25,6.1-8.65l35.24,20.48q-3,4.39-6.1,8.65"/>
            <path class="cls-29" d="M740.82,636.34l-35.24-20.48q4.83-7.11,9.28-14.56l35.24,20.48q-4.44,7.44-9.28,14.56"/>
            <path class="cls-29" d="M750.1,621.78,714.86,601.3q4.49-7.5,8.5-15.24l35.24,20.48q-4,7.73-8.5,15.24"/>
            <path class="cls-29" d="M758.6,606.54l-35.24-20.48q3.92-7.53,7.32-15.17l35.24,20.47q-3.4,7.65-7.32,15.18"/>
            <path class="cls-29" d="M765.92,591.36l-35.24-20.47q2.05-4.64,3.91-9.29l35.24,20.48q-1.85,4.65-3.91,9.28"/>
            <path class="cls-28" d="M769.83,582.08,734.59,561.6q1.59-4,3-8l35.24,20.48q-1.43,4-3,8"/>
            <path class="cls-27" d="M772.85,574.13l-35.24-20.48q1.32-3.67,2.5-7.32l35.24,20.48q-1.19,3.65-2.5,7.32"/>
            <path class="cls-26" d="M775.35,566.81l-35.24-20.48c.73-2.3,1.43-4.59,2.08-6.87l35.24,20.48c-.65,2.28-1.35,4.57-2.08,6.87"/>
            <path class="cls-25" d="M777.43,559.94l-35.24-20.48c.61-2.17,1.19-4.33,1.72-6.48l35.24,20.48c-.53,2.15-1.11,4.31-1.72,6.48"/>
            <path class="cls-24" d="M779.15,553.46,743.91,533q.75-3,1.38-6l35.24,20.48q-.63,3-1.38,6"/>
            <path class="cls-4" d="M780.53,547.46,745.29,527c.11-.48.21-1,.3-1.45L780.83,546c-.09.48-.19,1-.3,1.45"/>
          </g>
        </g>
      </g>
      <g class="cls-2">
        <g class="cls-35">
          <g class="cls-2">
            <path class="cls-11" d="M740.19,389.07,705,368.59l1.56-.89,35.24,20.48-1.56.89"/>
            <path class="cls-12" d="M741.75,388.18,706.51,367.7q6.6-3.76,13-7.15L754.8,381q-6.46,3.38-13,7.15"/>
            <path class="cls-13" d="M754.8,381l-35.24-20.48q6.45-3.37,12.77-6.37l35.23,20.48q-6.3,3-12.76,6.37"/>
            <path class="cls-14" d="M767.56,374.66l-35.23-20.48q6.31-3,12.49-5.6l35.24,20.48q-6.18,2.61-12.5,5.6"/>
            <path class="cls-15" d="M780.06,369.06l-35.24-20.48q6.23-2.64,12.3-4.88l35.24,20.48q-6.08,2.25-12.3,4.88"/>
            <path class="cls-16" d="M792.36,364.18,757.12,343.7q6.28-2.32,12.38-4.23L804.74,360q-6.11,1.91-12.38,4.23"/>
            <path class="cls-17" d="M804.74,360,769.5,339.47q6.3-2,12.41-3.51l35.24,20.48Q811,358,804.74,360"/>
            <path class="cls-18" d="M817.15,356.44,781.91,336q6.48-1.63,12.76-2.79l35.24,20.48q-6.27,1.16-12.76,2.79"/>
            <path class="cls-19" d="M829.91,353.65l-35.24-20.48q6.93-1.28,13.6-2l35.24,20.48q-6.66.69-13.6,2"/>
            <path class="cls-20" d="M843.51,351.68,808.27,331.2q7.37-.78,14.4-.85l35.24,20.47q-7,.09-14.4.86"/>
            <path class="cls-21" d="M857.91,350.82l-35.24-20.47a131.55,131.55,0,0,1,17,.87l35.24,20.48a133.33,133.33,0,0,0-17-.88"/>
            <path class="cls-22" d="M874.94,351.7,839.7,331.22a106.6,106.6,0,0,1,41.54,13.51l35.24,20.47a106.59,106.59,0,0,0-41.54-13.5"/>
          </g>
        </g>
      </g>
      <path class="cls-31" d="M740.19,389.07c172.52-99.6,275.35,2,229.69,226.92L345,977.21C390.81,751.75,567.68,488.67,740.19,389.07ZM780.83,546c12-58.9-15-85.5-60.13-59.42s-91.48,95-103.44,153.86,15,85.48,60.14,59.4,91.48-95,103.43-153.84"/>
      <g class="cls-2">
        <g class="cls-36">
          <g class="cls-2">
            <path class="cls-4" d="M345,977.21,309.8,956.73c.38-1.87.76-3.75,1.16-5.62l35.24,20.48c-.4,1.87-.78,3.75-1.16,5.62"/>
            <path class="cls-24" d="M346.2,971.59,311,951.11q2.43-11.45,5.29-23l35.24,20.48q-2.85,11.55-5.29,23"/>
            <path class="cls-25" d="M351.49,948.59l-35.24-20.48q3.08-12.37,6.62-24.85l35.24,20.48q-3.56,12.48-6.62,24.85"/>
            <path class="cls-26" d="M358.11,923.74l-35.24-20.48q3.74-13.12,8-26.34l35.24,20.48q-4.24,13.22-8,26.34"/>
            <path class="cls-27" d="M366.09,897.4l-35.24-20.48q4.5-14,9.55-28l35.24,20.48q-5,14-9.55,28"/>
            <path class="cls-28" d="M375.64,869.35,340.4,848.87q5.48-15.23,11.57-30.48l35.24,20.48q-6.09,15.24-11.57,30.48"/>
            <path class="cls-29" d="M387.21,838.87,352,818.39q7.13-17.83,15-35.63l35.24,20.48q-7.92,17.78-15.05,35.63"/>
            <path class="cls-29" d="M402.26,803.24,367,782.76q12.93-29,27.81-57.69l35.24,20.48q-14.85,28.59-27.81,57.69"/>
            <path class="cls-29" d="M430.07,745.55l-35.24-20.48q15.33-29.57,32.51-58.32l35.24,20.48q-17.13,28.69-32.51,58.32"/>
            <path class="cls-29" d="M462.58,687.23l-35.24-20.48q17-28.5,35.57-55.82l35.24,20.48q-18.52,27.27-35.57,55.82"/>
            <path class="cls-29" d="M498.15,631.41l-35.24-20.48q11.37-16.75,23.25-32.94l35.24,20.48q-11.86,16.17-23.25,32.94"/>
            <path class="cls-28" d="M521.4,598.47,486.16,578q10.32-14.06,21-27.63l35.24,20.48q-10.64,13.56-21,27.63"/>
            <path class="cls-27" d="M542.37,570.84l-35.24-20.48q9.9-12.6,20.06-24.74l35.24,20.48q-10.15,12.12-20.06,24.74"/>
            <path class="cls-26" d="M562.43,546.1l-35.24-20.48q9.6-11.48,19.4-22.47l35.24,20.48q-9.8,11-19.4,22.47"/>
            <path class="cls-25" d="M581.83,523.63l-35.24-20.48q9.4-10.56,19-20.65L600.81,503q-9.57,10.09-19,20.66"/>
            <path class="cls-24" d="M600.81,503,565.57,482.5q9.16-9.67,18.46-18.88l35.24,20.48Q610,493.31,600.81,503"/>
            <path class="cls-4" d="M619.27,484.1,584,463.62q8.91-8.82,17.92-17.21l35.24,20.48q-9,8.39-17.92,17.21"/>
            <path class="cls-5" d="M637.19,466.89,602,446.41q8.29-7.71,16.67-15l35.24,20.47q-8.37,7.32-16.67,15"/>
            <path class="cls-6" d="M653.86,451.86l-35.24-20.47q8-7,16.12-13.65L670,438.22q-8.09,6.61-16.12,13.64"/>
            <path class="cls-7" d="M670,438.22l-35.24-20.48q7.71-6.33,15.46-12.27L685.44,426q-7.74,5.94-15.46,12.27"/>
            <path class="cls-8" d="M685.44,426,650.2,405.47q7.31-5.61,14.64-10.87l35.24,20.48q-7.33,5.25-14.64,10.87"/>
            <path class="cls-9" d="M700.08,415.08,664.84,394.6q7.21-5.19,14.44-10l35.24,20.48q-7.23,4.83-14.44,10"/>
            <path class="cls-10" d="M714.52,405.07l-35.24-20.48q6.83-4.56,13.64-8.79l35.24,20.48q-6.82,4.23-13.64,8.79"/>
            <path class="cls-11" d="M728.16,396.28,692.92,375.8q6-3.74,12-7.21l35.24,20.48q-6,3.48-12,7.21"/>
          </g>
        </g>
      </g>
    </g>
  </g>
</svg>
