<svg xmlns="http://www.w3.org/2000/svg" viewBox="0 0 1000 1000">
  <defs>
    <style>
      .cls-1 {
        isolation: isolate;
      }

      .cls-2 {
        fill: #aaa;
      }

      .cls-3 {
        fill: #fefefe;
      }

      .cls-4 {
        fill: #b6b6b6;
      }

      .cls-5 {
        fill: #8c8c8c;
      }
    </style>
  </defs>
  <title>inherited accessor</title>
  <g id="inherited_accessor" data-name="inherited accessor">
    <g class="cls-1">
      <polygon class="cls-2" points="550.12 674.35 514.88 653.87 489.17 542.96 524.41 563.43 550.12 674.35"/>
      <polygon class="cls-3" points="524.41 563.43 489.17 542.96 495.01 532.5 530.25 552.98 524.41 563.43"/>
      <polygon class="cls-4" points="522.43 554.89 487.19 534.42 495.01 532.5 530.25 552.98 522.43 554.89"/>
      <polygon class="cls-2" points="324.84 921.03 289.6 900.55 225.06 622.11 260.3 642.59 324.84 921.03"/>
      <polygon class="cls-4" points="275.41 615.51 240.17 595.03 487.19 534.42 522.43 554.89 275.41 615.51"/>
      <polygon class="cls-2" points="522.43 554.89 487.19 534.42 424.63 264.52 459.87 285 522.43 554.89"/>
      <polygon class="cls-2" points="260.3 642.59 225.06 622.11 219.93 600 255.17 620.48 260.3 642.59"/>
      <polygon class="cls-5" points="255.17 620.48 275.41 615.51 522.43 554.89 530.25 552.98 524.41 563.43 324.84 921.03 260.3 642.59 255.17 620.48"/>
      <polygon class="cls-4" points="255.17 620.48 219.93 600 240.17 595.03 275.41 615.51 255.17 620.48"/>
      <polygon class="cls-3" points="95.61 785.89 60.37 765.41 472.5 26.93 507.74 47.41 95.61 785.89"/>
      <polygon class="cls-5" points="507.74 47.41 647.53 650.44 550.12 674.35 524.41 563.43 530.25 552.98 522.43 554.89 459.87 285 275.41 615.51 255.17 620.48 260.3 642.59 193.76 761.8 95.61 785.89 507.74 47.41"/>
    </g>
    <g class="cls-1">
      <polygon class="cls-2" points="835.73 787.48 800.49 767 782.44 689.15 817.68 709.63 835.73 787.48"/>
      <polygon class="cls-3" points="817.68 709.63 782.44 689.15 786.54 681.8 821.78 702.28 817.68 709.63"/>
      <polygon class="cls-4" points="816.29 703.63 781.05 683.15 786.54 681.8 821.78 702.28 816.29 703.63"/>
      <polygon class="cls-2" points="677.59 960.64 642.35 940.16 597.04 744.71 632.28 765.19 677.59 960.64"/>
      <polygon class="cls-4" points="642.89 746.18 607.65 725.7 781.05 683.15 816.29 703.63 642.89 746.18"/>
      <polygon class="cls-2" points="816.29 703.63 781.05 683.15 737.14 493.69 772.38 514.17 816.29 703.63"/>
      <polygon class="cls-2" points="632.28 765.19 597.04 744.71 593.45 729.19 628.69 749.66 632.28 765.19"/>
      <polygon class="cls-5" points="628.69 749.66 642.89 746.18 816.29 703.63 821.78 702.28 817.68 709.63 677.59 960.64 632.28 765.19 628.69 749.66"/>
      <polygon class="cls-4" points="628.69 749.66 593.45 729.19 607.65 725.7 642.89 746.18 628.69 749.66"/>
      <polygon class="cls-3" points="516.68 865.78 481.44 845.3 770.74 326.92 805.98 347.4 516.68 865.78"/>
      <polygon class="cls-5" points="805.98 347.4 904.11 770.7 835.73 787.48 817.68 709.63 821.78 702.28 816.29 703.63 772.38 514.17 642.89 746.18 628.69 749.66 632.28 765.19 585.58 848.87 516.68 865.78 805.98 347.4"/>
    </g>
  </g>
</svg>
