<svg xmlns="http://www.w3.org/2000/svg" viewBox="0 0 1000 1000">
  <defs>
    <style>
      .cls-1 {
        isolation: isolate;
      }

      .cls-2 {
        fill: #f0f0f0;
      }

      .cls-3 {
        fill: #c9c9c9;
      }

      .cls-4 {
        fill: #949494;
      }

      .cls-5 {
        fill: #a4a4a4;
      }

      .cls-6 {
        fill: #818181;
      }

      .cls-7 {
        fill: #fdfdfd;
      }
    </style>
  </defs>
  <title>inherited property</title>
  <g id="inherited_property" data-name="inherited property">
    <g>
      <g class="cls-1">
        <polygon class="cls-2" points="524.67 567.81 489.43 547.33 571.86 141.29 607.1 161.76 524.67 567.81"/>
        <polygon class="cls-3" points="607.1 161.76 571.86 141.29 642.83 100.31 678.07 120.79 607.1 161.76"/>
        <polygon class="cls-3" points="172.37 771.21 137.13 750.73 489.43 547.33 524.67 567.81 172.37 771.21"/>
        <polygon class="cls-4" points="678.07 120.79 576.94 618.94 520.86 651.32 138.69 872.33 82.7 904.29 183.83 406.14 254.8 365.17 172.37 771.21 524.67 567.81 607.1 161.76 678.07 120.79"/>
        <polygon class="cls-2" points="82.7 904.29 47.46 883.81 148.59 385.66 183.83 406.14 82.7 904.29"/>
        <polygon class="cls-3" points="183.83 406.14 148.59 385.66 219.56 344.69 254.8 365.17 183.83 406.14"/>
      </g>
      <g class="cls-1">
        <polygon class="cls-5" points="327.63 131.38 292.39 110.91 608.63 34.55 643.87 55.03 327.63 131.38"/>
        <polygon class="cls-4" points="327.63 131.38 643.87 55.03 607.13 155.06 332.04 221.18 259.33 339.65 216.7 312.11 327.63 131.38"/>
        <polygon class="cls-6" points="259.33 339.65 224.09 319.17 181.46 291.63 216.7 312.11 259.33 339.65"/>
        <polygon class="cls-7" points="216.7 312.11 181.46 291.63 292.39 110.91 327.63 131.38 216.7 312.11"/>
      </g>
    </g>
    <g>
      <g class="cls-1">
        <polygon class="cls-2" points="858.26 712.83 823.02 692.35 885.27 385.76 920.51 406.24 858.26 712.83"/>
        <polygon class="cls-3" points="920.51 406.24 885.27 385.76 938.85 354.82 974.09 375.3 920.51 406.24"/>
        <polygon class="cls-3" points="592.25 866.41 557.01 845.93 823.02 692.35 858.26 712.83 592.25 866.41"/>
        <polygon class="cls-4" points="974.09 375.3 897.73 751.44 855.38 775.88 566.83 942.76 524.55 966.89 600.91 590.76 654.5 559.82 592.25 866.41 858.26 712.83 920.51 406.24 974.09 375.3"/>
        <polygon class="cls-2" points="524.55 966.89 489.31 946.41 565.67 570.28 600.91 590.76 524.55 966.89"/>
        <polygon class="cls-3" points="600.91 590.76 565.67 570.28 619.26 539.34 654.5 559.82 600.91 590.76"/>
      </g>
      <g class="cls-1">
        <polygon class="cls-5" points="709.48 383.3 674.24 362.82 913.02 305.17 948.26 325.65 709.48 383.3"/>
        <polygon class="cls-4" points="709.48 383.3 948.26 325.65 920.52 401.18 712.82 451.1 657.91 540.55 625.73 519.76 709.48 383.3"/>
        <polygon class="cls-6" points="657.91 540.55 622.67 520.07 590.49 499.28 625.73 519.76 657.91 540.55"/>
        <polygon class="cls-7" points="625.73 519.76 590.49 499.28 674.24 362.82 709.48 383.3 625.73 519.76"/>
      </g>
    </g>
  </g>
</svg>
