<svg xmlns="http://www.w3.org/2000/svg" xmlns:xlink="http://www.w3.org/1999/xlink" viewBox="0 0 1000 1000">
  <defs>
    <style>
      .cls-1 {
        fill: none;
      }

      .cls-2 {
        isolation: isolate;
      }

      .cls-3 {
        clip-path: url(#clip-path);
      }

      .cls-4 {
        fill: #949494;
      }

      .cls-5 {
        fill: #999;
      }

      .cls-6 {
        fill: #9e9e9e;
      }

      .cls-7 {
        fill: #a3a3a3;
      }

      .cls-8 {
        fill: #a8a8a8;
      }

      .cls-9 {
        fill: #adadad;
      }

      .cls-10 {
        fill: #b3b3b3;
      }

      .cls-11 {
        fill: #b8b8b8;
      }

      .cls-12 {
        clip-path: url(#clip-path-2);
      }

      .cls-13 {
        fill: #8f8f8f;
      }

      .cls-14 {
        fill: #8a8a8a;
      }

      .cls-15 {
        fill: #858585;
      }

      .cls-16 {
        clip-path: url(#clip-path-3);
      }

      .cls-17 {
        clip-path: url(#clip-path-4);
      }

      .cls-18 {
        fill: #c4c4c4;
      }

      .cls-19 {
        clip-path: url(#clip-path-5);
      }

      .cls-20 {
        fill: #dcdcdc;
      }

      .cls-21 {
        clip-path: url(#clip-path-6);
      }

      .cls-22 {
        clip-path: url(#clip-path-7);
      }

      .cls-23 {
        clip-path: url(#clip-path-8);
      }

      .cls-24 {
        clip-path: url(#clip-path-9);
      }

      .cls-25 {
        clip-path: url(#clip-path-10);
      }

      .cls-26 {
        clip-path: url(#clip-path-11);
      }

      .cls-27 {
        clip-path: url(#clip-path-12);
      }

      .cls-28 {
        clip-path: url(#clip-path-13);
      }

      .cls-29 {
        clip-path: url(#clip-path-14);
      }

      .cls-30 {
        clip-path: url(#clip-path-15);
      }

      .cls-31 {
        clip-path: url(#clip-path-16);
      }

      .cls-32 {
        clip-path: url(#clip-path-17);
      }

      .cls-33 {
        clip-path: url(#clip-path-18);
      }

      .cls-34 {
        clip-path: url(#clip-path-19);
      }

      .cls-35 {
        clip-path: url(#clip-path-20);
      }

      .cls-36 {
        clip-path: url(#clip-path-21);
      }

      .cls-37 {
        clip-path: url(#clip-path-22);
      }

      .cls-38 {
        clip-path: url(#clip-path-23);
      }
    </style>
    <clipPath id="clip-path">
      <path class="cls-1" d="M588.23,356.79l-.12,40.76c0,9-7,17.82-20.43,24.76l.12-40.75C581.25,374.61,588.2,365.79,588.23,356.79Z"/>
    </clipPath>
    <clipPath id="clip-path-2">
      <path class="cls-1" d="M411.05,394.49l.11-40.76c0,8.57,6.24,17.31,19.16,24.77,25.6,14.79,69.18,19.81,105.19,13.34l-.12,40.76c-36,6.47-79.59,1.44-105.19-13.34C417.28,411.8,411,403.06,411.05,394.49Z"/>
    </clipPath>
    <clipPath id="clip-path-3">
      <path class="cls-1" d="M549.91,406.84l-.11,40.75a6.74,6.74,0,0,0-1.56-4c-2-2.73-6.34-6.41-12.85-11l.12-40.76q9.76,6.93,12.85,11A6.63,6.63,0,0,1,549.91,406.84Z"/>
    </clipPath>
    <clipPath id="clip-path-4">
      <path class="cls-1" d="M594.1,411.71,594,452.47a12.57,12.57,0,0,1-2.5,7.38,26,26,0,0,1-9.53,8.31,102.05,102.05,0,0,1-14,5.72l.12-40.75a103.79,103.79,0,0,0,14-5.73,26.15,26.15,0,0,0,9.53-8.31A12.64,12.64,0,0,0,594.1,411.71Z"/>
    </clipPath>
    <clipPath id="clip-path-5">
      <path class="cls-1" d="M397.36,420.75l-.12,40.75c0,11.58-11.52,22.85-33.53,30.22-38.32,12.85-94,9-124.38-8.51-12.92-7.46-19.18-16.2-19.15-24.77l.11-40.76c0,8.57,6.24,17.32,19.16,24.78,30.38,17.54,86.06,21.35,124.37,8.5C385.84,443.59,397.33,432.32,397.36,420.75Z"/>
    </clipPath>
    <clipPath id="clip-path-6">
      <path class="cls-1" d="M460.58,520.73,460.7,480q0-10.89,20-17.59l-.11,40.76Q460.61,509.85,460.58,520.73Z"/>
    </clipPath>
    <clipPath id="clip-path-7">
      <path class="cls-1" d="M421.32,509.59l.11-40.76a31.17,31.17,0,0,0,.45,5.05q1.22,7.37,8.34,16l-.12,40.75q-7.11-8.65-8.33-16A29.07,29.07,0,0,1,421.32,509.59Z"/>
    </clipPath>
    <clipPath id="clip-path-8">
      <path class="cls-1" d="M206.48,484.7l-.12,40.75c0,8.39-6.05,16.61-17.73,23.31l.11-40.76C200.42,501.3,206.46,493.08,206.48,484.7Z"/>
    </clipPath>
    <clipPath id="clip-path-9">
      <path class="cls-1" d="M489.23,511.75l-.11,40.76q0,2.29-7.45,4.8l.11-40.76Q489.22,514,489.23,511.75Z"/>
    </clipPath>
    <clipPath id="clip-path-10">
      <path class="cls-1" d="M472.42,519.68l-.11,40.76q-5.55,1.86-9.1,1.38a18.53,18.53,0,0,1-6.81-2.37q-3.27-1.89-11.61-5.78a145.32,145.32,0,0,0-20.08-7.38,157,157,0,0,0-25.3-5.62,85.4,85.4,0,0,0-21.07-.43q-9.19,1.13-13.18,2t-10,2.92l.12-40.75c4-1.35,7.35-2.33,10-2.93s7.06-1.27,13.18-2a85.47,85.47,0,0,1,21.08.43,157.21,157.21,0,0,1,25.3,5.62,148,148,0,0,1,20.08,7.38q8.32,3.9,11.6,5.78a18.46,18.46,0,0,0,6.82,2.37Q466.87,521.54,472.42,519.68Z"/>
    </clipPath>
    <clipPath id="clip-path-11">
      <path class="cls-1" d="M29.3,522.39l.12-40.76c0,8.58,6.23,17.32,19.15,24.78,26.57,15.34,72.51,20.18,109.24,12.56l-.12,40.76C121,567.35,75,562.51,48.46,547.17,35.54,539.71,29.28,531,29.3,522.39Z"/>
    </clipPath>
    <clipPath id="clip-path-12">
      <path class="cls-1" d="M190.14,532,190,572.73a208.36,208.36,0,0,1-32.34-13l.12-40.76A208.39,208.39,0,0,0,190.14,532Z"/>
    </clipPath>
    <clipPath id="clip-path-13">
      <path class="cls-1" d="M271.23,532.58l-.12,40.76c-3.88,1.29-6.85,2.24-8.9,2.83s-5.93,1.4-11.65,2.44a88.32,88.32,0,0,1-16.11,1.53,152,152,0,0,1-19.76-1.79A156.15,156.15,0,0,1,190,572.73l.11-40.75a157.73,157.73,0,0,0,24.66,5.61,152.15,152.15,0,0,0,19.77,1.79,87.34,87.34,0,0,0,16.1-1.53q8.58-1.56,11.66-2.44C264.37,534.82,267.34,533.87,271.23,532.58Z"/>
    </clipPath>
    <clipPath id="clip-path-14">
      <path class="cls-1" d="M505,586.05l.12-40.75a1.12,1.12,0,0,0,.05.36L505,586.42A1.57,1.57,0,0,1,505,586.05Z"/>
    </clipPath>
    <clipPath id="clip-path-15">
      <path class="cls-1" d="M812.26,550.76l-.12,40.76q-16.86-8.53-27.49-10.77-15.35-3.22-28.3,1.12l.11-40.76q13-4.35,28.31-1.12Q795.39,542.21,812.26,550.76Z"/>
    </clipPath>
    <clipPath id="clip-path-16">
      <path class="cls-1" d="M534.49,577l-.12,40.76q0-6.6-5.78-12.08a159.91,159.91,0,0,0-15.44-12.86q-8.16-6-8.15-6.35l.12-40.75q0,.36,8.15,6.34a161.25,161.25,0,0,1,15.43,12.86Q534.51,570.36,534.49,577Z"/>
    </clipPath>
    <clipPath id="clip-path-17">
      <path class="cls-1" d="M678.89,567.1l-.11,40.76c-.81.27-2.11.75-3.89,1.44s-3.08,1.19-3.89,1.46a155.48,155.48,0,0,1-16.38,4.61,181.77,181.77,0,0,1-20.75,2.81q-13.39,1.22-31.12-1.35a264.24,264.24,0,0,1-38.28-8.76l.11-40.76a265,265,0,0,0,38.28,8.77q17.73,2.55,31.12,1.34a182.33,182.33,0,0,0,20.76-2.81A156.16,156.16,0,0,0,671.12,570c.8-.27,2.1-.76,3.88-1.45S678.08,567.37,678.89,567.1Z"/>
    </clipPath>
    <clipPath id="clip-path-18">
      <path class="cls-1" d="M573.23,588.69l-.12,40.76a14.6,14.6,0,0,1-1.28,6.32q-2.12,4.41-8.52,8.52A59.72,59.72,0,0,1,553,649.87q-3.93,1.46-10.9,3.79l.11-40.75q7-2.34,10.9-3.8a59.2,59.2,0,0,0,10.35-5.57c4.27-2.75,7.1-5.59,8.52-8.53A14.6,14.6,0,0,0,573.23,588.69Z"/>
    </clipPath>
    <clipPath id="clip-path-19">
      <path class="cls-1" d="M970.7,577.61l-.12,40.76c0,11.57-11.52,22.84-33.54,30.22-38.31,12.84-94,9-124.37-8.51-12.92-7.46-19.17-16.2-19.15-24.77l.12-40.75c0,8.57,6.23,17.3,19.14,24.76,30.38,17.54,86.06,21.35,124.38,8.51C959.17,600.45,970.66,589.19,970.7,577.61Z"/>
    </clipPath>
    <clipPath id="clip-path-20">
      <path class="cls-1" d="M446.09,689l.11-40.76a2.2,2.2,0,0,1,.45-1.4q2.07-2.65,9.91-5.29l-.11,40.76q-7.84,2.63-9.92,5.29A2.25,2.25,0,0,0,446.09,689Z"/>
    </clipPath>
    <clipPath id="clip-path-21">
      <path class="cls-1" d="M402,685.81l.12-40.75a13.84,13.84,0,0,0,.71,4.31q2,6.2,12,15.36a133.48,133.48,0,0,0,17.35,13l-.12,40.75a134.2,134.2,0,0,1-17.35-13q-10-9.16-12-15.36A14.2,14.2,0,0,1,402,685.81Z"/>
    </clipPath>
    <clipPath id="clip-path-22">
      <path class="cls-1" d="M779.83,641.56l-.12,40.76c0,11.58-11.52,22.84-33.54,30.22-38.31,12.84-94,9-124.37-8.51-12.92-7.46-19.18-16.2-19.16-24.78l.12-40.75c0,8.57,6.23,17.31,19.16,24.77,30.37,17.54,86.05,21.35,124.37,8.51C768.3,664.41,779.79,653.14,779.83,641.56Z"/>
    </clipPath>
    <clipPath id="clip-path-23">
      <path class="cls-1" d="M589,705.52l-.11,40.76c0,11.57-11.53,22.84-33.54,30.22-38.32,12.83-94,9-124.38-8.51-12.92-7.46-19.17-16.2-19.15-24.77l.12-40.76c0,8.57,6.23,17.31,19.15,24.77,30.37,17.54,86.06,21.34,124.37,8.51C577.43,728.36,588.92,717.1,589,705.52Z"/>
    </clipPath>
  </defs>
  <title>interface</title>
  <g id="interface">
    <g>
      <g class="cls-2">
        <g class="cls-2">
          <g class="cls-3">
            <g class="cls-2">
              <path class="cls-4" d="M588.23,356.79l-.12,40.76V398l.11-40.76c0-.15,0-.31,0-.46"/>
              <path class="cls-5" d="M588.22,357.25,588.11,398a18.89,18.89,0,0,1-.34,3l.11-40.76a17.67,17.67,0,0,0,.34-3"/>
              <path class="cls-6" d="M587.88,360.23,587.77,401a19.75,19.75,0,0,1-.85,2.95l.11-40.75a19.06,19.06,0,0,0,.85-3"/>
              <path class="cls-7" d="M587,363.19l-.11,40.75a22.27,22.27,0,0,1-1.44,3.06l.11-40.76a21.56,21.56,0,0,0,1.44-3.05"/>
              <path class="cls-8" d="M585.59,366.24,585.48,407a26.68,26.68,0,0,1-2.23,3.31l.11-40.76a25.62,25.62,0,0,0,2.23-3.31"/>
              <path class="cls-9" d="M583.36,369.55l-.11,40.76a33.83,33.83,0,0,1-3.65,3.91l.12-40.76a33.71,33.71,0,0,0,3.64-3.91"/>
              <path class="cls-10" d="M579.72,373.46l-.12,40.76a49.55,49.55,0,0,1-8,5.88l.11-40.76a49.65,49.65,0,0,0,8-5.88"/>
              <path class="cls-11" d="M571.76,379.34l-.11,40.76c-1.26.76-2.58,1.49-4,2.21l.12-40.75q2.09-1.08,4-2.22"/>
            </g>
          </g>
        </g>
        <g class="cls-2">
          <g class="cls-12">
            <g class="cls-2">
              <path class="cls-9" d="M535.51,391.84l-.12,40.76c-4.34.78-8.8,1.4-13.31,1.84l.11-40.75c4.52-.45,9-1.07,13.32-1.85"/>
              <path class="cls-8" d="M522.19,393.69l-.11,40.75q-6.09.62-12.29.82l.11-40.76c4.13-.14,8.24-.41,12.29-.81"/>
              <path class="cls-7" d="M509.9,394.5l-.11,40.76c-3.9.13-7.83.15-11.74.05l.12-40.76c3.91.1,7.83.08,11.73-.05"/>
              <path class="cls-6" d="M498.17,394.55l-.12,40.76q-5.71-.15-11.37-.61l.12-40.76c3.76.31,7.56.52,11.37.61"/>
              <path class="cls-5" d="M486.8,393.94l-.12,40.76q-5.61-.46-11.08-1.24l.11-40.75q5.48.77,11.09,1.23"/>
              <path class="cls-4" d="M475.71,392.71l-.11,40.75c-3.7-.52-7.34-1.15-10.89-1.88l.12-40.76q5.32,1.1,10.88,1.89"/>
              <path class="cls-13" d="M464.83,390.82l-.12,40.76c-3.73-.78-7.37-1.66-10.88-2.66l.12-40.76c3.51,1,7.15,1.89,10.88,2.66"/>
              <path class="cls-14" d="M454,388.16l-.12,40.76c-4-1.14-7.82-2.42-11.44-3.85l.11-40.76c3.63,1.43,7.46,2.71,11.45,3.85"/>
              <path class="cls-15" d="M442.5,384.31l-.11,40.76a91.79,91.79,0,0,1-12.19-5.81c-12.92-7.46-19.18-16.2-19.15-24.77l.11-40.76c0,8.57,6.24,17.31,19.16,24.77a91,91,0,0,0,12.18,5.81"/>
            </g>
          </g>
        </g>
        <g class="cls-2">
          <g class="cls-16">
            <g class="cls-2">
              <path class="cls-15" d="M549.91,406.84l-.11,40.75a6.74,6.74,0,0,0-1.56-4c-2-2.73-6.34-6.41-12.85-11l.12-40.76q9.76,6.93,12.85,11a6.63,6.63,0,0,1,1.55,4"/>
            </g>
          </g>
        </g>
        <g class="cls-2">
          <g class="cls-17">
            <g class="cls-2">
              <path class="cls-4" d="M594.1,411.71,594,452.47v.31l.11-40.76c0-.1,0-.21,0-.31"/>
              <path class="cls-5" d="M594.09,412,594,452.78a11.89,11.89,0,0,1-.23,2l.12-40.76a11.88,11.88,0,0,0,.22-2"/>
              <path class="cls-6" d="M593.87,414l-.12,40.76a11.62,11.62,0,0,1-.53,1.87l.11-40.76a12.79,12.79,0,0,0,.54-1.87"/>
              <path class="cls-7" d="M593.33,415.87l-.11,40.76a13.2,13.2,0,0,1-.88,1.87l.11-40.75a12.74,12.74,0,0,0,.88-1.88"/>
              <path class="cls-8" d="M592.45,417.75l-.11,40.75a13.93,13.93,0,0,1-.86,1.35c-.28.39-.56.78-.86,1.15l.12-40.76c.29-.37.58-.75.86-1.15a15,15,0,0,0,.85-1.34"/>
              <path class="cls-9" d="M590.74,420.24,590.62,461a26.18,26.18,0,0,1-2.84,3.1l.11-40.76a27.14,27.14,0,0,0,2.85-3.1"/>
              <path class="cls-10" d="M587.89,423.34l-.11,40.76a26.7,26.7,0,0,1-4.18,3.14l.11-40.75a25.29,25.29,0,0,0,4.18-3.15"/>
              <path class="cls-11" d="M583.71,426.49l-.11,40.75c-.54.33-1.09.63-1.65.92a102.05,102.05,0,0,1-14,5.72l.12-40.75a103.79,103.79,0,0,0,14-5.73c.56-.28,1.11-.59,1.64-.91"/>
            </g>
          </g>
        </g>
        <polygon class="cls-18" points="568.05 433.13 567.93 473.88 480.62 503.14 480.73 462.38 568.05 433.13"/>
        <g class="cls-2">
          <g class="cls-19">
            <g class="cls-2">
              <path class="cls-4" d="M397.36,420.75l-.12,40.75V462l.11-40.76c0-.15,0-.3,0-.44"/>
              <path class="cls-5" d="M397.35,421.19,397.24,462a17.78,17.78,0,0,1-.34,3l.11-40.76a16.81,16.81,0,0,0,.34-3"/>
              <path class="cls-6" d="M397,424.18l-.11,40.76a18.9,18.9,0,0,1-.86,3l.12-40.76a18.86,18.86,0,0,0,.85-3"/>
              <path class="cls-7" d="M396.16,427.15,396,467.91a21.49,21.49,0,0,1-1.43,3l.11-40.76a21.63,21.63,0,0,0,1.44-3.05"/>
              <path class="cls-8" d="M394.72,430.2,394.61,471a24.86,24.86,0,0,1-2.23,3.3l.12-40.76a25.77,25.77,0,0,0,2.22-3.3"/>
              <path class="cls-9" d="M392.5,433.5l-.12,40.76a32.39,32.39,0,0,1-3.66,3.92l.12-40.75a33.22,33.22,0,0,0,3.66-3.93"/>
              <path class="cls-10" d="M388.84,437.43l-.12,40.75a49.08,49.08,0,0,1-8.19,6l.12-40.76a49.62,49.62,0,0,0,8.19-6"/>
              <path class="cls-11" d="M380.65,443.44l-.12,40.76a85.72,85.72,0,0,1-16.82,7.52l-1.27.42.12-40.76,1.26-.42a85.82,85.82,0,0,0,16.83-7.52"/>
              <path class="cls-10" d="M362.56,451.38l-.12,40.76a138.85,138.85,0,0,1-17.84,4.4l.12-40.76a137.21,137.21,0,0,0,17.84-4.4"/>
              <path class="cls-9" d="M344.72,455.78l-.12,40.76c-4.37.79-8.86,1.41-13.41,1.86l.11-40.76q6.84-.67,13.42-1.86"/>
              <path class="cls-8" d="M331.3,457.64l-.11,40.76c-4.06.4-8.17.67-12.3.81l.12-40.75c4.13-.15,8.24-.42,12.29-.82"/>
              <path class="cls-7" d="M319,458.46l-.12,40.75q-5.83.21-11.71.05l.12-40.75q5.85.14,11.71-.05"/>
              <path class="cls-6" d="M307.3,458.51l-.12,40.75c-3.8-.09-7.6-.29-11.37-.6l.12-40.76c3.76.31,7.56.51,11.37.61"/>
              <path class="cls-5" d="M295.93,457.9l-.12,40.76q-5.6-.46-11.08-1.24l.12-40.76q5.46.78,11.08,1.24"/>
              <path class="cls-4" d="M284.85,456.66l-.12,40.76c-3.69-.52-7.33-1.15-10.88-1.89l.11-40.76c3.55.74,7.19,1.37,10.89,1.89"/>
              <path class="cls-13" d="M274,454.77l-.11,40.76q-5.61-1.15-10.9-2.66l.12-40.76c3.51,1,7.16,1.89,10.89,2.66"/>
              <path class="cls-14" d="M263.07,452.11,263,492.87c-4-1.15-7.86-2.44-11.5-3.87l.12-40.76c3.64,1.43,7.49,2.72,11.5,3.87"/>
              <path class="cls-15" d="M251.57,448.24,251.45,489a91.36,91.36,0,0,1-12.12-5.79c-12.92-7.46-19.18-16.2-19.15-24.77l.11-40.76c0,8.57,6.24,17.32,19.16,24.78a91.34,91.34,0,0,0,12.12,5.78"/>
            </g>
          </g>
        </g>
        <path class="cls-20" d="M378.2,396c30.38,17.53,23.94,42.16-14.38,55s-94,9-124.37-8.5-23.94-42.16,14.38-55S347.83,378.43,378.2,396Z"/>
        <g class="cls-2">
          <g class="cls-21">
            <g class="cls-2">
              <path class="cls-11" d="M480.73,462.38l-.11,40.76a56.08,56.08,0,0,0-11,4.87l.12-40.76a56,56,0,0,1,11-4.87"/>
              <path class="cls-10" d="M469.72,467.25,469.6,508a26.83,26.83,0,0,0-4.4,3.24l.11-40.75a26.81,26.81,0,0,1,4.41-3.25"/>
              <path class="cls-9" d="M465.31,470.5l-.11,40.75a17.34,17.34,0,0,0-1.91,2.06l.12-40.76a17.17,17.17,0,0,1,1.9-2.05"/>
              <path class="cls-8" d="M463.41,472.55l-.12,40.76a13.37,13.37,0,0,0-1.19,1.77l.11-40.76a13.8,13.8,0,0,1,1.2-1.77"/>
              <path class="cls-7" d="M462.21,474.32l-.11,40.76a11.41,11.41,0,0,0-.8,1.7l.12-40.76a11.84,11.84,0,0,1,.79-1.7"/>
              <path class="cls-6" d="M461.42,476l-.12,40.76a12,12,0,0,0-.5,1.75l.12-40.76a10.88,10.88,0,0,1,.5-1.75"/>
              <path class="cls-5" d="M460.92,477.77l-.12,40.76a11.88,11.88,0,0,0-.21,1.89l.11-40.75a10.84,10.84,0,0,1,.22-1.9"/>
              <path class="cls-4" d="M460.7,479.67l-.11,40.75c0,.11,0,.21,0,.31L460.7,480v-.3"/>
            </g>
          </g>
        </g>
        <g class="cls-2">
          <g class="cls-22">
            <g class="cls-2">
              <path class="cls-15" d="M430.22,489.92l-.12,40.75q-7.11-8.65-8.33-16a29.07,29.07,0,0,1-.45-5.05l.11-40.76a31.17,31.17,0,0,0,.45,5.05q1.22,7.37,8.34,16"/>
            </g>
          </g>
        </g>
        <g class="cls-2">
          <g class="cls-23">
            <g class="cls-2">
              <path class="cls-4" d="M206.48,484.7l-.12,40.75v.46l.11-40.76c0-.15,0-.3,0-.45"/>
              <path class="cls-5" d="M206.47,485.15l-.11,40.76a19,19,0,0,1-.34,3l.11-40.76a17.78,17.78,0,0,0,.34-3"/>
              <path class="cls-6" d="M206.13,488.14,206,528.9a19,19,0,0,1-.86,3l.12-40.75a19.06,19.06,0,0,0,.85-3"/>
              <path class="cls-7" d="M205.28,491.1l-.12,40.75a22,22,0,0,1-1.42,3l.11-40.76a21.38,21.38,0,0,0,1.43-3"/>
              <path class="cls-8" d="M203.85,494.14l-.11,40.76a27.65,27.65,0,0,1-2.24,3.32l.11-40.76a25.8,25.8,0,0,0,2.24-3.32"/>
              <path class="cls-9" d="M201.61,497.46l-.11,40.76a33.93,33.93,0,0,1-3.61,3.87l.12-40.76a33,33,0,0,0,3.6-3.87"/>
              <path class="cls-10" d="M198,501.33l-.12,40.76a48.83,48.83,0,0,1-8.13,6l.11-40.76a48.93,48.93,0,0,0,8.14-6"/>
              <path class="cls-11" d="M189.87,507.33l-.11,40.76-1.13.67.11-40.76c.38-.22.76-.44,1.13-.67"/>
            </g>
          </g>
        </g>
        <g class="cls-2">
          <g class="cls-24">
            <g class="cls-2">
              <path class="cls-4" d="M489.23,511.75l-.11,40.76v0l.11-40.76v0"/>
              <path class="cls-5" d="M489.23,511.79l-.11,40.76a2,2,0,0,1,0,.24L489.2,512a1.13,1.13,0,0,0,0-.25"/>
              <path class="cls-6" d="M489.2,512l-.11,40.75a2.5,2.5,0,0,1-.07.26l.11-40.76a1.17,1.17,0,0,0,.07-.25"/>
              <path class="cls-7" d="M489.13,512.29,489,553.05a1.83,1.83,0,0,1-.14.28l.12-40.76a1.75,1.75,0,0,0,.13-.28"/>
              <path class="cls-8" d="M489,512.57l-.12,40.76a2.1,2.1,0,0,1-.22.33l.11-40.76a2.19,2.19,0,0,0,.23-.33"/>
              <path class="cls-9" d="M488.77,512.9l-.11,40.76a4.45,4.45,0,0,1-.43.46l.12-40.76a4.38,4.38,0,0,0,.42-.46"/>
              <path class="cls-10" d="M488.35,513.36l-.12,40.76a7.38,7.38,0,0,1-1.24.9l.11-40.76a7.5,7.5,0,0,0,1.25-.9"/>
              <path class="cls-11" d="M487.1,514.26,487,555a27.88,27.88,0,0,1-5.32,2.29l.11-40.76a27.6,27.6,0,0,0,5.32-2.29"/>
            </g>
          </g>
        </g>
        <polygon class="cls-18" points="481.78 516.55 481.67 557.31 472.31 560.44 472.42 519.68 481.78 516.55"/>
        <g class="cls-2">
          <g class="cls-25">
            <g class="cls-2">
              <path class="cls-11" d="M472.42,519.68l-.11,40.76-.53.17.12-40.76.52-.17"/>
              <path class="cls-10" d="M471.9,519.85l-.12,40.76a29.64,29.64,0,0,1-3.91,1l.11-40.76a29.76,29.76,0,0,0,3.92-1"/>
              <path class="cls-9" d="M468,520.85l-.11,40.76c-.56.1-1.09.18-1.6.23l.12-40.76c.51-.05,1-.13,1.59-.23"/>
              <path class="cls-8" d="M466.39,521.08l-.12,40.76c-.35,0-.7.06-1,.07l.12-40.76c.33,0,.68,0,1-.07"/>
              <path class="cls-7" d="M465.35,521.15l-.12,40.76h-.8l.12-40.75h.8"/>
              <path class="cls-6" d="M464.55,521.16l-.12,40.75c-.23,0-.45,0-.67,0l.11-40.76.68,0"/>
              <path class="cls-5" d="M463.87,521.12l-.11,40.76-.55-.06h-.08l.11-40.76h.09l.54.06"/>
              <path class="cls-4" d="M463.24,521.05l-.11,40.76c-.38-.06-.75-.12-1.12-.2l.11-40.76c.37.08.75.15,1.12.2"/>
              <path class="cls-13" d="M462.12,520.85,462,561.61c-.43-.09-.86-.19-1.29-.31l.12-40.76c.42.12.85.22,1.28.31"/>
              <path class="cls-14" d="M460.84,520.54l-.12,40.76c-.57-.17-1.13-.36-1.69-.58l.12-40.75a17.67,17.67,0,0,0,1.69.57"/>
              <path class="cls-15" d="M459.15,520,459,560.72a19.22,19.22,0,0,1-2.63-1.27q-3.27-1.89-11.61-5.78-2.93-1.36-6.26-2.68l.11-40.76q3.35,1.32,6.27,2.68,8.32,3.9,11.6,5.78a20.66,20.66,0,0,0,2.64,1.28"/>
              <path class="cls-14" d="M438.64,510.23,438.53,551q-6.19-2.43-13.82-4.7l-3.26-1,.12-40.76,3.26,1q7.62,2.27,13.81,4.7"/>
              <path class="cls-13" d="M421.57,504.57l-.12,40.76q-6.15-1.76-12-3l.12-40.76q5.82,1.2,12,2.95"/>
              <path class="cls-4" d="M409.59,501.62l-.12,40.76c-2.94-.61-5.81-1.12-8.62-1.51l.11-40.76q4.21.6,8.63,1.51"/>
              <path class="cls-5" d="M401,500.11l-.11,40.76-1.44-.2c-1.83-.24-3.62-.43-5.36-.57l.12-40.76c1.74.14,3.52.34,5.36.57l1.43.2"/>
              <path class="cls-6" d="M394.17,499.34l-.12,40.76c-1.87-.16-3.69-.25-5.46-.3l.12-40.76q2.64.07,5.46.3"/>
              <path class="cls-7" d="M388.71,499l-.12,40.76c-1.6,0-3.16,0-4.68,0l.12-40.76c1.51-.05,3.07-.06,4.68,0"/>
              <path class="cls-8" d="M384,499.06l-.12,40.76c-1.47,0-2.91.14-4.3.28l.11-40.76c1.4-.14,2.83-.23,4.31-.28"/>
              <path class="cls-9" d="M379.72,499.34l-.11,40.76-1.27.14q-6.9.84-10.87,1.55l.11-40.75q4-.72,10.87-1.56l1.27-.14"/>
              <path class="cls-10" d="M367.58,501l-.11,40.75c-.88.16-1.65.32-2.31.47q-3.26.74-7.81,2.2l.11-40.76q4.57-1.47,7.81-2.2c.66-.15,1.44-.31,2.31-.46"/>
              <path class="cls-11" d="M357.46,503.7l-.11,40.76-2.22.72.12-40.75,2.21-.73"/>
            </g>
          </g>
        </g>
        <g class="cls-2">
          <g class="cls-26">
            <g class="cls-2">
              <path class="cls-10" d="M157.81,519l-.12,40.76c-1.3.27-2.61.52-3.93.76l.12-40.76c1.32-.24,2.63-.49,3.93-.76"/>
              <path class="cls-9" d="M153.88,519.73l-.12,40.76c-4.39.79-8.89,1.41-13.46,1.86l.12-40.75c4.57-.46,9.07-1.08,13.46-1.87"/>
              <path class="cls-8" d="M140.42,521.6l-.12,40.75c-4,.41-8.15.68-12.27.82l.12-40.76c4.12-.14,8.22-.41,12.27-.81"/>
              <path class="cls-7" d="M128.15,522.41,128,563.17c-3.9.13-7.82.15-11.73.05l.11-40.76c3.91.1,7.84.08,11.74-.05"/>
              <path class="cls-6" d="M116.41,522.46l-.11,40.76c-3.81-.1-7.61-.3-11.37-.61l.12-40.76c3.76.31,7.56.51,11.36.61"/>
              <path class="cls-5" d="M105.05,521.85l-.12,40.76q-5.61-.47-11.08-1.24L94,520.61q5.48.78,11.09,1.24"/>
              <path class="cls-4" d="M94,520.61l-.11,40.76q-5.55-.78-10.88-1.89l.11-40.75c3.55.73,7.19,1.36,10.88,1.88"/>
              <path class="cls-13" d="M83.08,518.73,83,559.48q-5.59-1.15-10.87-2.65l.11-40.76c3.51,1,7.15,1.89,10.87,2.66"/>
              <path class="cls-14" d="M72.21,516.07l-.11,40.76c-4-1.14-7.85-2.43-11.49-3.86l.12-40.76c3.64,1.43,7.48,2.72,11.48,3.86"/>
              <path class="cls-15" d="M60.73,512.21,60.61,553a91.81,91.81,0,0,1-12.15-5.8C35.54,539.71,29.28,531,29.3,522.39l.12-40.76c0,8.58,6.23,17.32,19.15,24.78a92,92,0,0,0,12.16,5.8"/>
            </g>
          </g>
        </g>
        <g class="cls-2">
          <g class="cls-27">
            <g class="cls-2">
              <path class="cls-14" d="M190.14,532,190,572.73q-6.85-2-14.14-4.9l.12-40.76q7.28,2.86,14.13,4.91"/>
              <path class="cls-15" d="M176,527.07l-.12,40.76q-8.77-3.45-18.2-8.1l.12-40.76q9.42,4.65,18.2,8.1"/>
            </g>
          </g>
        </g>
        <polygon class="cls-18" points="355.25 504.43 355.13 545.18 271.11 573.34 271.23 532.58 355.25 504.43"/>
        <g class="cls-2">
          <g class="cls-28">
            <g class="cls-2">
              <path class="cls-11" d="M271.23,532.58l-.12,40.76c-1.77.59-3.36,1.11-4.75,1.55l.12-40.75,4.75-1.56"/>
              <path class="cls-10" d="M266.48,534.14l-.12,40.75c-1.65.53-3,1-4.15,1.28q-3.07.89-11.65,2.44l-.25,0,.11-40.76.25,0q8.58-1.56,11.66-2.44c1.11-.32,2.49-.74,4.15-1.27"/>
              <path class="cls-9" d="M250.42,537.9l-.11,40.76q-3.94.71-7.67,1.07l.12-40.75q3.72-.37,7.66-1.08"/>
              <path class="cls-8" d="M242.76,539l-.12,40.75q-2.73.27-5.34.36l.11-40.75c1.74-.06,3.53-.18,5.35-.36"/>
              <path class="cls-7" d="M237.41,539.34l-.11,40.75c-1,0-1.91,0-2.85,0l-1.43,0,.12-40.75,1.43,0c.93,0,1.88,0,2.84,0"/>
              <path class="cls-6" d="M233.14,539.36,233,580.11c-1.85,0-3.9-.16-6.14-.34L227,539q3.36.27,6.15.35"/>
              <path class="cls-5" d="M227,539l-.11,40.76q-5.25-.43-11.91-1.38l.11-40.76q6.66.95,11.91,1.38"/>
              <path class="cls-4" d="M215.08,537.63,215,578.39l-.28,0c-3.07-.44-6.14-1-9.22-1.61l.12-40.76q4.62,1,9.21,1.61l.28,0"/>
              <path class="cls-13" d="M205.59,536l-.12,40.76q-5.72-1.18-11.47-2.82l.11-40.76q5.76,1.64,11.48,2.82"/>
              <path class="cls-14" d="M194.11,533.16,194,573.92c-1.32-.38-2.65-.77-4-1.19l.11-40.75c1.33.41,2.65.8,4,1.18"/>
            </g>
          </g>
        </g>
        <path class="cls-20" d="M569.08,332c26.49,15.29,25,36-1.28,49.54a123.22,123.22,0,0,1,13.51,10.49q10.13,9.26,12.11,15.47a12.45,12.45,0,0,1-1.82,11.57,26.15,26.15,0,0,1-9.53,8.31,103.79,103.79,0,0,1-14,5.73l-87.32,29.25q-23.34,7.83-19.48,21.35a28.8,28.8,0,0,0,9.53,14.4,67.63,67.63,0,0,0,9.71,7.09,32.65,32.65,0,0,0,3,1.53,23.93,23.93,0,0,1,2.38,1.19q3.07,1.77,3.36,3.57.41,2.41-7.43,5l-9.36,3.13q-5.55,1.86-9.09,1.38a18.46,18.46,0,0,1-6.82-2.37q-3.27-1.89-11.6-5.78a148,148,0,0,0-20.08-7.38,157.21,157.21,0,0,0-25.3-5.62,85.47,85.47,0,0,0-21.08-.43q-9.18,1.13-13.18,2c-2.67.6-6,1.58-10,2.93l-84,28.15c-3.89,1.29-6.86,2.24-8.9,2.83s-5.94,1.4-11.66,2.44a87.34,87.34,0,0,1-16.1,1.53,152.15,152.15,0,0,1-19.77-1.79A157.73,157.73,0,0,1,190.14,532a208.39,208.39,0,0,1-32.33-13c-36.73,7.62-82.67,2.78-109.24-12.56-30.37-17.53-23.93-42.16,14.38-55s94-9,124.37,8.5c25.56,14.76,25.05,34.53,1.42,48.08a135.61,135.61,0,0,0,20.57,8.18,50.3,50.3,0,0,0,30.19-.46l85-28.48q8.93-3,15.89-4.6a166.84,166.84,0,0,1,20.46-2.86,134.73,134.73,0,0,1,31,1.24,252.56,252.56,0,0,1,38.32,8.9q-7.12-8.67-8.34-16t.91-11.78q2.13-4.43,8.86-8.57A65.52,65.52,0,0,1,442.11,448c2.49-.94,6.07-2.18,10.74-3.75l86.5-29q14.61-4.89,9-12.39-3.08-4.11-12.85-11c-36,6.47-79.59,1.45-105.19-13.34-30.37-17.53-23.94-42.15,14.38-55S538.7,314.48,569.08,332Z"/>
      </g>
      <g class="cls-2">
        <g class="cls-2">
          <g class="cls-29">
            <g class="cls-2">
              <path class="cls-15" d="M505.12,545.66,505,586.42a1.57,1.57,0,0,1-.05-.37l.12-40.76a1.14,1.14,0,0,0,.05.37"/>
            </g>
          </g>
        </g>
        <g class="cls-2">
          <g class="cls-30">
            <g class="cls-2">
              <path class="cls-15" d="M812.26,550.76l-.12,40.76q-8.34-4.23-15.16-6.91l.11-40.76q6.82,2.68,15.17,6.91"/>
              <path class="cls-14" d="M797.09,543.85,797,584.61q-4.54-1.79-8.4-2.88L788.7,541q3.85,1.1,8.39,2.88"/>
              <path class="cls-13" d="M788.7,541l-.12,40.76c-1.37-.4-2.68-.72-3.93-1l-.18,0,.11-40.76.19,0c1.24.26,2.55.59,3.93,1"/>
              <path class="cls-4" d="M784.58,540l-.11,40.76c-1.42-.3-2.82-.54-4.2-.74l.11-40.75c1.39.19,2.79.44,4.2.73"/>
              <path class="cls-5" d="M780.38,539.22,780.27,580c-1.21-.17-2.41-.3-3.59-.4l.11-40.76c1.19.1,2.38.23,3.59.41"/>
              <path class="cls-6" d="M776.79,538.81l-.11,40.76c-1.11-.09-2.2-.15-3.29-.18l.12-40.76c1.08,0,2.18.09,3.28.18"/>
              <path class="cls-7" d="M773.51,538.63l-.12,40.76c-1.07,0-2.14,0-3.19,0l.11-40.76c1.06,0,2.12,0,3.2,0"/>
              <path class="cls-8" d="M770.31,538.65l-.11,40.76c-1.12,0-2.23.11-3.33.22l.11-40.76c1.1-.11,2.21-.18,3.33-.22"/>
              <path class="cls-9" d="M767,538.87l-.11,40.76c-1.3.13-2.59.31-3.86.53l.12-40.75c1.27-.23,2.55-.41,3.85-.54"/>
              <path class="cls-10" d="M763.13,539.41,763,580.16a48.73,48.73,0,0,0-6.11,1.53l.12-40.76a46.62,46.62,0,0,1,6.11-1.52"/>
              <path class="cls-11" d="M757,540.93l-.12,40.76-.55.18.11-40.76.56-.18"/>
            </g>
          </g>
        </g>
        <polygon class="cls-18" points="756.46 541.11 756.35 581.87 678.78 607.86 678.89 567.1 756.46 541.11"/>
        <g class="cls-2">
          <g class="cls-31">
            <g class="cls-2">
              <path class="cls-15" d="M534.49,577l-.12,40.76q0-6.6-5.78-12.08a159.91,159.91,0,0,0-15.44-12.86q-8.16-6-8.15-6.35l.12-40.75q0,.36,8.15,6.34a161.25,161.25,0,0,1,15.43,12.86q5.81,5.49,5.79,12.08"/>
            </g>
          </g>
        </g>
        <g class="cls-2">
          <g class="cls-32">
            <g class="cls-2">
              <path class="cls-11" d="M678.89,567.1l-.11,40.76c-.81.27-2.11.75-3.89,1.44s-3.08,1.19-3.89,1.46l-2.59.84.12-40.75,2.59-.85c.8-.27,2.1-.76,3.88-1.45s3.08-1.18,3.89-1.45"/>
              <path class="cls-10" d="M668.53,570.85l-.12,40.75q-7.49,2.42-13.79,3.77c-.9.2-1.86.39-2.89.57l.11-40.76c1-.18,2-.37,2.9-.57q6.3-1.36,13.79-3.76"/>
              <path class="cls-9" d="M651.84,575.18l-.11,40.76q-6,1.06-14.87,2l.11-40.76q8.92-.89,14.87-2"/>
              <path class="cls-8" d="M637,577.14l-.11,40.76-3,.28c-1.74.16-3.52.27-5.36.33l.11-40.76c1.84-.06,3.63-.17,5.36-.33l3-.28"/>
              <path class="cls-7" d="M628.62,577.75l-.11,40.76q-3.25.11-6.75,0l.12-40.76c2.32.06,4.57.06,6.74,0"/>
              <path class="cls-6" d="M621.88,577.77l-.12,40.76q-3.88-.09-8.06-.44l.11-40.76c2.79.23,5.47.38,8.07.44"/>
              <path class="cls-5" d="M613.81,577.33l-.11,40.76c-3.33-.27-6.8-.67-10.4-1.18l.11-40.75q5.4.76,10.4,1.17"/>
              <path class="cls-4" d="M603.41,576.16l-.11,40.75-.55-.08q-6.4-.92-13.16-2.32l.12-40.76q6.75,1.41,13.15,2.33l.55.08"/>
              <path class="cls-13" d="M589.71,573.75l-.12,40.76q-9.65-2-20-5l.11-40.76q10.4,3,20.05,5"/>
              <path class="cls-14" d="M569.66,568.8l-.11,40.76q-2.52-.72-5.08-1.49l.11-40.76q2.56.77,5.08,1.49"/>
            </g>
          </g>
        </g>
        <g class="cls-2">
          <g class="cls-33">
            <g class="cls-2">
              <path class="cls-4" d="M573.23,588.69l-.12,40.76c0,.18,0,.37,0,.55l.12-40.76c0-.18,0-.36,0-.55"/>
              <path class="cls-5" d="M573.22,589.24,573.1,630a16.68,16.68,0,0,1-.31,2.84l.12-40.75a18,18,0,0,0,.31-2.85"/>
              <path class="cls-6" d="M572.91,592.09l-.12,40.75a12.35,12.35,0,0,1-.57,2l.12-40.75a14.15,14.15,0,0,0,.57-2"/>
              <path class="cls-7" d="M572.34,594.1l-.12,40.75a7.47,7.47,0,0,1-.39.92c-.11.24-.24.49-.38.73l.12-40.76L572,595c.14-.3.27-.6.39-.91"/>
              <path class="cls-8" d="M571.57,595.74l-.12,40.76a13.33,13.33,0,0,1-1.26,1.87l.11-40.75a15.16,15.16,0,0,0,1.27-1.88"/>
              <path class="cls-9" d="M570.3,597.62l-.11,40.75a20.07,20.07,0,0,1-2.21,2.37L568.1,600a20.69,20.69,0,0,0,2.2-2.36"/>
              <path class="cls-10" d="M568.1,600,568,640.74a32.51,32.51,0,0,1-4.67,3.55c-.84.54-1.65,1-2.42,1.51l.11-40.75c.78-.47,1.59-1,2.43-1.51A34.49,34.49,0,0,0,568.1,600"/>
              <path class="cls-11" d="M561,605.05l-.11,40.75a50.11,50.11,0,0,1-7.92,4.07q-3.93,1.46-10.9,3.79l.11-40.75q7-2.34,10.9-3.8a49.08,49.08,0,0,0,7.92-4.06"/>
            </g>
          </g>
        </g>
        <g class="cls-2">
          <g class="cls-34">
            <g class="cls-2">
              <path class="cls-4" d="M970.7,577.61l-.12,40.76c0,.15,0,.29,0,.44l.12-40.75c0-.15,0-.3,0-.45"/>
              <path class="cls-5" d="M970.69,578.06l-.12,40.75a17,17,0,0,1-.34,3l.12-40.76a17.9,17.9,0,0,0,.34-3"/>
              <path class="cls-6" d="M970.35,581.05l-.12,40.76a19.06,19.06,0,0,1-.85,3L969.5,584a19.06,19.06,0,0,0,.85-3"/>
              <path class="cls-7" d="M969.5,584l-.12,40.76a22.2,22.2,0,0,1-1.43,3.06l.11-40.76A22.27,22.27,0,0,0,969.5,584"/>
              <path class="cls-8" d="M968.06,587.07,968,627.83a28.58,28.58,0,0,1-2.23,3.3l.11-40.76a26.23,26.23,0,0,0,2.23-3.3"/>
              <path class="cls-9" d="M965.83,590.37l-.11,40.76a34,34,0,0,1-3.66,3.92l.12-40.76a34.73,34.73,0,0,0,3.65-3.92"/>
              <path class="cls-10" d="M962.18,594.29l-.12,40.76a49.64,49.64,0,0,1-8.19,6l.12-40.76a50.07,50.07,0,0,0,8.19-6"/>
              <path class="cls-11" d="M954,600.31l-.12,40.76A87,87,0,0,1,937,648.59l-1.26.41.11-40.76,1.27-.41A86.69,86.69,0,0,0,954,600.31"/>
              <path class="cls-10" d="M935.89,608.24,935.78,649a137.61,137.61,0,0,1-17.84,4.4l.11-40.75a138.85,138.85,0,0,0,17.84-4.41"/>
              <path class="cls-9" d="M918.05,612.65l-.11,40.75q-6.57,1.19-13.42,1.86l.12-40.75c4.55-.46,9-1.08,13.41-1.86"/>
              <path class="cls-8" d="M904.64,614.51l-.12,40.75c-4,.41-8.16.68-12.29.82l.11-40.76c4.13-.14,8.24-.41,12.3-.81"/>
              <path class="cls-7" d="M892.34,615.32l-.11,40.76q-5.85.2-11.71,0l.11-40.76q5.86.15,11.71,0"/>
              <path class="cls-6" d="M880.63,615.37l-.11,40.76c-3.81-.1-7.61-.3-11.37-.61l.11-40.76c3.77.31,7.57.52,11.37.61"/>
              <path class="cls-5" d="M869.26,614.76l-.11,40.76q-5.61-.46-11.08-1.24l.11-40.75q5.48.76,11.08,1.23"/>
              <path class="cls-4" d="M858.18,613.53l-.11,40.75c-3.7-.52-7.34-1.15-10.89-1.89l.12-40.75c3.55.73,7.19,1.36,10.88,1.89"/>
              <path class="cls-13" d="M847.3,611.64l-.12,40.75q-5.61-1.15-10.9-2.66L836.4,609q5.28,1.5,10.9,2.67"/>
              <path class="cls-14" d="M836.4,609l-.12,40.76c-4-1.14-7.85-2.43-11.49-3.87l.11-40.76c3.64,1.44,7.49,2.73,11.5,3.87"/>
              <path class="cls-15" d="M824.9,605.1l-.11,40.76a91.34,91.34,0,0,1-12.12-5.78c-12.92-7.46-19.17-16.2-19.15-24.77l.12-40.75c0,8.57,6.23,17.3,19.14,24.76a92,92,0,0,0,12.12,5.78"/>
            </g>
          </g>
        </g>
        <polygon class="cls-18" points="542.18 612.91 542.07 653.66 456.44 682.35 456.56 641.59 542.18 612.91"/>
        <g class="cls-2">
          <g class="cls-35">
            <g class="cls-2">
              <path class="cls-11" d="M456.56,641.59l-.11,40.76a37.73,37.73,0,0,0-7.35,3.17l.12-40.76a38.22,38.22,0,0,1,7.34-3.17"/>
              <path class="cls-10" d="M449.22,644.76l-.12,40.76a12.23,12.23,0,0,0-1.88,1.38l.11-40.76a11.88,11.88,0,0,1,1.89-1.38"/>
              <path class="cls-9" d="M447.33,646.14l-.11,40.76a6.29,6.29,0,0,0-.67.72l.11-40.76a7.34,7.34,0,0,1,.67-.72"/>
              <path class="cls-8" d="M446.66,646.86l-.11,40.76,0,0a2.13,2.13,0,0,0-.16.25l.11-40.76a2.2,2.2,0,0,1,.17-.25v0"/>
              <path class="cls-7" d="M446.48,647.13l-.11,40.76a1.55,1.55,0,0,0-.14.29l.12-40.76a2.55,2.55,0,0,1,.13-.29"/>
              <path class="cls-6" d="M446.35,647.42l-.12,40.76a3.37,3.37,0,0,0-.1.34l.12-40.76a1.91,1.91,0,0,1,.1-.34"/>
              <path class="cls-5" d="M446.25,647.76l-.12,40.76a3.13,3.13,0,0,0,0,.44l.11-40.76a3.12,3.12,0,0,1,.05-.44"/>
              <path class="cls-4" d="M446.2,648.2,446.09,689V689l.11-40.76v-.08"/>
            </g>
          </g>
        </g>
        <g class="cls-2">
          <g class="cls-36">
            <g class="cls-2">
              <path class="cls-15" d="M432.18,677.77l-.12,40.75a134.2,134.2,0,0,1-17.35-13q-10-9.16-12-15.36a14.2,14.2,0,0,1-.71-4.32l.12-40.75a13.84,13.84,0,0,0,.71,4.31q2,6.2,12,15.36a133.48,133.48,0,0,0,17.35,13"/>
            </g>
          </g>
        </g>
        <g class="cls-2">
          <g class="cls-37">
            <g class="cls-2">
              <path class="cls-4" d="M779.83,641.56l-.12,40.76c0,.15,0,.3,0,.45l.12-40.76c0-.15,0-.3,0-.45"/>
              <path class="cls-5" d="M779.82,642l-.12,40.76a16.81,16.81,0,0,1-.34,3l.12-40.76a17.78,17.78,0,0,0,.34-3"/>
              <path class="cls-6" d="M779.48,645l-.12,40.76a19.06,19.06,0,0,1-.85,3l.12-40.75a19.17,19.17,0,0,0,.85-3"/>
              <path class="cls-7" d="M778.63,648l-.12,40.75a21.16,21.16,0,0,1-1.44,3.06l.12-40.76a22.73,22.73,0,0,0,1.44-3"/>
              <path class="cls-8" d="M777.19,651l-.12,40.76a27.25,27.25,0,0,1-2.22,3.3l.11-40.76a24.86,24.86,0,0,0,2.23-3.3"/>
              <path class="cls-9" d="M775,654.32l-.11,40.76a34,34,0,0,1-3.66,3.92l.12-40.76a33.1,33.1,0,0,0,3.65-3.92"/>
              <path class="cls-10" d="M771.31,658.24,771.19,699a49.64,49.64,0,0,1-8.19,6l.12-40.76a49.49,49.49,0,0,0,8.19-6"/>
              <path class="cls-11" d="M763.12,664.26,763,705a85.82,85.82,0,0,1-16.83,7.52l-1.26.41L745,672.2l1.26-.42a85.82,85.82,0,0,0,16.83-7.52"/>
              <path class="cls-10" d="M745,672.2,744.91,713a137.21,137.21,0,0,1-17.84,4.41l.11-40.76A139.42,139.42,0,0,0,745,672.2"/>
              <path class="cls-9" d="M727.18,676.6l-.11,40.76c-4.38.79-8.86,1.4-13.41,1.86l.11-40.76c4.55-.45,9-1.07,13.41-1.86"/>
              <path class="cls-8" d="M713.77,678.46l-.11,40.76c-4.06.4-8.17.67-12.3.81l.12-40.76q6.19-.21,12.29-.81"/>
              <path class="cls-7" d="M701.48,679.27,701.36,720c-3.89.13-7.81.15-11.71.05l.11-40.76q5.87.15,11.72-.05"/>
              <path class="cls-6" d="M689.76,679.32l-.11,40.76c-3.81-.09-7.61-.3-11.37-.61l.12-40.76c3.76.32,7.56.52,11.36.61"/>
              <path class="cls-5" d="M678.4,678.71l-.12,40.76c-3.74-.3-7.44-.72-11.08-1.23l.11-40.76c3.65.51,7.35.93,11.09,1.23"/>
              <path class="cls-4" d="M667.31,677.48l-.11,40.76c-3.7-.53-7.34-1.16-10.89-1.89l.12-40.76c3.55.73,7.19,1.36,10.88,1.89"/>
              <path class="cls-13" d="M656.43,675.59l-.12,40.76c-3.73-.78-7.38-1.66-10.89-2.67l.11-40.76q5.28,1.51,10.9,2.67"/>
              <path class="cls-14" d="M645.53,672.92l-.11,40.76c-4-1.14-7.86-2.43-11.5-3.87l.11-40.76c3.64,1.44,7.49,2.73,11.5,3.87"/>
              <path class="cls-15" d="M634,669.05l-.11,40.76A91.34,91.34,0,0,1,621.8,704c-12.92-7.46-19.18-16.2-19.16-24.78l.12-40.75c0,8.57,6.23,17.31,19.16,24.77A90,90,0,0,0,634,669.05"/>
            </g>
          </g>
        </g>
        <path class="cls-20" d="M760.67,616.78c30.37,17.54,23.93,42.17-14.38,55s-94,9-124.37-8.51-23.94-42.15,14.37-55S730.3,599.25,760.67,616.78Z"/>
        <path class="cls-20" d="M951.54,552.83c30.37,17.54,23.93,42.16-14.38,55s-94,9-124.38-8.51c-25.86-14.93-25-35-.52-48.56q-16.87-8.53-27.49-10.77-15.36-3.22-28.31,1.12l-77.57,26c-.81.27-2.1.76-3.89,1.45s-3.08,1.18-3.88,1.45a156.16,156.16,0,0,1-16.38,4.61A182.33,182.33,0,0,1,634,577.42q-13.4,1.22-31.12-1.34a265,265,0,0,1-38.28-8.77q6.72,8.79,8.11,16T572,595c-1.42,2.94-4.25,5.78-8.52,8.53a59.2,59.2,0,0,1-10.35,5.57q-3.92,1.46-10.9,3.8l-85.62,28.68q-7.85,2.63-9.91,5.29t5.37,10.7a74.69,74.69,0,0,0,12.1,9.92c36.1-6.61,80-1.61,105.67,13.24,30.38,17.54,23.94,42.16-14.38,55s-94,9-124.37-8.51c-26.45-15.27-25-35.91,1.14-49.46a133.48,133.48,0,0,1-17.35-13q-10-9.16-12-15.36a12.67,12.67,0,0,1,1.67-11.6,25.09,25.09,0,0,1,9.39-8.34,102.31,102.31,0,0,1,14-5.69l88.44-29.63q16.08-5.4,17.85-13.91t-5.44-15.33A161.25,161.25,0,0,0,513.27,552q-8.25-6-8.15-6.35-.63-2.13,6.13-4.39l10.8-3.62c4.77-1.59,8.35-2,10.77-1.35s6.91,2.75,13.48,6.17a135.9,135.9,0,0,0,24.18,9.34,156.36,156.36,0,0,0,25.38,5.6,83.86,83.86,0,0,0,21.1.35q9.13-1.18,13.09-2.14t10-3l84.66-28.37q5.84-1.95,8.93-2.84T745.15,519a88.8,88.8,0,0,1,16.3-1.44,155.5,155.5,0,0,1,20.16,1.79,157.43,157.43,0,0,1,24.7,5.61A213.78,213.78,0,0,1,843,540.14C879.63,532.73,925.14,537.59,951.54,552.83Z"/>
        <g class="cls-2">
          <g class="cls-38">
            <g class="cls-2">
              <path class="cls-4" d="M589,705.52l-.11,40.76c0,.15,0,.3,0,.44L589,706v-.45"/>
              <path class="cls-5" d="M589,706l-.12,40.75a17.9,17.9,0,0,1-.34,3l.12-40.76a18.88,18.88,0,0,0,.34-3"/>
              <path class="cls-6" d="M588.61,709l-.12,40.76a19.06,19.06,0,0,1-.85,3l.11-40.76a19.1,19.1,0,0,0,.86-3"/>
              <path class="cls-7" d="M587.75,711.92l-.11,40.76a22.27,22.27,0,0,1-1.44,3.06l.12-40.76a21.09,21.09,0,0,0,1.43-3.06"/>
              <path class="cls-8" d="M586.32,715l-.12,40.76A26.4,26.4,0,0,1,584,759l.11-40.75a27.35,27.35,0,0,0,2.23-3.3"/>
              <path class="cls-9" d="M584.09,718.28,584,759a35,35,0,0,1-3.66,3.93l.11-40.76a34,34,0,0,0,3.66-3.92"/>
              <path class="cls-10" d="M580.43,722.2,580.32,763a50,50,0,0,1-8.19,6l.11-40.75a49.64,49.64,0,0,0,8.19-6"/>
              <path class="cls-11" d="M572.24,728.22,572.13,769a86.4,86.4,0,0,1-16.83,7.53l-1.25.41.12-40.76,1.24-.41a87,87,0,0,0,16.83-7.52"/>
              <path class="cls-10" d="M554.17,736.15l-.12,40.76a138.85,138.85,0,0,1-17.84,4.4l.11-40.76a139.42,139.42,0,0,0,17.85-4.4"/>
              <path class="cls-9" d="M536.32,740.55l-.11,40.76c-4.38.79-8.87,1.41-13.42,1.86l.11-40.76c4.56-.45,9.05-1.07,13.42-1.86"/>
              <path class="cls-8" d="M522.9,742.41l-.11,40.76c-4.06.4-8.17.67-12.3.81l.11-40.76c4.13-.14,8.25-.41,12.3-.81"/>
              <path class="cls-7" d="M510.6,743.22,510.49,784q-5.85.21-11.72,0l.12-40.75c3.9.09,7.82.08,11.71-.06"/>
              <path class="cls-6" d="M498.89,743.28,498.77,784c-3.81-.09-7.61-.29-11.37-.6l.11-40.76c3.77.31,7.57.51,11.38.61"/>
              <path class="cls-5" d="M487.51,742.67l-.11,40.76q-5.61-.46-11.09-1.24l.12-40.76c3.64.52,7.35.93,11.08,1.24"/>
              <path class="cls-4" d="M476.43,741.43l-.12,40.76q-5.55-.8-10.88-1.89l.11-40.76c3.55.74,7.19,1.37,10.89,1.89"/>
              <path class="cls-13" d="M465.54,739.54l-.11,40.76q-5.61-1.15-10.9-2.67l.12-40.75c3.51,1,7.15,1.89,10.89,2.66"/>
              <path class="cls-14" d="M454.65,736.88l-.12,40.75c-4-1.14-7.85-2.43-11.49-3.86l.11-40.76c3.64,1.43,7.49,2.72,11.5,3.87"/>
              <path class="cls-15" d="M443.15,733,443,773.77A91.34,91.34,0,0,1,430.92,768c-12.92-7.46-19.17-16.2-19.15-24.77l.12-40.76c0,8.57,6.23,17.31,19.15,24.77A91.2,91.2,0,0,0,443.15,733"/>
            </g>
          </g>
        </g>
      </g>
    </g>
  </g>
</svg>
