<svg xmlns="http://www.w3.org/2000/svg" xmlns:xlink="http://www.w3.org/1999/xlink" viewBox="0 0 1000 1000">
  <defs>
    <style>
      .cls-1 {
        fill: none;
      }

      .cls-2 {
        isolation: isolate;
      }

      .cls-3 {
        clip-path: url(#clip-path);
      }

      .cls-4 {
        fill: #949494;
      }

      .cls-5 {
        fill: #999;
      }

      .cls-6 {
        fill: #9e9e9e;
      }

      .cls-7 {
        fill: #a3a3a3;
      }

      .cls-8 {
        fill: #a8a8a8;
      }

      .cls-9 {
        fill: #adadad;
      }

      .cls-10 {
        fill: #b3b3b3;
      }

      .cls-11 {
        fill: #b8b8b8;
      }

      .cls-12 {
        clip-path: url(#clip-path-2);
      }

      .cls-13 {
        fill: #8f8f8f;
      }

      .cls-14 {
        fill: #8a8a8a;
      }

      .cls-15 {
        fill: #858585;
      }

      .cls-16 {
        clip-path: url(#clip-path-3);
      }

      .cls-17 {
        clip-path: url(#clip-path-4);
      }

      .cls-18 {
        fill: #c4c4c4;
      }

      .cls-19 {
        clip-path: url(#clip-path-5);
      }

      .cls-20 {
        fill: #dcdcdc;
      }

      .cls-21 {
        clip-path: url(#clip-path-6);
      }

      .cls-22 {
        clip-path: url(#clip-path-7);
      }

      .cls-23 {
        clip-path: url(#clip-path-8);
      }

      .cls-24 {
        clip-path: url(#clip-path-9);
      }

      .cls-25 {
        clip-path: url(#clip-path-10);
      }

      .cls-26 {
        clip-path: url(#clip-path-11);
      }

      .cls-27 {
        clip-path: url(#clip-path-12);
      }

      .cls-28 {
        clip-path: url(#clip-path-13);
      }

      .cls-29 {
        clip-path: url(#clip-path-14);
      }

      .cls-30 {
        clip-path: url(#clip-path-15);
      }

      .cls-31 {
        clip-path: url(#clip-path-16);
      }

      .cls-32 {
        clip-path: url(#clip-path-17);
      }

      .cls-33 {
        clip-path: url(#clip-path-18);
      }

      .cls-34 {
        clip-path: url(#clip-path-19);
      }

      .cls-35 {
        clip-path: url(#clip-path-20);
      }

      .cls-36 {
        clip-path: url(#clip-path-21);
      }

      .cls-37 {
        clip-path: url(#clip-path-22);
      }

      .cls-38 {
        clip-path: url(#clip-path-23);
      }

      .cls-39 {
        clip-path: url(#clip-path-24);
      }

      .cls-40 {
        fill: #a0a0a0;
      }

      .cls-41 {
        clip-path: url(#clip-path-25);
      }

      .cls-42 {
        fill: gray;
      }

      .cls-43 {
        clip-path: url(#clip-path-26);
      }

      .cls-44 {
        clip-path: url(#clip-path-27);
      }

      .cls-45 {
        clip-path: url(#clip-path-28);
      }

      .cls-46 {
        clip-path: url(#clip-path-29);
      }

      .cls-47 {
        clip-path: url(#clip-path-30);
      }
    </style>
    <clipPath id="clip-path">
      <path class="cls-1" d="M586.66,296.2,586.55,337c0,9.05-7,17.91-20.53,24.89l.11-40.76C579.64,314.11,586.64,305.25,586.66,296.2Z"/>
    </clipPath>
    <clipPath id="clip-path-2">
      <path class="cls-1" d="M408.61,333.88l.12-40.76c0,8.62,6.26,17.4,19.25,24.9,25.73,14.86,69.52,19.91,105.7,13.4l-.11,40.76c-36.18,6.51-80,1.46-105.71-13.4C414.88,351.28,408.59,342.49,408.61,333.88Z"/>
    </clipPath>
    <clipPath id="clip-path-3">
      <path class="cls-1" d="M548.16,346.49,548,387.25a6.71,6.71,0,0,0-1.55-4c-2.06-2.74-6.38-6.44-12.92-11.08l.11-40.76q9.83,7,12.92,11.09A6.74,6.74,0,0,1,548.16,346.49Z"/>
    </clipPath>
    <clipPath id="clip-path-4">
      <path class="cls-1" d="M592.56,351.39l-.12,40.75a12.66,12.66,0,0,1-2.51,7.43,26.34,26.34,0,0,1-9.58,8.35,102,102,0,0,1-14.09,5.75l.12-40.76a102.54,102.54,0,0,0,14.09-5.75,26.25,26.25,0,0,0,9.58-8.35A12.7,12.7,0,0,0,592.56,351.39Z"/>
    </clipPath>
    <clipPath id="clip-path-5">
      <path class="cls-1" d="M394.86,360.47l-.12,40.76c0,11.64-11.58,23-33.7,30.37-38.5,12.9-94.46,9.07-125-8.55-13-7.5-19.28-16.29-19.26-24.9l.12-40.76c0,8.62,6.26,17.4,19.25,24.9,30.53,17.63,86.49,21.45,125,8.55C383.28,383.43,394.82,372.11,394.86,360.47Z"/>
    </clipPath>
    <clipPath id="clip-path-6">
      <path class="cls-1" d="M458.39,460.75l.12-40.76q0-11,20.13-17.68l-.12,40.76Q458.42,449.81,458.39,460.75Z"/>
    </clipPath>
    <clipPath id="clip-path-7">
      <path class="cls-1" d="M418.93,449.54l.12-40.76a31.63,31.63,0,0,0,.45,5.09q1.23,7.41,8.38,16.11l-.12,40.76q-7.14-8.72-8.37-16.11A30.7,30.7,0,0,1,418.93,449.54Z"/>
    </clipPath>
    <clipPath id="clip-path-8">
      <path class="cls-1" d="M203,424.74l-.11,40.75c0,8.43-6.09,16.69-17.83,23.42l.12-40.76C197,441.42,203,433.16,203,424.74Z"/>
    </clipPath>
    <clipPath id="clip-path-9">
      <path class="cls-1" d="M487.18,451.92l-.11,40.76q0,2.31-7.49,4.82l.12-40.76Q487.19,454.24,487.18,451.92Z"/>
    </clipPath>
    <clipPath id="clip-path-10">
      <path class="cls-1" d="M470.28,459.9l-.11,40.75c-3.71,1.24-6.76,1.71-9.14,1.39a18.8,18.8,0,0,1-6.85-2.38c-2.19-1.27-6.07-3.2-11.66-5.82a147.48,147.48,0,0,0-20.17-7.41,157.77,157.77,0,0,0-25.43-5.65,85.67,85.67,0,0,0-21.17-.42q-9.25,1.11-13.25,2c-2.69.61-6,1.59-10.08,2.94l.12-40.76q6.06-2,10.07-2.94t13.25-2A85.67,85.67,0,0,1,397,440a157.61,157.61,0,0,1,25.43,5.66,147.24,147.24,0,0,1,20.18,7.4c5.58,2.62,9.47,4.55,11.66,5.82a18.68,18.68,0,0,0,6.85,2.38C463.52,461.6,466.57,461.14,470.28,459.9Z"/>
    </clipPath>
    <clipPath id="clip-path-11">
      <path class="cls-1" d="M25,462.42l.12-40.76c0,8.62,6.26,17.4,19.25,24.9,26.7,15.41,72.85,20.27,109.77,12.62L154,499.93c-36.93,7.66-83.08,2.8-109.78-12.61C31.26,479.82,25,471,25,462.42Z"/>
    </clipPath>
    <clipPath id="clip-path-12">
      <path class="cls-1" d="M186.62,472.25,186.51,513A207.83,207.83,0,0,1,154,499.93l.11-40.75A209.81,209.81,0,0,0,186.62,472.25Z"/>
    </clipPath>
    <clipPath id="clip-path-13">
      <path class="cls-1" d="M268.11,472.85,268,513.61c-3.9,1.31-6.89,2.25-8.94,2.85s-6,1.41-11.71,2.45a87.56,87.56,0,0,1-16.19,1.53,152,152,0,0,1-19.87-1.79A157.82,157.82,0,0,1,186.51,513l.11-40.75a159,159,0,0,0,24.78,5.64,152,152,0,0,0,19.86,1.8,89.16,89.16,0,0,0,16.19-1.53q8.61-1.57,11.71-2.46C261.21,475.11,264.21,474.16,268.11,472.85Z"/>
    </clipPath>
    <clipPath id="clip-path-14">
      <path class="cls-1" d="M503,526.39l.12-40.75a1.34,1.34,0,0,0,.05.35L503,526.75A1.13,1.13,0,0,1,503,526.39Z"/>
    </clipPath>
    <clipPath id="clip-path-15">
      <path class="cls-1" d="M811.79,491.12l-.11,40.76q-16.95-8.58-27.63-10.82-15.42-3.24-28.44,1.13l.11-40.76q13-4.37,28.44-1.13Q794.84,482.54,811.79,491.12Z"/>
    </clipPath>
    <clipPath id="clip-path-16">
      <path class="cls-1" d="M532.66,517.45l-.12,40.76q0-6.63-5.8-12.15a160.3,160.3,0,0,0-15.52-12.92c-5.52-4-8.24-6.17-8.19-6.39l.11-40.76c-.05.22,2.67,2.35,8.2,6.39a161.38,161.38,0,0,1,15.51,12.92Q532.68,510.82,532.66,517.45Z"/>
    </clipPath>
    <clipPath id="clip-path-17">
      <path class="cls-1" d="M677.77,507.54l-.11,40.76c-.82.27-2.12.76-3.91,1.46s-3.09,1.18-3.9,1.45a156.11,156.11,0,0,1-16.46,4.64,181,181,0,0,1-20.86,2.82q-13.46,1.23-31.28-1.35a265.18,265.18,0,0,1-38.47-8.81l.12-40.76a263.76,263.76,0,0,0,38.46,8.81q17.83,2.58,31.29,1.36a183.53,183.53,0,0,0,20.86-2.83A158.19,158.19,0,0,0,670,510.46c.82-.28,2.11-.76,3.91-1.46S677,507.82,677.77,507.54Z"/>
    </clipPath>
    <clipPath id="clip-path-18">
      <path class="cls-1" d="M571.59,529.24,571.47,570a14.42,14.42,0,0,1-1.29,6.35q-2.11,4.44-8.56,8.57a59.49,59.49,0,0,1-10.39,5.6q-3.94,1.47-11,3.81l.12-40.76q7-2.34,10.94-3.81a59.5,59.5,0,0,0,10.4-5.6q6.45-4.12,8.56-8.57A14.7,14.7,0,0,0,571.59,529.24Z"/>
    </clipPath>
    <clipPath id="clip-path-19">
      <path class="cls-1" d="M971,518.11l-.12,40.76c0,11.63-11.58,23-33.7,30.36-38.5,12.9-94.46,9.07-125-8.55-13-7.49-19.27-16.27-19.24-24.89l.11-40.75c0,8.61,6.27,17.39,19.25,24.89,30.52,17.62,86.47,21.45,125,8.54C959.43,541.06,971,529.74,971,518.11Z"/>
    </clipPath>
    <clipPath id="clip-path-20">
      <path class="cls-1" d="M443.82,629.88l.12-40.76a2.24,2.24,0,0,1,.45-1.41c1.39-1.77,4.71-3.55,10-5.31l-.11,40.76q-7.89,2.64-10,5.31A2.24,2.24,0,0,0,443.82,629.88Z"/>
    </clipPath>
    <clipPath id="clip-path-21">
      <path class="cls-1" d="M399.54,626.64l.11-40.75a14,14,0,0,0,.71,4.33q2,6.22,12.06,15.43a132.29,132.29,0,0,0,17.42,13.1l-.11,40.76a133.34,133.34,0,0,1-17.43-13.1Q402.25,637.2,400.24,631A13.89,13.89,0,0,1,399.54,626.64Z"/>
    </clipPath>
    <clipPath id="clip-path-22">
      <path class="cls-1" d="M779.2,582.37l-.11,40.76c0,11.64-11.58,23-33.71,30.37-38.5,12.9-94.46,9.07-125-8.55-13-7.5-19.28-16.28-19.25-24.9l.11-40.76c0,8.62,6.27,17.4,19.25,24.9,30.53,17.63,86.49,21.45,125,8.55C767.62,605.33,779.17,594,779.2,582.37Z"/>
    </clipPath>
    <clipPath id="clip-path-23">
      <path class="cls-1" d="M587.39,646.64l-.11,40.76c0,11.63-11.58,23-33.71,30.36-38.5,12.91-94.46,9.08-125-8.54-13-7.5-19.27-16.28-19.25-24.89l.12-40.76c0,8.61,6.26,17.4,19.25,24.89,30.52,17.63,86.48,21.45,125,8.55C575.81,669.6,587.36,658.28,587.39,646.64Z"/>
    </clipPath>
    <clipPath id="clip-path-24">
      <path class="cls-1" d="M601.31,773.93l.11-40.76a10.49,10.49,0,0,0,1.18,4.43l-.12,40.76A10.65,10.65,0,0,1,601.31,773.93Z"/>
    </clipPath>
    <clipPath id="clip-path-25">
      <path class="cls-1" d="M843.11,780.49,843,821.25c0,1.5-.92,2.78-2.75,3.85a13.32,13.32,0,0,1-6.12,1.56,23.36,23.36,0,0,1-5.57-.25q-1.87-.42-6.86-1.49l.11-40.76q5,1.07,6.87,1.49a23.36,23.36,0,0,0,5.57.25,13.31,13.31,0,0,0,6.11-1.56Q843.11,782.73,843.11,780.49Z"/>
    </clipPath>
    <clipPath id="clip-path-26">
      <path class="cls-1" d="M670.73,839.78l-.12,40.76a5.29,5.29,0,0,1-2.83,4.82,15.31,15.31,0,0,1-7.85,1.85,16,16,0,0,1-8.07-2c-1.1-.64-2.39-2.18-3.85-4.62l.12-40.76c1.46,2.44,2.75,4,3.85,4.62a16,16,0,0,0,8.06,2,15.26,15.26,0,0,0,7.85-1.85A5.3,5.3,0,0,0,670.73,839.78Z"/>
    </clipPath>
    <clipPath id="clip-path-27">
      <path class="cls-1" d="M891.87,860.88l.12-40.76a10.5,10.5,0,0,0,.91,4l-.12,40.76A10.69,10.69,0,0,1,891.87,860.88Z"/>
    </clipPath>
    <clipPath id="clip-path-28">
      <path class="cls-1" d="M719.64,920.73l.11-40.76c0,1.6,1.06,3,3.2,4.26a23.52,23.52,0,0,0,7,2.34l-.12,40.76a23.44,23.44,0,0,1-6.95-2.34Q719.63,923.13,719.64,920.73Z"/>
    </clipPath>
    <clipPath id="clip-path-29">
      <path class="cls-1" d="M933.92,916.44l-.12,40.76q-.84-1.92-6.4-14.46l.12-40.76Q933.07,914.54,933.92,916.44Z"/>
    </clipPath>
    <clipPath id="clip-path-30">
      <path class="cls-1" d="M961.05,926.84l-.12,40.76a5.08,5.08,0,0,1-2.8,4.6,13,13,0,0,1-2.64,1.17,10.3,10.3,0,0,1-3,.48c-1.07,0-2,0-2.74.09a17.57,17.57,0,0,1-3.22-.24l-2.59-.36c-.35,0-1.21-.22-2.59-.54l.11-40.76c1.39.33,2.25.51,2.6.55s1.2.15,2.59.35a17.48,17.48,0,0,0,3.21.24c.76,0,1.67-.06,2.74-.08a10.59,10.59,0,0,0,3-.48,12.81,12.81,0,0,0,2.64-1.18A5.09,5.09,0,0,0,961.05,926.84Z"/>
    </clipPath>
  </defs>
  <title>interface with type parameter</title>
  <g id="interface_with_type_parameter" data-name="interface with type parameter">
    <g>
      <g class="cls-2">
        <g class="cls-2">
          <g class="cls-3">
            <g class="cls-2">
              <path class="cls-4" d="M586.66,296.2,586.55,337c0,.16,0,.31,0,.46l.11-40.76c0-.15,0-.3,0-.46"/>
              <path class="cls-5" d="M586.65,296.66l-.11,40.76a19.14,19.14,0,0,1-.34,3l.11-40.76a17.78,17.78,0,0,0,.34-3"/>
              <path class="cls-6" d="M586.31,299.66l-.11,40.76a18.9,18.9,0,0,1-.86,3l.12-40.76a18.86,18.86,0,0,0,.85-3"/>
              <path class="cls-7" d="M585.46,302.63l-.12,40.76a22.38,22.38,0,0,1-1.44,3.07l.11-40.75a21.44,21.44,0,0,0,1.45-3.08"/>
              <path class="cls-8" d="M584,305.71l-.11,40.75a27.07,27.07,0,0,1-2.25,3.33l.12-40.76a25.8,25.8,0,0,0,2.24-3.32"/>
              <path class="cls-9" d="M581.77,309l-.12,40.76a34,34,0,0,1-3.66,3.93l.12-40.76a34.08,34.08,0,0,0,3.66-3.93"/>
              <path class="cls-10" d="M578.11,313,578,353.72a49,49,0,0,1-8,5.9l.12-40.76a49.42,49.42,0,0,0,8-5.9"/>
              <path class="cls-11" d="M570.12,318.86,570,359.62q-1.89,1.14-4,2.23l.11-40.76c1.4-.72,2.73-1.47,4-2.23"/>
            </g>
          </g>
        </g>
        <g class="cls-2">
          <g class="cls-12">
            <g class="cls-2">
              <path class="cls-9" d="M533.68,331.42l-.11,40.76c-4.37.79-8.85,1.41-13.4,1.86l.12-40.76c4.54-.45,9-1.07,13.39-1.86"/>
              <path class="cls-8" d="M520.29,333.28,520.17,374c-4.07.4-8.2.67-12.34.81l.11-40.75q6.23-.21,12.35-.82"/>
              <path class="cls-7" d="M507.94,334.1l-.11,40.75c-3.92.14-7.86.15-11.79.06l.11-40.76c3.93.1,7.87.08,11.79,0"/>
              <path class="cls-6" d="M496.15,334.15,496,374.91q-5.75-.15-11.42-.61l.11-40.76c3.78.31,7.6.51,11.42.61"/>
              <path class="cls-5" d="M484.73,333.54l-.11,40.76q-5.64-.46-11.14-1.25l.12-40.76c3.66.52,7.38.94,11.13,1.25"/>
              <path class="cls-4" d="M473.6,332.29l-.12,40.76c-3.71-.52-7.37-1.16-10.94-1.9l.12-40.75c3.57.73,7.22,1.37,10.94,1.89"/>
              <path class="cls-13" d="M462.66,330.4l-.12,40.75c-3.74-.77-7.4-1.66-10.93-2.67l.12-40.76q5.29,1.51,10.93,2.68"/>
              <path class="cls-14" d="M451.73,327.72l-.12,40.76q-6-1.71-11.5-3.86l.12-40.76c3.64,1.43,7.49,2.72,11.5,3.86"/>
              <path class="cls-15" d="M440.23,323.86l-.12,40.76a92.7,92.7,0,0,1-12.25-5.84c-13-7.5-19.27-16.29-19.25-24.9l.12-40.76c0,8.62,6.26,17.4,19.25,24.9a92.7,92.7,0,0,0,12.25,5.84"/>
            </g>
          </g>
        </g>
        <g class="cls-2">
          <g class="cls-16">
            <g class="cls-2">
              <path class="cls-15" d="M548.16,346.49,548,387.25a6.71,6.71,0,0,0-1.55-4c-2.06-2.74-6.38-6.44-12.92-11.08l.11-40.76q9.83,7,12.92,11.09a6.74,6.74,0,0,1,1.56,4"/>
            </g>
          </g>
        </g>
        <g class="cls-2">
          <g class="cls-17">
            <g class="cls-2">
              <path class="cls-4" d="M592.56,351.39l-.12,40.75v.32l.11-40.76c0-.1,0-.21,0-.31"/>
              <path class="cls-5" d="M592.55,351.7l-.11,40.76a12,12,0,0,1-.23,2l.12-40.76a11.88,11.88,0,0,0,.22-2"/>
              <path class="cls-6" d="M592.33,353.69l-.12,40.76a10.57,10.57,0,0,1-.54,1.88l.12-40.75a12.69,12.69,0,0,0,.54-1.89"/>
              <path class="cls-7" d="M591.79,355.58l-.12,40.75a14.07,14.07,0,0,1-.88,1.9l.11-40.76a14,14,0,0,0,.89-1.89"/>
              <path class="cls-8" d="M590.9,357.47l-.11,40.76c-.26.45-.54.89-.86,1.34s-.56.77-.85,1.14L589.2,360c.29-.37.57-.75.85-1.14a15,15,0,0,0,.85-1.34"/>
              <path class="cls-9" d="M589.2,360l-.12,40.76a26.68,26.68,0,0,1-2.87,3.12l.11-40.76A26.75,26.75,0,0,0,589.2,360"/>
              <path class="cls-10" d="M586.32,363.07l-.11,40.76A25.72,25.72,0,0,1,582,407l.11-40.75a25.92,25.92,0,0,0,4.18-3.16"/>
              <path class="cls-11" d="M582.14,366.23,582,407c-.55.33-1.1.64-1.68.94a102,102,0,0,1-14.09,5.75l.12-40.76a102.54,102.54,0,0,0,14.09-5.75c.57-.29,1.13-.61,1.67-.93"/>
            </g>
          </g>
        </g>
        <polygon class="cls-18" points="566.38 372.91 566.26 413.67 478.52 443.07 478.64 402.31 566.38 372.91"/>
        <g class="cls-2">
          <g class="cls-19">
            <g class="cls-2">
              <path class="cls-4" d="M394.86,360.47l-.12,40.76v.45l.11-40.76c0-.15,0-.3,0-.45"/>
              <path class="cls-5" d="M394.85,360.92l-.11,40.76a18.16,18.16,0,0,1-.35,3l.12-40.76a18,18,0,0,0,.34-3"/>
              <path class="cls-6" d="M394.51,363.93l-.12,40.76a19.29,19.29,0,0,1-.85,3l.11-40.76a19.33,19.33,0,0,0,.86-3"/>
              <path class="cls-7" d="M393.65,366.91l-.11,40.76a21.85,21.85,0,0,1-1.45,3.07l.12-40.76a22.38,22.38,0,0,0,1.44-3.07"/>
              <path class="cls-8" d="M392.21,370l-.12,40.76a25.71,25.71,0,0,1-2.24,3.31L390,373.3a26.88,26.88,0,0,0,2.24-3.32"/>
              <path class="cls-9" d="M390,373.3l-.12,40.75a33.46,33.46,0,0,1-3.67,3.95l.11-40.76A34.31,34.31,0,0,0,390,373.3"/>
              <path class="cls-10" d="M386.29,377.24,386.18,418a50,50,0,0,1-8.23,6l.11-40.75a50.13,50.13,0,0,0,8.23-6.05"/>
              <path class="cls-11" d="M378.06,383.29,378,424A86,86,0,0,1,361,431.6l-1.26.41.12-40.75,1.25-.42a86.38,86.38,0,0,0,16.91-7.55"/>
              <path class="cls-10" d="M359.9,391.26,359.78,432a138.85,138.85,0,0,1-17.92,4.43l.11-40.76a140.25,140.25,0,0,0,17.93-4.42"/>
              <path class="cls-9" d="M342,395.68l-.11,40.76c-4.4.79-8.91,1.41-13.49,1.87l.12-40.76q6.87-.69,13.48-1.87"/>
              <path class="cls-8" d="M328.49,397.55l-.12,40.76c-4.07.4-8.2.67-12.36.81l.12-40.75c4.15-.14,8.28-.42,12.36-.82"/>
              <path class="cls-7" d="M316.13,398.37,316,439.12c-3.91.14-7.85.15-11.77.06l.11-40.76q5.89.15,11.78-.05"/>
              <path class="cls-6" d="M304.35,398.42l-.11,40.76c-3.83-.1-7.65-.3-11.43-.62l.12-40.75c3.78.31,7.6.51,11.42.61"/>
              <path class="cls-5" d="M292.93,397.81l-.12,40.75c-3.75-.31-7.48-.72-11.14-1.24l.12-40.76q5.49.78,11.14,1.25"/>
              <path class="cls-4" d="M281.79,396.56l-.12,40.76c-3.71-.53-7.37-1.16-10.94-1.9l.12-40.76q5.36,1.11,10.94,1.9"/>
              <path class="cls-13" d="M270.85,394.66l-.12,40.76c-3.75-.77-7.41-1.67-11-2.68L259.9,392c3.53,1,7.19,1.9,11,2.67"/>
              <path class="cls-14" d="M259.9,392l-.12,40.75c-4-1.14-7.89-2.44-11.55-3.88l.11-40.76c3.66,1.44,7.53,2.74,11.56,3.89"/>
              <path class="cls-15" d="M248.34,388.1l-.11,40.76a91.51,91.51,0,0,1-12.17-5.81c-13-7.5-19.28-16.29-19.26-24.9l.12-40.76c0,8.62,6.26,17.4,19.25,24.9a92.11,92.11,0,0,0,12.17,5.81"/>
            </g>
          </g>
        </g>
        <path class="cls-20" d="M375.61,335.57c30.52,17.62,24.05,42.37-14.46,55.27s-94.45,9.08-125-8.55-24-42.37,14.45-55.27S345.08,318,375.61,335.57Z"/>
        <g class="cls-2">
          <g class="cls-21">
            <g class="cls-2">
              <path class="cls-11" d="M478.64,402.31l-.12,40.76A56.86,56.86,0,0,0,467.45,448l.12-40.75a55.72,55.72,0,0,1,11.07-4.9"/>
              <path class="cls-10" d="M467.57,407.21,467.45,448a27.69,27.69,0,0,0-4.42,3.26l.12-40.76a27.07,27.07,0,0,1,4.42-3.25"/>
              <path class="cls-9" d="M463.15,410.46,463,451.22a19.24,19.24,0,0,0-1.92,2.06l.12-40.75a16.71,16.71,0,0,1,1.92-2.07"/>
              <path class="cls-8" d="M461.23,412.53l-.12,40.75a15.77,15.77,0,0,0-1.19,1.78l.11-40.75a13.23,13.23,0,0,1,1.2-1.78"/>
              <path class="cls-7" d="M460,414.31l-.11,40.75a12.73,12.73,0,0,0-.81,1.72l.12-40.76a12,12,0,0,1,.8-1.71"/>
              <path class="cls-6" d="M459.23,416l-.12,40.76a12,12,0,0,0-.5,1.75l.12-40.75a10.71,10.71,0,0,1,.5-1.76"/>
              <path class="cls-5" d="M458.73,417.78l-.12,40.75a11.06,11.06,0,0,0-.21,1.91l.11-40.76a11,11,0,0,1,.22-1.9"/>
              <path class="cls-4" d="M458.51,419.68l-.11,40.76c0,.1,0,.21,0,.31l.12-40.76v-.31"/>
            </g>
          </g>
        </g>
        <g class="cls-2">
          <g class="cls-22">
            <g class="cls-2">
              <path class="cls-15" d="M427.88,430l-.12,40.76q-7.14-8.72-8.37-16.11a30.7,30.7,0,0,1-.46-5.09l.12-40.76a31.63,31.63,0,0,0,.45,5.09q1.23,7.41,8.38,16.11"/>
            </g>
          </g>
        </g>
        <g class="cls-2">
          <g class="cls-23">
            <g class="cls-2">
              <path class="cls-4" d="M203,424.74l-.11,40.75c0,.16,0,.31,0,.46l.11-40.76c0-.15,0-.3,0-.45"/>
              <path class="cls-5" d="M203,425.19,202.92,466a17.78,17.78,0,0,1-.34,3l.11-40.76a16.81,16.81,0,0,0,.34-3"/>
              <path class="cls-6" d="M202.69,428.19,202.58,469a19.33,19.33,0,0,1-.86,3l.12-40.76a19.29,19.29,0,0,0,.85-3"/>
              <path class="cls-7" d="M201.84,431.17l-.12,40.76a22.65,22.65,0,0,1-1.43,3.05l.11-40.76a21.63,21.63,0,0,0,1.44-3.05"/>
              <path class="cls-8" d="M200.4,434.22,200.29,475a27.16,27.16,0,0,1-2.25,3.34l.11-40.76a25.08,25.08,0,0,0,2.25-3.34"/>
              <path class="cls-9" d="M198.15,437.56,198,478.32a34.36,34.36,0,0,1-3.63,3.89l.12-40.75a33.42,33.42,0,0,0,3.62-3.9"/>
              <path class="cls-10" d="M194.53,441.46l-.12,40.75a49.31,49.31,0,0,1-8.17,6l.11-40.75a50.58,50.58,0,0,0,8.18-6"/>
              <path class="cls-11" d="M186.35,447.49l-.11,40.75c-.37.23-.75.45-1.14.67l.12-40.76,1.13-.66"/>
            </g>
          </g>
        </g>
        <g class="cls-2">
          <g class="cls-24">
            <g class="cls-2">
              <path class="cls-4" d="M487.18,451.92l-.11,40.76v0l.11-40.76v0"/>
              <path class="cls-5" d="M487.18,452l-.11,40.76a1,1,0,0,1,0,.24l.12-40.75a2.29,2.29,0,0,0,0-.25"/>
              <path class="cls-6" d="M487.16,452.21,487,493a2,2,0,0,1-.07.26l.11-40.76a2.41,2.41,0,0,0,.08-.25"/>
              <path class="cls-7" d="M487.08,452.46,487,493.22a1.92,1.92,0,0,1-.14.29l.12-40.76a1.85,1.85,0,0,0,.13-.29"/>
              <path class="cls-8" d="M487,452.75l-.12,40.76a2.19,2.19,0,0,1-.23.33l.12-40.76a3.29,3.29,0,0,0,.23-.33"/>
              <path class="cls-9" d="M486.72,453.08l-.12,40.76a4.38,4.38,0,0,1-.42.46l.11-40.76a3.05,3.05,0,0,0,.43-.46"/>
              <path class="cls-10" d="M486.29,453.54l-.11,40.76a8.64,8.64,0,0,1-1.25.91l.11-40.76a8.12,8.12,0,0,0,1.25-.91"/>
              <path class="cls-11" d="M485,454.45l-.11,40.76a28,28,0,0,1-5.35,2.29l.12-40.76a27.87,27.87,0,0,0,5.34-2.29"/>
            </g>
          </g>
        </g>
        <polygon class="cls-18" points="479.7 456.74 479.58 497.5 470.17 500.65 470.28 459.9 479.7 456.74"/>
        <g class="cls-2">
          <g class="cls-25">
            <g class="cls-2">
              <path class="cls-11" d="M470.28,459.9l-.11,40.75-.48.16.11-40.76.48-.15"/>
              <path class="cls-10" d="M469.8,460.05l-.11,40.76a31,31,0,0,1-4,1l.11-40.76a30.22,30.22,0,0,0,4-1"/>
              <path class="cls-9" d="M465.83,461.07l-.11,40.76c-.56.1-1.1.17-1.61.23l.11-40.76c.52-.05,1.06-.13,1.61-.23"/>
              <path class="cls-8" d="M464.22,461.3l-.11,40.76c-.36,0-.71.06-1.05.07l.11-40.76c.34,0,.69,0,1.05-.07"/>
              <path class="cls-7" d="M463.17,461.37l-.11,40.76h-.81l.12-40.76h.8"/>
              <path class="cls-6" d="M462.37,461.37l-.12,40.76c-.23,0-.46,0-.68,0l.12-40.76c.22,0,.44,0,.68,0"/>
              <path class="cls-5" d="M461.69,461.34l-.12,40.76L461,502l-.1,0,.12-40.75h.1l.54.06"/>
              <path class="cls-4" d="M461.05,461.27,460.93,502c-.37,0-.74-.11-1.11-.19l.11-40.76c.37.08.74.14,1.12.2"/>
              <path class="cls-13" d="M459.93,461.07l-.11,40.76c-.44-.09-.86-.2-1.29-.32l.12-40.75c.42.12.85.22,1.28.31"/>
              <path class="cls-14" d="M458.65,460.76l-.12,40.75a17.67,17.67,0,0,1-1.69-.57l.11-40.76c.56.22,1.13.41,1.7.58"/>
              <path class="cls-15" d="M457,460.18l-.11,40.76a19.63,19.63,0,0,1-2.66-1.28c-2.19-1.27-6.07-3.2-11.66-5.82q-2.94-1.36-6.3-2.69l.12-40.76q3.36,1.32,6.3,2.69c5.58,2.62,9.47,4.55,11.66,5.82a19.52,19.52,0,0,0,2.65,1.28"/>
              <path class="cls-14" d="M436.34,450.39l-.12,40.76q-6.21-2.44-13.87-4.72l-3.27-1,.11-40.76c1.08.31,2.17.63,3.27,1q7.67,2.26,13.88,4.71"/>
              <path class="cls-13" d="M419.19,444.71l-.11,40.76q-6.21-1.77-12.07-3l.11-40.76q5.86,1.22,12.07,3"/>
              <path class="cls-4" d="M407.12,441.73,407,482.49c-2.94-.61-5.81-1.11-8.63-1.51l.12-40.76c2.81.4,5.69.91,8.62,1.51"/>
              <path class="cls-5" d="M398.5,440.22,398.38,481l-1.46-.2c-1.85-.24-3.64-.43-5.38-.57l.11-40.76c1.75.14,3.54.34,5.38.57l1.47.2"/>
              <path class="cls-6" d="M391.65,439.45l-.11,40.76q-2.82-.24-5.46-.3l.11-40.76c1.76.05,3.58.14,5.46.3"/>
              <path class="cls-7" d="M386.19,439.15l-.11,40.76c-1.61,0-3.18,0-4.69,0l.11-40.76c1.52-.05,3.08-.06,4.69,0"/>
              <path class="cls-8" d="M381.5,439.17l-.11,40.76c-1.49.05-2.93.14-4.32.28l.11-40.76c1.4-.14,2.84-.23,4.32-.28"/>
              <path class="cls-9" d="M377.18,439.45l-.11,40.76q-.68.06-1.32.15-6.9.83-10.88,1.55l.11-40.76q4-.72,10.88-1.55l1.32-.15"/>
              <path class="cls-10" d="M365,441.15l-.11,40.76c-.91.16-1.7.32-2.37.47-2.2.5-4.85,1.24-7.95,2.24l.11-40.76q4.66-1.49,7.95-2.24c.68-.15,1.47-.31,2.37-.47"/>
              <path class="cls-11" d="M354.66,443.86l-.11,40.76c-.69.22-1.4.45-2.13.7l.12-40.76,2.12-.7"/>
            </g>
          </g>
        </g>
        <g class="cls-2">
          <g class="cls-26">
            <g class="cls-2">
              <path class="cls-10" d="M154.13,459.18,154,499.93c-1.31.27-2.62.53-4,.77l.12-40.76c1.32-.24,2.64-.49,3.94-.76"/>
              <path class="cls-9" d="M150.19,459.94l-.12,40.76c-4.41.79-8.94,1.42-13.53,1.87l.12-40.75c4.59-.46,9.12-1.08,13.53-1.88"/>
              <path class="cls-8" d="M136.66,461.82l-.12,40.75q-6.1.62-12.34.82l.12-40.76c4.14-.14,8.27-.41,12.34-.81"/>
              <path class="cls-7" d="M124.32,462.63l-.12,40.76c-3.92.13-7.86.15-11.79.05l.12-40.76c3.93.1,7.87.09,11.79-.05"/>
              <path class="cls-6" d="M112.53,462.68l-.12,40.76c-3.82-.09-7.64-.3-11.42-.61l.11-40.76q5.69.46,11.43.61"/>
              <path class="cls-5" d="M101.1,462.07,101,502.83q-5.64-.46-11.14-1.24L90,460.83c3.66.52,7.38.93,11.13,1.24"/>
              <path class="cls-4" d="M90,460.83l-.12,40.76q-5.56-.79-10.93-1.9L79,458.93c3.56.74,7.22,1.37,10.93,1.9"/>
              <path class="cls-13" d="M79,458.93l-.12,40.76C75.18,498.92,71.53,498,68,497l.12-40.76c3.52,1,7.17,1.9,10.92,2.67"/>
              <path class="cls-14" d="M68.12,456.26,68,497c-4-1.14-7.89-2.44-11.54-3.88l.11-40.76c3.66,1.44,7.52,2.74,11.55,3.88"/>
              <path class="cls-15" d="M56.57,452.38l-.11,40.76a92.24,92.24,0,0,1-12.22-5.82C31.26,479.82,25,471,25,462.42l.12-40.76c0,8.62,6.26,17.4,19.25,24.9a91.45,91.45,0,0,0,12.21,5.82"/>
            </g>
          </g>
        </g>
        <g class="cls-2">
          <g class="cls-27">
            <g class="cls-2">
              <path class="cls-14" d="M186.62,472.25,186.51,513q-6.88-2-14.21-4.93l.12-40.75q7.32,2.88,14.2,4.93"/>
              <path class="cls-15" d="M172.42,467.32l-.12,40.75q-8.82-3.46-18.28-8.14l.11-40.75q9.47,4.67,18.29,8.14"/>
            </g>
          </g>
        </g>
        <polygon class="cls-18" points="352.54 444.56 352.42 485.32 267.99 513.61 268.11 472.85 352.54 444.56"/>
        <g class="cls-2">
          <g class="cls-28">
            <g class="cls-2">
              <path class="cls-11" d="M268.11,472.85,268,513.61q-2.64.89-4.73,1.55l.11-40.76q2.08-.66,4.74-1.55"/>
              <path class="cls-10" d="M263.37,474.4l-.11,40.76c-1.68.54-3.09,1-4.21,1.3q-3.09.88-11.71,2.45l-.13,0,.11-40.76.13,0q8.61-1.57,11.71-2.46c1.13-.32,2.53-.76,4.21-1.3"/>
              <path class="cls-9" d="M247.32,478.18l-.11,40.76c-2.69.48-5.29.85-7.82,1.1l.12-40.76q3.8-.37,7.81-1.1"/>
              <path class="cls-8" d="M239.51,479.28,239.39,520c-1.84.18-3.63.3-5.39.36l.12-40.76c1.75-.06,3.55-.18,5.39-.36"/>
              <path class="cls-7" d="M234.12,479.64,234,520.4c-1,0-1.91.05-2.85,0l-1.51,0,.11-40.76,1.51,0c.94,0,1.89,0,2.86-.05"/>
              <path class="cls-6" d="M229.75,479.66l-.11,40.76c-1.85,0-3.88-.16-6.11-.34l.12-40.76c2.22.18,4.26.3,6.1.34"/>
              <path class="cls-5" d="M223.65,479.32l-.12,40.76q-5.24-.44-11.89-1.38l.12-40.76q6.65.94,11.89,1.38"/>
              <path class="cls-4" d="M211.76,477.94l-.12,40.76-.36-.05c-3.07-.44-6.14-1-9.23-1.62l.11-40.75c3.09.64,6.17,1.17,9.24,1.61l.36.05"/>
              <path class="cls-13" d="M202.16,476.28,202.05,517q-5.75-1.18-11.53-2.83l.11-40.76q5.79,1.65,11.53,2.84"/>
              <path class="cls-14" d="M190.63,473.44l-.11,40.76c-1.34-.38-2.67-.78-4-1.2l.11-40.75c1.34.41,2.68.81,4,1.19"/>
            </g>
          </g>
        </g>
        <path class="cls-20" d="M567.41,271.31c26.63,15.37,25.1,36.16-1.28,49.78a124.76,124.76,0,0,1,13.58,10.55q10.18,9.3,12.17,15.54a12.58,12.58,0,0,1-1.83,11.63,26.25,26.25,0,0,1-9.58,8.35,102.54,102.54,0,0,1-14.09,5.75l-87.74,29.4q-23.46,7.86-19.58,21.46a28.8,28.8,0,0,0,9.59,14.47,67.65,67.65,0,0,0,9.75,7.12,29.51,29.51,0,0,0,3,1.54,22.16,22.16,0,0,1,2.39,1.19c2.06,1.19,3.18,2.38,3.39,3.59q.39,2.43-7.47,5.06l-9.42,3.16c-3.71,1.24-6.76,1.7-9.13,1.38a18.68,18.68,0,0,1-6.85-2.38c-2.19-1.27-6.08-3.2-11.66-5.82a147.24,147.24,0,0,0-20.18-7.4A157.61,157.61,0,0,0,397,440a85.67,85.67,0,0,0-21.17-.42q-9.24,1.13-13.25,2t-10.07,2.94l-84.43,28.29c-3.9,1.31-6.9,2.26-8.95,2.85s-6,1.41-11.71,2.46a89.16,89.16,0,0,1-16.19,1.53,152,152,0,0,1-19.86-1.8,159,159,0,0,1-24.78-5.64,209.81,209.81,0,0,1-32.49-13.07c-36.92,7.65-83.07,2.79-109.77-12.62-30.52-17.62-24-42.37,14.45-55.27s94.46-9.07,125,8.55c25.69,14.83,25.17,34.7,1.43,48.31a136.29,136.29,0,0,0,20.67,8.22,50.56,50.56,0,0,0,30.34-.45l85.44-28.63q9-3,16-4.62a167.7,167.7,0,0,1,20.57-2.87A134.26,134.26,0,0,1,389.37,421,253.82,253.82,0,0,1,427.88,430q-7.15-8.72-8.38-16.11t.91-11.85q2.14-4.44,8.9-8.6a66.27,66.27,0,0,1,10.52-5.57c2.51-.94,6.09-2.19,10.79-3.77L537.55,355q14.67-4.92,9.05-12.45-3.09-4.12-12.92-11.09c-36.18,6.51-80,1.46-105.7-13.4-30.52-17.62-24.06-42.36,14.45-55.27S536.89,253.68,567.41,271.31Z"/>
      </g>
      <g class="cls-2">
        <g class="cls-2">
          <g class="cls-29">
            <g class="cls-2">
              <path class="cls-15" d="M503.14,486,503,526.75a1.13,1.13,0,0,1-.06-.36l.12-40.75a1.34,1.34,0,0,0,.05.35"/>
            </g>
          </g>
        </g>
        <g class="cls-2">
          <g class="cls-30">
            <g class="cls-2">
              <path class="cls-15" d="M811.79,491.12l-.11,40.76q-8.37-4.23-15.21-6.93l.11-40.76q6.84,2.7,15.21,6.93"/>
              <path class="cls-14" d="M796.58,484.19,796.47,525c-3.05-1.2-5.86-2.16-8.45-2.9l.11-40.76q3.89,1.11,8.45,2.9"/>
              <path class="cls-13" d="M788.13,481.29,788,522.05c-1.39-.4-2.71-.73-4-1l-.21,0,.11-40.76.21,0c1.26.27,2.58.6,4,1"/>
              <path class="cls-4" d="M784,480.26,783.84,521c-1.42-.3-2.83-.54-4.22-.74l.12-40.76c1.39.2,2.79.44,4.21.74"/>
              <path class="cls-5" d="M779.74,479.52l-.12,40.76c-1.21-.17-2.41-.31-3.59-.4l.11-40.76c1.19.1,2.39.23,3.6.4"/>
              <path class="cls-6" d="M776.14,479.12,776,519.88q-1.66-.15-3.3-.18l.12-40.76c1.08,0,2.18.09,3.29.18"/>
              <path class="cls-7" d="M772.85,478.94l-.12,40.76c-1.08,0-2.15,0-3.21,0l.12-40.76c1.06,0,2.13,0,3.21,0"/>
              <path class="cls-8" d="M769.64,479l-.12,40.76c-1.12,0-2.24.11-3.34.22l.12-40.76c1.1-.1,2.21-.18,3.34-.22"/>
              <path class="cls-9" d="M766.3,479.17l-.12,40.76q-1.95.2-3.87.54l.12-40.76q1.91-.34,3.87-.54"/>
              <path class="cls-10" d="M762.43,479.71l-.12,40.76a48.6,48.6,0,0,0-6.13,1.53l.11-40.76a48.75,48.75,0,0,1,6.14-1.53"/>
              <path class="cls-11" d="M756.29,481.24,756.18,522l-.57.19.11-40.76.57-.19"/>
            </g>
          </g>
        </g>
        <polygon class="cls-18" points="755.73 481.43 755.61 522.19 677.66 548.3 677.77 507.54 755.73 481.43"/>
        <g class="cls-2">
          <g class="cls-31">
            <g class="cls-2">
              <path class="cls-15" d="M532.66,517.45l-.12,40.76q0-6.63-5.8-12.15a160.3,160.3,0,0,0-15.52-12.92c-5.52-4-8.24-6.17-8.19-6.39l.11-40.76c-.05.22,2.67,2.35,8.2,6.39a161.38,161.38,0,0,1,15.51,12.92q5.83,5.52,5.81,12.15"/>
            </g>
          </g>
        </g>
        <g class="cls-2">
          <g class="cls-32">
            <g class="cls-2">
              <path class="cls-11" d="M677.77,507.54l-.11,40.76c-.82.27-2.12.76-3.91,1.46s-3.09,1.18-3.9,1.45-1.76.59-2.62.86l.12-40.76c.86-.27,1.73-.56,2.61-.85s2.11-.76,3.91-1.46,3.09-1.18,3.9-1.46"/>
              <path class="cls-10" d="M667.35,511.31l-.12,40.76q-7.53,2.41-13.84,3.78c-.91.2-1.88.39-2.93.58l.12-40.76c1-.19,2-.38,2.93-.58q6.32-1.37,13.84-3.78"/>
              <path class="cls-9" d="M650.58,515.67l-.12,40.76q-6,1.07-14.91,2l.12-40.76q8.94-.89,14.91-2"/>
              <path class="cls-8" d="M635.67,517.63l-.12,40.76-3,.28c-1.74.16-3.53.27-5.39.34l.12-40.76c1.85-.06,3.65-.18,5.39-.33l3-.29"/>
              <path class="cls-7" d="M627.26,518.25,627.14,559q-3.27.11-6.78,0l.12-40.76c2.33.06,4.6.05,6.78,0"/>
              <path class="cls-6" d="M620.48,518.27,620.36,559c-2.6-.07-5.31-.21-8.1-.44l.11-40.76q4.2.34,8.11.44"/>
              <path class="cls-5" d="M612.37,517.83l-.11,40.76c-3.35-.28-6.83-.67-10.44-1.19l.11-40.75q5.43.76,10.44,1.18"/>
              <path class="cls-4" d="M601.93,516.65l-.11,40.75-.57-.08q-6.43-.93-13.22-2.33l.12-40.76q6.78,1.41,13.21,2.33l.57.09"/>
              <path class="cls-13" d="M588.15,514.23,588,555q-9.72-2-20.18-5l.11-40.76q10.47,3,20.19,5"/>
              <path class="cls-14" d="M568,509.24,567.85,550c-1.68-.48-3.36-1-5.07-1.49l.12-40.76c1.7.52,3.39,1,5.06,1.49"/>
            </g>
          </g>
        </g>
        <g class="cls-2">
          <g class="cls-33">
            <g class="cls-2">
              <path class="cls-4" d="M571.59,529.24,571.47,570c0,.18,0,.37,0,.55l.12-40.76c0-.18,0-.36,0-.55"/>
              <path class="cls-5" d="M571.58,529.79l-.12,40.76a16.92,16.92,0,0,1-.31,2.85l.12-40.76a16.92,16.92,0,0,0,.31-2.85"/>
              <path class="cls-6" d="M571.27,532.64l-.12,40.76a12.35,12.35,0,0,1-.57,2l.12-40.75a12.76,12.76,0,0,0,.57-2"/>
              <path class="cls-7" d="M570.7,534.66l-.12,40.75a8.85,8.85,0,0,1-.4.94c-.12.26-.25.51-.39.76l.11-40.75c.14-.26.28-.51.4-.77s.28-.61.4-.93"/>
              <path class="cls-8" d="M569.9,536.36l-.11,40.75a16.14,16.14,0,0,1-1.26,1.87l.11-40.76a13.86,13.86,0,0,0,1.26-1.86"/>
              <path class="cls-9" d="M568.64,538.22,568.53,579a20.07,20.07,0,0,1-2.21,2.37l.12-40.76a20,20,0,0,0,2.2-2.37"/>
              <path class="cls-10" d="M566.44,540.59l-.12,40.76a32.93,32.93,0,0,1-4.7,3.57c-.83.53-1.62,1-2.39,1.49l.12-40.76c.76-.46,1.56-1,2.39-1.49a34.1,34.1,0,0,0,4.7-3.57"/>
              <path class="cls-11" d="M559.35,545.65l-.12,40.76a50.68,50.68,0,0,1-8,4.11q-3.94,1.47-11,3.81l.12-40.76q7-2.34,10.94-3.81a49.87,49.87,0,0,0,8-4.11"/>
            </g>
          </g>
        </g>
        <g class="cls-2">
          <g class="cls-34">
            <g class="cls-2">
              <path class="cls-4" d="M971,518.11l-.12,40.76v.44l.11-40.75c0-.15,0-.3,0-.45"/>
              <path class="cls-5" d="M971,518.56l-.11,40.75a18,18,0,0,1-.35,3l.12-40.76a17.9,17.9,0,0,0,.34-3"/>
              <path class="cls-6" d="M970.66,521.56l-.12,40.76a19.29,19.29,0,0,1-.85,3l.11-40.76a19,19,0,0,0,.86-3"/>
              <path class="cls-7" d="M969.8,524.54l-.11,40.76a21.34,21.34,0,0,1-1.45,3.07l.12-40.76a22.38,22.38,0,0,0,1.44-3.07"/>
              <path class="cls-8" d="M968.36,527.61l-.12,40.76a26.77,26.77,0,0,1-2.23,3.32l.11-40.76a25.8,25.8,0,0,0,2.24-3.32"/>
              <path class="cls-9" d="M966.12,530.93,966,571.69a34.31,34.31,0,0,1-3.68,3.94l.12-40.76a33.39,33.39,0,0,0,3.67-3.94"/>
              <path class="cls-10" d="M962.45,534.87l-.12,40.76a49.53,49.53,0,0,1-8.23,6l.12-40.75a50.13,50.13,0,0,0,8.23-6"/>
              <path class="cls-11" d="M954.22,540.92l-.12,40.75a85.78,85.78,0,0,1-16.91,7.56l-1.26.42.12-40.76,1.26-.42a86.65,86.65,0,0,0,16.91-7.55"/>
              <path class="cls-10" d="M936.05,548.89l-.12,40.76A140.25,140.25,0,0,1,918,594.07l.12-40.76a138.6,138.6,0,0,0,17.93-4.42"/>
              <path class="cls-9" d="M918.12,553.31,918,594.07c-4.39.79-8.9,1.42-13.48,1.87l.12-40.76c4.57-.45,9.08-1.07,13.48-1.87"/>
              <path class="cls-8" d="M904.64,555.18l-.12,40.76c-4.08.4-8.21.68-12.36.82l.12-40.76c4.15-.14,8.28-.41,12.36-.82"/>
              <path class="cls-7" d="M892.28,556l-.12,40.76c-3.91.13-7.85.15-11.77,0l.12-40.76q5.88.15,11.77,0"/>
              <path class="cls-6" d="M880.51,556.05l-.12,40.76q-5.75-.15-11.43-.61l.12-40.76c3.78.31,7.6.52,11.43.61"/>
              <path class="cls-5" d="M869.08,555.44,869,596.2c-3.75-.31-7.47-.73-11.13-1.25l.11-40.75q5.49.76,11.14,1.24"/>
              <path class="cls-4" d="M857.94,554.2,857.83,595c-3.72-.52-7.37-1.16-10.94-1.89L847,552.3c3.57.74,7.23,1.37,10.94,1.9"/>
              <path class="cls-13" d="M847,552.3l-.11,40.76c-3.76-.78-7.42-1.67-10.95-2.68l.11-40.76c3.54,1,7.2,1.9,11,2.68"/>
              <path class="cls-14" d="M836.05,549.62l-.11,40.76c-4-1.15-7.9-2.45-11.55-3.89l.11-40.76c3.66,1.44,7.52,2.74,11.55,3.89"/>
              <path class="cls-15" d="M824.5,545.73l-.11,40.76a91,91,0,0,1-12.18-5.81c-13-7.49-19.27-16.27-19.24-24.89l.11-40.75c0,8.61,6.27,17.39,19.25,24.89a92.09,92.09,0,0,0,12.17,5.8"/>
            </g>
          </g>
        </g>
        <polygon class="cls-18" points="540.4 553.57 540.28 594.33 454.24 623.16 454.35 582.4 540.4 553.57"/>
        <g class="cls-2">
          <g class="cls-35">
            <g class="cls-2">
              <path class="cls-11" d="M454.35,582.4l-.11,40.76a37.58,37.58,0,0,0-7.39,3.19l.12-40.76a38.34,38.34,0,0,1,7.38-3.19"/>
              <path class="cls-10" d="M447,585.59l-.12,40.76a11.3,11.3,0,0,0-1.89,1.39l.11-40.76a11.56,11.56,0,0,1,1.9-1.39"/>
              <path class="cls-9" d="M445.07,587,445,627.74a5.5,5.5,0,0,0-.67.71l.12-40.76a6.11,6.11,0,0,1,.66-.71"/>
              <path class="cls-8" d="M444.41,587.69l-.12,40.76,0,0a2.13,2.13,0,0,0-.16.25l.11-40.76.17-.25,0,0"/>
              <path class="cls-7" d="M444.22,588l-.11,40.76a1.92,1.92,0,0,0-.14.29l.12-40.75a1.6,1.6,0,0,1,.13-.3"/>
              <path class="cls-6" d="M444.09,588.26,444,629a3.57,3.57,0,0,0-.1.35L444,588.6a1.33,1.33,0,0,1,.1-.34"/>
              <path class="cls-5" d="M444,588.6l-.12,40.76a3.12,3.12,0,0,0-.05.44l.12-40.75a2.14,2.14,0,0,1,.05-.45"/>
              <path class="cls-4" d="M443.94,589.05l-.12,40.75v.08l.12-40.76v-.07"/>
            </g>
          </g>
        </g>
        <g class="cls-2">
          <g class="cls-36">
            <g class="cls-2">
              <path class="cls-15" d="M429.84,618.75l-.11,40.76a133.34,133.34,0,0,1-17.43-13.1Q402.25,637.2,400.24,631a13.89,13.89,0,0,1-.7-4.33l.11-40.75a14,14,0,0,0,.71,4.33q2,6.22,12.06,15.43a132.29,132.29,0,0,0,17.42,13.1"/>
            </g>
          </g>
        </g>
        <g class="cls-2">
          <g class="cls-37">
            <g class="cls-2">
              <path class="cls-4" d="M779.2,582.37l-.11,40.76c0,.15,0,.3,0,.45l.12-40.76v-.45"/>
              <path class="cls-5" d="M779.2,582.82l-.12,40.76a18,18,0,0,1-.34,3l.11-40.76a18,18,0,0,0,.35-3"/>
              <path class="cls-6" d="M778.85,585.83l-.11,40.76a19.33,19.33,0,0,1-.86,3l.12-40.76a19.29,19.29,0,0,0,.85-3"/>
              <path class="cls-7" d="M778,588.81l-.12,40.76a23,23,0,0,1-1.44,3.07l.11-40.76a21.34,21.34,0,0,0,1.45-3.07"/>
              <path class="cls-8" d="M776.55,591.88l-.11,40.76A25.71,25.71,0,0,1,774.2,636l.12-40.75a26.77,26.77,0,0,0,2.23-3.32"/>
              <path class="cls-9" d="M774.32,595.2,774.2,636a33.57,33.57,0,0,1-3.68,3.95l.12-40.76a35.22,35.22,0,0,0,3.68-3.94"/>
              <path class="cls-10" d="M770.64,599.14l-.12,40.76a49.68,49.68,0,0,1-8.23,6l.12-40.75a50.13,50.13,0,0,0,8.23-6.05"/>
              <path class="cls-11" d="M762.41,605.19l-.12,40.75a85.78,85.78,0,0,1-16.91,7.56l-1.25.41.11-40.75,1.26-.42a86.65,86.65,0,0,0,16.91-7.55"/>
              <path class="cls-10" d="M744.24,613.16l-.11,40.75a138.6,138.6,0,0,1-17.93,4.43l.12-40.76a140.51,140.51,0,0,0,17.92-4.42"/>
              <path class="cls-9" d="M726.32,617.58l-.12,40.76c-4.4.79-8.91,1.41-13.48,1.87l.11-40.76c4.58-.45,9.09-1.08,13.49-1.87"/>
              <path class="cls-8" d="M712.83,619.45l-.11,40.76c-4.08.4-8.21.67-12.36.82l.11-40.76c4.15-.14,8.29-.42,12.36-.82"/>
              <path class="cls-7" d="M700.47,620.27,700.36,661q-5.88.19-11.78.05l.12-40.76c3.92.1,7.86.08,11.77-.05"/>
              <path class="cls-6" d="M688.7,620.32l-.12,40.76c-3.82-.1-7.64-.3-11.43-.61l.12-40.76c3.78.31,7.6.51,11.43.61"/>
              <path class="cls-5" d="M677.27,619.71l-.12,40.76c-3.75-.31-7.47-.73-11.13-1.25l.11-40.76q5.49.78,11.14,1.25"/>
              <path class="cls-4" d="M666.13,618.46,666,659.22c-3.72-.52-7.38-1.16-10.94-1.9l.11-40.75c3.57.73,7.23,1.37,10.94,1.89"/>
              <path class="cls-13" d="M655.19,616.57l-.11,40.75c-3.76-.77-7.42-1.67-11-2.67l.12-40.76c3.53,1,7.2,1.9,11,2.68"/>
              <path class="cls-14" d="M644.24,613.89l-.12,40.76c-4-1.15-7.89-2.45-11.55-3.89l.12-40.76c3.66,1.44,7.52,2.74,11.55,3.89"/>
              <path class="cls-15" d="M632.69,610l-.12,40.76A92.11,92.11,0,0,1,620.4,645c-13-7.5-19.28-16.28-19.25-24.9l.11-40.76c0,8.62,6.27,17.4,19.25,24.9A92.25,92.25,0,0,0,632.69,610"/>
            </g>
          </g>
        </g>
        <path class="cls-20" d="M760,557.47c30.53,17.63,24,42.37-14.45,55.27s-94.46,9.08-125-8.55-24-42.37,14.45-55.26S729.43,539.85,760,557.47Z"/>
        <path class="cls-20" d="M951.75,493.21c30.53,17.62,24.06,42.36-14.44,55.26s-94.46,9.08-125-8.54c-26-15-25.14-35.18-.54-48.81q-16.95-8.58-27.63-10.82-15.42-3.24-28.44,1.13l-78,26.11c-.81.28-2.11.76-3.9,1.46s-3.09,1.18-3.91,1.46a158.19,158.19,0,0,1-16.45,4.63,183.53,183.53,0,0,1-20.86,2.83q-13.47,1.22-31.29-1.36a263.76,263.76,0,0,1-38.46-8.81q6.76,8.84,8.14,16.12t-.74,11.72q-2.12,4.44-8.56,8.57a59.5,59.5,0,0,1-10.4,5.6q-3.95,1.47-10.94,3.81l-86,28.83c-5.25,1.76-8.57,3.54-10,5.31s.41,5.37,5.39,10.76a75.47,75.47,0,0,0,12.16,10c36.28-6.64,80.36-1.61,106.2,13.31,30.52,17.62,24.05,42.37-14.45,55.27s-94.46,9.08-125-8.55c-26.58-15.34-25.1-36.08,1.13-49.71a132.29,132.29,0,0,1-17.42-13.1q-10.05-9.21-12.06-15.43A12.77,12.77,0,0,1,402,578.56a25.23,25.23,0,0,1,9.43-8.38,103,103,0,0,1,14-5.72l88.87-29.78q16.17-5.41,17.94-14t-5.46-15.41a161.38,161.38,0,0,0-15.51-12.92c-5.53-4-8.25-6.17-8.2-6.39q-.61-2.12,6.17-4.4L520.16,478c4.79-1.6,8.39-2.06,10.83-1.36s6.94,2.77,13.54,6.2a135.7,135.7,0,0,0,24.31,9.39,157.77,157.77,0,0,0,25.49,5.63,84.19,84.19,0,0,0,21.2.35c6.13-.79,10.53-1.51,13.16-2.15s6-1.64,10.07-3l85.08-28.5c3.91-1.31,6.91-2.27,9-2.86s5.91-1.39,11.54-2.4a89.78,89.78,0,0,1,16.39-1.45,170,170,0,0,1,45.08,7.44,215.36,215.36,0,0,1,36.89,15.22C879.51,473,925.23,477.89,951.75,493.21Z"/>
        <g class="cls-2">
          <g class="cls-38">
            <g class="cls-2">
              <path class="cls-4" d="M587.39,646.64l-.11,40.76c0,.15,0,.3,0,.45l.12-40.76v-.45"/>
              <path class="cls-5" d="M587.39,647.09l-.12,40.76a18.14,18.14,0,0,1-.34,3L587,650.1a18,18,0,0,0,.35-3"/>
              <path class="cls-6" d="M587,650.1l-.11,40.76a19.22,19.22,0,0,1-.86,3l.12-40.75a19.29,19.29,0,0,0,.85-3"/>
              <path class="cls-7" d="M586.19,653.08l-.12,40.75a22.49,22.49,0,0,1-1.44,3.08l.11-40.76a21.85,21.85,0,0,0,1.45-3.07"/>
              <path class="cls-8" d="M584.74,656.15l-.11,40.76a26.78,26.78,0,0,1-2.24,3.31l.11-40.76a25.71,25.71,0,0,0,2.24-3.31"/>
              <path class="cls-9" d="M582.5,659.46l-.11,40.76a33.51,33.51,0,0,1-3.68,3.94l.12-40.76a33.39,33.39,0,0,0,3.67-3.94"/>
              <path class="cls-10" d="M578.83,663.4l-.12,40.76a50,50,0,0,1-8.22,6.05l.11-40.76a49.56,49.56,0,0,0,8.23-6.05"/>
              <path class="cls-11" d="M570.6,669.45l-.11,40.76a86.48,86.48,0,0,1-16.92,7.55c-.42.15-.84.29-1.27.42l.12-40.76,1.27-.41a87,87,0,0,0,16.91-7.56"/>
              <path class="cls-10" d="M552.42,677.42l-.12,40.76a138.6,138.6,0,0,1-17.93,4.43l.12-40.76a138.6,138.6,0,0,0,17.93-4.43"/>
              <path class="cls-9" d="M534.49,681.85l-.12,40.76c-4.39.79-8.9,1.41-13.48,1.87l.12-40.76c4.57-.46,9.08-1.08,13.48-1.87"/>
              <path class="cls-8" d="M521,683.72l-.12,40.76c-4.07.4-8.2.67-12.36.81l.12-40.75c4.15-.15,8.28-.42,12.36-.82"/>
              <path class="cls-7" d="M508.65,684.54l-.12,40.75c-3.91.14-7.84.15-11.77.06l.12-40.76c3.92.1,7.86.08,11.77-.05"/>
              <path class="cls-6" d="M496.88,684.59l-.12,40.76c-3.82-.1-7.64-.3-11.42-.62l.11-40.75q5.69.46,11.43.61"/>
              <path class="cls-5" d="M485.45,684l-.11,40.75q-5.64-.47-11.14-1.24l.12-40.76c3.66.52,7.38.94,11.13,1.25"/>
              <path class="cls-4" d="M474.32,682.73l-.12,40.76c-3.71-.53-7.37-1.16-10.94-1.9l.12-40.75c3.57.73,7.22,1.37,10.94,1.89"/>
              <path class="cls-13" d="M463.38,680.84l-.12,40.75c-3.75-.77-7.41-1.67-10.95-2.67l.12-40.76c3.53,1,7.19,1.9,10.95,2.68"/>
              <path class="cls-14" d="M452.43,678.16l-.12,40.76c-4-1.15-7.89-2.45-11.55-3.89l.12-40.76c3.66,1.44,7.52,2.74,11.55,3.89"/>
              <path class="cls-15" d="M440.88,674.27,440.76,715a92.11,92.11,0,0,1-12.17-5.81c-13-7.5-19.27-16.28-19.25-24.89l.12-40.76c0,8.61,6.26,17.4,19.25,24.89a91.51,91.51,0,0,0,12.17,5.81"/>
            </g>
          </g>
        </g>
      </g>
    </g>
    <g>
      <g class="cls-2">
        <g class="cls-2">
          <g class="cls-39">
            <g class="cls-2">
              <path class="cls-15" d="M602.6,737.6l-.12,40.76a10.65,10.65,0,0,1-1.17-4.43l.11-40.76a10.49,10.49,0,0,0,1.18,4.43"/>
            </g>
          </g>
        </g>
        <polygon class="cls-40" points="821.81 784.16 821.7 824.92 628.98 783.9 629.1 743.15 821.81 784.16"/>
        <g class="cls-2">
          <g class="cls-41">
            <g class="cls-2">
              <path class="cls-4" d="M843.11,780.49,843,821.25v.09l.11-40.75v-.1"/>
              <path class="cls-5" d="M843.11,780.59,843,821.34a3.81,3.81,0,0,1-.07.59l.12-40.76a2.86,2.86,0,0,0,.06-.58"/>
              <path class="cls-6" d="M843.05,781.17l-.12,40.76a4.61,4.61,0,0,1-.15.53l.11-40.76a3.24,3.24,0,0,0,.16-.53"/>
              <path class="cls-7" d="M842.89,781.7l-.11,40.76a4,4,0,0,1-.24.51l.12-40.76a2.94,2.94,0,0,0,.23-.51"/>
              <path class="cls-8" d="M842.66,782.21,842.54,823a4.41,4.41,0,0,1-.35.53l.11-40.76a4.5,4.5,0,0,0,.36-.53"/>
              <path class="cls-9" d="M842.3,782.74l-.11,40.76a6.14,6.14,0,0,1-.56.6l.12-40.76a6,6,0,0,0,.55-.6"/>
              <path class="cls-10" d="M841.75,783.34l-.12,40.76a7.8,7.8,0,0,1-1.24.91l.12-40.76a7.8,7.8,0,0,0,1.24-.91"/>
              <path class="cls-11" d="M840.51,784.25,840.39,825l-.14.09a10,10,0,0,1-2,.88l.12-40.76a10.18,10.18,0,0,0,2-.88l.15-.09"/>
              <path class="cls-10" d="M838.35,785.22,838.23,826a13.37,13.37,0,0,1-1.71.42l.12-40.76a11.25,11.25,0,0,0,1.71-.42"/>
              <path class="cls-9" d="M836.64,785.64l-.12,40.76c-.42.08-.85.14-1.3.18l.11-40.76c.45,0,.89-.1,1.31-.18"/>
              <path class="cls-8" d="M835.33,785.82l-.11,40.76c-.35,0-.71.06-1.09.08l-.48,0,.12-40.76.48,0c.37,0,.73,0,1.08-.08"/>
              <path class="cls-7" d="M833.77,785.92l-.12,40.76c-.8,0-1.54,0-2.21,0l.12-40.75c.67,0,1.4,0,2.21,0"/>
              <path class="cls-6" d="M831.56,785.94l-.12,40.75q-.69,0-1.29-.06l.11-40.76,1.3.07"/>
              <path class="cls-5" d="M830.26,785.87l-.11,40.76-.87-.1.12-40.76.86.1"/>
              <path class="cls-4" d="M829.4,785.77l-.12,40.76-.63-.11.12-40.75.63.1"/>
              <path class="cls-13" d="M828.77,785.67l-.12,40.75h-.09q-1.87-.42-6.86-1.49l.11-40.76q5,1.07,6.87,1.49l.09,0"/>
            </g>
          </g>
        </g>
        <polygon class="cls-42" points="648.13 839.83 648.01 880.59 602.48 778.36 602.6 737.6 648.13 839.83"/>
        <path class="cls-20" d="M839.7,775.58a6.09,6.09,0,0,1,3.38,4.35c.24,1.74-.66,3.21-2.72,4.41a13.31,13.31,0,0,1-6.11,1.56,23.36,23.36,0,0,1-5.57-.25q-1.87-.42-6.87-1.49l-192.71-41c1.38,2.8,2.34,4.85,2.9,6.13l37.77,86.28q2.6,6.44-1.88,9a15.26,15.26,0,0,1-7.85,1.85,16,16,0,0,1-8.06-2c-1.1-.64-2.39-2.18-3.85-4.62L602.6,737.6c-2-4.28-1.42-7.36,1.81-9.24a13.33,13.33,0,0,1,2.64-1.17,10.23,10.23,0,0,1,3-.48l2.85,0A20,20,0,0,1,616,727l2.69.42c.59.09,1.51.26,2.75.5a13.42,13.42,0,0,1,2.08.49l209.27,45.11A25.7,25.7,0,0,1,839.7,775.58Z"/>
        <g class="cls-2">
          <g class="cls-43">
            <g class="cls-2">
              <path class="cls-4" d="M670.73,839.78l-.12,40.76v.18l.11-40.76a1.09,1.09,0,0,1,0-.18"/>
              <path class="cls-5" d="M670.72,840l-.11,40.76a5.69,5.69,0,0,1-.12,1l.12-40.76a6.63,6.63,0,0,0,.11-1"/>
              <path class="cls-6" d="M670.61,841l-.12,40.76a4.42,4.42,0,0,1-.23.81l.12-40.75a5.19,5.19,0,0,0,.23-.82"/>
              <path class="cls-7" d="M670.38,841.81l-.12,40.75a4.32,4.32,0,0,1-.32.69l.12-40.76a6,6,0,0,0,.32-.68"/>
              <path class="cls-8" d="M670.06,842.49l-.12,40.76a4.31,4.31,0,0,1-.42.63l.12-40.76a6.9,6.9,0,0,0,.42-.63"/>
              <path class="cls-9" d="M669.64,843.12l-.12,40.76a5.51,5.51,0,0,1-.57.62l.11-40.76a4.84,4.84,0,0,0,.58-.62"/>
              <path class="cls-10" d="M669.06,843.74,669,884.5a7.45,7.45,0,0,1-1.07.8l.11-40.76a6.35,6.35,0,0,0,1.07-.8"/>
              <path class="cls-11" d="M668,844.54l-.11,40.76-.1.06a12.68,12.68,0,0,1-2.49,1.09l.12-40.75a13.53,13.53,0,0,0,2.48-1.1l.1-.06"/>
              <path class="cls-10" d="M665.41,845.7l-.12,40.75a14,14,0,0,1-1.91.48l.12-40.76a16.15,16.15,0,0,0,1.91-.47"/>
              <path class="cls-9" d="M663.5,846.17l-.12,40.76c-.44.07-.89.14-1.35.18l.11-40.75c.47-.05.92-.11,1.36-.19"/>
              <path class="cls-8" d="M662.14,846.36,662,887.11c-.42,0-.84.07-1.28.09l.12-40.76c.43,0,.86,0,1.27-.08"/>
              <path class="cls-7" d="M660.87,846.44l-.12,40.76h-1.26l.12-40.75h1.26"/>
              <path class="cls-6" d="M659.61,846.45l-.12,40.75q-.59,0-1.14-.06l.11-40.76c.38,0,.76.06,1.15.07"/>
              <path class="cls-5" d="M658.46,846.38l-.11,40.76c-.37,0-.72-.07-1.07-.12l.11-40.76c.35,0,.71.09,1.07.12"/>
              <path class="cls-4" d="M657.39,846.26,657.28,887c-.37,0-.72-.11-1.07-.18l.12-40.76c.35.07.7.13,1.06.18"/>
              <path class="cls-13" d="M656.33,846.08l-.12,40.76c-.38-.08-.76-.17-1.13-.28l.12-40.76c.37.11.74.2,1.13.28"/>
              <path class="cls-14" d="M655.2,845.8l-.12,40.76c-.47-.13-.92-.29-1.36-.46l.11-40.76a13,13,0,0,0,1.37.46"/>
              <path class="cls-15" d="M653.83,845.34l-.11,40.76a13.81,13.81,0,0,1-1.86-.89c-1.1-.64-2.39-2.18-3.85-4.62l.12-40.76c1.46,2.44,2.75,4,3.85,4.62a13.69,13.69,0,0,0,1.85.89"/>
            </g>
          </g>
        </g>
      </g>
      <g class="cls-2">
        <g class="cls-2">
          <g class="cls-44">
            <g class="cls-2">
              <path class="cls-15" d="M892.9,824.11l-.12,40.76a10.69,10.69,0,0,1-.91-4l.12-40.76a10.5,10.5,0,0,0,.91,4"/>
            </g>
          </g>
        </g>
        <g class="cls-2">
          <g class="cls-45">
            <g class="cls-2">
              <path class="cls-4" d="M729.91,886.57l-.12,40.76-.2-.05.11-40.75.21,0"/>
              <path class="cls-13" d="M729.7,886.53l-.11,40.75c-.93-.19-1.79-.39-2.58-.62l.12-40.76c.79.23,1.65.44,2.57.63"/>
              <path class="cls-14" d="M727.13,885.9,727,926.66c-.79-.23-1.52-.47-2.19-.73l.12-40.76c.66.26,1.39.5,2.19.73"/>
              <path class="cls-15" d="M724.94,885.17l-.12,40.76a15.28,15.28,0,0,1-2-.94q-3.21-1.86-3.2-4.26l.11-40.76c0,1.6,1.06,3,3.2,4.26a15.44,15.44,0,0,0,2,.94"/>
            </g>
          </g>
        </g>
        <polygon class="cls-42" points="927.52 901.98 927.4 942.74 892.78 864.87 892.9 824.11 927.52 901.98"/>
        <g class="cls-2">
          <g class="cls-46">
            <g class="cls-2">
              <path class="cls-15" d="M933.92,916.44l-.12,40.76q-.84-1.92-6.4-14.46l.12-40.76q5.55,12.56,6.4,14.46"/>
            </g>
          </g>
        </g>
        <polygon class="cls-40" points="939.39 931.57 939.27 972.32 729.79 927.33 729.91 886.57 939.39 931.57"/>
        <polygon class="cls-6" points="941.47 932.04 941.35 972.8 939.27 972.32 939.39 931.57 941.47 932.04"/>
        <g class="cls-2">
          <g class="cls-47">
            <g class="cls-2">
              <path class="cls-4" d="M961.05,926.84l-.12,40.76v.16l.12-40.76v-.16"/>
              <path class="cls-5" d="M961.05,927l-.12,40.76a5.63,5.63,0,0,1-.1.93l.11-40.76a5.63,5.63,0,0,0,.11-.93"/>
              <path class="cls-6" d="M960.94,927.93l-.11,40.76a5.07,5.07,0,0,1-.22.76l.12-40.76a4.73,4.73,0,0,0,.21-.76"/>
              <path class="cls-7" d="M960.73,928.69l-.12,40.76a4.22,4.22,0,0,1-.3.65l.11-40.76a5.51,5.51,0,0,0,.31-.65"/>
              <path class="cls-8" d="M960.42,929.34l-.11,40.76a5.91,5.91,0,0,1-.41.61L960,930a4,4,0,0,0,.4-.61"/>
              <path class="cls-9" d="M960,930l-.12,40.76a5.43,5.43,0,0,1-.57.61l.12-40.75A5.51,5.51,0,0,0,960,930"/>
              <path class="cls-10" d="M959.45,930.57l-.12,40.75a6.3,6.3,0,0,1-1.1.82l.12-40.76a7.28,7.28,0,0,0,1.1-.81"/>
              <path class="cls-11" d="M958.35,931.38l-.12,40.76-.1.06a13,13,0,0,1-2.64,1.17h0l.12-40.76h0a12.81,12.81,0,0,0,2.64-1.18l.11-.06"/>
              <path class="cls-10" d="M955.58,932.62l-.12,40.76a9.47,9.47,0,0,1-1.22.31l.11-40.76a9.62,9.62,0,0,0,1.23-.31"/>
              <path class="cls-9" d="M954.35,932.93l-.11,40.76-.82.11.11-40.76c.28,0,.56-.06.82-.11"/>
              <path class="cls-8" d="M953.53,933l-.11,40.76-.74.05.12-40.76c.25,0,.49,0,.73-.05"/>
              <path class="cls-7" d="M952.8,933.09l-.12,40.76h-.19l-1.71,0,.12-40.76,1.7,0h.2"/>
              <path class="cls-8" d="M950.9,933.14l-.12,40.76-1,0h-.13l.12-40.76h.12l1,0"/>
              <path class="cls-7" d="M949.74,933.19,949.62,974h-.54l.11-40.76h.55"/>
              <path class="cls-6" d="M949.19,933.19,949.08,974c-.26,0-.54,0-.85-.05l.12-40.76c.3,0,.58,0,.84.05"/>
              <path class="cls-5" d="M948.35,933.14l-.12,40.76c-.47,0-1-.1-1.58-.18l.11-40.76c.59.08,1.11.14,1.59.18"/>
              <path class="cls-4" d="M946.76,933l-.11,40.76-.12,0-1.1-.16.12-40.75,1.1.15.11,0"/>
              <path class="cls-5" d="M945.55,932.79l-.12,40.75-1.49-.2h-.08l.12-40.75h.08c.24,0,.73.09,1.49.2"/>
              <path class="cls-4" d="M944,932.58l-.12,40.75-.75-.13.12-40.76.75.14"/>
              <path class="cls-13" d="M943.23,932.44l-.12,40.76-1.76-.4.11-40.76,1.77.4"/>
            </g>
          </g>
        </g>
        <path class="cls-20" d="M910.66,815.35q1.67,1,3.87,4.62l45.32,102.35q3,6.42-1.61,9.12a12.81,12.81,0,0,1-2.64,1.18,10.59,10.59,0,0,1-3,.48c-1.07,0-2,0-2.74.08a17.48,17.48,0,0,1-3.21-.24c-1.39-.2-2.25-.32-2.59-.35s-1.21-.22-2.6-.55l-2.07-.47-209.48-45a23.52,23.52,0,0,1-7-2.34q-3.42-2-3.18-4.59t3.24-4.35a16.3,16.3,0,0,1,4.23-1.74,14.68,14.68,0,0,1,5.44-.09c2.18.3,3.56.49,4.14.6s2.24.41,4.94.93l192.16,41.45q-.84-1.91-6.4-14.46L892.9,824.11c-1.68-4.08-1-7,1.92-8.7a15.91,15.91,0,0,1,7.81-1.95A15.17,15.17,0,0,1,910.66,815.35Z"/>
      </g>
    </g>
  </g>
</svg>
