<svg xmlns="http://www.w3.org/2000/svg" viewBox="0 0 1000 1000">
  <defs>
    <style>
      .cls-1 {
        isolation: isolate;
      }

      .cls-2 {
        fill: #c4c4c4;
      }

      .cls-3 {
        fill: #898989;
      }

      .cls-4 {
        fill: #dcdcdc;
      }
    </style>
  </defs>
  <title>module</title>
  <g id="module">
    <g>
      <g class="cls-1">
        <polygon class="cls-2" points="510.29 443.44 510.2 476.04 76.26 621.43 76.35 588.83 510.29 443.44"/>
        <polygon class="cls-3" points="853.29 641.47 853.2 674.07 510.2 476.04 510.29 443.44 853.29 641.47"/>
        <path class="cls-4" d="M516.71,414.48,918.46,646.43,412.94,815.81,11.18,583.86ZM419.35,786.86l433.94-145.4-343-198L76.35,588.83l343,198"/>
        <polygon class="cls-2" points="918.46 646.43 918.37 679.04 412.85 848.42 412.94 815.81 918.46 646.43"/>
        <polygon class="cls-3" points="412.94 815.81 412.85 848.42 11.09 616.47 11.18 583.86 412.94 815.81"/>
      </g>
      <g class="cls-1">
        <polygon class="cls-2" points="541.6 326.59 541.51 359.2 107.57 504.59 107.67 471.99 541.6 326.59"/>
        <polygon class="cls-3" points="884.6 524.62 884.51 557.23 541.51 359.2 541.6 326.59 884.6 524.62"/>
        <path class="cls-4" d="M548,297.64l401.75,232L444.25,699,42.5,467ZM450.66,670,884.6,524.62l-343-198L107.67,472l343,198"/>
        <polygon class="cls-2" points="949.77 529.59 949.68 562.2 444.15 731.57 444.25 698.97 949.77 529.59"/>
        <polygon class="cls-3" points="444.25 698.97 444.15 731.57 42.41 499.62 42.5 467.01 444.25 698.97"/>
      </g>
      <g class="cls-1">
        <polygon class="cls-2" points="580.74 180.54 580.64 213.14 146.71 358.54 146.8 325.93 580.74 180.54"/>
        <polygon class="cls-3" points="923.74 378.57 923.64 411.17 580.64 213.14 580.74 180.54 923.74 378.57"/>
        <path class="cls-4" d="M587.15,151.59l401.75,232L483.38,552.92,81.63,321ZM489.8,524,923.74,378.57l-343-198L146.8,325.93l343,198"/>
        <polygon class="cls-2" points="988.9 383.54 988.81 416.14 483.29 585.52 483.38 552.92 988.9 383.54"/>
        <polygon class="cls-3" points="483.38 552.92 483.29 585.52 81.54 353.57 81.63 320.96 483.38 552.92"/>
      </g>
    </g>
  </g>
</svg>
