<svg xmlns="http://www.w3.org/2000/svg" xmlns:xlink="http://www.w3.org/1999/xlink" viewBox="0 0 1000 1000">
  <defs>
    <style>
      .cls-1 {
        fill: none;
      }

      .cls-2 {
        isolation: isolate;
      }

      .cls-3 {
        clip-path: url(#clip-path);
      }

      .cls-4 {
        fill: #8a8a8a;
      }

      .cls-5 {
        fill: #8f8f8f;
      }

      .cls-6 {
        fill: #949494;
      }

      .cls-7 {
        fill: #999;
      }

      .cls-8 {
        fill: #9e9e9e;
      }

      .cls-9 {
        fill: #a3a3a3;
      }

      .cls-10 {
        fill: #a8a8a8;
      }

      .cls-11 {
        fill: #adadad;
      }

      .cls-12 {
        fill: #b3b3b3;
      }

      .cls-13 {
        fill: #b8b8b8;
      }

      .cls-14 {
        clip-path: url(#clip-path-2);
      }

      .cls-15 {
        clip-path: url(#clip-path-3);
      }

      .cls-16 {
        clip-path: url(#clip-path-4);
      }

      .cls-17 {
        fill: #858585;
      }

      .cls-18 {
        clip-path: url(#clip-path-5);
      }

      .cls-19 {
        clip-path: url(#clip-path-6);
      }

      .cls-20 {
        clip-path: url(#clip-path-7);
      }

      .cls-21 {
        clip-path: url(#clip-path-8);
      }

      .cls-22 {
        clip-path: url(#clip-path-9);
      }

      .cls-23 {
        clip-path: url(#clip-path-10);
      }

      .cls-24 {
        clip-path: url(#clip-path-11);
      }

      .cls-25 {
        clip-path: url(#clip-path-12);
      }

      .cls-26 {
        fill: #898989;
      }

      .cls-27 {
        clip-path: url(#clip-path-13);
      }

      .cls-28 {
        clip-path: url(#clip-path-14);
      }

      .cls-29 {
        clip-path: url(#clip-path-15);
      }

      .cls-30 {
        fill: #dcdcdc;
      }

      .cls-31 {
        clip-path: url(#clip-path-16);
      }

      .cls-32 {
        clip-path: url(#clip-path-17);
      }

      .cls-33 {
        clip-path: url(#clip-path-18);
      }

      .cls-34 {
        clip-path: url(#clip-path-19);
      }

      .cls-35 {
        clip-path: url(#clip-path-20);
      }

      .cls-36 {
        clip-path: url(#clip-path-21);
      }

      .cls-37 {
        clip-path: url(#clip-path-22);
      }
    </style>
    <clipPath id="clip-path">
      <path class="cls-1" d="M703.29,360.62l-.12,40.76q-9.06-3.4-17.12-5.78t-15.26-3.81c-4.81-1-9.16-1.74-13-2.37a48.08,48.08,0,0,0-11.6-.48c-3.86.31-6.94.49-9.27.57a42.9,42.9,0,0,0-8.82,1.43q-5.32,1.32-6.83,1.85L615,394.9l.11-40.76,6.21-2.11q1.51-.52,6.84-1.85a43.5,43.5,0,0,1,8.82-1.43c2.33-.07,5.41-.26,9.26-.57a48.18,48.18,0,0,1,11.61.48q5.83.94,13,2.37t15.27,3.81C691.53,356.42,697.25,358.36,703.29,360.62Z"/>
    </clipPath>
    <clipPath id="clip-path-2">
      <path class="cls-1" d="M795.34,373.71l-.11,40.76q0,1.92-2.94,3.5l.11-40.76C794.36,376.16,795.34,375,795.34,373.71Z"/>
    </clipPath>
    <clipPath id="clip-path-3">
      <path class="cls-1" d="M792.4,377.21,792.29,418q-2.2,1.29-13.65,5.36t-15.57,4.56l.12-40.76q4.13-.48,15.57-4.56T792.4,377.21Z"/>
    </clipPath>
    <clipPath id="clip-path-4">
      <path class="cls-1" d="M763.19,387.13l-.12,40.76q-5,.32-11.21-3T732.1,414.75q-13.54-6.92-28.93-13.37l.12-40.76q15.39,6.47,28.93,13.37T752,384.17Q758.21,387.46,763.19,387.13Z"/>
    </clipPath>
    <clipPath id="clip-path-5">
      <path class="cls-1" d="M219.77,419.46l.11-40.76a3.08,3.08,0,0,0,.68,1.72,7.79,7.79,0,0,0,2.25,2.22c.73.42,2.16,1.36,4.3,2.79s3.38,2.27,3.75,2.48l-.12,40.76c-.37-.22-1.62-1-3.74-2.48s-3.57-2.37-4.31-2.79a7.58,7.58,0,0,1-2.24-2.23A2.91,2.91,0,0,1,219.77,419.46Z"/>
    </clipPath>
    <clipPath id="clip-path-6">
      <path class="cls-1" d="M621.81,357.81l-.11,40.76Q449.25,453.22,436.42,456l.12-40.75Q449.36,412.46,621.81,357.81Z"/>
    </clipPath>
    <clipPath id="clip-path-7">
      <path class="cls-1" d="M436.54,415.25,436.42,456q-61.56,15-139.91-6.92l.11-40.76Q375,430.22,436.54,415.25Z"/>
    </clipPath>
    <clipPath id="clip-path-8">
      <path class="cls-1" d="M261.62,429.71l-.11,40.75a22.8,22.8,0,0,0-2.09-9.18q-7.81-17.77-28.68-32.61l.12-40.76q20.88,14.83,28.68,32.62A22.62,22.62,0,0,1,261.62,429.71Z"/>
    </clipPath>
    <clipPath id="clip-path-9">
      <path class="cls-1" d="M861.34,486l.12-40.76a2.6,2.6,0,0,0,.07.61l-.11,40.75A2.47,2.47,0,0,1,861.34,486Z"/>
    </clipPath>
    <clipPath id="clip-path-10">
      <path class="cls-1" d="M918.85,497.93l-.12,40.76q0-5.09-4.9-11.16-11.4-14.07-31.5-26.63t-20.91-14.34l.11-40.75q.81,1.77,20.92,14.33T914,486.78Q918.86,492.84,918.85,497.93Z"/>
    </clipPath>
    <clipPath id="clip-path-11">
      <path class="cls-1" d="M309.9,437.12l-.12,40.76a28.74,28.74,0,0,1-1,7.24q-4.56,17-24.14,28.42Q275,519.15,215.81,540q-71,24.81-110.63,38.53-11.4,3.93-15.81,6.5-7.75,4.5-7.77,11.1l.12-40.76q0-6.6,7.77-11.1,4.41-2.57,15.81-6.5Q145,524,215.93,499.2q59.2-20.81,68.86-26.42,19.59-11.38,24.14-28.42A28.3,28.3,0,0,0,309.9,437.12Z"/>
    </clipPath>
    <clipPath id="clip-path-12">
      <path class="cls-1" d="M26.7,595.3l.11-40.76a39.38,39.38,0,0,0,.4,5.54q3.21,22.42,53.41,51.4l-.11,40.76q-50.21-29-53.41-51.4A36.6,36.6,0,0,1,26.7,595.3Z"/>
    </clipPath>
    <clipPath id="clip-path-13">
      <path class="cls-1" d="M137.49,608.47l-.11,40.75q0,1.93-2.86,3.59t-18.46,6.89l.12-40.76q15.7-5.28,18.46-6.89C136.54,611,137.49,609.75,137.49,608.47Z"/>
    </clipPath>
    <clipPath id="clip-path-14">
      <path class="cls-1" d="M973.15,498.75,973,539.51q0,19-20,30.58-10.74,6.24-98.25,36.07t-96.87,35.26Q741,651.25,741,663.86l.11-40.76q0-12.61,16.95-22.43,9.36-5.45,96.87-35.27t98.25-36.07Q973.09,517.74,973.15,498.75Z"/>
    </clipPath>
    <clipPath id="clip-path-15">
      <path class="cls-1" d="M116.18,618.94l-.12,40.76q-9.07,3.36-13.36,3.13c-2.85-.16-7-1.83-12.54-5l.11-40.76q8.28,4.77,12.54,5T116.18,618.94Z"/>
    </clipPath>
    <clipPath id="clip-path-16">
      <path class="cls-1" d="M691.25,654.57l.12-40.76q0,15.68,13,30.55l-.12,40.76Q691.2,670.26,691.25,654.57Z"/>
    </clipPath>
    <clipPath id="clip-path-17">
      <path class="cls-1" d="M709.46,670.84l-.12,40.75a258.32,258.32,0,0,0-60.81-14.38q-32.53-3.8-59.85,2.11l.12-40.75q27.32-5.9,59.85-2.12A258,258,0,0,1,709.46,670.84Z"/>
    </clipPath>
    <clipPath id="clip-path-18">
      <path class="cls-1" d="M197.92,717.05l.12-40.76q0,3,6.6,6.8l-.11,40.76Q197.92,720,197.92,717.05Z"/>
    </clipPath>
    <clipPath id="clip-path-19">
      <path class="cls-1" d="M746.08,685.92,746,726.67a19.72,19.72,0,0,1-6.24-2c-2.31-1.13-6-2.94-11.1-5.46a153.68,153.68,0,0,0-19.28-7.62l.12-40.75a152.77,152.77,0,0,1,19.28,7.62q7.62,3.76,11.1,5.45A19.68,19.68,0,0,0,746.08,685.92Z"/>
    </clipPath>
    <clipPath id="clip-path-20">
      <path class="cls-1" d="M781.7,673.12l-.11,40.76a1.72,1.72,0,0,1-.33,1,10,10,0,0,1-3,2.4q-3.32,1.92-15.31,5.83t-17,3.59l.12-40.75c3.31.21,9-1,17-3.59s13.1-4.56,15.3-5.84a9.9,9.9,0,0,0,3-2.4A1.58,1.58,0,0,0,781.7,673.12Z"/>
    </clipPath>
    <clipPath id="clip-path-21">
      <path class="cls-1" d="M588.8,658.57l-.12,40.75-98.94,33.33L390.82,766l.12-40.76,98.92-33.32Z"/>
    </clipPath>
    <clipPath id="clip-path-22">
      <path class="cls-1" d="M390.94,725.21,390.82,766q-39.42,7.89-86-1.6t-85.06-31.73l.11-40.75Q258.4,714.12,305,723.61T390.94,725.21Z"/>
    </clipPath>
  </defs>
  <title>object literal</title>
  <g id="object_literal" data-name="object literal">
    <g class="cls-2">
      <g class="cls-2">
        <g class="cls-3">
          <g class="cls-2">
            <path class="cls-4" d="M703.29,360.62l-.12,40.76q-9.06-3.4-17.12-5.78l-1.93-.56.12-40.76,1.93.56c5.36,1.58,11.08,3.52,17.12,5.78"/>
            <path class="cls-5" d="M684.24,354.28,684.12,395c-4.27-1.22-8.35-2.22-12.25-3l.12-40.76c3.89.81,8,1.81,12.25,3"/>
            <path class="cls-6" d="M672,351.25,671.87,392l-1.08-.22c-4.81-1-9.16-1.74-13-2.37l-1-.15.12-40.76,1,.15q5.83.94,13,2.37l1.09.22"/>
            <path class="cls-7" d="M656.9,348.51l-.12,40.76c-1-.14-1.92-.24-2.87-.32l.11-40.76c1,.08,1.92.19,2.88.32"/>
            <path class="cls-8" d="M654,348.19,653.91,389q-1.38-.12-2.76-.15l.12-40.76c.91,0,1.83.07,2.75.15"/>
            <path class="cls-9" d="M651.27,348l-.12,40.76c-.93,0-1.86,0-2.79,0l.11-40.76c.93,0,1.87,0,2.8,0"/>
            <path class="cls-10" d="M648.47,348.05l-.11,40.76c-.74,0-1.48.07-2.22.13-3.74.3-6.75.48-9,.56l.11-40.76c2.31-.08,5.31-.26,9-.56.74-.06,1.48-.1,2.22-.13"/>
            <path class="cls-9" d="M637.2,348.74l-.11,40.76h-.27l.12-40.76h.26"/>
            <path class="cls-10" d="M636.94,348.75l-.12,40.76c-.53,0-1.09.06-1.69.11l.12-40.75c.59-.06,1.16-.1,1.69-.12"/>
            <path class="cls-11" d="M635.25,348.87l-.12,40.75c-.93.1-1.94.24-3,.44l.12-40.76c1.08-.2,2.09-.34,3-.43"/>
            <path class="cls-12" d="M632.23,349.3l-.12,40.76c-1.25.22-2.61.52-4.06.88-3.23.8-5.41,1.39-6.53,1.75l.11-40.76q1.7-.54,6.54-1.75c1.45-.36,2.8-.66,4.06-.88"/>
            <path class="cls-13" d="M621.63,351.93l-.11,40.76a2.11,2.11,0,0,0-.3.1L615,394.9l.11-40.76,6.21-2.11.3-.1"/>
          </g>
        </g>
      </g>
      <g class="cls-2">
        <g class="cls-14">
          <g class="cls-2">
            <path class="cls-6" d="M795.34,373.71l-.11,40.76v.06l.11-40.75v-.07"/>
            <path class="cls-7" d="M795.34,373.78l-.11,40.75a3,3,0,0,1-.05.42l.11-40.76a1.84,1.84,0,0,0,.05-.41"/>
            <path class="cls-8" d="M795.29,374.19,795.18,415a2.64,2.64,0,0,1-.12.4l.12-40.75a2.08,2.08,0,0,0,.11-.41"/>
            <path class="cls-9" d="M795.18,374.6l-.12,40.75a2.6,2.6,0,0,1-.19.42L795,375a2.58,2.58,0,0,0,.2-.41"/>
            <path class="cls-10" d="M795,375l-.11,40.76a4.27,4.27,0,0,1-.3.44l.11-40.75a2.93,2.93,0,0,0,.3-.45"/>
            <path class="cls-11" d="M794.68,375.46l-.11,40.75a4.3,4.3,0,0,1-.51.54l.12-40.76a4.1,4.1,0,0,0,.5-.53"/>
            <path class="cls-12" d="M794.18,376l-.12,40.76a7.71,7.71,0,0,1-1.29.95l.12-40.76a7.71,7.71,0,0,0,1.29-.95"/>
            <path class="cls-13" d="M792.89,376.94l-.12,40.76-.48.27.11-40.76.49-.27"/>
          </g>
        </g>
      </g>
      <g class="cls-2">
        <g class="cls-15">
          <g class="cls-2">
            <path class="cls-13" d="M792.4,377.21,792.29,418q-2.2,1.29-13.65,5.36-3.75,1.34-6.71,2.29l.11-40.76q3-1,6.72-2.29,11.44-4.08,13.64-5.36"/>
            <path class="cls-12" d="M772,384.86l-.11,40.76a68.54,68.54,0,0,1-7.8,2.11l.12-40.76a66.42,66.42,0,0,0,7.79-2.11"/>
            <path class="cls-11" d="M764.25,387l-.12,40.76c-.39.07-.74.12-1.06.16l.12-40.76c.32,0,.67-.09,1.06-.16"/>
          </g>
        </g>
      </g>
      <g class="cls-2">
        <g class="cls-16">
          <g class="cls-2">
            <path class="cls-10" d="M763.19,387.13l-.12,40.76-.41,0,.11-40.76.42,0"/>
            <path class="cls-9" d="M762.77,387.15l-.11,40.76h-.85l.12-40.76q.42,0,.84,0"/>
            <path class="cls-8" d="M761.93,387.15l-.12,40.76c-.29,0-.58,0-.88-.05l.12-40.75c.29,0,.59,0,.88,0"/>
            <path class="cls-7" d="M761.05,387.11l-.12,40.75c-.31,0-.63-.06-.95-.1l.11-40.76,1,.11"/>
            <path class="cls-6" d="M760.09,387,760,427.76c-.38-.06-.75-.12-1.14-.2L759,386.8c.38.08.76.15,1.13.2"/>
            <path class="cls-5" d="M759,386.8l-.12,40.76q-.72-.15-1.47-.36l.12-40.76c.49.14,1,.26,1.47.36"/>
            <path class="cls-4" d="M757.49,386.44l-.12,40.76c-.74-.22-1.51-.48-2.28-.78l.11-40.76a23,23,0,0,0,2.29.78"/>
            <path class="cls-17" d="M755.2,385.66l-.11,40.76a32.64,32.64,0,0,1-3.23-1.49q-6.24-3.29-19.76-10.18t-28.93-13.37l.12-40.76q15.39,6.47,28.93,13.37T752,384.17a32.51,32.51,0,0,0,3.22,1.49"/>
          </g>
        </g>
      </g>
      <g class="cls-2">
        <g class="cls-18">
          <g class="cls-2">
            <path class="cls-17" d="M230.86,387.91l-.12,40.76c-.37-.22-1.62-1-3.74-2.48s-3.57-2.37-4.31-2.79a7.58,7.58,0,0,1-2.24-2.23,2.91,2.91,0,0,1-.68-1.71l.11-40.76a3.08,3.08,0,0,0,.68,1.72,7.79,7.79,0,0,0,2.25,2.22c.73.42,2.16,1.36,4.3,2.79s3.38,2.27,3.75,2.48"/>
          </g>
        </g>
      </g>
      <g class="cls-2">
        <g class="cls-19">
          <g class="cls-2">
            <path class="cls-12" d="M621.81,357.81l-.11,40.76Q449.25,453.22,436.42,456l.12-40.75q12.82-2.79,185.27-57.44"/>
          </g>
        </g>
      </g>
      <g class="cls-2">
        <g class="cls-20">
          <g class="cls-2">
            <path class="cls-12" d="M436.54,415.25,436.42,456q-6,1.47-12.14,2.57l.12-40.76q6.15-1.11,12.14-2.56"/>
            <path class="cls-11" d="M424.4,417.81l-.12,40.76q-8.37,1.5-17,2.37l.12-40.76q8.65-.85,17-2.37"/>
            <path class="cls-10" d="M407.37,420.18l-.12,40.76q-7.47.74-15.16,1l.11-40.76q7.69-.26,15.17-1"/>
            <path class="cls-9" d="M392.2,421.18l-.11,40.76q-7.35.26-14.89.06l.12-40.76q7.55.19,14.88-.06"/>
            <path class="cls-8" d="M377.32,421.24,377.2,462q-7.74-.19-15.7-.85l.12-40.76q8,.66,15.7.85"/>
            <path class="cls-7" d="M361.62,420.39l-.12,40.76q-8.67-.7-17.6-2l.12-40.76q8.93,1.27,17.6,2"/>
            <path class="cls-6" d="M344,418.41l-.12,40.76q-10.44-1.49-21.22-3.71l.12-40.76q10.79,2.24,21.22,3.71"/>
            <path class="cls-5" d="M322.8,414.7l-.12,40.76q-12.84-2.65-26.17-6.38l.11-40.76Q310,412,322.8,414.7"/>
          </g>
        </g>
      </g>
      <g class="cls-2">
        <g class="cls-21">
          <g class="cls-2">
            <path class="cls-17" d="M261.62,429.71l-.11,40.75a22.8,22.8,0,0,0-2.09-9.18q-7.81-17.77-28.68-32.61l.12-40.76q20.88,14.83,28.68,32.62a22.62,22.62,0,0,1,2.08,9.18"/>
          </g>
        </g>
      </g>
      <g class="cls-2">
        <g class="cls-22">
          <g class="cls-2">
            <path class="cls-17" d="M861.53,445.81l-.11,40.75a2.47,2.47,0,0,1-.08-.6l.12-40.76a2.6,2.6,0,0,0,.07.61"/>
          </g>
        </g>
      </g>
      <g class="cls-2">
        <g class="cls-23">
          <g class="cls-2">
            <path class="cls-17" d="M918.85,497.93l-.12,40.76q0-5.09-4.9-11.16-11.4-14.07-31.5-26.63t-20.91-14.34l.11-40.75q.81,1.77,20.92,14.33T914,486.78q4.9,6.06,4.9,11.15"/>
          </g>
        </g>
      </g>
      <g class="cls-2">
        <g class="cls-24">
          <g class="cls-2">
            <path class="cls-6" d="M309.9,437.12l-.12,40.76c0,.25,0,.49,0,.74l.11-40.76c0-.24,0-.49,0-.74"/>
            <path class="cls-7" d="M309.88,437.86l-.11,40.76a29.16,29.16,0,0,1-.54,4.74l.11-40.76a27,27,0,0,0,.54-4.74"/>
            <path class="cls-8" d="M309.34,442.6l-.11,40.76c-.12.59-.26,1.17-.41,1.76-.33,1.21-.71,2.4-1.15,3.58l.12-40.76a37.23,37.23,0,0,0,1.14-3.58c.16-.59.3-1.17.41-1.76"/>
            <path class="cls-9" d="M307.79,447.94l-.12,40.76a38.9,38.9,0,0,1-2.54,5.44l.12-40.76a38.9,38.9,0,0,0,2.54-5.44"/>
            <path class="cls-10" d="M305.25,453.38l-.12,40.76a41.31,41.31,0,0,1-3.53,5.26l.11-40.75a42.21,42.21,0,0,0,3.54-5.27"/>
            <path class="cls-11" d="M301.71,458.65l-.11,40.75a48.57,48.57,0,0,1-5.2,5.62l.11-40.76a49.33,49.33,0,0,0,5.2-5.61"/>
            <path class="cls-12" d="M296.51,464.26,296.4,505a65.49,65.49,0,0,1-10.51,7.8l.11-40.76a64.46,64.46,0,0,0,10.51-7.8"/>
            <path class="cls-13" d="M286,472.06l-.11,40.76-1.21.72Q275,519.15,215.81,540q-71,24.81-110.63,38.53-11.4,3.93-15.81,6.5l-.3.17.12-40.75.3-.18q4.41-2.57,15.81-6.5Q145,524,215.93,499.2q59.2-20.81,68.86-26.42l1.21-.72"/>
            <path class="cls-12" d="M89.19,544.41l-.12,40.75a22.35,22.35,0,0,0-3.44,2.52l.11-40.75a21.21,21.21,0,0,1,3.45-2.52"/>
            <path class="cls-11" d="M85.74,546.93l-.11,40.75A15.39,15.39,0,0,0,84,589.41l.12-40.76a14.41,14.41,0,0,1,1.62-1.72"/>
            <path class="cls-10" d="M84.12,548.65,84,589.41A11.66,11.66,0,0,0,83,591l.11-40.76a12.44,12.44,0,0,1,1.05-1.55"/>
            <path class="cls-9" d="M83.07,550.2,83,591a10.23,10.23,0,0,0-.71,1.5l.12-40.76a11.3,11.3,0,0,1,.7-1.5"/>
            <path class="cls-8" d="M82.37,551.7l-.12,40.76a11.06,11.06,0,0,0-.45,1.59l.12-40.76a9,9,0,0,1,.45-1.59"/>
            <path class="cls-7" d="M81.92,553.29l-.12,40.76a10.55,10.55,0,0,0-.2,1.79l.12-40.76a9.62,9.62,0,0,1,.2-1.79"/>
            <path class="cls-6" d="M81.72,555.08l-.12,40.76v.25l.12-40.76v-.25"/>
          </g>
        </g>
      </g>
      <g class="cls-2">
        <g class="cls-25">
          <g class="cls-2">
            <path class="cls-17" d="M80.62,611.48l-.11,40.76q-50.21-29-53.41-51.4a36.6,36.6,0,0,1-.4-5.54l.11-40.76a39.38,39.38,0,0,0,.4,5.54q3.21,22.42,53.41,51.4"/>
          </g>
        </g>
      </g>
      <polygon class="cls-26" points="90.28 617.06 90.16 657.82 80.51 652.24 80.62 611.48 90.28 617.06"/>
      <g class="cls-2">
        <g class="cls-27">
          <g class="cls-2">
            <path class="cls-6" d="M137.49,608.47l-.11,40.75v.07l.11-40.76v-.06"/>
            <path class="cls-7" d="M137.49,608.53l-.11,40.76c0,.15,0,.29,0,.44l.11-40.76a2.2,2.2,0,0,0,.05-.44"/>
            <path class="cls-8" d="M137.44,609l-.11,40.76a2.25,2.25,0,0,1-.13.42l.12-40.76a3.31,3.31,0,0,0,.12-.42"/>
            <path class="cls-9" d="M137.32,609.39l-.12,40.76a2.86,2.86,0,0,1-.2.44l.11-40.76a2.53,2.53,0,0,0,.21-.44"/>
            <path class="cls-10" d="M137.11,609.83,137,650.59a3.43,3.43,0,0,1-.33.48l.12-40.76a4.45,4.45,0,0,0,.32-.48"/>
            <path class="cls-11" d="M136.79,610.31l-.12,40.76a5.12,5.12,0,0,1-.56.6l.12-40.76a4.48,4.48,0,0,0,.56-.6"/>
            <path class="cls-12" d="M136.23,610.91l-.12,40.76a8.55,8.55,0,0,1-1.43,1.05L134.8,612a9,9,0,0,0,1.43-1.05"/>
            <path class="cls-13" d="M134.8,612l-.12,40.76-.16.09q-2.75,1.61-18.46,6.89l.12-40.76q15.7-5.28,18.46-6.89l.16-.09"/>
          </g>
        </g>
      </g>
      <g class="cls-2">
        <g class="cls-28">
          <g class="cls-2">
            <path class="cls-6" d="M973.15,498.75,973,539.51c0,.31,0,.62,0,.93l.11-40.76c0-.3,0-.61,0-.93"/>
            <path class="cls-7" d="M973.13,499.68,973,540.44a33,33,0,0,1-.62,5.5l.12-40.76a33,33,0,0,0,.61-5.5"/>
            <path class="cls-8" d="M972.52,505.18l-.12,40.76a29.82,29.82,0,0,1-1.33,4.68l.11-40.76a29.54,29.54,0,0,0,1.34-4.68"/>
            <path class="cls-9" d="M971.18,509.86l-.11,40.76a29.83,29.83,0,0,1-2,4.25l.12-40.75a30.41,30.41,0,0,0,2-4.26"/>
            <path class="cls-10" d="M969.2,514.12l-.12,40.75a32,32,0,0,1-2.77,4.13l.12-40.76a33,33,0,0,0,2.77-4.12"/>
            <path class="cls-11" d="M966.43,518.24,966.31,559a38,38,0,0,1-4.08,4.4l.11-40.76a36.48,36.48,0,0,0,4.09-4.4"/>
            <path class="cls-12" d="M962.34,522.64l-.11,40.76a50.08,50.08,0,0,1-8.3,6.15l.12-40.76a50,50,0,0,0,8.29-6.15"/>
            <path class="cls-13" d="M954.05,528.79l-.12,40.76-.9.54q-10.74,6.24-98.25,36.07t-96.87,35.26l-1,.58.11-40.75,1-.58q9.36-5.45,96.87-35.27t98.25-36.07l.91-.54"/>
            <path class="cls-12" d="M757,601.25,756.93,642a49.33,49.33,0,0,0-8,5.92l.11-40.76a49.16,49.16,0,0,1,8-5.91"/>
            <path class="cls-11" d="M749,607.16l-.11,40.76a31.27,31.27,0,0,0-3.37,3.62l.11-40.76a32.17,32.17,0,0,1,3.37-3.62"/>
            <path class="cls-10" d="M745.64,610.78l-.11,40.76a24,24,0,0,0-2.06,3.05l.12-40.76a24.66,24.66,0,0,1,2-3.05"/>
            <path class="cls-9" d="M743.59,613.83l-.12,40.76a21.12,21.12,0,0,0-1.34,2.86l.12-40.76a20,20,0,0,1,1.34-2.86"/>
            <path class="cls-8" d="M742.25,616.69l-.12,40.76a19.74,19.74,0,0,0-.82,2.86l.12-40.75a18.35,18.35,0,0,1,.82-2.87"/>
            <path class="cls-7" d="M741.43,619.56l-.12,40.75a18.37,18.37,0,0,0-.34,3.06l.11-40.76a18.26,18.26,0,0,1,.35-3.05"/>
            <path class="cls-6" d="M741.08,622.61,741,663.37c0,.16,0,.32,0,.49l.11-40.76c0-.17,0-.33,0-.49"/>
          </g>
        </g>
      </g>
      <g class="cls-2">
        <g class="cls-29">
          <g class="cls-2">
            <path class="cls-13" d="M116.18,618.94l-.12,40.76c-1.32.49-2.56.92-3.73,1.29l.12-40.75c1.17-.38,2.41-.81,3.73-1.3"/>
            <path class="cls-12" d="M112.45,620.24,112.33,661a46.55,46.55,0,0,1-5.82,1.52l.11-40.76a46.44,46.44,0,0,0,5.83-1.51"/>
            <path class="cls-11" d="M106.62,621.75l-.11,40.76c-.64.12-1.23.2-1.79.26l.12-40.76c.55-.06,1.15-.14,1.78-.26"/>
            <path class="cls-10" d="M104.84,622l-.12,40.76-1,.07.12-40.76c.32,0,.66,0,1-.07"/>
            <path class="cls-9" d="M103.82,622.08l-.12,40.76H103l.12-40.76h.7"/>
            <path class="cls-8" d="M103.12,622.08,103,662.84h-.3l-.24,0,.11-40.76.24,0h.31"/>
            <path class="cls-7" d="M102.57,622.05l-.11,40.76-.59-.06L102,622l.58.06"/>
            <path class="cls-6" d="M102,622l-.12,40.76-.79-.14.12-40.76.79.14"/>
            <path class="cls-5" d="M101.2,621.85l-.12,40.76c-.37-.08-.77-.18-1.18-.3l.12-40.75c.41.11.8.21,1.18.29"/>
            <path class="cls-4" d="M100,621.56l-.12,40.75c-.72-.2-1.49-.47-2.31-.79l.12-40.76c.82.33,1.59.59,2.31.8"/>
            <path class="cls-17" d="M97.71,620.76l-.12,40.76a57.74,57.74,0,0,1-7.43-3.7l.11-40.76a57.79,57.79,0,0,0,7.44,3.7"/>
          </g>
        </g>
      </g>
      <path class="cls-30" d="M789.31,367.45q10.25,5.93,3.09,9.76-2.21,1.29-13.64,5.36t-15.57,4.56q-5,.31-11.21-3T732.22,374q-13.56-6.92-28.93-13.37c-6-2.26-11.76-4.2-17.12-5.78S675.7,352,670.9,351s-9.15-1.74-13-2.37a48.18,48.18,0,0,0-11.61-.48c-3.85.31-6.93.5-9.26.57a43.5,43.5,0,0,0-8.82,1.43q-5.32,1.32-6.84,1.85l-6.21,2.11,6.69,3.67q-172.44,54.66-185.27,57.44-61.56,15-139.92-6.93,16.86,19,12.31,36t-24.14,28.42q-9.66,5.61-68.86,26.42Q145,524,105.3,537.73q-11.4,3.93-15.81,6.5-27.51,16,42.32,58.22,9.7,5.61,2.83,9.6-2.76,1.61-18.46,6.89-9.09,3.36-13.37,3.13t-12.54-5l-9.65-5.58q-50.21-29-53.41-51.4t19.38-35.54q10.17-5.92,100.53-37.4T246,450.7q21.31-12.39,13.54-30.17t-28.68-32.62q-.56-.32-3.75-2.48c-2.14-1.43-3.57-2.37-4.3-2.79a7.79,7.79,0,0,1-2.25-2.22c-.76-1.06-.88-1.95-.36-2.68a9.19,9.19,0,0,1,2.91-2.34q3.19-1.86,14.75-5.68t16.46-3.47a20.69,20.69,0,0,1,6.46,2.18l11.61,5.78A152.9,152.9,0,0,0,291.82,382a253.83,253.83,0,0,0,59.86,14.49q31.8,3.84,59-2.05Q420.92,391,507,361.4t101-33.29q37.14-9.15,81.93-.66a263.66,263.66,0,0,1,83.3,30.72Z"/>
      <g class="cls-2">
        <g class="cls-31">
          <g class="cls-2">
            <path class="cls-17" d="M704.37,644.36l-.12,40.76q-13.05-14.86-13-30.55l.12-40.76q0,15.68,13,30.55"/>
          </g>
        </g>
      </g>
      <g class="cls-2">
        <g class="cls-32">
          <g class="cls-2">
            <path class="cls-4" d="M709.46,670.84l-.12,40.75q-9-3.35-18.35-6l.11-40.75q9.39,2.67,18.36,6"/>
            <path class="cls-5" d="M691.1,664.81,691,705.56q-8.93-2.53-18.22-4.46l.11-40.76q9.3,1.93,18.22,4.47"/>
            <path class="cls-6" d="M672.88,660.34l-.11,40.76q-8.4-1.74-17.12-3l.12-40.76q8.72,1.23,17.11,3"/>
            <path class="cls-7" d="M655.77,657.37l-.12,40.76c-2.35-.33-4.73-.64-7.12-.92q-3.88-.45-7.7-.77l.11-40.76q3.82.32,7.71.77,3.58.42,7.12.92"/>
            <path class="cls-8" d="M640.94,655.68l-.11,40.76q-6.11-.5-12-.65l.12-40.76q5.91.15,12,.65"/>
            <path class="cls-9" d="M628.93,655l-.12,40.76c-3.81-.09-7.56-.08-11.25.05l.12-40.76c3.69-.13,7.44-.14,11.25-.05"/>
            <path class="cls-10" d="M617.68,655.08l-.12,40.76q-5.73.2-11.28.74l.11-40.76q5.55-.54,11.29-.74"/>
            <path class="cls-11" d="M606.39,655.82l-.11,40.76c-4.27.42-8.45,1-12.54,1.74l.11-40.75q6.15-1.11,12.54-1.75"/>
            <path class="cls-12" d="M593.85,657.57l-.11,40.75q-2.55.46-5.06,1l.12-40.75q2.51-.55,5.05-1"/>
          </g>
        </g>
      </g>
      <g class="cls-2">
        <g class="cls-33">
          <g class="cls-2">
            <path class="cls-17" d="M204.64,683.09l-.11,40.76q-6.61-3.83-6.61-6.8l.12-40.76q0,3,6.6,6.8"/>
          </g>
        </g>
      </g>
      <g class="cls-2">
        <g class="cls-34">
          <g class="cls-2">
            <path class="cls-7" d="M746.08,685.92,746,726.67l-.32,0,.12-40.75.32,0"/>
            <path class="cls-6" d="M745.76,685.88l-.12,40.75-.86-.15.11-40.76c.3.06.59.12.87.16"/>
            <path class="cls-5" d="M744.89,685.72l-.11,40.76c-.38-.08-.77-.17-1.17-.29l.12-40.75c.4.11.78.21,1.16.28"/>
            <path class="cls-4" d="M743.73,685.44l-.12,40.75c-.61-.17-1.25-.39-1.9-.64l.11-40.76c.66.26,1.29.47,1.91.65"/>
            <path class="cls-17" d="M741.82,684.79l-.11,40.76c-.64-.26-1.31-.55-2-.88-2.31-1.13-6-2.94-11.1-5.46q-3.93-1.94-8.91-3.89l.11-40.76q5,2,8.92,3.9,7.62,3.76,11.1,5.45c.68.33,1.34.62,2,.88"/>
            <path class="cls-4" d="M719.82,674.56l-.11,40.76q-4.71-1.86-10.37-3.73l.12-40.75q5.65,1.86,10.36,3.72"/>
          </g>
        </g>
      </g>
      <g class="cls-2">
        <g class="cls-35">
          <g class="cls-2">
            <path class="cls-6" d="M781.7,673.12l-.11,40.76v0l.12-40.76v0"/>
            <path class="cls-7" d="M781.7,673.16l-.12,40.76a1.18,1.18,0,0,1,0,.27l.12-40.75a1.27,1.27,0,0,0,0-.28"/>
            <path class="cls-8" d="M781.67,673.44l-.12,40.75a1,1,0,0,1-.07.25l.12-40.76a2.17,2.17,0,0,0,.07-.24"/>
            <path class="cls-9" d="M781.6,673.68l-.12,40.76a2.29,2.29,0,0,1-.1.23l.11-40.76a1.63,1.63,0,0,0,.11-.23"/>
            <path class="cls-10" d="M781.49,673.91l-.11,40.76-.12.18-.08.11.11-40.76a.76.76,0,0,0,.08-.11.94.94,0,0,0,.12-.18"/>
            <path class="cls-11" d="M781.29,674.2,781.18,715a4.94,4.94,0,0,1-.6.63l.12-40.76a4.86,4.86,0,0,0,.59-.63"/>
            <path class="cls-12" d="M780.7,674.83l-.12,40.76a11.66,11.66,0,0,1-2,1.46l.12-40.76a12.5,12.5,0,0,0,2-1.46"/>
            <path class="cls-13" d="M778.69,676.29l-.12,40.76-.33.2q-3.32,1.92-15.31,5.83l-.86.28.12-40.76.86-.27q12-3.92,15.3-5.84a3.79,3.79,0,0,0,.34-.2"/>
            <path class="cls-12" d="M762.19,682.6l-.12,40.76a89,89,0,0,1-10.83,2.87l.11-40.76a89.12,89.12,0,0,0,10.84-2.87"/>
            <path class="cls-11" d="M751.35,685.47l-.11,40.76c-.94.16-1.8.29-2.59.37l.11-40.76c.79-.08,1.65-.2,2.59-.37"/>
            <path class="cls-10" d="M748.76,685.84l-.11,40.76c-.48,0-.92.08-1.34.09l.12-40.76c.41,0,.86,0,1.33-.09"/>
            <path class="cls-9" d="M747.43,685.93l-.12,40.76h-.88l.12-40.76h.88"/>
            <path class="cls-8" d="M746.55,685.94l-.12,40.76-.47,0,.12-40.75.47,0"/>
          </g>
        </g>
      </g>
      <polygon class="cls-26" points="219.88 691.89 219.77 732.64 204.53 723.85 204.64 683.09 219.88 691.89"/>
      <g class="cls-2">
        <g class="cls-36">
          <g class="cls-2">
            <path class="cls-13" d="M588.8,658.57l-.12,40.75-98.94,33.33L390.82,766l.12-40.76,98.92-33.32,98.94-33.32"/>
          </g>
        </g>
      </g>
      <g class="cls-2">
        <g class="cls-37">
          <g class="cls-2">
            <path class="cls-12" d="M390.94,725.21,390.82,766c-1.1.22-2.21.43-3.31.63l.11-40.76c1.11-.2,2.22-.41,3.32-.63"/>
            <path class="cls-11" d="M387.62,725.84l-.11,40.76q-7.06,1.27-14.35,2l.11-40.76q7.29-.72,14.35-2"/>
            <path class="cls-10" d="M373.27,727.84l-.11,40.76q-6.23.61-12.62.83l.12-40.76q6.39-.21,12.61-.83"/>
            <path class="cls-9" d="M360.66,728.67l-.12,40.76q-6.07.21-12.31.05l.11-40.76q6.24.16,12.32-.05"/>
            <path class="cls-8" d="M348.34,728.72l-.11,40.76c-4.24-.1-8.53-.34-12.87-.69l.11-40.76c4.34.36,8.64.59,12.87.69"/>
            <path class="cls-7" d="M335.47,728l-.11,40.76q-7.08-.59-14.33-1.61l.12-40.76q7.25,1,14.32,1.61"/>
            <path class="cls-6" d="M321.15,726.42,321,767.18q-8-1.14-16.2-2.81l-.86-.18.12-40.75.86.17q8.21,1.68,16.2,2.81"/>
            <path class="cls-5" d="M304.09,723.44,304,764.19q-11.21-2.31-21.94-5.37l.12-40.76q10.73,3.06,21.94,5.38"/>
            <path class="cls-4" d="M282.15,718.06,282,758.82q-13.54-3.86-26.36-8.9l.12-40.76q12.79,5,26.36,8.9"/>
            <path class="cls-17" d="M255.79,709.16l-.12,40.76a265.49,265.49,0,0,1-35.9-17.28l.11-40.75a267.34,267.34,0,0,0,35.91,17.27"/>
          </g>
        </g>
      </g>
      <path class="cls-30" d="M919.49,442q50.43,29.11,53.33,51.68t-19.68,35.67q-10.73,6.24-98.25,36.07T758,600.67Q736,613.47,742.6,631t27.94,32.72c.37.21,1.61,1,3.74,2.47s3.57,2.38,4.3,2.8a8.52,8.52,0,0,1,2.36,2.33c.84,1.11,1,2.05.43,2.79a9.9,9.9,0,0,1-3,2.4q-3.3,1.92-15.3,5.84c-8,2.61-13.66,3.8-17,3.59a19.68,19.68,0,0,1-6.24-2q-3.48-1.68-11.1-5.45a152.77,152.77,0,0,0-19.28-7.62,258,258,0,0,0-60.81-14.39q-32.53-3.8-59.85,2.12l-98.94,33.32-98.92,33.32q-39.42,7.89-86-1.6t-85.07-31.72l-15.24-8.8q-10.8-6.24-3.92-10.24,2.21-1.29,13.64-5.36t15.57-4.56q5-.33,12.18,3.52t20.5,10.88a257.92,257.92,0,0,0,26.86,12.32q9.13,3.36,17.43,5.76a153.91,153.91,0,0,0,15.5,3.68q7.19,1.27,13.12,2.16a50.37,50.37,0,0,0,12.3.24c4.23-.43,7.55-.7,9.94-.8a33.49,33.49,0,0,0,8.81-1.92l6.74-2.27,6.24-2.1,5.06-1.71q164.11-56.55,174.93-58.91Q621.9,620,704.37,644.36q-14.19-16.15-12.9-33.27t25-30.88q6.87-4,28.65-12.16Q905,512.7,910.21,509.66q15.15-8.81,3.74-22.88t-31.5-26.64q-20.1-12.57-20.92-14.33c-.36-1.51.64-2.94,3-4.29s8.71-3.67,19.15-6.95q10.32-3.45,14.5-3t11.66,4.78Z"/>
    </g>
  </g>
</svg>
