<svg xmlns="http://www.w3.org/2000/svg" xmlns:xlink="http://www.w3.org/1999/xlink" viewBox="0 0 1000 1000">
  <defs>
    <style>
      .cls-1 {
        fill: none;
      }

      .cls-2 {
        isolation: isolate;
      }

      .cls-3 {
        fill: #f0f0f0;
      }

      .cls-4 {
        fill: #c9c9c9;
      }

      .cls-5 {
        fill: #949494;
      }

      .cls-6 {
        fill: #a4a4a4;
      }

      .cls-7 {
        fill: #818181;
      }

      .cls-8 {
        fill: #fdfdfd;
      }

      .cls-9 {
        clip-path: url(#clip-path);
      }

      .cls-10 {
        fill: #858585;
      }

      .cls-11 {
        fill: #8a8a8a;
      }

      .cls-12 {
        fill: #8f8f8f;
      }

      .cls-13 {
        fill: #999;
      }

      .cls-14 {
        fill: #9e9e9e;
      }

      .cls-15 {
        fill: #a3a3a3;
      }

      .cls-16 {
        fill: #a8a8a8;
      }

      .cls-17 {
        fill: #adadad;
      }

      .cls-18 {
        fill: #b3b3b3;
      }

      .cls-19 {
        fill: #b8b8b8;
      }

      .cls-20 {
        fill: #bdbdbd;
      }

      .cls-21 {
        fill: #c2c2c2;
      }

      .cls-22 {
        fill: #c7c7c7;
      }

      .cls-23 {
        fill: #ccc;
      }

      .cls-24 {
        fill: #d1d1d1;
      }

      .cls-25 {
        fill: #d6d6d6;
      }

      .cls-26 {
        fill: #dbdbdb;
      }

      .cls-27 {
        fill: #e0e0e0;
      }

      .cls-28 {
        fill: #e6e6e6;
      }

      .cls-29 {
        fill: #ebebeb;
      }

      .cls-30 {
        fill: #f5f5f5;
      }

      .cls-31 {
        clip-path: url(#clip-path-2);
      }

      .cls-32 {
        clip-path: url(#clip-path-3);
      }

      .cls-33 {
        clip-path: url(#clip-path-4);
      }

      .cls-34 {
        clip-path: url(#clip-path-5);
      }

      .cls-35 {
        clip-path: url(#clip-path-6);
      }

      .cls-36 {
        clip-path: url(#clip-path-7);
      }

      .cls-37 {
        fill: #a1a1a1;
      }

      .cls-38 {
        clip-path: url(#clip-path-8);
      }
    </style>
    <clipPath id="clip-path">
      <path class="cls-1" d="M807.45,847.34l-35.24-20.47c1.87,1.08,4.78.36,8.92-2,8.13-4.7,11.56-10.28,11.59-19.16,0-12.2.06-24.39-.16-36.43-.06-3.89.8-7,3.59-11.25l35.24,20.48c-2.79,4.27-3.65,7.36-3.59,11.25.22,12,.19,24.23.16,36.43,0,8.88-3.47,14.46-11.59,19.16C812.23,847.71,809.32,848.43,807.45,847.34Z"/>
    </clipPath>
    <clipPath id="clip-path-2">
      <path class="cls-1" d="M914.41,573.85l35.24,20.48c-1.64-1-4.41,0-9,2.68l-28.38,16.37L877.07,592.9l28.38-16.37C910,573.91,912.77,572.9,914.41,573.85Z"/>
    </clipPath>
    <clipPath id="clip-path-3">
      <path class="cls-1" d="M797.46,718.23l35.24,20.48a10.52,10.52,0,0,1,1.2.81c8.35,6.47,7.42,23.81-2.51,39L796.15,758c9.93-15.15,10.86-32.49,2.51-39A10.52,10.52,0,0,0,797.46,718.23Z"/>
    </clipPath>
    <clipPath id="clip-path-4">
      <path class="cls-1" d="M798.55,794.17,763.31,773.7l.32.18.47.26,35.24,20.48-.47-.26A3.37,3.37,0,0,1,798.55,794.17Z"/>
    </clipPath>
    <clipPath id="clip-path-5">
      <path class="cls-1" d="M822,571.15l35.24,20.48c6.68,3.88,11.73,10.6,14.23,20.06,1.86,7,2.22,15.4,2.5,23.82L838.75,615c-.28-8.42-.64-16.78-2.5-23.81C833.75,581.75,828.7,575,822,571.15Z"/>
    </clipPath>
    <clipPath id="clip-path-6">
      <path class="cls-1" d="M763.44,699.32,728.2,678.84Q783.47,646.92,838.75,615L874,635.51Q818.71,667.4,763.44,699.32Z"/>
    </clipPath>
    <clipPath id="clip-path-7">
      <path class="cls-1" d="M694,978.78,658.72,958.3c-6.2-3.6-10.58-10.45-12.5-20.31a60.43,60.43,0,0,1-.72-11q-.33-94.17-.59-188.39c0-8.91,2.39-13.06,10.18-17.59l29.21-16.86,35.24,20.48-29.21,16.86c-7.79,4.53-10.2,8.68-10.18,17.59q.27,94.2.59,188.39a60.43,60.43,0,0,0,.72,11C683.38,968.33,687.76,975.18,694,978.78Z"/>
    </clipPath>
    <clipPath id="clip-path-8">
      <path class="cls-1" d="M849,525.3l35.24,20.48c-18-10.49-43-8.49-69.15,6.63q-4.72,2.73-9.49,6c-44.4,30.75-82.93,97.07-85.37,149.8-.26,5.46-.41,10.89-.65,16.42L684.3,704.17c.24-5.53.39-11,.65-16.42,2.44-52.73,41-119,85.37-149.8q4.75-3.3,9.49-6C806,516.81,830.93,514.81,849,525.3Z"/>
    </clipPath>
  </defs>
  <title>private property</title>
  <g id="private_property" data-name="private property">
    <g>
      <g class="cls-2">
        <polygon class="cls-3" points="539.67 623.81 504.43 603.33 586.86 197.29 622.1 217.76 539.67 623.81"/>
        <polygon class="cls-4" points="622.1 217.76 586.86 197.29 657.83 156.31 693.07 176.79 622.1 217.76"/>
        <polygon class="cls-4" points="187.37 827.21 152.13 806.73 504.43 603.33 539.67 623.81 187.37 827.21"/>
        <polygon class="cls-5" points="693.07 176.79 591.94 674.94 535.86 707.32 153.69 928.33 97.7 960.29 198.83 462.14 269.8 421.17 187.37 827.21 539.67 623.81 622.1 217.76 693.07 176.79"/>
        <polygon class="cls-3" points="97.7 960.29 62.46 939.81 163.59 441.66 198.83 462.14 97.7 960.29"/>
        <polygon class="cls-4" points="198.83 462.14 163.59 441.66 234.56 400.69 269.8 421.17 198.83 462.14"/>
      </g>
      <g class="cls-2">
        <polygon class="cls-6" points="342.63 187.38 307.39 166.91 623.63 90.55 658.87 111.03 342.63 187.38"/>
        <polygon class="cls-5" points="342.63 187.38 658.87 111.03 622.13 211.06 347.04 277.18 274.33 395.65 231.7 368.11 342.63 187.38"/>
        <polygon class="cls-7" points="274.33 395.65 239.09 375.17 196.46 347.63 231.7 368.11 274.33 395.65"/>
        <polygon class="cls-8" points="231.7 368.11 196.46 347.63 307.39 166.91 342.63 187.38 231.7 368.11"/>
      </g>
    </g>
    <g class="cls-2">
      <g class="cls-2">
        <g class="cls-9">
          <g class="cls-2">
            <path class="cls-10" d="M807.45,847.34l-35.24-20.47a3.55,3.55,0,0,0,.44.21l35.24,20.48-.44-.22"/>
            <path class="cls-11" d="M807.89,847.56l-35.24-20.48a4.26,4.26,0,0,0,.54.17l35.24,20.48a4.26,4.26,0,0,1-.54-.17"/>
            <path class="cls-12" d="M808.43,847.73l-35.24-20.48.49.08,35.23,20.48-.48-.08"/>
            <path class="cls-5" d="M808.91,847.81l-35.23-20.48.44,0,35.24,20.48-.45,0"/>
            <path class="cls-13" d="M809.36,847.84l-35.24-20.48h.46l35.24,20.47-.46,0"/>
            <path class="cls-14" d="M809.82,847.82l-35.24-20.47.46-.05,35.24,20.48a3.73,3.73,0,0,1-.46,0"/>
            <path class="cls-15" d="M810.28,847.78,775,827.3l.5-.08,35.24,20.47a4.37,4.37,0,0,1-.5.09"/>
            <path class="cls-16" d="M810.78,847.69l-35.24-20.47.53-.13,35.24,20.48a5,5,0,0,1-.53.12"/>
            <path class="cls-17" d="M811.31,847.57l-35.24-20.48c.19-.05.39-.1.59-.17L811.9,847.4c-.2.07-.4.12-.59.17"/>
            <path class="cls-18" d="M811.9,847.4l-35.24-20.48.66-.22,35.24,20.48c-.23.08-.45.16-.66.22"/>
            <path class="cls-19" d="M812.56,847.18,777.32,826.7l.75-.3,35.24,20.48-.75.3"/>
            <path class="cls-20" d="M813.31,846.88,778.07,826.4l.86-.39,35.24,20.48-.86.39"/>
            <path class="cls-21" d="M814.17,846.49,778.93,826c.34-.16.69-.34,1.05-.53L815.22,846c-.36.19-.71.37-1.05.53"/>
            <path class="cls-22" d="M815.22,846,780,825.48c.37-.2.76-.41,1.15-.64l.15-.08,35.24,20.48-.15.08c-.39.23-.78.44-1.15.64"/>
            <path class="cls-23" d="M816.52,845.24l-35.24-20.48c.44-.26.87-.52,1.28-.79l35.24,20.48c-.41.27-.84.53-1.28.79"/>
            <path class="cls-24" d="M817.8,844.45,782.56,824c.38-.24.76-.49,1.12-.74l35.24,20.48c-.36.25-.74.5-1.12.74"/>
            <path class="cls-25" d="M818.92,843.71l-35.24-20.48,1-.7L819.89,843l-1,.7"/>
            <path class="cls-26" d="M819.89,843l-35.24-20.48.86-.68,35.24,20.48-.86.68"/>
            <path class="cls-27" d="M820.75,842.33l-35.24-20.48c.27-.22.53-.45.78-.67l35.24,20.48c-.25.22-.51.45-.78.67"/>
            <path class="cls-28" d="M821.53,841.66l-35.24-20.48.74-.69L822.27,841l-.74.69"/>
            <path class="cls-29" d="M822.27,841,787,820.49c.25-.25.49-.49.72-.74L823,840.23c-.23.25-.47.49-.72.74"/>
            <path class="cls-3" d="M823,840.23l-35.24-20.48q.39-.43.75-.87l35.24,20.48q-.36.43-.75.87"/>
            <path class="cls-30" d="M823.74,839.36,788.5,818.88a17.4,17.4,0,0,0,1.87-2.76l35.24,20.48a17.87,17.87,0,0,1-1.87,2.76"/>
            <path class="cls-3" d="M825.61,836.6l-35.24-20.48c.13-.25.27-.51.39-.77L826,835.83c-.12.26-.26.52-.39.77"/>
            <path class="cls-29" d="M826,835.83l-35.24-20.48a6.62,6.62,0,0,0,.3-.66l35.24,20.48c-.09.23-.19.44-.3.66"/>
            <path class="cls-28" d="M826.3,835.17l-35.24-20.48c.09-.19.17-.39.25-.6l35.24,20.48c-.08.2-.16.41-.25.6"/>
            <path class="cls-27" d="M826.55,834.57l-35.24-20.48c.07-.19.15-.39.22-.59L826.77,834c-.07.2-.15.4-.22.59"/>
            <path class="cls-26" d="M826.77,834,791.53,813.5c.06-.2.13-.4.19-.6L827,833.38c-.06.2-.13.4-.19.6"/>
            <path class="cls-25" d="M827,833.38,791.72,812.9l.18-.61,35.24,20.48-.18.61"/>
            <path class="cls-24" d="M827.14,832.77,791.9,812.29c.06-.21.11-.42.16-.63l35.24,20.48c0,.21-.1.42-.16.63"/>
            <path class="cls-23" d="M827.3,832.14l-35.24-20.48c.06-.22.11-.44.15-.67l35.24,20.48c0,.23-.09.45-.15.67"/>
            <path class="cls-22" d="M827.45,831.47,792.21,811c0-.23.1-.47.14-.71l35.24,20.48c0,.24-.09.48-.14.71"/>
            <path class="cls-21" d="M827.59,830.76l-35.24-20.48.12-.76L827.7,830c0,.25-.07.51-.11.76"/>
            <path class="cls-20" d="M827.7,830l-35.23-20.48c0-.29.07-.58.1-.87l35.24,20.47c0,.3-.07.59-.11.88"/>
            <path class="cls-19" d="M827.81,829.12l-35.24-20.47c0-.33.06-.65.08-1l35.24,20.48c0,.33,0,.65-.08,1"/>
            <path class="cls-18" d="M827.89,828.15l-35.24-20.48c0-.37,0-.75.06-1.13L828,827c0,.38,0,.76-.06,1.13"/>
            <path class="cls-17" d="M828,827l-35.24-20.48c0-.28,0-.57,0-.86,0-9.64,0-19.28-.05-28.84l35.24,20.48c.1,9.56.08,19.2.05,28.84,0,.29,0,.58,0,.86"/>
            <path class="cls-16" d="M827.91,797.32l-35.24-20.48q0-3.81-.11-7.59v-.17l35.24,20.48v.17q.08,3.78.11,7.59"/>
            <path class="cls-17" d="M827.8,789.56l-35.24-20.48c0-.3,0-.59,0-.88l35.24,20.48c0,.29,0,.58,0,.88"/>
            <path class="cls-18" d="M827.81,788.68,792.57,768.2l0-.73L827.84,788l0,.73"/>
            <path class="cls-19" d="M827.84,788,792.6,767.47l.06-.62,35.24,20.47-.06.63"/>
            <path class="cls-20" d="M827.9,787.32l-35.24-20.47c0-.19,0-.38.07-.57L828,786.76c0,.19-.05.37-.07.56"/>
            <path class="cls-21" d="M828,786.76l-35.24-20.48c0-.18,0-.36.08-.53l35.24,20.48c0,.17-.06.35-.08.53"/>
            <path class="cls-22" d="M828.05,786.23l-35.24-20.48.09-.51,35.24,20.48-.09.51"/>
            <path class="cls-23" d="M828.14,785.72,792.9,765.24c0-.16.07-.33.11-.49l35.24,20.48c0,.16-.07.33-.11.49"/>
            <path class="cls-24" d="M828.25,785.23,793,764.75l.13-.49,35.24,20.48-.13.49"/>
            <path class="cls-25" d="M828.38,784.74l-35.24-20.48.15-.51,35.24,20.48-.15.51"/>
            <path class="cls-26" d="M828.53,784.23l-35.24-20.48c.05-.17.11-.34.17-.52l35.24,20.48c-.06.17-.12.35-.17.52"/>
            <path class="cls-27" d="M828.7,783.71l-35.24-20.48.21-.57,35.24,20.48-.21.57"/>
            <path class="cls-28" d="M828.91,783.14l-35.24-20.48.26-.63,35.24,20.48c-.09.21-.18.42-.26.63"/>
            <path class="cls-29" d="M829.17,782.51,793.93,762c.1-.24.22-.49.34-.75l35.24,20.48c-.12.25-.24.5-.34.75"/>
            <path class="cls-3" d="M829.51,781.76l-35.24-20.48c.16-.33.33-.67.52-1L830,780.74c-.19.35-.36.69-.52,1"/>
            <path class="cls-30" d="M830,780.74l-35.24-20.48c.39-.72.84-1.47,1.36-2.26l35.24,20.48c-.52.79-1,1.54-1.36,2.26"/>
          </g>
        </g>
      </g>
      <g class="cls-2">
        <g class="cls-31">
          <g class="cls-2">
            <path class="cls-22" d="M912.31,613.38,877.07,592.9l28.38-16.37c.65-.38,1.27-.72,1.85-1L942.54,596c-.58.31-1.2.65-1.85,1l-28.38,16.37"/>
            <path class="cls-21" d="M942.54,596,907.3,575.5c.48-.25.94-.49,1.37-.69l35.24,20.47c-.43.21-.89.44-1.37.7"/>
            <path class="cls-20" d="M943.91,595.28l-35.24-20.47c.33-.16.66-.31,1-.44l35.24,20.48c-.31.13-.64.27-1,.43"/>
            <path class="cls-19" d="M944.88,594.85l-35.24-20.48.74-.3,35.24,20.48-.74.3"/>
            <path class="cls-18" d="M945.62,594.55l-35.24-20.48.62-.21,35.24,20.48-.62.21"/>
            <path class="cls-17" d="M946.24,594.34,911,573.86l.49-.15,35.24,20.48-.49.15"/>
            <path class="cls-16" d="M946.73,594.19l-35.24-20.48.45-.1,35.24,20.48-.45.1"/>
            <path class="cls-15" d="M947.18,594.09l-35.24-20.48.39-.06L947.57,594l-.39.07"/>
            <path class="cls-14" d="M947.57,594l-35.24-20.47.36,0L947.93,594l-.36,0"/>
            <path class="cls-13" d="M947.93,594l-35.24-20.48H913L948.27,594h-.34"/>
            <path class="cls-5" d="M948.27,594,913,573.5l.34,0L948.61,594l-.34,0"/>
            <path class="cls-12" d="M948.61,594l-35.24-20.48a1.86,1.86,0,0,1,.34.06L949,594.06a1.86,1.86,0,0,0-.34-.06"/>
            <path class="cls-11" d="M949,594.06l-35.24-20.48a2,2,0,0,1,.41.13l35.24,20.48a2,2,0,0,0-.41-.13"/>
            <path class="cls-10" d="M949.36,594.19l-35.24-20.48.29.14,35.24,20.48-.29-.14"/>
          </g>
        </g>
      </g>
      <g class="cls-2">
        <g class="cls-32">
          <g class="cls-2">
            <path class="cls-30" d="M831.39,778.48,796.15,758c.85-1.31,1.65-2.63,2.37-4l35.24,20.48c-.72,1.33-1.52,2.66-2.37,4"/>
            <path class="cls-3" d="M833.76,774.51,798.52,754q.65-1.2,1.23-2.4L835,772.11q-.59,1.2-1.23,2.4"/>
            <path class="cls-29" d="M835,772.11l-35.24-20.48c.31-.64.6-1.29.88-1.93l35.24,20.48c-.28.64-.57,1.29-.88,1.93"/>
            <path class="cls-28" d="M835.87,770.18,800.63,749.7c.25-.58.49-1.16.71-1.75l35.24,20.48c-.22.58-.46,1.17-.71,1.75"/>
            <path class="cls-27" d="M836.58,768.43,801.34,748c.21-.54.41-1.09.6-1.63l35.24,20.48c-.19.54-.39,1.09-.6,1.63"/>
            <path class="cls-26" d="M837.18,766.8l-35.24-20.48c.18-.51.35-1,.5-1.52l35.24,20.48c-.15.5-.32,1-.5,1.52"/>
            <path class="cls-25" d="M837.68,765.28,802.44,744.8c.16-.49.3-1,.43-1.46l35.24,20.48c-.13.48-.27,1-.43,1.46"/>
            <path class="cls-24" d="M838.11,763.82l-35.24-20.48c.13-.47.26-.94.37-1.41l35.24,20.48c-.11.46-.24.94-.37,1.41"/>
            <path class="cls-23" d="M838.48,762.41l-35.24-20.48q.16-.67.3-1.35l35.24,20.48q-.13.68-.3,1.35"/>
            <path class="cls-22" d="M838.78,761.06l-35.24-20.48c.09-.44.17-.88.25-1.32L839,759.74c-.08.44-.16.88-.25,1.32"/>
            <path class="cls-21" d="M839,759.74l-35.24-20.48c.07-.43.14-.86.2-1.28l35.24,20.48c-.06.42-.13.85-.2,1.28"/>
            <path class="cls-20" d="M839.23,758.46,804,738c.06-.43.11-.85.15-1.27l35.24,20.48c0,.42-.09.84-.15,1.27"/>
            <path class="cls-19" d="M839.38,757.19l-35.24-20.48c.05-.42.08-.83.11-1.24l35.24,20.47c0,.42-.07.83-.11,1.25"/>
            <path class="cls-18" d="M839.49,755.94l-35.24-20.47c0-.42,0-.84.06-1.25l35.24,20.48c0,.41,0,.83-.06,1.24"/>
            <path class="cls-17" d="M839.55,754.7l-35.24-20.48c0-.42,0-.83,0-1.24l35.24,20.48c0,.41,0,.82,0,1.24"/>
            <path class="cls-16" d="M839.56,753.46,804.32,733c0-.42,0-.84,0-1.25l35.24,20.48c0,.41,0,.83,0,1.25"/>
            <path class="cls-15" d="M839.52,752.21l-35.24-20.48c0-.43-.06-.85-.1-1.27l35.24,20.48c0,.42.08.84.1,1.27"/>
            <path class="cls-14" d="M839.42,750.94l-35.24-20.48c0-.43-.1-.85-.16-1.27l35.24,20.48c.06.41.12.84.16,1.27"/>
            <path class="cls-13" d="M839.26,749.67,804,729.19c-.07-.46-.16-.91-.25-1.35L839,748.32c.09.44.18.89.25,1.35"/>
            <path class="cls-5" d="M839,748.32l-35.24-20.48c-.11-.49-.23-1-.36-1.43l35.24,20.48c.13.47.25.94.36,1.43"/>
            <path class="cls-12" d="M838.65,746.89l-35.24-20.48c-.16-.53-.34-1-.53-1.54l35.24,20.48c.19.5.37,1,.53,1.54"/>
            <path class="cls-11" d="M838.12,745.35l-35.24-20.48a16.51,16.51,0,0,0-.84-1.8l35.24,20.48a16.51,16.51,0,0,1,.84,1.8"/>
            <path class="cls-10" d="M837.28,743.55,802,723.07a12.74,12.74,0,0,0-3.38-4,10.52,10.52,0,0,0-1.2-.81l35.24,20.48a10.52,10.52,0,0,1,1.2.81,12.74,12.74,0,0,1,3.38,4"/>
          </g>
        </g>
      </g>
      <g class="cls-2">
        <g class="cls-33">
          <g class="cls-2">
            <path class="cls-10" d="M798.55,794.17,763.31,773.7l.32.18.47.26,35.24,20.48-.47-.26a3.37,3.37,0,0,1-.32-.19"/>
          </g>
        </g>
      </g>
      <g class="cls-2">
        <g class="cls-34">
          <g class="cls-2">
            <path class="cls-16" d="M874,635.51,838.75,615c-.08-2.42-.17-4.83-.29-7.21l35.23,20.48c.13,2.38.22,4.79.3,7.21"/>
            <path class="cls-15" d="M873.69,628.3l-35.23-20.48c-.12-2.2-.28-4.38-.49-6.5l35.24,20.48q.31,3.18.48,6.5"/>
            <path class="cls-14" d="M873.21,621.8,838,601.32c-.15-1.49-.33-3-.55-4.4l35.24,20.48c.22,1.44.4,2.91.55,4.4"/>
            <path class="cls-13" d="M872.66,617.4l-35.24-20.48c-.19-1.23-.41-2.43-.67-3.6L872,613.8c.26,1.17.48,2.37.67,3.6"/>
            <path class="cls-5" d="M872,613.8l-35.24-20.48c-.15-.71-.32-1.41-.5-2.1-.11-.41-.22-.8-.33-1.19l35.24,20.48.33,1.18c.18.69.35,1.4.5,2.11"/>
            <path class="cls-12" d="M871.16,610.51,835.92,590c-.35-1.2-.75-2.35-1.18-3.46L870,607.05c.43,1.11.83,2.26,1.18,3.46"/>
            <path class="cls-11" d="M870,607.05l-35.24-20.48a37.5,37.5,0,0,0-1.91-4.09L868.07,603a37.5,37.5,0,0,1,1.91,4.09"/>
            <path class="cls-10" d="M868.07,603l-35.24-20.48A28.78,28.78,0,0,0,822,571.15l35.24,20.48A28.71,28.71,0,0,1,868.07,603"/>
          </g>
        </g>
      </g>
      <g class="cls-2">
        <g class="cls-35">
          <g class="cls-2">
            <path class="cls-22" d="M763.44,699.32,728.2,678.84Q783.47,646.92,838.75,615L874,635.51q-55.28,31.89-110.55,63.81"/>
          </g>
        </g>
      </g>
      <polygon class="cls-26" points="757.7 702.56 722.46 682.08 728.2 678.84 763.44 699.32 757.7 702.56"/>
      <g class="cls-2">
        <g class="cls-36">
          <g class="cls-2">
            <path class="cls-10" d="M694,978.78,658.72,958.3a23.21,23.21,0,0,1-8.68-9.22l35.24,20.48a23.21,23.21,0,0,0,8.68,9.22"/>
            <path class="cls-11" d="M685.28,969.56,650,949.08a32.66,32.66,0,0,1-1.7-3.67l35.24,20.48a32.66,32.66,0,0,0,1.7,3.67"/>
            <path class="cls-12" d="M683.58,965.89l-35.24-20.48c-.41-1-.78-2.12-1.11-3.26l35.24,20.48c.33,1.14.7,2.23,1.11,3.26"/>
            <path class="cls-5" d="M682.47,962.63l-35.24-20.48c-.29-1-.55-2-.79-3.09l35.24,20.48c.24,1.07.5,2.1.79,3.09"/>
            <path class="cls-13" d="M681.68,959.54l-35.24-20.48c-.07-.35-.15-.71-.22-1.07s-.13-.72-.18-1.08l35.24,20.47c.05.37.11.73.18,1.09s.15.72.22,1.07"/>
            <path class="cls-14" d="M681.28,957.38,646,936.91c-.1-.61-.18-1.24-.24-1.87L681,955.52c.06.63.14,1.26.24,1.86"/>
            <path class="cls-15" d="M681,955.52,645.8,935c-.08-.78-.14-1.57-.18-2.38l35.24,20.48c0,.81.1,1.6.18,2.38"/>
            <path class="cls-16" d="M680.86,953.14l-35.24-20.48c-.07-1.29-.1-2.62-.11-3.95l35.24,20.48c0,1.33,0,2.66.11,3.95"/>
            <path class="cls-17" d="M680.75,949.19l-35.24-20.48c0-.56,0-1.13,0-1.7q-.33-94.17-.59-188.39c0-.48,0-1,0-1.41l35.24,20.48c0,.46,0,.93,0,1.41q.27,94.2.59,188.39c0,.57,0,1.13,0,1.7"/>
            <path class="cls-18" d="M680.17,757.69l-35.24-20.48c0-.44,0-.88.06-1.3l35.24,20.48c0,.42-.05.86-.06,1.3"/>
            <path class="cls-19" d="M680.23,756.39,645,735.91c0-.35,0-.7.09-1l35.24,20.48c0,.34-.07.69-.09,1"/>
            <path class="cls-20" d="M680.32,755.35l-35.24-20.48c0-.28.06-.56.1-.83l35.24,20.48c0,.27-.07.55-.1.83"/>
            <path class="cls-21" d="M680.42,754.52,645.18,734c0-.25.07-.49.11-.73l35.24,20.48c0,.24-.08.48-.11.73"/>
            <path class="cls-22" d="M680.53,753.79l-35.24-20.48.12-.65,35.24,20.48-.12.65"/>
            <path class="cls-23" d="M680.65,753.14l-35.24-20.48c0-.2.09-.39.13-.58l35.24,20.48c0,.19-.09.38-.13.58"/>
            <path class="cls-24" d="M680.78,752.56l-35.24-20.48c.05-.18.09-.36.14-.54L680.92,752c0,.18-.1.36-.14.54"/>
            <path class="cls-25" d="M680.92,752l-35.24-20.48.15-.5,35.24,20.47-.15.51"/>
            <path class="cls-26" d="M681.07,751.51,645.83,731c0-.17.1-.33.16-.49L681.23,751c-.06.16-.11.32-.16.48"/>
            <path class="cls-27" d="M681.23,751,646,730.55l.17-.48,35.24,20.48c-.06.16-.12.32-.17.48"/>
            <path class="cls-28" d="M681.4,750.55l-35.24-20.48.2-.48,35.24,20.48-.2.48"/>
            <path class="cls-29" d="M681.6,750.07l-35.24-20.48c.07-.17.15-.33.23-.49l35.23,20.48c-.07.16-.15.32-.22.49"/>
            <path class="cls-3" d="M681.82,749.58,646.59,729.1c.1-.22.2-.42.32-.63L682.15,749c-.12.2-.22.41-.33.63"/>
            <path class="cls-30" d="M682.15,749l-35.24-20.48a13.68,13.68,0,0,1,1.41-2.09l35.24,20.48a13.21,13.21,0,0,0-1.41,2.09"/>
            <path class="cls-3" d="M683.56,746.86l-35.24-20.48q.28-.35.6-.69l35.24,20.48c-.21.23-.41.45-.6.69"/>
            <path class="cls-29" d="M684.16,746.17l-35.24-20.48c.18-.2.37-.39.57-.59l35.24,20.48c-.2.2-.39.39-.57.59"/>
            <path class="cls-28" d="M684.73,745.58,649.49,725.1c.19-.19.39-.37.6-.56L685.33,745c-.21.19-.41.37-.6.56"/>
            <path class="cls-27" d="M685.33,745l-35.24-20.48.67-.57L686,744.45l-.67.57"/>
            <path class="cls-26" d="M686,744.45,650.76,724c.24-.2.49-.4.76-.6l35.24,20.48c-.27.2-.52.4-.76.6"/>
            <path class="cls-25" d="M686.76,743.85l-35.24-20.48c.28-.21.58-.43.9-.65l35.24,20.48c-.32.22-.62.43-.9.65"/>
            <path class="cls-24" d="M687.66,743.2l-35.24-20.48c.35-.25.73-.49,1.12-.74l35.24,20.48c-.39.24-.77.49-1.12.74"/>
            <path class="cls-23" d="M688.78,742.46,653.54,722q.69-.45,1.47-.9l35.24,20.48q-.78.45-1.47.9"/>
            <path class="cls-22" d="M690.25,741.56,655,721.08l.08-.05,29.21-16.86,35.24,20.48-29.21,16.86-.08,0"/>
          </g>
        </g>
      </g>
      <path class="cls-37" d="M951.77,603q.38,93.62.53,187.34c0,26.93-13.33,55-34.88,73.34a86.93,86.93,0,0,1-12.17,8.57c-30,17.39-59.58,34.47-89.12,51.52s-59.08,34.09-88.63,51.1c-23.31,13.43-41.53,6.86-46-16.36a60.43,60.43,0,0,1-.72-11q-.33-94.18-.59-188.39c0-8.91,2.39-13.06,10.18-17.59l29.21-16.86c.24-5.53.39-11,.65-16.42,2.44-52.73,41-119.05,85.37-149.8q4.76-3.3,9.49-6c46.47-26.83,89-12.34,96,40a163.13,163.13,0,0,1,1.23,21L940.69,597C949.66,591.83,951.74,593,951.77,603ZM763.44,699.32Q818.71,667.4,874,635.51c-.28-8.42-.64-16.78-2.5-23.82C865,587,841.14,581,816.44,595.27c-1.83,1.06-3.67,2.23-5.5,3.51C782,619,759.45,657.31,758,690.66c-.16,3.67-.26,7.68-.33,11.9l5.74-3.24m67.95,79.16c9.93-15.15,10.86-32.49,2.51-39-4.57-3.55-11.15-2.92-17.77.9a46.28,46.28,0,0,0-15.33,15.42c-9.62,15.21-11.18,33.61-1.93,38.52,5.3,2.78,6.38,8,5.91,15.65-.22,3.73,0,7.27,0,10.89,0,6.17,0,12.37.06,18.5.1,8.87,3.49,10.57,11.54,5.92S827.93,835,828,826.16c0-12.2.06-24.39-.16-36.43-.06-3.89.8-7,3.59-11.25"/>
      <g class="cls-2">
        <g class="cls-38">
          <g class="cls-2">
            <path class="cls-18" d="M719.54,724.65,684.3,704.17c.24-5.53.39-11,.65-16.42,0-.84.08-1.68.14-2.53l35.24,20.48c-.06.84-.1,1.69-.14,2.53-.26,5.46-.41,10.89-.65,16.42"/>
            <path class="cls-19" d="M720.33,705.7l-35.24-20.48q.15-2.25.39-4.53l35.24,20.48q-.24,2.28-.39,4.53"/>
            <path class="cls-20" d="M720.72,701.17l-35.24-20.48q.24-2.33.57-4.68l35.23,20.48c-.21,1.57-.4,3.13-.56,4.68"/>
            <path class="cls-21" d="M721.28,696.49,686.05,676c.21-1.58.46-3.17.74-4.77L722,691.72q-.42,2.4-.75,4.77"/>
            <path class="cls-22" d="M722,691.72l-35.24-20.48c.29-1.67.61-3.36,1-5L723,686.67c-.35,1.69-.67,3.38-1,5.05"/>
            <path class="cls-23" d="M723,686.67l-35.24-20.48q.54-2.61,1.17-5.25l35.24,20.48q-.63,2.64-1.17,5.25"/>
            <path class="cls-24" d="M724.16,681.42l-35.24-20.48c.44-1.83.92-3.66,1.42-5.5l35.24,20.48c-.5,1.84-1,3.67-1.42,5.5"/>
            <path class="cls-25" d="M725.58,675.92l-35.24-20.48q.82-3,1.76-6l35.24,20.48q-.93,3-1.76,6"/>
            <path class="cls-26" d="M727.34,669.94,692.1,649.46c.66-2.11,1.35-4.22,2.09-6.34l35.24,20.48c-.74,2.11-1.44,4.23-2.09,6.34"/>
            <path class="cls-27" d="M729.43,663.6l-35.24-20.48q1.18-3.4,2.51-6.81l35.24,20.48q-1.32,3.4-2.51,6.81"/>
            <path class="cls-28" d="M731.94,656.79,696.7,636.31c1-2.48,2-5,3-7.44L735,649.35c-1.06,2.47-2.08,4.95-3,7.44"/>
            <path class="cls-29" d="M735,649.35l-35.24-20.48q1.83-4.25,3.84-8.45l35.24,20.48q-2,4.2-3.84,8.45"/>
            <path class="cls-3" d="M738.82,640.9l-35.24-20.48q2.59-5.4,5.47-10.7l35.24,20.48q-2.88,5.29-5.47,10.7"/>
            <path class="cls-30" d="M744.29,630.2l-35.24-20.48a241.69,241.69,0,0,1,25.45-38l35.24,20.48a241.69,241.69,0,0,0-25.45,38"/>
            <path class="cls-3" d="M769.74,592.23,734.5,571.75c2.68-3.25,5.42-6.41,8.22-9.44L778,582.79c-2.8,3-5.54,6.19-8.22,9.44"/>
            <path class="cls-29" d="M778,582.79l-35.24-20.48q3.31-3.59,6.74-6.94l35.24,20.47q-3.42,3.36-6.74,6.95"/>
            <path class="cls-28" d="M784.7,575.84l-35.24-20.47c1.93-1.9,3.89-3.74,5.86-5.51l35.24,20.48c-2,1.77-3.93,3.61-5.86,5.5"/>
            <path class="cls-27" d="M790.56,570.34l-35.24-20.48c1.75-1.57,3.51-3.08,5.29-4.55l35.24,20.48q-2.67,2.19-5.29,4.55"/>
            <path class="cls-26" d="M795.85,565.79l-35.24-20.48q2.43-2,4.89-3.86l35.24,20.48q-2.46,1.86-4.89,3.86"/>
            <path class="cls-25" d="M800.74,561.93,765.5,541.45q2.28-1.74,4.59-3.34l35.24,20.48q-2.31,1.6-4.59,3.34"/>
            <path class="cls-24" d="M805.33,558.59l-35.24-20.48.23-.16c1.49-1,3-2,4.47-3L810,555.46q-2.24,1.42-4.47,3l-.23.16"/>
            <path class="cls-23" d="M810,555.46,774.79,535q2.28-1.46,4.55-2.78l35.24,20.48q-2.26,1.32-4.55,2.78"/>
            <path class="cls-22" d="M814.58,552.68,779.34,532.2l.47-.27q2-1.14,4-2.19L819,550.22q-2,1-4,2.19l-.47.27"/>
            <path class="cls-21" d="M819,550.22l-35.24-20.48c1.47-.77,2.93-1.51,4.38-2.2L823.38,548q-2.18,1-4.38,2.2"/>
            <path class="cls-20" d="M823.38,548l-35.24-20.48q2.18-1,4.33-1.95l35.24,20.48q-2.16.91-4.33,1.95"/>
            <path class="cls-19" d="M827.71,546.07l-35.24-20.48c1.45-.62,2.9-1.19,4.33-1.72L832,544.35c-1.43.53-2.88,1.1-4.33,1.72"/>
            <path class="cls-18" d="M832,544.35,796.8,523.87c1.45-.54,2.9-1,4.33-1.49l35.24,20.48c-1.43.45-2.88.95-4.33,1.49"/>
            <path class="cls-17" d="M836.37,542.86l-35.24-20.48c1.48-.46,2.94-.88,4.4-1.26l35.24,20.48c-1.46.38-2.92.8-4.4,1.26"/>
            <path class="cls-16" d="M840.77,541.6l-35.24-20.48c1.5-.39,3-.73,4.48-1l35.24,20.47c-1.48.3-3,.64-4.48,1"/>
            <path class="cls-15" d="M845.25,540.57,810,520.1c1.54-.31,3.06-.56,4.57-.76l35.23,20.48q-2.25.3-4.56.75"/>
            <path class="cls-14" d="M849.81,539.82l-35.23-20.48c1.59-.22,3.16-.37,4.72-.47l35.24,20.48c-1.56.1-3.13.25-4.73.47"/>
            <path class="cls-13" d="M854.54,539.35,819.3,518.87c1.7-.11,3.38-.15,5-.12l35.24,20.48c-1.65,0-3.33,0-5,.12"/>
            <path class="cls-5" d="M859.57,539.23l-35.24-20.48c1.82,0,3.62.14,5.38.34L865,539.57c-1.76-.2-3.56-.31-5.38-.34"/>
            <path class="cls-12" d="M865,539.57l-35.24-20.48a52.57,52.57,0,0,1,5.94,1l35.24,20.48a52.57,52.57,0,0,0-5.94-1"/>
            <path class="cls-11" d="M870.89,540.57l-35.24-20.48a48.24,48.24,0,0,1,7,2.15l35.24,20.47a49.49,49.49,0,0,0-7-2.14"/>
            <path class="cls-10" d="M877.87,542.71l-35.24-20.47A45.57,45.57,0,0,1,849,525.3l35.24,20.48a46.79,46.79,0,0,0-6.33-3.07"/>
          </g>
        </g>
      </g>
    </g>
  </g>
</svg>
