<svg id="private_accessor" data-name="private accessor" xmlns="http://www.w3.org/2000/svg" xmlns:xlink="http://www.w3.org/1999/xlink" viewBox="0 0 1000 1000">
  <defs>
    <style>
      .cls-1 {
        fill: none;
      }

      .cls-2 {
        isolation: isolate;
      }

      .cls-3 {
        clip-path: url(#clip-path);
      }

      .cls-4 {
        fill: #858585;
      }

      .cls-5 {
        fill: #8a8a8a;
      }

      .cls-6 {
        fill: #8f8f8f;
      }

      .cls-7 {
        fill: #949494;
      }

      .cls-8 {
        fill: #999;
      }

      .cls-9 {
        fill: #9e9e9e;
      }

      .cls-10 {
        fill: #a3a3a3;
      }

      .cls-11 {
        fill: #a8a8a8;
      }

      .cls-12 {
        fill: #adadad;
      }

      .cls-13 {
        fill: #b3b3b3;
      }

      .cls-14 {
        fill: #b8b8b8;
      }

      .cls-15 {
        fill: #bdbdbd;
      }

      .cls-16 {
        fill: #c2c2c2;
      }

      .cls-17 {
        fill: #c7c7c7;
      }

      .cls-18 {
        fill: #ccc;
      }

      .cls-19 {
        fill: #d1d1d1;
      }

      .cls-20 {
        fill: #d6d6d6;
      }

      .cls-21 {
        fill: #dbdbdb;
      }

      .cls-22 {
        fill: #e0e0e0;
      }

      .cls-23 {
        fill: #e6e6e6;
      }

      .cls-24 {
        fill: #ebebeb;
      }

      .cls-25 {
        fill: #f0f0f0;
      }

      .cls-26 {
        fill: #f5f5f5;
      }

      .cls-27 {
        clip-path: url(#clip-path-2);
      }

      .cls-28 {
        clip-path: url(#clip-path-3);
      }

      .cls-29 {
        clip-path: url(#clip-path-4);
      }

      .cls-30 {
        clip-path: url(#clip-path-5);
      }

      .cls-31 {
        clip-path: url(#clip-path-6);
      }

      .cls-32 {
        clip-path: url(#clip-path-7);
      }

      .cls-33 {
        fill: #a1a1a1;
      }

      .cls-34 {
        clip-path: url(#clip-path-8);
      }

      .cls-35 {
        fill: #aaa;
      }

      .cls-36 {
        fill: #fefefe;
      }

      .cls-37 {
        fill: #b6b6b6;
      }

      .cls-38 {
        fill: #8c8c8c;
      }
    </style>
    <clipPath id="clip-path">
      <path class="cls-1" d="M790.45,847.34l-35.24-20.47c1.87,1.08,4.78.36,8.92-2,8.13-4.7,11.56-10.28,11.59-19.16,0-12.2.06-24.39-.16-36.43-.06-3.89.8-7,3.59-11.25l35.24,20.48c-2.79,4.27-3.65,7.36-3.59,11.25.22,12,.19,24.23.16,36.43,0,8.88-3.47,14.46-11.59,19.16C795.23,847.71,792.32,848.43,790.45,847.34Z"/>
    </clipPath>
    <clipPath id="clip-path-2">
      <path class="cls-1" d="M897.41,573.85l35.24,20.48c-1.64-1-4.41,0-9,2.68l-28.38,16.37L860.07,592.9l28.38-16.37C893,573.91,895.77,572.9,897.41,573.85Z"/>
    </clipPath>
    <clipPath id="clip-path-3">
      <path class="cls-1" d="M780.46,718.23l35.24,20.48a10.52,10.52,0,0,1,1.2.81c8.35,6.47,7.42,23.81-2.51,39L779.15,758c9.93-15.15,10.86-32.49,2.51-39A10.52,10.52,0,0,0,780.46,718.23Z"/>
    </clipPath>
    <clipPath id="clip-path-4">
      <path class="cls-1" d="M781.55,794.17,746.31,773.7l.32.18.47.26,35.24,20.48-.47-.26A3.37,3.37,0,0,1,781.55,794.17Z"/>
    </clipPath>
    <clipPath id="clip-path-5">
      <path class="cls-1" d="M805,571.15l35.24,20.48c6.68,3.88,11.73,10.6,14.23,20.06,1.86,7,2.22,15.4,2.5,23.82L821.75,615c-.28-8.42-.64-16.78-2.5-23.81C816.75,581.75,811.7,575,805,571.15Z"/>
    </clipPath>
    <clipPath id="clip-path-6">
      <path class="cls-1" d="M746.44,699.32,711.2,678.84Q766.47,646.92,821.75,615L857,635.51Q801.71,667.4,746.44,699.32Z"/>
    </clipPath>
    <clipPath id="clip-path-7">
      <path class="cls-1" d="M677,978.78,641.72,958.3c-6.2-3.6-10.58-10.45-12.5-20.31a60.43,60.43,0,0,1-.72-11q-.33-94.17-.59-188.39c0-8.91,2.39-13.06,10.18-17.59l29.21-16.86,35.24,20.48-29.21,16.86c-7.79,4.53-10.2,8.68-10.18,17.59q.27,94.2.59,188.39a60.43,60.43,0,0,0,.72,11C666.38,968.33,670.76,975.18,677,978.78Z"/>
    </clipPath>
    <clipPath id="clip-path-8">
      <path class="cls-1" d="M832,525.3l35.24,20.48c-18-10.49-43-8.49-69.15,6.63q-4.72,2.73-9.49,6c-44.4,30.75-82.93,97.07-85.37,149.8-.26,5.46-.41,10.89-.65,16.42L667.3,704.17c.24-5.53.39-11,.65-16.42,2.44-52.73,41-119,85.37-149.8q4.75-3.3,9.49-6C789,516.81,813.93,514.81,832,525.3Z"/>
    </clipPath>
  </defs>
  <title>private accessor</title>
  <g class="cls-2">
    <g class="cls-2">
      <g class="cls-3">
        <g class="cls-2">
          <path class="cls-4" d="M790.45,847.34l-35.24-20.47a3.55,3.55,0,0,0,.44.21l35.24,20.48-.44-.22"/>
          <path class="cls-5" d="M790.89,847.56l-35.24-20.48a4.26,4.26,0,0,0,.54.17l35.24,20.48a4.26,4.26,0,0,1-.54-.17"/>
          <path class="cls-6" d="M791.43,847.73l-35.24-20.48.49.08,35.23,20.48-.48-.08"/>
          <path class="cls-7" d="M791.91,847.81l-35.23-20.48.44,0,35.24,20.48-.45,0"/>
          <path class="cls-8" d="M792.36,847.84l-35.24-20.48h.46l35.24,20.47-.46,0"/>
          <path class="cls-9" d="M792.82,847.82l-35.24-20.47.46-.05,35.24,20.48a3.73,3.73,0,0,1-.46,0"/>
          <path class="cls-10" d="M793.28,847.78,758,827.3l.5-.08,35.24,20.47a4.37,4.37,0,0,1-.5.09"/>
          <path class="cls-11" d="M793.78,847.69l-35.24-20.47.53-.13,35.24,20.48a5,5,0,0,1-.53.12"/>
          <path class="cls-12" d="M794.31,847.57l-35.24-20.48c.19-.05.39-.1.59-.17L794.9,847.4c-.2.07-.4.12-.59.17"/>
          <path class="cls-13" d="M794.9,847.4l-35.24-20.48.66-.22,35.24,20.48c-.23.08-.45.16-.66.22"/>
          <path class="cls-14" d="M795.56,847.18,760.32,826.7l.75-.3,35.24,20.48-.75.3"/>
          <path class="cls-15" d="M796.31,846.88,761.07,826.4l.86-.39,35.24,20.48-.86.39"/>
          <path class="cls-16" d="M797.17,846.49,761.93,826c.34-.16.69-.34,1.05-.53L798.22,846c-.36.19-.71.37-1.05.53"/>
          <path class="cls-17" d="M798.22,846,763,825.48c.37-.2.76-.41,1.15-.64l.15-.08,35.24,20.48-.15.08c-.39.23-.78.44-1.15.64"/>
          <path class="cls-18" d="M799.52,845.24l-35.24-20.48c.44-.26.87-.52,1.28-.79l35.24,20.48c-.41.27-.84.53-1.28.79"/>
          <path class="cls-19" d="M800.8,844.45,765.56,824c.38-.24.76-.49,1.12-.74l35.24,20.48c-.36.25-.74.5-1.12.74"/>
          <path class="cls-20" d="M801.92,843.71l-35.24-20.48,1-.7L802.89,843l-1,.7"/>
          <path class="cls-21" d="M802.89,843l-35.24-20.48.86-.68,35.24,20.48-.86.68"/>
          <path class="cls-22" d="M803.75,842.33l-35.24-20.48c.27-.22.53-.45.78-.67l35.24,20.48c-.25.22-.51.45-.78.67"/>
          <path class="cls-23" d="M804.53,841.66l-35.24-20.48.74-.69L805.27,841l-.74.69"/>
          <path class="cls-24" d="M805.27,841,770,820.49c.25-.25.49-.49.72-.74L806,840.23c-.23.25-.47.49-.72.74"/>
          <path class="cls-25" d="M806,840.23l-35.24-20.48q.39-.43.75-.87l35.24,20.48q-.36.43-.75.87"/>
          <path class="cls-26" d="M806.74,839.36,771.5,818.88a17.4,17.4,0,0,0,1.87-2.76l35.24,20.48a17.87,17.87,0,0,1-1.87,2.76"/>
          <path class="cls-25" d="M808.61,836.6l-35.24-20.48c.13-.25.27-.51.39-.77L809,835.83c-.12.26-.26.52-.39.77"/>
          <path class="cls-24" d="M809,835.83l-35.24-20.48a6.62,6.62,0,0,0,.3-.66l35.24,20.48c-.09.23-.19.44-.3.66"/>
          <path class="cls-23" d="M809.3,835.17l-35.24-20.48c.09-.19.17-.39.25-.6l35.24,20.48c-.08.2-.16.41-.25.6"/>
          <path class="cls-22" d="M809.55,834.57l-35.24-20.48c.07-.19.15-.39.22-.59L809.77,834c-.07.2-.15.4-.22.59"/>
          <path class="cls-21" d="M809.77,834,774.53,813.5c.06-.2.13-.4.19-.6L810,833.38c-.06.2-.13.4-.19.6"/>
          <path class="cls-20" d="M810,833.38,774.72,812.9l.18-.61,35.24,20.48-.18.61"/>
          <path class="cls-19" d="M810.14,832.77,774.9,812.29c.06-.21.11-.42.16-.63l35.24,20.48c0,.21-.1.42-.16.63"/>
          <path class="cls-18" d="M810.3,832.14l-35.24-20.48c.06-.22.11-.44.15-.67l35.24,20.48c0,.23-.09.45-.15.67"/>
          <path class="cls-17" d="M810.45,831.47,775.21,811c0-.23.1-.47.14-.71l35.24,20.48c0,.24-.09.48-.14.71"/>
          <path class="cls-16" d="M810.59,830.76l-35.24-20.48.12-.76L810.7,830c0,.25-.07.51-.11.76"/>
          <path class="cls-15" d="M810.7,830l-35.23-20.48c0-.29.07-.58.1-.87l35.24,20.47c0,.3-.07.59-.11.88"/>
          <path class="cls-14" d="M810.81,829.12l-35.24-20.47c0-.33.06-.65.08-1l35.24,20.48c0,.33,0,.65-.08,1"/>
          <path class="cls-13" d="M810.89,828.15l-35.24-20.48c0-.37,0-.75.06-1.13L811,827c0,.38,0,.76-.06,1.13"/>
          <path class="cls-12" d="M811,827l-35.24-20.48c0-.28,0-.57,0-.86,0-9.64,0-19.28-.05-28.84l35.24,20.48c.1,9.56.08,19.2.05,28.84,0,.29,0,.58,0,.86"/>
          <path class="cls-11" d="M810.91,797.32l-35.24-20.48q0-3.81-.11-7.59v-.17l35.24,20.48v.17q.08,3.78.11,7.59"/>
          <path class="cls-12" d="M810.8,789.56l-35.24-20.48c0-.3,0-.59,0-.88l35.24,20.48c0,.29,0,.58,0,.88"/>
          <path class="cls-13" d="M810.81,788.68,775.57,768.2l0-.73L810.84,788l0,.73"/>
          <path class="cls-14" d="M810.84,788,775.6,767.47l.06-.62,35.24,20.47-.06.63"/>
          <path class="cls-15" d="M810.9,787.32l-35.24-20.47c0-.19,0-.38.07-.57L811,786.76c0,.19-.05.37-.07.56"/>
          <path class="cls-16" d="M811,786.76l-35.24-20.48c0-.18,0-.36.08-.53l35.24,20.48c0,.17-.06.35-.08.53"/>
          <path class="cls-17" d="M811.05,786.23l-35.24-20.48.09-.51,35.24,20.48-.09.51"/>
          <path class="cls-18" d="M811.14,785.72,775.9,765.24c0-.16.07-.33.11-.49l35.24,20.48c0,.16-.07.33-.11.49"/>
          <path class="cls-19" d="M811.25,785.23,776,764.75l.13-.49,35.24,20.48-.13.49"/>
          <path class="cls-20" d="M811.38,784.74l-35.24-20.48.15-.51,35.24,20.48-.15.51"/>
          <path class="cls-21" d="M811.53,784.23l-35.24-20.48c.05-.17.11-.34.17-.52l35.24,20.48c-.06.17-.12.35-.17.52"/>
          <path class="cls-22" d="M811.7,783.71l-35.24-20.48.21-.57,35.24,20.48-.21.57"/>
          <path class="cls-23" d="M811.91,783.14l-35.24-20.48.26-.63,35.24,20.48c-.09.21-.18.42-.26.63"/>
          <path class="cls-24" d="M812.17,782.51,776.93,762c.1-.24.22-.49.34-.75l35.24,20.48c-.12.25-.24.5-.34.75"/>
          <path class="cls-25" d="M812.51,781.76l-35.24-20.48c.16-.33.33-.67.52-1L813,780.74c-.19.35-.36.69-.52,1"/>
          <path class="cls-26" d="M813,780.74l-35.24-20.48c.39-.72.84-1.47,1.36-2.26l35.24,20.48c-.52.79-1,1.54-1.36,2.26"/>
        </g>
      </g>
    </g>
    <g class="cls-2">
      <g class="cls-27">
        <g class="cls-2">
          <path class="cls-17" d="M895.31,613.38,860.07,592.9l28.38-16.37c.65-.38,1.27-.72,1.85-1L925.54,596c-.58.31-1.2.65-1.85,1l-28.38,16.37"/>
          <path class="cls-16" d="M925.54,596,890.3,575.5c.48-.25.94-.49,1.37-.69l35.24,20.47c-.43.21-.89.44-1.37.7"/>
          <path class="cls-15" d="M926.91,595.28l-35.24-20.47c.33-.16.66-.31,1-.44l35.24,20.48c-.31.13-.64.27-1,.43"/>
          <path class="cls-14" d="M927.88,594.85l-35.24-20.48.74-.3,35.24,20.48-.74.3"/>
          <path class="cls-13" d="M928.62,594.55l-35.24-20.48.62-.21,35.24,20.48-.62.21"/>
          <path class="cls-12" d="M929.24,594.34,894,573.86l.49-.15,35.24,20.48-.49.15"/>
          <path class="cls-11" d="M929.73,594.19l-35.24-20.48.45-.1,35.24,20.48-.45.1"/>
          <path class="cls-10" d="M930.18,594.09l-35.24-20.48.39-.06L930.57,594l-.39.07"/>
          <path class="cls-9" d="M930.57,594l-35.24-20.47.36,0L930.93,594l-.36,0"/>
          <path class="cls-8" d="M930.93,594l-35.24-20.48H896L931.27,594h-.34"/>
          <path class="cls-7" d="M931.27,594,896,573.5l.34,0L931.61,594l-.34,0"/>
          <path class="cls-6" d="M931.61,594l-35.24-20.48a1.86,1.86,0,0,1,.34.06L932,594.06a1.86,1.86,0,0,0-.34-.06"/>
          <path class="cls-5" d="M932,594.06l-35.24-20.48a2,2,0,0,1,.41.13l35.24,20.48a2,2,0,0,0-.41-.13"/>
          <path class="cls-4" d="M932.36,594.19l-35.24-20.48.29.14,35.24,20.48-.29-.14"/>
        </g>
      </g>
    </g>
    <g class="cls-2">
      <g class="cls-28">
        <g class="cls-2">
          <path class="cls-26" d="M814.39,778.48,779.15,758c.85-1.31,1.65-2.63,2.37-4l35.24,20.48c-.72,1.33-1.52,2.66-2.37,4"/>
          <path class="cls-25" d="M816.76,774.51,781.52,754q.65-1.2,1.23-2.4L818,772.11q-.59,1.2-1.23,2.4"/>
          <path class="cls-24" d="M818,772.11l-35.24-20.48c.31-.64.6-1.29.88-1.93l35.24,20.48c-.28.64-.57,1.29-.88,1.93"/>
          <path class="cls-23" d="M818.87,770.18,783.63,749.7c.25-.58.49-1.16.71-1.75l35.24,20.48c-.22.58-.46,1.17-.71,1.75"/>
          <path class="cls-22" d="M819.58,768.43,784.34,748c.21-.54.41-1.09.6-1.63l35.24,20.48c-.19.54-.39,1.09-.6,1.63"/>
          <path class="cls-21" d="M820.18,766.8l-35.24-20.48c.18-.51.35-1,.5-1.52l35.24,20.48c-.15.5-.32,1-.5,1.52"/>
          <path class="cls-20" d="M820.68,765.28,785.44,744.8c.16-.49.3-1,.43-1.46l35.24,20.48c-.13.48-.27,1-.43,1.46"/>
          <path class="cls-19" d="M821.11,763.82l-35.24-20.48c.13-.47.26-.94.37-1.41l35.24,20.48c-.11.46-.24.94-.37,1.41"/>
          <path class="cls-18" d="M821.48,762.41l-35.24-20.48q.16-.67.3-1.35l35.24,20.48q-.13.68-.3,1.35"/>
          <path class="cls-17" d="M821.78,761.06l-35.24-20.48c.09-.44.17-.88.25-1.32L822,759.74c-.08.44-.16.88-.25,1.32"/>
          <path class="cls-16" d="M822,759.74l-35.24-20.48c.07-.43.14-.86.2-1.28l35.24,20.48c-.06.42-.13.85-.2,1.28"/>
          <path class="cls-15" d="M822.23,758.46,787,738c.06-.43.11-.85.15-1.27l35.24,20.48c0,.42-.09.84-.15,1.27"/>
          <path class="cls-14" d="M822.38,757.19l-35.24-20.48c.05-.42.08-.83.11-1.24l35.24,20.47c0,.42-.07.83-.11,1.25"/>
          <path class="cls-13" d="M822.49,755.94l-35.24-20.47c0-.42,0-.84.06-1.25l35.24,20.48c0,.41,0,.83-.06,1.24"/>
          <path class="cls-12" d="M822.55,754.7l-35.24-20.48c0-.42,0-.83,0-1.24l35.24,20.48c0,.41,0,.82,0,1.24"/>
          <path class="cls-11" d="M822.56,753.46,787.32,733c0-.42,0-.84,0-1.25l35.24,20.48c0,.41,0,.83,0,1.25"/>
          <path class="cls-10" d="M822.52,752.21l-35.24-20.48c0-.43-.06-.85-.1-1.27l35.24,20.48c0,.42.08.84.1,1.27"/>
          <path class="cls-9" d="M822.42,750.94l-35.24-20.48c0-.43-.1-.85-.16-1.27l35.24,20.48c.06.41.12.84.16,1.27"/>
          <path class="cls-8" d="M822.26,749.67,787,729.19c-.07-.46-.16-.91-.25-1.35L822,748.32c.09.44.18.89.25,1.35"/>
          <path class="cls-7" d="M822,748.32l-35.24-20.48c-.11-.49-.23-1-.36-1.43l35.24,20.48c.13.47.25.94.36,1.43"/>
          <path class="cls-6" d="M821.65,746.89l-35.24-20.48c-.16-.53-.34-1-.53-1.54l35.24,20.48c.19.5.37,1,.53,1.54"/>
          <path class="cls-5" d="M821.12,745.35l-35.24-20.48a16.51,16.51,0,0,0-.84-1.8l35.24,20.48a16.51,16.51,0,0,1,.84,1.8"/>
          <path class="cls-4" d="M820.28,743.55,785,723.07a12.74,12.74,0,0,0-3.38-4,10.52,10.52,0,0,0-1.2-.81l35.24,20.48a10.52,10.52,0,0,1,1.2.81,12.74,12.74,0,0,1,3.38,4"/>
        </g>
      </g>
    </g>
    <g class="cls-2">
      <g class="cls-29">
        <g class="cls-2">
          <path class="cls-4" d="M781.55,794.17,746.31,773.7l.32.18.47.26,35.24,20.48-.47-.26a3.37,3.37,0,0,1-.32-.19"/>
        </g>
      </g>
    </g>
    <g class="cls-2">
      <g class="cls-30">
        <g class="cls-2">
          <path class="cls-11" d="M857,635.51,821.75,615c-.08-2.42-.17-4.83-.29-7.21l35.23,20.48c.13,2.38.22,4.79.3,7.21"/>
          <path class="cls-10" d="M856.69,628.3l-35.23-20.48c-.12-2.2-.28-4.38-.49-6.5l35.24,20.48q.31,3.18.48,6.5"/>
          <path class="cls-9" d="M856.21,621.8,821,601.32c-.15-1.49-.33-3-.55-4.4l35.24,20.48c.22,1.44.4,2.91.55,4.4"/>
          <path class="cls-8" d="M855.66,617.4l-35.24-20.48c-.19-1.23-.41-2.43-.67-3.6L855,613.8c.26,1.17.48,2.37.67,3.6"/>
          <path class="cls-7" d="M855,613.8l-35.24-20.48c-.15-.71-.32-1.41-.5-2.1-.11-.41-.22-.8-.33-1.19l35.24,20.48.33,1.18c.18.69.35,1.4.5,2.11"/>
          <path class="cls-6" d="M854.16,610.51,818.92,590c-.35-1.2-.75-2.35-1.18-3.46L853,607.05c.43,1.11.83,2.26,1.18,3.46"/>
          <path class="cls-5" d="M853,607.05l-35.24-20.48a37.5,37.5,0,0,0-1.91-4.09L851.07,603a37.5,37.5,0,0,1,1.91,4.09"/>
          <path class="cls-4" d="M851.07,603l-35.24-20.48A28.78,28.78,0,0,0,805,571.15l35.24,20.48A28.71,28.71,0,0,1,851.07,603"/>
        </g>
      </g>
    </g>
    <g class="cls-2">
      <g class="cls-31">
        <g class="cls-2">
          <path class="cls-17" d="M746.44,699.32,711.2,678.84Q766.47,646.92,821.75,615L857,635.51q-55.28,31.89-110.55,63.81"/>
        </g>
      </g>
    </g>
    <polygon class="cls-21" points="740.7 702.56 705.46 682.08 711.2 678.84 746.44 699.32 740.7 702.56"/>
    <g class="cls-2">
      <g class="cls-32">
        <g class="cls-2">
          <path class="cls-4" d="M677,978.78,641.72,958.3a23.21,23.21,0,0,1-8.68-9.22l35.24,20.48a23.21,23.21,0,0,0,8.68,9.22"/>
          <path class="cls-5" d="M668.28,969.56,633,949.08a32.66,32.66,0,0,1-1.7-3.67l35.24,20.48a32.66,32.66,0,0,0,1.7,3.67"/>
          <path class="cls-6" d="M666.58,965.89l-35.24-20.48c-.41-1-.78-2.12-1.11-3.26l35.24,20.48c.33,1.14.7,2.23,1.11,3.26"/>
          <path class="cls-7" d="M665.47,962.63l-35.24-20.48c-.29-1-.55-2-.79-3.09l35.24,20.48c.24,1.07.5,2.1.79,3.09"/>
          <path class="cls-8" d="M664.68,959.54l-35.24-20.48c-.07-.35-.15-.71-.22-1.07s-.13-.72-.18-1.08l35.24,20.47c.05.37.11.73.18,1.09s.15.72.22,1.07"/>
          <path class="cls-9" d="M664.28,957.38,629,936.91c-.1-.61-.18-1.24-.24-1.87L664,955.52c.06.63.14,1.26.24,1.86"/>
          <path class="cls-10" d="M664,955.52,628.8,935c-.08-.78-.14-1.57-.18-2.38l35.24,20.48c0,.81.1,1.6.18,2.38"/>
          <path class="cls-11" d="M663.86,953.14l-35.24-20.48c-.07-1.29-.1-2.62-.11-3.95l35.24,20.48c0,1.33,0,2.66.11,3.95"/>
          <path class="cls-12" d="M663.75,949.19l-35.24-20.48c0-.56,0-1.13,0-1.7q-.33-94.17-.59-188.39c0-.48,0-1,0-1.41l35.24,20.48c0,.46,0,.93,0,1.41q.27,94.2.59,188.39c0,.57,0,1.13,0,1.7"/>
          <path class="cls-13" d="M663.17,757.69l-35.24-20.48c0-.44,0-.88.06-1.3l35.24,20.48c0,.42-.05.86-.06,1.3"/>
          <path class="cls-14" d="M663.23,756.39,628,735.91c0-.35,0-.7.09-1l35.24,20.48c0,.34-.07.69-.09,1"/>
          <path class="cls-15" d="M663.32,755.35l-35.24-20.48c0-.28.06-.56.1-.83l35.24,20.48c0,.27-.07.55-.1.83"/>
          <path class="cls-16" d="M663.42,754.52,628.18,734c0-.25.07-.49.11-.73l35.24,20.48c0,.24-.08.48-.11.73"/>
          <path class="cls-17" d="M663.53,753.79l-35.24-20.48.12-.65,35.24,20.48-.12.65"/>
          <path class="cls-18" d="M663.65,753.14l-35.24-20.48c0-.2.09-.39.13-.58l35.24,20.48c0,.19-.09.38-.13.58"/>
          <path class="cls-19" d="M663.78,752.56l-35.24-20.48c.05-.18.09-.36.14-.54L663.92,752c0,.18-.1.36-.14.54"/>
          <path class="cls-20" d="M663.92,752l-35.24-20.48.15-.5,35.24,20.47-.15.51"/>
          <path class="cls-21" d="M664.07,751.51,628.83,731c0-.17.1-.33.16-.49L664.23,751c-.06.16-.11.32-.16.48"/>
          <path class="cls-22" d="M664.23,751,629,730.55l.17-.48,35.24,20.48c-.06.16-.12.32-.17.48"/>
          <path class="cls-23" d="M664.4,750.55l-35.24-20.48.2-.48,35.24,20.48-.2.48"/>
          <path class="cls-24" d="M664.6,750.07l-35.24-20.48c.07-.17.15-.33.23-.49l35.23,20.48c-.07.16-.15.32-.22.49"/>
          <path class="cls-25" d="M664.82,749.58,629.59,729.1c.1-.22.2-.42.32-.63L665.15,749c-.12.2-.22.41-.33.63"/>
          <path class="cls-26" d="M665.15,749l-35.24-20.48a13.68,13.68,0,0,1,1.41-2.09l35.24,20.48a13.21,13.21,0,0,0-1.41,2.09"/>
          <path class="cls-25" d="M666.56,746.86l-35.24-20.48q.28-.35.6-.69l35.24,20.48c-.21.23-.41.45-.6.69"/>
          <path class="cls-24" d="M667.16,746.17l-35.24-20.48c.18-.2.37-.39.57-.59l35.24,20.48c-.2.2-.39.39-.57.59"/>
          <path class="cls-23" d="M667.73,745.58,632.49,725.1c.19-.19.39-.37.6-.56L668.33,745c-.21.19-.41.37-.6.56"/>
          <path class="cls-22" d="M668.33,745l-35.24-20.48.67-.57L669,744.45l-.67.57"/>
          <path class="cls-21" d="M669,744.45,633.76,724c.24-.2.49-.4.76-.6l35.24,20.48c-.27.2-.52.4-.76.6"/>
          <path class="cls-20" d="M669.76,743.85l-35.24-20.48c.28-.21.58-.43.9-.65l35.24,20.48c-.32.22-.62.43-.9.65"/>
          <path class="cls-19" d="M670.66,743.2l-35.24-20.48c.35-.25.73-.49,1.12-.74l35.24,20.48c-.39.24-.77.49-1.12.74"/>
          <path class="cls-18" d="M671.78,742.46,636.54,722q.69-.45,1.47-.9l35.24,20.48q-.78.45-1.47.9"/>
          <path class="cls-17" d="M673.25,741.56,638,721.08l.08-.05,29.21-16.86,35.24,20.48-29.21,16.86-.08,0"/>
        </g>
      </g>
    </g>
    <path class="cls-33" d="M934.77,603q.38,93.62.53,187.34c0,26.93-13.33,55-34.88,73.34a86.93,86.93,0,0,1-12.17,8.57c-30,17.39-59.58,34.47-89.12,51.52s-59.08,34.09-88.63,51.1c-23.31,13.43-41.53,6.86-46-16.36a60.43,60.43,0,0,1-.72-11q-.33-94.18-.59-188.39c0-8.91,2.39-13.06,10.18-17.59l29.21-16.86c.24-5.53.39-11,.65-16.42,2.44-52.73,41-119.05,85.37-149.8q4.76-3.3,9.49-6c46.47-26.83,89-12.34,96,40a163.13,163.13,0,0,1,1.23,21L923.69,597C932.66,591.83,934.74,593,934.77,603ZM746.44,699.32Q801.71,667.4,857,635.51c-.28-8.42-.64-16.78-2.5-23.82C848,587,824.14,581,799.44,595.27c-1.83,1.06-3.67,2.23-5.5,3.51C765,619,742.45,657.31,741,690.66c-.16,3.67-.26,7.68-.33,11.9l5.74-3.24m67.95,79.16c9.93-15.15,10.86-32.49,2.51-39-4.57-3.55-11.15-2.92-17.77.9a46.28,46.28,0,0,0-15.33,15.42c-9.62,15.21-11.18,33.61-1.93,38.52,5.3,2.78,6.38,8,5.91,15.65-.22,3.73,0,7.27,0,10.89,0,6.17,0,12.37.06,18.5.1,8.87,3.49,10.57,11.54,5.92S810.93,835,811,826.16c0-12.2.06-24.39-.16-36.43-.06-3.89.8-7,3.59-11.25"/>
    <g class="cls-2">
      <g class="cls-34">
        <g class="cls-2">
          <path class="cls-13" d="M702.54,724.65,667.3,704.17c.24-5.53.39-11,.65-16.42,0-.84.08-1.68.14-2.53l35.24,20.48c-.06.84-.1,1.69-.14,2.53-.26,5.46-.41,10.89-.65,16.42"/>
          <path class="cls-14" d="M703.33,705.7l-35.24-20.48q.15-2.25.39-4.53l35.24,20.48q-.24,2.28-.39,4.53"/>
          <path class="cls-15" d="M703.72,701.17l-35.24-20.48q.24-2.33.57-4.68l35.23,20.48c-.21,1.57-.4,3.13-.56,4.68"/>
          <path class="cls-16" d="M704.28,696.49,669.05,676c.21-1.58.46-3.17.74-4.77L705,691.72q-.42,2.4-.75,4.77"/>
          <path class="cls-17" d="M705,691.72l-35.24-20.48c.29-1.67.61-3.36,1-5L706,686.67c-.35,1.69-.67,3.38-1,5.05"/>
          <path class="cls-18" d="M706,686.67l-35.24-20.48q.54-2.61,1.17-5.25l35.24,20.48q-.63,2.64-1.17,5.25"/>
          <path class="cls-19" d="M707.16,681.42l-35.24-20.48c.44-1.83.92-3.66,1.42-5.5l35.24,20.48c-.5,1.84-1,3.67-1.42,5.5"/>
          <path class="cls-20" d="M708.58,675.92l-35.24-20.48q.82-3,1.76-6l35.24,20.48q-.93,3-1.76,6"/>
          <path class="cls-21" d="M710.34,669.94,675.1,649.46c.66-2.11,1.35-4.22,2.09-6.34l35.24,20.48c-.74,2.11-1.44,4.23-2.09,6.34"/>
          <path class="cls-22" d="M712.43,663.6l-35.24-20.48q1.18-3.4,2.51-6.81l35.24,20.48q-1.32,3.4-2.51,6.81"/>
          <path class="cls-23" d="M714.94,656.79,679.7,636.31c1-2.48,2-5,3-7.44L718,649.35c-1.06,2.47-2.08,4.95-3,7.44"/>
          <path class="cls-24" d="M718,649.35l-35.24-20.48q1.83-4.25,3.84-8.45l35.24,20.48q-2,4.2-3.84,8.45"/>
          <path class="cls-25" d="M721.82,640.9l-35.24-20.48q2.59-5.4,5.47-10.7l35.24,20.48q-2.88,5.29-5.47,10.7"/>
          <path class="cls-26" d="M727.29,630.2l-35.24-20.48a241.69,241.69,0,0,1,25.45-38l35.24,20.48a241.69,241.69,0,0,0-25.45,38"/>
          <path class="cls-25" d="M752.74,592.23,717.5,571.75c2.68-3.25,5.42-6.41,8.22-9.44L761,582.79c-2.8,3-5.54,6.19-8.22,9.44"/>
          <path class="cls-24" d="M761,582.79l-35.24-20.48q3.31-3.59,6.74-6.94l35.24,20.47q-3.42,3.36-6.74,6.95"/>
          <path class="cls-23" d="M767.7,575.84l-35.24-20.47c1.93-1.9,3.89-3.74,5.86-5.51l35.24,20.48c-2,1.77-3.93,3.61-5.86,5.5"/>
          <path class="cls-22" d="M773.56,570.34l-35.24-20.48c1.75-1.57,3.51-3.08,5.29-4.55l35.24,20.48q-2.67,2.19-5.29,4.55"/>
          <path class="cls-21" d="M778.85,565.79l-35.24-20.48q2.43-2,4.89-3.86l35.24,20.48q-2.46,1.86-4.89,3.86"/>
          <path class="cls-20" d="M783.74,561.93,748.5,541.45q2.28-1.74,4.59-3.34l35.24,20.48q-2.31,1.6-4.59,3.34"/>
          <path class="cls-19" d="M788.33,558.59l-35.24-20.48.23-.16c1.49-1,3-2,4.47-3L793,555.46q-2.24,1.42-4.47,3l-.23.16"/>
          <path class="cls-18" d="M793,555.46,757.79,535q2.28-1.46,4.55-2.78l35.24,20.48q-2.26,1.32-4.55,2.78"/>
          <path class="cls-17" d="M797.58,552.68,762.34,532.2l.47-.27q2-1.14,4-2.19L802,550.22q-2,1-4,2.19l-.47.27"/>
          <path class="cls-16" d="M802,550.22l-35.24-20.48c1.47-.77,2.93-1.51,4.38-2.2L806.38,548q-2.18,1-4.38,2.2"/>
          <path class="cls-15" d="M806.38,548l-35.24-20.48q2.18-1,4.33-1.95l35.24,20.48q-2.16.91-4.33,1.95"/>
          <path class="cls-14" d="M810.71,546.07l-35.24-20.48c1.45-.62,2.9-1.19,4.33-1.72L815,544.35c-1.43.53-2.88,1.1-4.33,1.72"/>
          <path class="cls-13" d="M815,544.35,779.8,523.87c1.45-.54,2.9-1,4.33-1.49l35.24,20.48c-1.43.45-2.88.95-4.33,1.49"/>
          <path class="cls-12" d="M819.37,542.86l-35.24-20.48c1.48-.46,2.94-.88,4.4-1.26l35.24,20.48c-1.46.38-2.92.8-4.4,1.26"/>
          <path class="cls-11" d="M823.77,541.6l-35.24-20.48c1.5-.39,3-.73,4.48-1l35.24,20.47c-1.48.3-3,.64-4.48,1"/>
          <path class="cls-10" d="M828.25,540.57,793,520.1c1.54-.31,3.06-.56,4.57-.76l35.23,20.48q-2.25.3-4.56.75"/>
          <path class="cls-9" d="M832.81,539.82l-35.23-20.48c1.59-.22,3.16-.37,4.72-.47l35.24,20.48c-1.56.1-3.13.25-4.73.47"/>
          <path class="cls-8" d="M837.54,539.35,802.3,518.87c1.7-.11,3.38-.15,5-.12l35.24,20.48c-1.65,0-3.33,0-5,.12"/>
          <path class="cls-7" d="M842.57,539.23l-35.24-20.48c1.82,0,3.62.14,5.38.34L848,539.57c-1.76-.2-3.56-.31-5.38-.34"/>
          <path class="cls-6" d="M848,539.57l-35.24-20.48a52.57,52.57,0,0,1,5.94,1l35.24,20.48a52.57,52.57,0,0,0-5.94-1"/>
          <path class="cls-5" d="M853.89,540.57l-35.24-20.48a48.24,48.24,0,0,1,7,2.15l35.24,20.47a49.49,49.49,0,0,0-7-2.14"/>
          <path class="cls-4" d="M860.87,542.71l-35.24-20.47A45.57,45.57,0,0,1,832,525.3l35.24,20.48a46.79,46.79,0,0,0-6.33-3.07"/>
        </g>
      </g>
    </g>
  </g>
  <g class="cls-2">
    <polygon class="cls-35" points="565.12 671.35 529.88 650.87 504.17 539.96 539.41 560.43 565.12 671.35"/>
    <polygon class="cls-36" points="539.41 560.43 504.17 539.96 510.01 529.5 545.25 549.98 539.41 560.43"/>
    <polygon class="cls-37" points="537.43 551.89 502.19 531.41 510.01 529.5 545.25 549.98 537.43 551.89"/>
    <polygon class="cls-35" points="339.84 918.03 304.6 897.55 240.05 619.12 275.29 639.59 339.84 918.03"/>
    <polygon class="cls-37" points="290.41 612.51 255.17 592.03 502.19 531.41 537.43 551.89 290.41 612.51"/>
    <polygon class="cls-35" points="537.43 551.89 502.19 531.41 439.62 261.52 474.86 282 537.43 551.89"/>
    <polygon class="cls-35" points="275.29 639.59 240.05 619.12 234.93 597 270.17 617.48 275.29 639.59"/>
    <polygon class="cls-38" points="270.17 617.48 290.41 612.51 537.43 551.89 545.25 549.98 539.41 560.43 339.84 918.03 275.29 639.59 270.17 617.48"/>
    <polygon class="cls-37" points="270.17 617.48 234.93 597 255.17 592.03 290.41 612.51 270.17 617.48"/>
    <polygon class="cls-36" points="110.6 782.89 75.36 762.41 487.5 23.93 522.74 44.41 110.6 782.89"/>
    <polygon class="cls-38" points="522.74 44.41 662.53 647.44 565.12 671.35 539.41 560.43 545.25 549.98 537.43 551.89 474.86 282 290.41 612.51 270.17 617.48 275.29 639.59 208.77 758.8 110.6 782.89 522.74 44.41"/>
  </g>
</svg>
