<svg xmlns="http://www.w3.org/2000/svg" viewBox="0 0 1000 1000">
  <defs>
    <style>
      .cls-1 {
        isolation: isolate;
      }

      .cls-2 {
        fill: #b0b0b0;
      }

      .cls-3 {
        fill: #dcdcdc;
      }

      .cls-4 {
        fill: #bebebe;
      }

      .cls-5 {
        fill: gray;
      }

      .cls-6 {
        fill: #c4c4c4;
      }

      .cls-7 {
        fill: #898989;
      }
    </style>
  </defs>
  <title>property</title>
  <g id="property-3" data-name="property">
    <g>
      <g class="cls-1">
        <polygon class="cls-2" points="689.34 392.11 689.23 432.87 561.51 429.43 561.63 388.68 689.34 392.11"/>
        <polygon class="cls-3" points="758.79 347.33 964.91 563.96 868.4 580.69 689.34 392.11 561.63 388.68 563.95 342.09 758.79 347.33"/>
        <polygon class="cls-4" points="964.91 563.96 964.79 604.72 868.28 621.45 868.4 580.69 964.91 563.96"/>
        <polygon class="cls-5" points="868.4 580.69 868.28 621.45 689.23 432.87 689.34 392.11 868.4 580.69"/>
      </g>
      <g class="cls-1">
        <polygon class="cls-6" points="539.23 396.8 539.12 437.56 178.02 558.55 178.14 517.79 539.23 396.8"/>
        <polygon class="cls-7" points="82.17 537.45 82.05 578.21 30.88 548.34 30.99 507.58 82.17 537.45"/>
        <polygon class="cls-7" points="433.72 740.09 433.61 780.85 82.05 578.21 82.17 537.45 433.72 740.09"/>
        <polygon class="cls-3" points="928.28 621.42 485.27 769.85 433.72 740.09 82.17 537.45 30.99 507.58 474 359.14 539.23 396.8 178.14 517.79 501.95 704.75 863.05 583.76 928.28 621.42"/>
        <polygon class="cls-6" points="928.28 621.42 928.17 662.18 485.15 810.61 485.27 769.85 928.28 621.42"/>
        <polygon class="cls-7" points="485.27 769.85 485.15 810.61 433.61 780.85 433.72 740.09 485.27 769.85"/>
      </g>
    </g>
  </g>
</svg>
