<svg xmlns="http://www.w3.org/2000/svg" viewBox="0 0 1000 1000">
  <defs>
    <style>
      .cls-1 {
        isolation: isolate;
      }

      .cls-2 {
        fill: #dcdcdc;
      }

      .cls-3 {
        fill: #a3a3a3;
      }

      .cls-4 {
        fill: #898989;
      }

      .cls-5 {
        fill: #838383;
      }

      .cls-6 {
        fill: #f3f3f3;
      }
    </style>
  </defs>
  <title>property_1</title>
  <g id="property-2" data-name="property">
    <g>
      <g class="cls-1">
        <polygon class="cls-2" points="246.95 589.16 282.19 568.68 679.74 798.21 644.5 818.68 246.95 589.16"/>
        <polygon class="cls-2" points="262.18 193.48 297.42 173 377.5 219.24 342.26 239.72 262.18 193.48"/>
        <polygon class="cls-3" points="342.26 239.72 377.5 219.24 282.19 568.68 246.95 589.16 342.26 239.72"/>
        <polygon class="cls-4" points="819.89 515.47 702.96 944.2 639.68 907.66 208.43 659.09 145.25 622.2 262.18 193.48 342.26 239.72 246.95 589.16 644.5 818.68 739.8 469.24 819.89 515.47"/>
        <polygon class="cls-3" points="819.89 515.47 855.13 494.99 738.2 923.72 702.96 944.2 819.89 515.47"/>
        <polygon class="cls-2" points="739.8 469.24 775.04 448.76 855.13 494.99 819.89 515.47 739.8 469.24"/>
      </g>
      <g class="cls-1">
        <polygon class="cls-5" points="299.75 130.47 334.99 109.99 460.9 51.02 425.66 71.5 299.75 130.47"/>
        <polygon class="cls-4" points="425.66 71.5 781.83 397 739.88 461.72 430.06 178.24 347.51 216.89 299.75 130.47 425.66 71.5"/>
        <polygon class="cls-6" points="425.66 71.5 460.9 51.02 817.07 376.52 781.83 397 425.66 71.5"/>
        <polygon class="cls-4" points="781.83 397 817.07 376.52 775.12 441.24 739.88 461.72 781.83 397"/>
      </g>
    </g>
  </g>
</svg>
