<svg xmlns="http://www.w3.org/2000/svg" viewBox="0 0 1000 1000">
  <defs>
    <style>
      .cls-1 {
        isolation: isolate;
      }

      .cls-2 {
        fill: #f0f0f0;
      }

      .cls-3 {
        fill: #c9c9c9;
      }

      .cls-4 {
        fill: #949494;
      }

      .cls-5 {
        fill: #a4a4a4;
      }

      .cls-6 {
        fill: #818181;
      }

      .cls-7 {
        fill: #fdfdfd;
      }
    </style>
  </defs>
  <title>property_2</title>
  <g id="property">
    <g>
      <g class="cls-1">
        <polygon class="cls-2" points="663.67 597.81 628.43 577.33 710.86 171.29 746.1 191.76 663.67 597.81"/>
        <polygon class="cls-3" points="746.1 191.76 710.86 171.29 781.83 130.31 817.07 150.79 746.1 191.76"/>
        <polygon class="cls-3" points="311.37 801.21 276.13 780.73 628.43 577.33 663.67 597.81 311.37 801.21"/>
        <polygon class="cls-4" points="817.07 150.79 715.94 648.94 659.86 681.32 277.69 902.33 221.7 934.29 322.83 436.14 393.8 395.17 311.37 801.21 663.67 597.81 746.1 191.76 817.07 150.79"/>
        <polygon class="cls-2" points="221.7 934.29 186.46 913.81 287.59 415.66 322.83 436.14 221.7 934.29"/>
        <polygon class="cls-3" points="322.83 436.14 287.59 415.66 358.56 374.69 393.8 395.17 322.83 436.14"/>
      </g>
      <g class="cls-1">
        <polygon class="cls-5" points="466.63 161.38 431.39 140.91 747.63 64.55 782.87 85.03 466.63 161.38"/>
        <polygon class="cls-4" points="466.63 161.38 782.87 85.03 746.13 185.06 471.04 251.18 398.33 369.65 355.7 342.11 466.63 161.38"/>
        <polygon class="cls-6" points="398.33 369.65 363.09 349.17 320.46 321.63 355.7 342.11 398.33 369.65"/>
        <polygon class="cls-7" points="355.7 342.11 320.46 321.63 431.39 140.91 466.63 161.38 355.7 342.11"/>
      </g>
    </g>
  </g>
</svg>
