<svg xmlns="http://www.w3.org/2000/svg" xmlns:xlink="http://www.w3.org/1999/xlink" viewBox="0 0 1000 1000">
  <defs>
    <style>
      .cls-1 {
        fill: none;
      }

      .cls-2 {
        isolation: isolate;
      }

      .cls-3 {
        fill: #f0f0f0;
      }

      .cls-4 {
        fill: #c9c9c9;
      }

      .cls-5 {
        fill: #949494;
      }

      .cls-6 {
        fill: #a4a4a4;
      }

      .cls-7 {
        fill: #818181;
      }

      .cls-8 {
        fill: #fdfdfd;
      }

      .cls-9 {
        clip-path: url(#clip-path);
      }

      .cls-10 {
        fill: #8f8f8f;
      }

      .cls-11 {
        fill: #8a8a8a;
      }

      .cls-12 {
        fill: #858585;
      }

      .cls-13 {
        clip-path: url(#clip-path-2);
      }

      .cls-14 {
        fill: #adadad;
      }

      .cls-15 {
        fill: #a8a8a8;
      }

      .cls-16 {
        fill: #a3a3a3;
      }

      .cls-17 {
        fill: #9e9e9e;
      }

      .cls-18 {
        fill: #999;
      }

      .cls-19 {
        fill: #aaa;
      }

      .cls-20 {
        clip-path: url(#clip-path-3);
      }

      .cls-21 {
        fill: #b3b3b3;
      }

      .cls-22 {
        fill: #b8b8b8;
      }

      .cls-23 {
        fill: #bdbdbd;
      }

      .cls-24 {
        fill: #c2c2c2;
      }

      .cls-25 {
        fill: #c7c7c7;
      }

      .cls-26 {
        fill: #ccc;
      }

      .cls-27 {
        fill: #d1d1d1;
      }

      .cls-28 {
        fill: #d6d6d6;
      }

      .cls-29 {
        fill: #dbdbdb;
      }

      .cls-30 {
        fill: #e0e0e0;
      }

      .cls-31 {
        fill: #e6e6e6;
      }

      .cls-32 {
        fill: #ebebeb;
      }
    </style>
    <clipPath id="clip-path">
      <path class="cls-1" d="M887.36,523.63l35.24,20.48a3.89,3.89,0,0,0-2.85,0c-40.16,10.16-80.25,20-120.41,30.17L764.1,553.78c40.16-10.16,80.25-20,120.41-30.18A3.89,3.89,0,0,1,887.36,523.63Z"/>
    </clipPath>
    <clipPath id="clip-path-2">
      <path class="cls-1" d="M795.51,575.9l-35.24-20.48a16.13,16.13,0,0,1,3.83-1.64l35.24,20.47A16.6,16.6,0,0,0,795.51,575.9Z"/>
    </clipPath>
    <clipPath id="clip-path-3">
      <path class="cls-1" d="M711.67,942.16l-35.24-20.48C656.34,910,642.37,888,634.16,856.42a40.23,40.23,0,0,1-1.08-9.59c-.23-57.29-.34-114.64-.62-171.88,0-3.69,1.08-5.58,4-8.26q59.91-54.08,119.78-108.35a24.28,24.28,0,0,1,4-2.92l35.24,20.48a23.72,23.72,0,0,0-4,2.92q-59.94,54.09-119.78,108.35c-3,2.67-4,4.57-4,8.26.28,57.24.39,114.59.62,171.88a40.08,40.08,0,0,0,1.08,9.58C677.61,908.51,691.58,930.48,711.67,942.16Z"/>
    </clipPath>
  </defs>
  <title>protected property</title>
  <g id="protected_property" data-name="protected property">
    <g>
      <g class="cls-2">
        <polygon class="cls-3" points="556.67 579.81 521.43 559.33 603.87 153.28 639.11 173.76 556.67 579.81"/>
        <polygon class="cls-4" points="639.11 173.76 603.87 153.28 674.83 112.31 710.07 132.79 639.11 173.76"/>
        <polygon class="cls-4" points="204.37 783.21 169.13 762.73 521.43 559.33 556.67 579.81 204.37 783.21"/>
        <polygon class="cls-5" points="710.07 132.79 608.94 630.94 552.86 663.32 170.69 884.33 114.7 916.29 215.83 418.14 286.8 377.17 204.37 783.21 556.67 579.81 639.11 173.76 710.07 132.79"/>
        <polygon class="cls-3" points="114.7 916.29 79.46 895.81 180.59 397.66 215.83 418.14 114.7 916.29"/>
        <polygon class="cls-4" points="215.83 418.14 180.59 397.66 251.56 356.69 286.8 377.17 215.83 418.14"/>
      </g>
      <g class="cls-2">
        <polygon class="cls-6" points="359.62 143.39 324.38 122.91 640.62 46.55 675.86 67.03 359.62 143.39"/>
        <polygon class="cls-5" points="359.62 143.39 675.86 67.03 639.13 167.05 364.04 233.18 291.33 351.65 248.7 324.11 359.62 143.39"/>
        <polygon class="cls-7" points="291.33 351.65 256.09 331.17 213.46 303.63 248.7 324.11 291.33 351.65"/>
        <polygon class="cls-8" points="248.7 324.11 213.46 303.63 324.38 122.91 359.62 143.39 248.7 324.11"/>
      </g>
    </g>
    <g class="cls-2">
      <g class="cls-2">
        <g class="cls-9">
          <g class="cls-2">
            <path class="cls-5" d="M799.34,574.25,764.1,553.78c40.16-10.16,80.25-20,120.41-30.18l.56-.12L920.31,544l-.56.12c-40.16,10.16-80.25,20-120.41,30.17"/>
            <path class="cls-10" d="M920.31,544l-35.24-20.48a5.74,5.74,0,0,1,.65-.1L921,543.86a5.74,5.74,0,0,0-.65.1"/>
            <path class="cls-11" d="M921,543.86l-35.24-20.48a4,4,0,0,1,.59,0l35.24,20.48a4,4,0,0,0-.59,0"/>
            <path class="cls-12" d="M921.55,543.84l-35.24-20.48a2.32,2.32,0,0,1,1.05.27l35.24,20.48a2.09,2.09,0,0,0-1.05-.27"/>
          </g>
        </g>
      </g>
      <g class="cls-2">
        <g class="cls-13">
          <g class="cls-2">
            <path class="cls-14" d="M795.51,575.9l-35.24-20.48.62-.35,35.24,20.48-.62.35"/>
            <path class="cls-15" d="M796.13,575.55l-35.24-20.48c.25-.13.51-.26.76-.37l35.24,20.47-.76.38"/>
            <path class="cls-16" d="M796.89,575.17,761.65,554.7c.26-.13.52-.24.78-.35l35.24,20.48-.78.34"/>
            <path class="cls-17" d="M797.67,574.83l-35.24-20.48.81-.31,35.24,20.48-.81.31"/>
            <path class="cls-18" d="M798.48,574.52,763.24,554c.29-.1.57-.18.86-.26l35.24,20.48c-.29.07-.57.16-.86.26"/>
            <polyline class="cls-5" points="799.34 574.26 764.1 553.78 764.1 553.77 799.34 574.25 799.34 574.26"/>
          </g>
        </g>
      </g>
      <path class="cls-19" d="M795.51,575.9a16.6,16.6,0,0,1,3.83-1.65c40.16-10.16,80.25-20,120.41-30.17,3.3-.83,4,.43,4,4.11,0,29.24.1,58.35.18,87.5-.19,28.65.36,56.89-.3,85.79-.22,9.71-2.69,21-5.56,31.75C897.71,830,858,892.91,799.26,941.13a21.7,21.7,0,0,1-3.06,2.11c-4.27,2.47-8.94,3.42-13.16,4.47-60.85,15.06-97.87-10.08-113.64-70.82a40.08,40.08,0,0,1-1.08-9.58c-.23-57.29-.34-114.64-.62-171.88,0-3.69,1.08-5.59,4-8.26q59.91-54.07,119.78-108.35A23.72,23.72,0,0,1,795.51,575.9Z"/>
      <g class="cls-2">
        <g class="cls-20">
          <g class="cls-2">
            <path class="cls-12" d="M711.67,942.16l-35.24-20.48A69.33,69.33,0,0,1,663,911.46l35.24,20.48a69.33,69.33,0,0,0,13.45,10.22"/>
            <path class="cls-11" d="M698.22,931.94,663,911.46a78.1,78.1,0,0,1-8.06-9.11l35.24,20.48a78.93,78.93,0,0,0,8.06,9.11"/>
            <path class="cls-10" d="M690.16,922.83l-35.24-20.48a93,93,0,0,1-5.92-8.79L684.24,914a93,93,0,0,0,5.92,8.79"/>
            <path class="cls-5" d="M684.24,914,649,893.56q-2.54-4.26-4.8-9l35.24,20.48q2.26,4.73,4.8,9"/>
            <path class="cls-18" d="M679.44,905.05,644.2,884.57q-2.18-4.53-4.09-9.49l35.24,20.48q1.92,5,4.09,9.49"/>
            <path class="cls-17" d="M675.35,895.56l-35.24-20.48q-1.89-4.89-3.54-10.19l35.24,20.48q1.65,5.29,3.54,10.19"/>
            <path class="cls-16" d="M671.81,885.37l-35.24-20.48c-.85-2.74-1.65-5.57-2.41-8.47l-.06-.24,35.24,20.48.06.23c.76,2.91,1.56,5.73,2.41,8.48"/>
            <path class="cls-15" d="M669.34,876.66,634.1,856.18c-.13-.54-.24-1.1-.35-1.66L669,875c.11.56.22,1.12.35,1.66"/>
            <path class="cls-14" d="M669,875l-35.24-20.48c-.11-.6-.21-1.21-.29-1.84l35.23,20.48c.09.63.19,1.24.3,1.84"/>
            <path class="cls-21" d="M668.69,873.16l-35.23-20.48q-.13-.93-.21-1.89l35.24,20.48c0,.64.12,1.27.2,1.89"/>
            <path class="cls-22" d="M668.49,871.27l-35.24-20.48c-.06-.64-.1-1.3-.13-2l35.24,20.48c0,.66.07,1.32.13,2"/>
            <path class="cls-23" d="M668.36,869.31l-35.24-20.48c0-.65,0-1.32,0-2-.23-57.29-.34-114.64-.62-171.88v-.1l35.24,20.47v.11c.28,57.24.39,114.59.62,171.88,0,.68,0,1.34,0,2"/>
            <path class="cls-24" d="M667.7,695.32l-35.24-20.47c0-.23,0-.45,0-.67l35.24,20.48c0,.21,0,.44,0,.66"/>
            <path class="cls-25" d="M667.72,694.66l-35.24-20.48,0-.54,35.24,20.48,0,.54"/>
            <path class="cls-26" d="M667.75,694.12l-35.24-20.48c0-.16,0-.31,0-.47l35.24,20.48c0,.16,0,.31,0,.47"/>
            <path class="cls-27" d="M667.8,693.65l-35.24-20.48.06-.41,35.24,20.48-.06.41"/>
            <path class="cls-28" d="M667.86,693.24l-35.24-20.48c0-.13,0-.26.07-.38l35.24,20.48c0,.12,0,.25-.07.38"/>
            <path class="cls-29" d="M667.93,692.86l-35.24-20.48.09-.37L668,692.49l-.09.37"/>
            <path class="cls-30" d="M668,692.49,632.78,672c0-.13.07-.25.1-.37l35.24,20.48c0,.12-.07.24-.1.37"/>
            <path class="cls-31" d="M668.12,692.12l-35.24-20.48c0-.14.09-.28.14-.41l35.24,20.48c0,.13-.09.27-.14.41"/>
            <path class="cls-32" d="M668.26,691.71,633,671.23c.09-.23.18-.45.28-.66l35.24,20.48c-.1.21-.19.43-.28.66"/>
            <path class="cls-3" d="M668.54,691.05,633.3,670.57c.09-.18.19-.36.29-.54l35.24,20.48c-.1.18-.2.36-.29.54"/>
            <path class="cls-32" d="M668.83,690.51,633.59,670q.18-.3.39-.6l35.24,20.48q-.21.3-.39.6"/>
            <path class="cls-31" d="M669.22,689.91,634,669.43a4.25,4.25,0,0,1,.31-.43l35.24,20.48a4.25,4.25,0,0,0-.31.43"/>
            <path class="cls-30" d="M669.53,689.48,634.29,669l.32-.4,35.24,20.48-.32.4"/>
            <path class="cls-29" d="M669.85,689.08,634.61,668.6l.38-.42,35.23,20.48-.37.42"/>
            <path class="cls-28" d="M670.22,688.66,635,668.18q.21-.24.45-.48l35.24,20.48-.46.48"/>
            <path class="cls-27" d="M670.68,688.18,635.44,667.7c.19-.19.39-.39.61-.59l35.23,20.48-.6.59"/>
            <path class="cls-26" d="M671.28,687.59l-35.23-20.48.45-.42q59.91-54.08,119.78-108.35l.19-.17,35.24,20.48-.19.17q-59.94,54.09-119.78,108.35l-.46.42"/>
            <path class="cls-25" d="M791.71,578.65l-35.24-20.48.75-.64L792.46,578l-.75.64"/>
            <path class="cls-24" d="M792.46,578l-35.24-20.48L758,557l35.24,20.48-.74.58"/>
            <path class="cls-23" d="M793.2,577.43,758,557l.73-.53,35.24,20.48-.73.53"/>
            <path class="cls-22" d="M793.93,576.9l-35.24-20.48c.24-.17.49-.33.73-.48l35.24,20.47-.73.49"/>
            <path class="cls-21" d="M794.66,576.41l-35.24-20.47c.24-.16.49-.31.73-.45L795.39,576l-.73.44"/>
            <path class="cls-14" d="M795.39,576l-35.24-20.48.12-.07,35.24,20.48-.12.07"/>
          </g>
        </g>
      </g>
    </g>
  </g>
</svg>
