<svg xmlns="http://www.w3.org/2000/svg" xmlns:xlink="http://www.w3.org/1999/xlink" viewBox="0 0 1000 1000">
  <defs>
    <style>
      .cls-1 {
        fill: none;
      }

      .cls-2 {
        isolation: isolate;
      }

      .cls-3 {
        fill: #8c8c8c;
      }

      .cls-4 {
        fill: #fefefe;
      }

      .cls-5 {
        fill: #aaa;
      }

      .cls-6 {
        clip-path: url(#clip-path);
      }

      .cls-7 {
        fill: #adadad;
      }

      .cls-8 {
        fill: #a8a8a8;
      }

      .cls-9 {
        fill: #a3a3a3;
      }

      .cls-10 {
        fill: #9e9e9e;
      }

      .cls-11 {
        fill: #999;
      }

      .cls-12 {
        fill: #949494;
      }

      .cls-13 {
        fill: #8f8f8f;
      }

      .cls-14 {
        fill: #8a8a8a;
      }

      .cls-15 {
        fill: #858585;
      }

      .cls-16 {
        clip-path: url(#clip-path-2);
      }

      .cls-17 {
        fill: #b3b3b3;
      }

      .cls-18 {
        fill: #b8b8b8;
      }

      .cls-19 {
        fill: #bdbdbd;
      }

      .cls-20 {
        fill: #c2c2c2;
      }

      .cls-21 {
        fill: #c7c7c7;
      }

      .cls-22 {
        fill: #ccc;
      }

      .cls-23 {
        fill: #d1d1d1;
      }

      .cls-24 {
        fill: #d6d6d6;
      }

      .cls-25 {
        fill: #dbdbdb;
      }

      .cls-26 {
        fill: #e0e0e0;
      }

      .cls-27 {
        fill: #e6e6e6;
      }

      .cls-28 {
        fill: #ebebeb;
      }

      .cls-29 {
        fill: #f0f0f0;
      }
    </style>
    <clipPath id="clip-path">
      <path class="cls-1" d="M915.36,536.63l35.24,20.48a3.89,3.89,0,0,0-2.85,0c-40.16,10.16-80.26,20-120.41,30.17a16.18,16.18,0,0,0-3.83,1.65l-35.24-20.48a15.73,15.73,0,0,1,3.83-1.64c40.15-10.17,80.25-20,120.41-30.18A3.89,3.89,0,0,1,915.36,536.63Z"/>
    </clipPath>
    <clipPath id="clip-path-2">
      <path class="cls-1" d="M739.67,955.16l-35.24-20.48C684.34,923,670.37,901,662.17,869.41a39.56,39.56,0,0,1-1.09-9.58c-.23-57.29-.34-114.64-.62-171.88,0-3.69,1.08-5.58,4-8.26q59.91-54.09,119.77-108.35a24.19,24.19,0,0,1,4-2.92l35.24,20.48a24.19,24.19,0,0,0-4,2.92q-59.93,54.09-119.77,108.35c-3,2.67-4,4.57-4,8.26.28,57.24.39,114.59.62,171.88a39.07,39.07,0,0,0,1.09,9.58C705.61,921.51,719.58,943.48,739.67,955.16Z"/>
    </clipPath>
  </defs>
  <title>protected method</title>
  <g id="protected_method" data-name="protected method">
    <g class="cls-2">
      <polygon class="cls-3" points="403.51 467.25 484.23 815.44 165.55 893.65 403.51 467.25"/>
      <polygon class="cls-4" points="165.55 893.65 130.31 873.17 368.28 446.78 403.51 467.25 165.55 893.65"/>
      <polygon class="cls-5" points="539.01 700.59 503.77 680.12 409.57 273.73 444.81 294.21 539.01 700.59"/>
      <polygon class="cls-3" points="494.78 46.23 640.68 675.64 539.01 700.59 444.81 294.21 167.07 791.87 64.61 817.01 494.78 46.23"/>
      <polygon class="cls-4" points="64.61 817.01 29.37 796.53 459.54 25.75 494.78 46.23 64.61 817.01"/>
    </g>
    <g class="cls-2">
      <g class="cls-2">
        <g class="cls-6">
          <g class="cls-2">
            <path class="cls-7" d="M823.51,588.9l-35.24-20.48.62-.35,35.24,20.48-.62.35"/>
            <path class="cls-8" d="M824.13,588.55l-35.24-20.48.76-.38,35.24,20.48-.76.38"/>
            <path class="cls-9" d="M824.89,588.17l-35.24-20.48.78-.34,35.24,20.48-.78.34"/>
            <path class="cls-10" d="M825.67,587.83l-35.24-20.48.8-.31,35.24,20.48-.8.31"/>
            <path class="cls-11" d="M826.47,587.52,791.23,567l.76-.23,35.24,20.48-.76.23"/>
            <path class="cls-12" d="M827.23,587.29,792,566.81l.11,0c40.15-10.17,80.25-20,120.41-30.18l.56-.12L948.3,557l-.55.12c-40.16,10.16-80.26,20-120.41,30.17l-.11,0"/>
            <path class="cls-13" d="M948.3,557l-35.23-20.48a5.74,5.74,0,0,1,.65-.1L949,556.86a6.26,6.26,0,0,0-.66.1"/>
            <path class="cls-14" d="M949,556.86l-35.24-20.48a4,4,0,0,1,.59,0l35.24,20.48a4,4,0,0,0-.59,0"/>
            <path class="cls-15" d="M949.55,556.84l-35.24-20.48a2.23,2.23,0,0,1,1.05.27l35.24,20.48a2.12,2.12,0,0,0-1.05-.27"/>
          </g>
        </g>
      </g>
      <path class="cls-5" d="M823.51,588.9a16.18,16.18,0,0,1,3.83-1.65c40.15-10.16,80.25-20,120.41-30.17,3.3-.83,4,.43,4,4.11,0,29.24.09,58.35.18,87.5-.2,28.65.36,56.89-.3,85.79-.22,9.71-2.69,21-5.56,31.75C925.71,843,886,905.91,827.27,954.12a21.6,21.6,0,0,1-3.07,2.12c-4.28,2.47-9,3.42-13.16,4.47-60.85,15.06-97.87-10.08-113.63-70.82a39.07,39.07,0,0,1-1.09-9.58c-.23-57.29-.34-114.64-.62-171.88,0-3.69,1.08-5.59,4-8.26q59.91-54.09,119.77-108.35A24.19,24.19,0,0,1,823.51,588.9Z"/>
      <g class="cls-2">
        <g class="cls-16">
          <g class="cls-2">
            <path class="cls-15" d="M739.67,955.16l-35.24-20.48A69.67,69.67,0,0,1,691,924.47l35.24,20.47a69.33,69.33,0,0,0,13.45,10.22"/>
            <path class="cls-14" d="M726.22,944.94,691,924.47a80.74,80.74,0,0,1-8.06-9.11l35.24,20.48a79.77,79.77,0,0,0,8.06,9.1"/>
            <path class="cls-13" d="M718.16,935.84l-35.24-20.48a97.59,97.59,0,0,1-5.91-8.79l35.24,20.48a97.59,97.59,0,0,0,5.91,8.79"/>
            <path class="cls-12" d="M712.25,927.05,677,906.57q-2.55-4.26-4.81-9l35.24,20.48q2.26,4.73,4.81,9"/>
            <path class="cls-11" d="M707.44,918.06,672.2,897.58q-2.16-4.53-4.08-9.49l35.24,20.48q1.92,5,4.08,9.49"/>
            <path class="cls-10" d="M703.36,908.57l-35.24-20.48q-1.89-4.86-3.52-10.13l35.24,20.47q1.63,5.28,3.52,10.14"/>
            <path class="cls-9" d="M699.84,898.43,664.6,878q-1.29-4.15-2.43-8.55a.75.75,0,0,1,0-.16l35.24,20.48a.94.94,0,0,0,0,.16q1.14,4.4,2.43,8.54"/>
            <path class="cls-8" d="M697.37,889.73l-35.24-20.48c-.15-.58-.27-1.17-.39-1.77L697,888c.12.61.24,1.2.39,1.78"/>
            <path class="cls-7" d="M697,888l-35.24-20.47c-.11-.6-.21-1.21-.29-1.83l35.24,20.48c.08.62.18,1.23.29,1.82"/>
            <path class="cls-17" d="M696.69,886.13l-35.24-20.48c-.08-.61-.15-1.24-.21-1.87l35.24,20.47c.06.64.13,1.27.21,1.88"/>
            <path class="cls-18" d="M696.48,884.25l-35.24-20.47q-.07-1-.12-1.95l35.24,20.48c0,.66.07,1.31.12,1.94"/>
            <path class="cls-19" d="M696.36,882.31l-35.24-20.48c0-.66,0-1.32,0-2-.23-57.29-.34-114.64-.62-171.88v-.11l35.24,20.48v.11c.28,57.24.39,114.59.62,171.88,0,.68,0,1.34,0,2"/>
            <path class="cls-20" d="M695.7,708.32l-35.24-20.48c0-.23,0-.45,0-.66l35.24,20.48c0,.21,0,.43,0,.66"/>
            <path class="cls-21" d="M695.72,707.66l-35.24-20.48c0-.19,0-.37,0-.54l35.24,20.48c0,.17,0,.35,0,.54"/>
            <path class="cls-22" d="M695.75,707.12l-35.24-20.48c0-.16,0-.31,0-.47l35.24,20.48c0,.15,0,.31,0,.47"/>
            <path class="cls-23" d="M695.8,706.65l-35.24-20.48.06-.41,35.24,20.48-.06.41"/>
            <path class="cls-24" d="M695.86,706.24l-35.24-20.48c0-.13,0-.26.07-.38l35.24,20.48c0,.12,0,.25-.07.38"/>
            <path class="cls-25" d="M695.93,705.86l-35.24-20.48.09-.37L696,705.49l-.09.37"/>
            <path class="cls-26" d="M696,705.49,660.78,685c0-.13.06-.25.1-.37l35.24,20.48c0,.12-.07.24-.1.37"/>
            <path class="cls-27" d="M696.12,705.12l-35.24-20.48c0-.14.09-.28.14-.41l35.24,20.48c0,.13-.1.27-.14.41"/>
            <path class="cls-28" d="M696.26,704.71,661,684.23a6.54,6.54,0,0,1,.28-.66l35.24,20.48a6.54,6.54,0,0,0-.28.66"/>
            <path class="cls-29" d="M696.54,704.05,661.3,683.57c.09-.18.18-.36.29-.54l35.24,20.48c-.11.18-.2.36-.29.54"/>
            <path class="cls-28" d="M696.83,703.51,661.59,683c.12-.2.24-.4.38-.6l35.24,20.48c-.14.2-.26.4-.38.6"/>
            <path class="cls-27" d="M697.21,702.91,662,682.43c.1-.15.21-.29.32-.43l35.24,20.48c-.11.14-.22.28-.32.43"/>
            <path class="cls-26" d="M697.53,702.48,662.29,682l.32-.4,35.24,20.48-.32.4"/>
            <path class="cls-25" d="M697.85,702.08,662.61,681.6l.37-.42,35.24,20.48-.37.42"/>
            <path class="cls-24" d="M698.22,701.66,663,681.18l.46-.48,35.24,20.48-.46.48"/>
            <path class="cls-23" d="M698.68,701.18,663.44,680.7l.6-.59,35.24,20.48-.6.59"/>
            <path class="cls-22" d="M699.28,700.59,664,680.11l.46-.42q59.91-54.09,119.77-108.35l.19-.17,35.24,20.48-.19.17q-59.93,54.09-119.77,108.35l-.46.42"/>
            <path class="cls-21" d="M819.7,591.65l-35.24-20.48c.25-.22.5-.43.76-.63L820.46,591l-.76.64"/>
            <path class="cls-20" d="M820.46,591l-35.24-20.47c.24-.2.49-.4.74-.58l35.24,20.47c-.25.19-.5.38-.74.58"/>
            <path class="cls-19" d="M821.2,590.43,786,570c.24-.19.48-.37.73-.54l35.24,20.48c-.25.17-.49.35-.73.53"/>
            <path class="cls-18" d="M821.93,589.9l-35.24-20.48.73-.49,35.24,20.48-.73.49"/>
            <path class="cls-17" d="M822.66,589.41l-35.24-20.48.73-.45L823.39,589l-.73.45"/>
            <path class="cls-7" d="M823.39,589l-35.24-20.48.12-.06,35.24,20.48-.12.06"/>
          </g>
        </g>
      </g>
    </g>
  </g>
</svg>
