<svg xmlns="http://www.w3.org/2000/svg" xmlns:xlink="http://www.w3.org/1999/xlink" viewBox="0 0 1000 1000">
  <defs>
    <style>
      .cls-1 {
        fill: none;
      }

      .cls-2 {
        isolation: isolate;
      }

      .cls-3 {
        fill: #aaa;
      }

      .cls-4 {
        fill: #fefefe;
      }

      .cls-5 {
        fill: #b6b6b6;
      }

      .cls-6 {
        fill: #8c8c8c;
      }

      .cls-7 {
        clip-path: url(#clip-path);
      }

      .cls-8 {
        fill: #adadad;
      }

      .cls-9 {
        fill: #a8a8a8;
      }

      .cls-10 {
        fill: #a3a3a3;
      }

      .cls-11 {
        fill: #9e9e9e;
      }

      .cls-12 {
        fill: #999;
      }

      .cls-13 {
        fill: #949494;
      }

      .cls-14 {
        fill: #8f8f8f;
      }

      .cls-15 {
        fill: #8a8a8a;
      }

      .cls-16 {
        fill: #858585;
      }

      .cls-17 {
        clip-path: url(#clip-path-2);
      }

      .cls-18 {
        fill: #b3b3b3;
      }

      .cls-19 {
        fill: #b8b8b8;
      }

      .cls-20 {
        fill: #bdbdbd;
      }

      .cls-21 {
        fill: #c2c2c2;
      }

      .cls-22 {
        fill: #c7c7c7;
      }

      .cls-23 {
        fill: #ccc;
      }

      .cls-24 {
        fill: #d1d1d1;
      }

      .cls-25 {
        fill: #d6d6d6;
      }

      .cls-26 {
        fill: #dbdbdb;
      }

      .cls-27 {
        fill: #e0e0e0;
      }

      .cls-28 {
        fill: #e6e6e6;
      }

      .cls-29 {
        fill: #ebebeb;
      }

      .cls-30 {
        fill: #f0f0f0;
      }
    </style>
    <clipPath id="clip-path">
      <path class="cls-1" d="M918.36,536.63l35.24,20.48a3.89,3.89,0,0,0-2.85,0c-40.16,10.16-80.26,20-120.41,30.17a16.18,16.18,0,0,0-3.83,1.65l-35.24-20.48a15.73,15.73,0,0,1,3.83-1.64c40.15-10.17,80.25-20,120.41-30.18A3.89,3.89,0,0,1,918.36,536.63Z"/>
    </clipPath>
    <clipPath id="clip-path-2">
      <path class="cls-1" d="M742.67,955.16l-35.24-20.48C687.34,923,673.37,901,665.17,869.41a39.56,39.56,0,0,1-1.09-9.58c-.23-57.29-.34-114.64-.62-171.88,0-3.69,1.08-5.58,4-8.26q59.91-54.09,119.77-108.35a24.19,24.19,0,0,1,4-2.92l35.24,20.48a24.19,24.19,0,0,0-4,2.92q-59.93,54.09-119.77,108.35c-3,2.67-4,4.57-4,8.26.28,57.24.39,114.59.62,171.88a39.07,39.07,0,0,0,1.09,9.58C708.61,921.51,722.58,943.48,742.67,955.16Z"/>
    </clipPath>
  </defs>
  <title>protected accessor</title>
  <g id="protected_accessor" data-name="protected accessor">
    <g class="cls-2">
      <polygon class="cls-3" points="552.12 671.35 516.88 650.87 491.17 539.96 526.41 560.43 552.12 671.35"/>
      <polygon class="cls-4" points="526.41 560.43 491.17 539.96 497.01 529.5 532.25 549.98 526.41 560.43"/>
      <polygon class="cls-5" points="524.43 551.89 489.19 531.41 497.01 529.5 532.25 549.98 524.43 551.89"/>
      <polygon class="cls-3" points="326.84 918.03 291.6 897.55 227.05 619.12 262.29 639.59 326.84 918.03"/>
      <polygon class="cls-5" points="277.41 612.51 242.17 592.03 489.19 531.41 524.43 551.89 277.41 612.51"/>
      <polygon class="cls-3" points="524.43 551.89 489.19 531.41 426.62 261.52 461.86 282 524.43 551.89"/>
      <polygon class="cls-3" points="262.29 639.59 227.05 619.12 221.93 597 257.17 617.48 262.29 639.59"/>
      <polygon class="cls-6" points="257.17 617.48 277.41 612.51 524.43 551.89 532.25 549.98 526.41 560.43 326.84 918.03 262.29 639.59 257.17 617.48"/>
      <polygon class="cls-5" points="257.17 617.48 221.93 597 242.17 592.03 277.41 612.51 257.17 617.48"/>
      <polygon class="cls-4" points="97.6 782.89 62.36 762.41 474.5 23.93 509.74 44.41 97.6 782.89"/>
      <polygon class="cls-6" points="509.74 44.41 649.53 647.44 552.12 671.35 526.41 560.43 532.25 549.98 524.43 551.89 461.86 282 277.41 612.51 257.17 617.48 262.29 639.59 195.77 758.8 97.6 782.89 509.74 44.41"/>
    </g>
    <g class="cls-2">
      <g class="cls-2">
        <g class="cls-7">
          <g class="cls-2">
            <path class="cls-8" d="M826.51,588.9l-35.24-20.48.62-.35,35.24,20.48-.62.35"/>
            <path class="cls-9" d="M827.13,588.55l-35.24-20.48.76-.38,35.24,20.48-.76.38"/>
            <path class="cls-10" d="M827.89,588.17l-35.24-20.48.78-.34,35.24,20.48-.78.34"/>
            <path class="cls-11" d="M828.67,587.83l-35.24-20.48.8-.31,35.24,20.48-.8.31"/>
            <path class="cls-12" d="M829.47,587.52,794.23,567l.76-.23,35.24,20.48-.76.23"/>
            <path class="cls-13" d="M830.23,587.29,795,566.81l.11,0c40.15-10.17,80.25-20,120.41-30.18l.56-.12L951.3,557l-.55.12c-40.16,10.16-80.26,20-120.41,30.17l-.11,0"/>
            <path class="cls-14" d="M951.3,557l-35.23-20.48a5.74,5.74,0,0,1,.65-.1L952,556.86a6.26,6.26,0,0,0-.66.1"/>
            <path class="cls-15" d="M952,556.86l-35.24-20.48a4,4,0,0,1,.59,0l35.24,20.48a4,4,0,0,0-.59,0"/>
            <path class="cls-16" d="M952.55,556.84l-35.24-20.48a2.23,2.23,0,0,1,1.05.27l35.24,20.48a2.12,2.12,0,0,0-1.05-.27"/>
          </g>
        </g>
      </g>
      <path class="cls-3" d="M826.51,588.9a16.18,16.18,0,0,1,3.83-1.65c40.15-10.16,80.25-20,120.41-30.17,3.3-.83,4,.43,4,4.11,0,29.24.09,58.35.18,87.5-.2,28.65.36,56.89-.3,85.79-.22,9.71-2.69,21-5.56,31.75C928.71,843,889,905.91,830.27,954.12a21.6,21.6,0,0,1-3.07,2.12c-4.28,2.47-9,3.42-13.16,4.47-60.85,15.06-97.87-10.08-113.63-70.82a39.07,39.07,0,0,1-1.09-9.58c-.23-57.29-.34-114.64-.62-171.88,0-3.69,1.08-5.59,4-8.26q59.91-54.09,119.77-108.35A24.19,24.19,0,0,1,826.51,588.9Z"/>
      <g class="cls-2">
        <g class="cls-17">
          <g class="cls-2">
            <path class="cls-16" d="M742.67,955.16l-35.24-20.48A69.67,69.67,0,0,1,694,924.47l35.24,20.47a69.33,69.33,0,0,0,13.45,10.22"/>
            <path class="cls-15" d="M729.22,944.94,694,924.47a80.74,80.74,0,0,1-8.06-9.11l35.24,20.48a79.77,79.77,0,0,0,8.06,9.1"/>
            <path class="cls-14" d="M721.16,935.84l-35.24-20.48a97.59,97.59,0,0,1-5.91-8.79l35.24,20.48a97.59,97.59,0,0,0,5.91,8.79"/>
            <path class="cls-13" d="M715.25,927.05,680,906.57q-2.55-4.26-4.81-9l35.24,20.48q2.26,4.73,4.81,9"/>
            <path class="cls-12" d="M710.44,918.06,675.2,897.58q-2.16-4.53-4.08-9.49l35.24,20.48q1.92,5,4.08,9.49"/>
            <path class="cls-11" d="M706.36,908.57l-35.24-20.48q-1.89-4.86-3.52-10.13l35.24,20.47q1.63,5.28,3.52,10.14"/>
            <path class="cls-10" d="M702.84,898.43,667.6,878q-1.29-4.15-2.43-8.55a.75.75,0,0,1,0-.16l35.24,20.48a.94.94,0,0,0,0,.16q1.14,4.4,2.43,8.54"/>
            <path class="cls-9" d="M700.37,889.73l-35.24-20.48c-.15-.58-.27-1.17-.39-1.77L700,888c.12.61.24,1.2.39,1.78"/>
            <path class="cls-8" d="M700,888l-35.24-20.47c-.11-.6-.21-1.21-.29-1.83l35.24,20.48c.08.62.18,1.23.29,1.82"/>
            <path class="cls-18" d="M699.69,886.13l-35.24-20.48c-.08-.61-.15-1.24-.21-1.87l35.24,20.47c.06.64.13,1.27.21,1.88"/>
            <path class="cls-19" d="M699.48,884.25l-35.24-20.47q-.07-1-.12-1.95l35.24,20.48c0,.66.07,1.31.12,1.94"/>
            <path class="cls-20" d="M699.36,882.31l-35.24-20.48c0-.66,0-1.32,0-2-.23-57.29-.34-114.64-.62-171.88v-.11l35.24,20.48v.11c.28,57.24.39,114.59.62,171.88,0,.68,0,1.34,0,2"/>
            <path class="cls-21" d="M698.7,708.32l-35.24-20.48c0-.23,0-.45,0-.66l35.24,20.48c0,.21,0,.43,0,.66"/>
            <path class="cls-22" d="M698.72,707.66l-35.24-20.48c0-.19,0-.37,0-.54l35.24,20.48c0,.17,0,.35,0,.54"/>
            <path class="cls-23" d="M698.75,707.12l-35.24-20.48c0-.16,0-.31,0-.47l35.24,20.48c0,.15,0,.31,0,.47"/>
            <path class="cls-24" d="M698.8,706.65l-35.24-20.48.06-.41,35.24,20.48-.06.41"/>
            <path class="cls-25" d="M698.86,706.24l-35.24-20.48c0-.13,0-.26.07-.38l35.24,20.48c0,.12,0,.25-.07.38"/>
            <path class="cls-26" d="M698.93,705.86l-35.24-20.48.09-.37L699,705.49l-.09.37"/>
            <path class="cls-27" d="M699,705.49,663.78,685c0-.13.06-.25.1-.37l35.24,20.48c0,.12-.07.24-.1.37"/>
            <path class="cls-28" d="M699.12,705.12l-35.24-20.48c0-.14.09-.28.14-.41l35.24,20.48c0,.13-.1.27-.14.41"/>
            <path class="cls-29" d="M699.26,704.71,664,684.23a6.54,6.54,0,0,1,.28-.66l35.24,20.48a6.54,6.54,0,0,0-.28.66"/>
            <path class="cls-30" d="M699.54,704.05,664.3,683.57c.09-.18.18-.36.29-.54l35.24,20.48c-.11.18-.2.36-.29.54"/>
            <path class="cls-29" d="M699.83,703.51,664.59,683c.12-.2.24-.4.38-.6l35.24,20.48c-.14.2-.26.4-.38.6"/>
            <path class="cls-28" d="M700.21,702.91,665,682.43c.1-.15.21-.29.32-.43l35.24,20.48c-.11.14-.22.28-.32.43"/>
            <path class="cls-27" d="M700.53,702.48,665.29,682l.32-.4,35.24,20.48-.32.4"/>
            <path class="cls-26" d="M700.85,702.08,665.61,681.6l.37-.42,35.24,20.48-.37.42"/>
            <path class="cls-25" d="M701.22,701.66,666,681.18l.46-.48,35.24,20.48-.46.48"/>
            <path class="cls-24" d="M701.68,701.18,666.44,680.7l.6-.59,35.24,20.48-.6.59"/>
            <path class="cls-23" d="M702.28,700.59,667,680.11l.46-.42q59.91-54.09,119.77-108.35l.19-.17,35.24,20.48-.19.17q-59.93,54.09-119.77,108.35l-.46.42"/>
            <path class="cls-22" d="M822.7,591.65l-35.24-20.48c.25-.22.5-.43.76-.63L823.46,591l-.76.64"/>
            <path class="cls-21" d="M823.46,591l-35.24-20.47c.24-.2.49-.4.74-.58l35.24,20.47c-.25.19-.5.38-.74.58"/>
            <path class="cls-20" d="M824.2,590.43,789,570c.24-.19.48-.37.73-.54l35.24,20.48c-.25.17-.49.35-.73.53"/>
            <path class="cls-19" d="M824.93,589.9l-35.24-20.48.73-.49,35.24,20.48-.73.49"/>
            <path class="cls-18" d="M825.66,589.41l-35.24-20.48.73-.45L826.39,589l-.73.45"/>
            <path class="cls-8" d="M826.39,589l-35.24-20.48.12-.06,35.24,20.48-.12.06"/>
          </g>
        </g>
      </g>
    </g>
  </g>
</svg>
