<svg xmlns="http://www.w3.org/2000/svg" viewBox="0 0 1000 1000">
  <defs>
    <style>
      .cls-1 {
        isolation: isolate;
      }

      .cls-2 {
        fill: #c9c9c9;
      }

      .cls-3 {
        fill: #f0f0f0;
      }

      .cls-4 {
        fill: #949494;
      }
    </style>
  </defs>
  <title>static property</title>
  <g id="static_property" data-name="static property">
    <g class="cls-1">
      <polygon class="cls-2" points="765.83 183.46 730.59 162.99 801.56 122.01 836.8 142.49 765.83 183.46"/>
      <polygon class="cls-3" points="683.4 589.51 648.16 569.03 730.59 162.99 765.83 183.46 683.4 589.51"/>
      <polygon class="cls-2" points="331.09 792.91 295.86 772.43 648.16 569.03 683.4 589.51 331.09 792.91"/>
      <polygon class="cls-4" points="765.83 183.46 836.8 142.49 735.66 640.64 679.59 673.02 297.42 894.03 241.42 926 342.56 427.84 413.53 386.87 331.09 792.91 683.4 589.51 765.83 183.46"/>
      <polygon class="cls-3" points="241.42 926 206.18 905.52 307.32 407.36 342.56 427.84 241.42 926"/>
      <polygon class="cls-2" points="342.56 427.84 307.32 407.36 378.29 366.39 413.53 386.87 342.56 427.84"/>
    </g>
  </g>
</svg>
