<svg xmlns="http://www.w3.org/2000/svg" xmlns:xlink="http://www.w3.org/1999/xlink" viewBox="0 0 1000 1000">
  <defs>
    <style>
      .cls-1 {
        fill: none;
      }

      .cls-2 {
        isolation: isolate;
      }

      .cls-3 {
        clip-path: url(#clip-path);
      }

      .cls-4 {
        fill: #858585;
      }

      .cls-5 {
        fill: #898989;
      }

      .cls-6 {
        clip-path: url(#clip-path-2);
      }

      .cls-7 {
        fill: #8a8a8a;
      }

      .cls-8 {
        fill: #8f8f8f;
      }

      .cls-9 {
        fill: #949494;
      }

      .cls-10 {
        fill: #999;
      }

      .cls-11 {
        fill: #9e9e9e;
      }

      .cls-12 {
        fill: #a3a3a3;
      }

      .cls-13 {
        fill: #a8a8a8;
      }

      .cls-14 {
        fill: #adadad;
      }

      .cls-15 {
        fill: #b3b3b3;
      }

      .cls-16 {
        clip-path: url(#clip-path-3);
      }

      .cls-17 {
        clip-path: url(#clip-path-4);
      }

      .cls-18 {
        fill: #c4c4c4;
      }

      .cls-19 {
        clip-path: url(#clip-path-5);
      }

      .cls-20 {
        fill: #b8b8b8;
      }

      .cls-21 {
        clip-path: url(#clip-path-6);
      }

      .cls-22 {
        fill: #dcdcdc;
      }

      .cls-23 {
        clip-path: url(#clip-path-7);
      }
    </style>
    <clipPath id="clip-path">
      <path class="cls-1" d="M308.34,394.48l.11-40.75q0,5.07,11.18,11.53L319.52,406Q308.32,399.55,308.34,394.48Z"/>
    </clipPath>
    <clipPath id="clip-path-2">
      <path class="cls-1" d="M615.41,377.63l-.12,40.76q-63.76-36-80.54-42.32t-37.09-1.72q-33.41,7.77-62.17,15.45T392.44,402q-14.28,4.48-26.5,8c-8.15,2.33-14.16,3.69-18.08,4.09a38.38,38.38,0,0,1-11.74-.61,43.58,43.58,0,0,1-12.79-5.2l.12-40.76a43.53,43.53,0,0,0,12.78,5.2,38.43,38.43,0,0,0,11.75.61c3.91-.39,9.92-1.76,18.07-4.08s17-5,26.51-8,23.87-7,43-12.17,39.9-10.27,62.17-15.44q20.3-4.61,37.09,1.71T615.41,377.63Z"/>
    </clipPath>
    <clipPath id="clip-path-3">
      <path class="cls-1" d="M867,528.87l-.12,40.76q-16.3-15-63-42.36l.12-40.76Q850.71,513.89,867,528.87Z"/>
    </clipPath>
    <clipPath id="clip-path-4">
      <path class="cls-1" d="M49.7,591.94l.11-40.76q0,5.3,11.43,11.91l-.12,40.75Q49.69,597.24,49.7,591.94Z"/>
    </clipPath>
    <clipPath id="clip-path-5">
      <path class="cls-1" d="M957.6,531.52l-.11,40.76q0,3.86-6.2,7.45-.69.4-168.59,70.62-16.2,7-23.26,6.28t-21.32-8.93Q728,641.86,728,636.84l.12-40.76q0,5,10.09,10.86,14.24,8.22,21.32,8.93t23.26-6.28Q950.71,539.38,951.41,539,957.59,535.39,957.6,531.52Z"/>
    </clipPath>
    <clipPath id="clip-path-6">
      <path class="cls-1" d="M264.05,678.59l-.11,40.75c-2.78-.53-6.34-2.06-10.73-4.6l.11-40.75C257.71,676.52,261.27,678.05,264.05,678.59Z"/>
    </clipPath>
    <clipPath id="clip-path-7">
      <path class="cls-1" d="M309.8,663.25,309.68,704q0,3.6-5.44,6.76t-19.1,6.89q-13.62,3.69-21.2,1.68l.11-40.75q7.59,2,21.2-1.69t19.1-6.89Q309.8,666.85,309.8,663.25Z"/>
    </clipPath>
  </defs>
  <title>type alias</title>
  <g id="type_alias" data-name="type alias">
    <g class="cls-2">
      <g class="cls-2">
        <g class="cls-3">
          <g class="cls-2">
            <path class="cls-4" d="M319.63,365.26,319.52,406q-11.2-6.47-11.18-11.54l.11-40.75q0,5.07,11.18,11.53"/>
          </g>
        </g>
      </g>
      <polygon class="cls-5" points="323.44 367.46 323.33 408.22 319.52 406.02 319.63 365.26 323.44 367.46"/>
      <g class="cls-2">
        <g class="cls-6">
          <g class="cls-2">
            <path class="cls-4" d="M615.41,377.63l-.12,40.76q-61.93-35-79.54-41.93l.12-40.76q17.61,6.94,79.54,41.93"/>
            <path class="cls-7" d="M535.87,335.7l-.12,40.76-1-.39q-2.14-.81-4.35-1.44l.12-40.75c1.46.41,2.91.89,4.34,1.43l1,.39"/>
            <path class="cls-8" d="M530.52,333.88l-.12,40.75c-1.33-.38-2.68-.71-4-1l.11-40.76c1.37.28,2.71.62,4,1"/>
            <path class="cls-9" d="M526.47,332.88l-.11,40.76c-1.19-.25-2.39-.45-3.6-.63l.11-40.75c1.21.17,2.41.38,3.6.62"/>
            <path class="cls-10" d="M522.87,332.26,522.76,373c-1.15-.16-2.3-.29-3.47-.38l.12-40.76c1.16.09,2.32.22,3.46.39"/>
            <path class="cls-11" d="M519.41,331.87l-.12,40.76c-1.17-.1-2.35-.16-3.55-.19l.12-40.76c1.19,0,2.38.09,3.55.19"/>
            <path class="cls-12" d="M515.86,331.68l-.12,40.76c-1.27,0-2.55,0-3.85,0L512,331.7c1.3-.05,2.59-.05,3.86,0"/>
            <path class="cls-13" d="M512,331.7l-.11,40.76c-1.49.05-3,.15-4.52.3l.11-40.76c1.53-.15,3-.25,4.52-.3"/>
            <path class="cls-14" d="M507.48,332l-.11,40.76c-2,.2-4,.48-6.05.85l.12-40.76c2-.37,4.06-.65,6-.85"/>
            <path class="cls-15" d="M501.44,332.85l-.12,40.76c-1.21.22-2.43.46-3.66.74q-33.41,7.77-62.17,15.45T392.44,402q-14.28,4.48-26.5,8-9,2.58-14.54,3.58l.11-40.76q5.55-1,14.54-3.57,12.21-3.49,26.51-8t43-12.17q28.75-7.68,62.17-15.44c1.23-.28,2.46-.53,3.67-.75"/>
            <path class="cls-14" d="M351.51,372.76l-.11,40.76c-1.33.23-2.51.41-3.54.51h-.06l.11-40.76H348c1-.1,2.21-.27,3.53-.51"/>
            <path class="cls-13" d="M347.91,373.28,347.8,414c-.85.08-1.69.14-2.53.17l.11-40.76c.85,0,1.69-.09,2.53-.17"/>
            <path class="cls-12" d="M345.38,373.45l-.11,40.76c-.76,0-1.51,0-2.26,0l.11-40.76c.76,0,1.51,0,2.26,0"/>
            <path class="cls-11" d="M343.12,373.46,343,414.22q-1.1,0-2.19-.12l.11-40.76q1.1.09,2.19.12"/>
            <path class="cls-10" d="M340.93,373.34l-.11,40.76c-.76-.06-1.51-.15-2.26-.25l.12-40.76c.75.1,1.5.19,2.25.25"/>
            <path class="cls-9" d="M338.68,373.09l-.12,40.76c-.81-.12-1.63-.26-2.44-.43h0l.11-40.76h0c.82.17,1.63.31,2.45.43"/>
            <path class="cls-8" d="M336.21,372.66l-.11,40.76c-.73-.15-1.47-.33-2.21-.55l.11-40.76c.75.22,1.49.4,2.21.55"/>
            <path class="cls-7" d="M334,372.11l-.11,40.76c-1.13-.32-2.27-.71-3.45-1.17l.12-40.76c1.17.46,2.32.85,3.44,1.17"/>
            <path class="cls-4" d="M330.56,370.94l-.12,40.76a52.59,52.59,0,0,1-7.11-3.48l.12-40.76a52,52,0,0,0,7.11,3.48"/>
          </g>
        </g>
      </g>
      <polygon class="cls-5" points="673.62 411.24 673.51 452 615.29 418.39 615.41 377.63 673.62 411.24"/>
      <polygon class="cls-5" points="804 486.51 803.88 527.27 726 482.31 726.12 441.55 804 486.51"/>
      <g class="cls-2">
        <g class="cls-16">
          <g class="cls-2">
            <path class="cls-4" d="M867,528.87l-.12,40.76q-16.3-15-63-42.36l.12-40.76q46.71,27.38,63,42.36"/>
          </g>
        </g>
      </g>
      <g class="cls-2">
        <g class="cls-17">
          <g class="cls-2">
            <path class="cls-4" d="M61.24,563.09l-.12,40.75q-11.43-6.6-11.42-11.9l.11-40.76q0,5.3,11.43,11.91"/>
          </g>
        </g>
      </g>
      <polygon class="cls-18" points="726.12 441.55 726 482.31 231.75 654.19 231.87 613.43 726.12 441.55"/>
      <g class="cls-2">
        <g class="cls-19">
          <g class="cls-2">
            <path class="cls-9" d="M957.6,531.52l-.11,40.76v.13l.11-40.76v-.13"/>
            <path class="cls-10" d="M957.6,531.65l-.11,40.76a4.48,4.48,0,0,1-.1.81l.12-40.76a5.58,5.58,0,0,0,.09-.81"/>
            <path class="cls-11" d="M957.51,532.46l-.12,40.76a4.92,4.92,0,0,1-.23.81l.11-40.76a4.69,4.69,0,0,0,.24-.81"/>
            <path class="cls-12" d="M957.27,533.27,957.16,574a6.06,6.06,0,0,1-.4.86l.11-40.76a5.13,5.13,0,0,0,.4-.86"/>
            <path class="cls-13" d="M956.87,534.13l-.11,40.76a8.22,8.22,0,0,1-.67,1l.11-40.76a8.22,8.22,0,0,0,.67-1"/>
            <path class="cls-14" d="M956.2,535.12l-.11,40.76a10.7,10.7,0,0,1-1.19,1.27l.11-40.76a9.93,9.93,0,0,0,1.19-1.27"/>
            <path class="cls-15" d="M955,536.39l-.11,40.76a20.56,20.56,0,0,1-3.21,2.35l.11-40.76a19.08,19.08,0,0,0,3.21-2.35"/>
            <path class="cls-20" d="M951.8,538.74l-.11,40.76-.4.23q-.69.4-168.59,70.62-6.08,2.63-10.87,4.16l.12-40.76q4.78-1.53,10.87-4.16Q950.71,539.38,951.41,539l.39-.23"/>
            <path class="cls-15" d="M772,613.75l-.12,40.76a53.49,53.49,0,0,1-6.76,1.75l.11-40.75a53.79,53.79,0,0,0,6.77-1.76"/>
            <path class="cls-14" d="M765.18,615.51l-.11,40.75c-.81.15-1.57.26-2.29.33l.11-40.76c.72-.07,1.49-.18,2.29-.32"/>
            <path class="cls-13" d="M762.89,615.83l-.11,40.76q-.71.07-1.35.09l.11-40.75c.43,0,.88,0,1.35-.1"/>
            <path class="cls-12" d="M761.54,615.93l-.11,40.75c-.34,0-.67,0-1,0l.11-40.76c.32,0,.64,0,1,0"/>
            <path class="cls-11" d="M760.56,615.93l-.11,40.76-.78,0,.11-40.76.78,0"/>
            <path class="cls-10" d="M759.78,615.89l-.11,40.76-.23,0-.66-.08.12-40.76.66.08.22,0"/>
            <path class="cls-9" d="M758.9,615.79l-.12,40.76c-.4-.06-.81-.13-1.24-.22l.11-40.76c.43.09.85.16,1.25.22"/>
            <path class="cls-8" d="M757.65,615.57l-.11,40.76c-.61-.13-1.24-.28-1.91-.47l.12-40.76c.66.19,1.3.34,1.9.47"/>
            <path class="cls-7" d="M755.75,615.1l-.12,40.76c-1.19-.34-2.48-.79-3.87-1.33l.12-40.76c1.39.54,2.68,1,3.87,1.33"/>
            <path class="cls-4" d="M751.88,613.77l-.12,40.76a107,107,0,0,1-13.64-6.83Q728,641.86,728,636.84l.12-40.76q0,5,10.09,10.86a106.32,106.32,0,0,0,13.64,6.83"/>
          </g>
        </g>
      </g>
      <polygon class="cls-5" points="253.32 673.99 253.21 714.74 61.12 603.85 61.24 563.09 253.32 673.99"/>
      <g class="cls-2">
        <g class="cls-21">
          <g class="cls-2">
            <path class="cls-9" d="M264.05,678.59l-.11,40.75-.23,0,.12-40.76.22.05"/>
            <path class="cls-8" d="M263.83,678.54l-.12,40.76c-.4-.08-.81-.19-1.24-.31l.12-40.76c.43.13.84.23,1.24.31"/>
            <path class="cls-7" d="M262.59,678.23,262.47,719c-.72-.21-1.5-.47-2.31-.79l.11-40.76a23.65,23.65,0,0,0,2.32.79"/>
            <path class="cls-4" d="M260.27,677.44l-.11,40.76a52.39,52.39,0,0,1-7-3.46l.11-40.75a54.09,54.09,0,0,0,6.95,3.45"/>
          </g>
        </g>
      </g>
      <path class="cls-22" d="M949.23,522.18q15.57,9,2.18,16.79-.69.4-168.59,70.62-16.2,7-23.26,6.28t-21.32-8.93q-17.73-10.23-4.31-18,3.44-2,53.83-23.64T867,528.87q-16.31-15-63-42.36l-77.88-45L231.87,613.43l68.23,39.39q17,9.79,4.25,17.19-5.5,3.19-19.1,6.89t-21.2,1.69c-2.78-.54-6.34-2.07-10.73-4.6L61.24,563.09q-19.07-11-6.33-18.39,4.8-2.81,17.37-6.49t21.56-2.09a45.29,45.29,0,0,1,12.44,4.8l73.09,42.2L673.62,411.24l-58.21-33.61q-63.76-36-80.55-42.32t-37.09-1.71q-33.4,7.75-62.17,15.44t-43,12.17q-14.3,4.49-26.51,8c-8.15,2.32-14.16,3.69-18.07,4.08a38.43,38.43,0,0,1-11.75-.61,43.53,43.53,0,0,1-12.78-5.2l-3.82-2.2q-18.37-10.61-6.55-17.47,2.06-1.19,198.49-57.57,23.07-7,38.32,1.4Z"/>
      <g class="cls-2">
        <g class="cls-23">
          <g class="cls-2">
            <path class="cls-9" d="M309.8,663.25,309.68,704v.12l.12-40.76v-.12"/>
            <path class="cls-10" d="M309.8,663.37l-.12,40.76a5.44,5.44,0,0,1-.09.8l.12-40.76a5.29,5.29,0,0,0,.09-.8"/>
            <path class="cls-11" d="M309.71,664.17l-.12,40.76a4.35,4.35,0,0,1-.23.78l.12-40.75a5.48,5.48,0,0,0,.23-.79"/>
            <path class="cls-12" d="M309.48,665l-.12,40.75a5.5,5.5,0,0,1-.38.82l.12-40.76a5.9,5.9,0,0,0,.38-.81"/>
            <path class="cls-13" d="M309.1,665.77,309,706.53a8,8,0,0,1-.61.91l.11-40.76a7.33,7.33,0,0,0,.62-.91"/>
            <path class="cls-14" d="M308.48,666.68l-.11,40.76a10.77,10.77,0,0,1-1.05,1.12l.11-40.76a9.85,9.85,0,0,0,1.05-1.12"/>
            <path class="cls-15" d="M307.43,667.8l-.11,40.76a17,17,0,0,1-2.77,2l.12-40.76a16.45,16.45,0,0,0,2.76-2"/>
            <path class="cls-20" d="M304.67,669.82l-.12,40.76-.31.19a60.15,60.15,0,0,1-11.31,4.6l.11-40.76a60.15,60.15,0,0,0,11.31-4.6l.32-.19"/>
            <path class="cls-15" d="M293,674.61l-.11,40.76q-3.49,1.13-7.79,2.29-3.66,1-6.88,1.57l.12-40.76c2.14-.38,4.44-.91,6.87-1.57,2.87-.78,5.46-1.54,7.79-2.29"/>
            <path class="cls-14" d="M278.38,678.47l-.12,40.76c-1.52.28-3,.48-4.35.62l.12-40.76c1.38-.14,2.83-.34,4.35-.62"/>
            <path class="cls-13" d="M274,679.09l-.12,40.76c-.92.09-1.82.15-2.68.18l.11-40.76c.86,0,1.76-.09,2.69-.18"/>
            <path class="cls-12" d="M271.34,679.27,271.23,720c-.69,0-1.35,0-2,0l.12-40.76c.64,0,1.3,0,2,0"/>
            <path class="cls-11" d="M269.36,679.28,269.24,720c-.55,0-1.09,0-1.61-.08l.12-40.76c.52,0,1.06.07,1.61.08"/>
            <path class="cls-10" d="M267.75,679.2,267.63,720c-.48,0-.95-.09-1.4-.16l.11-40.76c.46.07.93.12,1.41.16"/>
            <path class="cls-9" d="M266.34,679l-.11,40.76c-.45-.06-.88-.14-1.31-.22l.12-40.76c.42.09.86.16,1.3.22"/>
            <path class="cls-8" d="M265,678.82l-.12,40.76c-.33-.07-.66-.15-1-.24l.11-40.75,1,.23"/>
          </g>
        </g>
      </g>
    </g>
  </g>
</svg>
