<svg xmlns="http://www.w3.org/2000/svg" xmlns:xlink="http://www.w3.org/1999/xlink" viewBox="0 0 1000 1000">
  <defs>
    <style>
      .cls-1 {
        fill: none;
      }

      .cls-2 {
        isolation: isolate;
      }

      .cls-3 {
        clip-path: url(#clip-path);
      }

      .cls-4 {
        fill: #858585;
      }

      .cls-5 {
        fill: #898989;
      }

      .cls-6 {
        clip-path: url(#clip-path-2);
      }

      .cls-7 {
        fill: #8a8a8a;
      }

      .cls-8 {
        fill: #8f8f8f;
      }

      .cls-9 {
        fill: #949494;
      }

      .cls-10 {
        fill: #999;
      }

      .cls-11 {
        fill: #9e9e9e;
      }

      .cls-12 {
        fill: #a3a3a3;
      }

      .cls-13 {
        fill: #a8a8a8;
      }

      .cls-14 {
        fill: #adadad;
      }

      .cls-15 {
        fill: #b3b3b3;
      }

      .cls-16 {
        clip-path: url(#clip-path-3);
      }

      .cls-17 {
        clip-path: url(#clip-path-4);
      }

      .cls-18 {
        fill: #c4c4c4;
      }

      .cls-19 {
        clip-path: url(#clip-path-5);
      }

      .cls-20 {
        fill: #b8b8b8;
      }

      .cls-21 {
        clip-path: url(#clip-path-6);
      }

      .cls-22 {
        fill: #dcdcdc;
      }

      .cls-23 {
        clip-path: url(#clip-path-7);
      }

      .cls-24 {
        clip-path: url(#clip-path-8);
      }

      .cls-25 {
        fill: #a0a0a0;
      }

      .cls-26 {
        clip-path: url(#clip-path-9);
      }

      .cls-27 {
        fill: gray;
      }

      .cls-28 {
        clip-path: url(#clip-path-10);
      }

      .cls-29 {
        clip-path: url(#clip-path-11);
      }

      .cls-30 {
        clip-path: url(#clip-path-12);
      }

      .cls-31 {
        clip-path: url(#clip-path-13);
      }

      .cls-32 {
        clip-path: url(#clip-path-14);
      }
    </style>
    <clipPath id="clip-path">
      <path class="cls-1" d="M317.33,394.48l.12-40.75q0,5.07,11.18,11.53L328.52,406Q317.32,399.55,317.33,394.48Z"/>
    </clipPath>
    <clipPath id="clip-path-2">
      <path class="cls-1" d="M624.41,377.63l-.12,40.76q-63.76-36-80.54-42.32t-37.1-1.72q-33.4,7.77-62.17,15.45t-43,12.17q-14.29,4.48-26.5,8c-8.16,2.32-14.17,3.68-18.07,4.08a38.41,38.41,0,0,1-11.75-.61,43.47,43.47,0,0,1-12.79-5.2l.11-40.76a43.85,43.85,0,0,0,12.8,5.21,38.66,38.66,0,0,0,11.74.6c3.91-.39,9.92-1.76,18.08-4.08s17-5,26.5-8,23.87-7,43-12.17,39.9-10.27,62.17-15.44q20.31-4.59,37.09,1.71T624.41,377.63Z"/>
    </clipPath>
    <clipPath id="clip-path-3">
      <path class="cls-1" d="M876,528.87l-.12,40.76q-16.3-15-63-42.36l.11-40.75Q859.71,513.88,876,528.87Z"/>
    </clipPath>
    <clipPath id="clip-path-4">
      <path class="cls-1" d="M58.7,591.94l.11-40.76q0,5.3,11.43,11.91l-.12,40.75Q58.69,597.24,58.7,591.94Z"/>
    </clipPath>
    <clipPath id="clip-path-5">
      <path class="cls-1" d="M966.6,531.52l-.12,40.76q0,3.86-6.19,7.45-.69.4-168.59,70.62-16.19,7-23.26,6.28t-21.32-8.93Q737,641.86,737,636.84l.12-40.76q0,5,10.08,10.86,14.24,8.22,21.32,8.93t23.27-6.28Q959.71,539.38,960.41,539,966.59,535.39,966.6,531.52Z"/>
    </clipPath>
    <clipPath id="clip-path-6">
      <path class="cls-1" d="M273.06,678.59l-.12,40.76c-2.78-.53-6.34-2.07-10.74-4.61l.12-40.75C266.71,676.52,270.28,678.06,273.06,678.59Z"/>
    </clipPath>
    <clipPath id="clip-path-7">
      <path class="cls-1" d="M318.8,663.25,318.69,704q0,3.6-5.45,6.76t-19.11,6.89q-13.61,3.69-21.19,1.69l.12-40.76q7.57,2,21.19-1.69t19.1-6.88Q318.8,666.86,318.8,663.25Z"/>
    </clipPath>
    <clipPath id="clip-path-8">
      <path class="cls-1" d="M384.31,694.93l.11-40.76a10.53,10.53,0,0,0,1.17,4.42l-.11,40.76A10.27,10.27,0,0,1,384.31,694.93Z"/>
    </clipPath>
    <clipPath id="clip-path-9">
      <path class="cls-1" d="M626.12,701.48,626,742.24c0,1.5-.93,2.79-2.76,3.85a13.14,13.14,0,0,1-6.1,1.57,23.18,23.18,0,0,1-5.57-.26l-6.87-1.49.11-40.75q5,1.07,6.87,1.49a23.36,23.36,0,0,0,5.57.25,13.23,13.23,0,0,0,6.1-1.56C625.19,704.27,626.11,703,626.12,701.48Z"/>
    </clipPath>
    <clipPath id="clip-path-10">
      <path class="cls-1" d="M453.73,760.78l-.12,40.76a5.28,5.28,0,0,1-2.83,4.81,15.28,15.28,0,0,1-7.85,1.86,16,16,0,0,1-8.06-2c-1.12-.65-2.4-2.19-3.86-4.63l.11-40.75c1.47,2.44,2.75,4,3.86,4.62a16,16,0,0,0,8.06,2,15.26,15.26,0,0,0,7.85-1.85A5.3,5.3,0,0,0,453.73,760.78Z"/>
    </clipPath>
    <clipPath id="clip-path-11">
      <path class="cls-1" d="M674.87,781.88l.11-40.76a10.72,10.72,0,0,0,.92,4l-.12,40.76A10.69,10.69,0,0,1,674.87,781.88Z"/>
    </clipPath>
    <clipPath id="clip-path-12">
      <path class="cls-1" d="M502.63,841.73l.12-40.76q0,2.4,3.2,4.26a23.71,23.71,0,0,0,7,2.34l-.12,40.75a23.44,23.44,0,0,1-6.95-2.34Q502.63,844.14,502.63,841.73Z"/>
    </clipPath>
    <clipPath id="clip-path-13">
      <path class="cls-1" d="M716.92,837.44l-.12,40.76q-.84-1.92-6.4-14.46l.12-40.76Q716.07,835.54,716.92,837.44Z"/>
    </clipPath>
    <clipPath id="clip-path-14">
      <path class="cls-1" d="M744.05,847.84l-.12,40.76a5.07,5.07,0,0,1-2.81,4.6,13.5,13.5,0,0,1-2.63,1.17,10.41,10.41,0,0,1-3,.48c-1.07,0-2,0-2.75.09a17.38,17.38,0,0,1-3.2-.24l-2.6-.36c-.35,0-1.21-.22-2.59-.54l.12-40.76q2.07.48,2.58.54l2.6.36a18.69,18.69,0,0,0,3.21.25c.76-.05,1.67-.07,2.74-.1a10.35,10.35,0,0,0,3-.48,14.19,14.19,0,0,0,2.64-1.16A5.12,5.12,0,0,0,744.05,847.84Z"/>
    </clipPath>
  </defs>
  <title>type alias with type parameter</title>
  <g id="type_alias_with_type_parameter" data-name="type alias with type parameter">
    <g class="cls-2">
      <g class="cls-2">
        <g class="cls-3">
          <g class="cls-2">
            <path class="cls-4" d="M328.63,365.26,328.52,406q-11.2-6.47-11.19-11.54l.12-40.75q0,5.07,11.18,11.53"/>
          </g>
        </g>
      </g>
      <polygon class="cls-5" points="332.44 367.46 332.33 408.22 328.51 406.02 328.63 365.26 332.44 367.46"/>
      <g class="cls-2">
        <g class="cls-6">
          <g class="cls-2">
            <path class="cls-4" d="M624.41,377.63l-.12,40.76q-61.92-35-79.54-41.93l.12-40.76q17.61,6.94,79.54,41.93"/>
            <path class="cls-7" d="M544.87,335.7l-.12,40.76-1-.39q-2.14-.81-4.35-1.44l.12-40.75c1.46.41,2.91.89,4.34,1.43l1,.39"/>
            <path class="cls-8" d="M539.52,333.88l-.12,40.75c-1.33-.38-2.68-.71-4-1l.11-40.76c1.37.29,2.71.62,4,1"/>
            <path class="cls-9" d="M535.47,332.88l-.11,40.76c-1.19-.24-2.39-.45-3.6-.62l.12-40.76c1.21.17,2.41.38,3.59.62"/>
            <path class="cls-10" d="M531.88,332.26,531.76,373c-1.14-.17-2.3-.3-3.46-.39l.11-40.76c1.17.1,2.32.23,3.47.39"/>
            <path class="cls-11" d="M528.41,331.87l-.11,40.76c-1.18-.1-2.36-.16-3.55-.19l.11-40.76c1.2,0,2.38.09,3.55.19"/>
            <path class="cls-12" d="M524.86,331.68l-.11,40.76c-1.28,0-2.56,0-3.86,0L521,331.7c1.3,0,2.59-.05,3.86,0"/>
            <path class="cls-13" d="M521,331.7l-.11,40.76q-2.24.07-4.53.3l.12-40.76c1.52-.15,3-.25,4.52-.3"/>
            <path class="cls-14" d="M516.48,332l-.12,40.76q-3,.3-6.06.85l.12-40.76q3.07-.56,6.06-.85"/>
            <path class="cls-15" d="M510.42,332.85l-.12,40.76c-1.2.22-2.42.47-3.65.74q-33.4,7.77-62.17,15.45t-43,12.17q-14.29,4.48-26.5,8-9,2.57-14.58,3.57l.12-40.76q5.55-1,14.58-3.57,12.19-3.49,26.5-8t43-12.17q28.75-7.68,62.17-15.44c1.22-.28,2.44-.53,3.65-.75"/>
            <path class="cls-14" d="M360.48,372.76l-.12,40.76c-1.31.24-2.47.41-3.49.51h-.1l.11-40.76h.1c1-.1,2.19-.27,3.5-.51"/>
            <path class="cls-13" d="M356.88,373.28,356.77,414c-.83.08-1.66.14-2.48.17l.11-40.76c.83,0,1.66-.08,2.48-.17"/>
            <path class="cls-12" d="M354.4,373.45l-.11,40.76c-.76,0-1.52,0-2.28,0l.12-40.76c.76,0,1.51,0,2.27,0"/>
            <path class="cls-11" d="M352.13,373.46,352,414.22c-.73,0-1.47-.06-2.2-.12l.11-40.76c.74.06,1.47.1,2.21.12"/>
            <path class="cls-10" d="M349.92,373.34l-.11,40.76c-.76-.06-1.51-.15-2.27-.26l.12-40.75c.75.1,1.51.19,2.26.25"/>
            <path class="cls-9" d="M347.66,373.09l-.12,40.75c-.8-.11-1.61-.25-2.42-.42h0l.11-40.76h0c.8.16,1.61.3,2.42.42"/>
            <path class="cls-8" d="M345.2,372.66l-.11,40.76c-.72-.15-1.45-.33-2.2-.54l.12-40.76q1.11.31,2.19.54"/>
            <path class="cls-7" d="M343,372.12l-.12,40.76c-1.12-.32-2.27-.72-3.45-1.18l.12-40.76a35.25,35.25,0,0,0,3.45,1.18"/>
            <path class="cls-4" d="M339.56,370.94l-.12,40.76a52.59,52.59,0,0,1-7.11-3.48l.11-40.76a52.11,52.11,0,0,0,7.12,3.48"/>
          </g>
        </g>
      </g>
      <polygon class="cls-5" points="682.62 411.24 682.5 452 624.29 418.39 624.41 377.63 682.62 411.24"/>
      <polygon class="cls-5" points="813 486.52 812.89 527.27 735.01 482.31 735.12 441.55 813 486.52"/>
      <g class="cls-2">
        <g class="cls-16">
          <g class="cls-2">
            <path class="cls-4" d="M876,528.87l-.12,40.76q-16.3-15-63-42.36l.11-40.75q46.71,27.36,63,42.35"/>
          </g>
        </g>
      </g>
      <g class="cls-2">
        <g class="cls-17">
          <g class="cls-2">
            <path class="cls-4" d="M70.24,563.09l-.12,40.75q-11.43-6.6-11.42-11.9l.11-40.76q0,5.3,11.43,11.91"/>
          </g>
        </g>
      </g>
      <polygon class="cls-18" points="735.12 441.55 735.01 482.31 240.75 654.19 240.86 613.43 735.12 441.55"/>
      <g class="cls-2">
        <g class="cls-19">
          <g class="cls-2">
            <path class="cls-9" d="M966.6,531.52l-.12,40.76v.13l.12-40.76v-.13"/>
            <path class="cls-10" d="M966.6,531.65l-.12,40.76a5.58,5.58,0,0,1-.09.81l.12-40.76a5.58,5.58,0,0,0,.09-.81"/>
            <path class="cls-11" d="M966.51,532.46l-.12,40.76a4.92,4.92,0,0,1-.23.81l.11-40.76a5.78,5.78,0,0,0,.24-.81"/>
            <path class="cls-12" d="M966.27,533.27,966.16,574a6.13,6.13,0,0,1-.41.86l.12-40.76a6.06,6.06,0,0,0,.4-.86"/>
            <path class="cls-13" d="M965.87,534.13l-.12,40.76a8.11,8.11,0,0,1-.66,1l.11-40.76a8.22,8.22,0,0,0,.67-1"/>
            <path class="cls-14" d="M965.2,535.12l-.11,40.76a10.82,10.82,0,0,1-1.2,1.27l.12-40.76a10.7,10.7,0,0,0,1.19-1.27"/>
            <path class="cls-15" d="M964,536.39l-.12,40.76a19.65,19.65,0,0,1-3.21,2.35l.12-40.76a19.94,19.94,0,0,0,3.21-2.35"/>
            <path class="cls-20" d="M960.8,538.74l-.12,40.76-.39.23q-.69.4-168.59,70.62-6.08,2.63-10.86,4.16l.11-40.76q4.8-1.53,10.87-4.16Q959.71,539.38,960.41,539l.39-.23"/>
            <path class="cls-15" d="M781,613.75l-.11,40.76a53.6,53.6,0,0,1-6.77,1.75l.12-40.76a51.83,51.83,0,0,0,6.76-1.75"/>
            <path class="cls-14" d="M774.19,615.5l-.12,40.76c-.8.15-1.57.26-2.29.33l.12-40.76c.72-.07,1.48-.18,2.29-.33"/>
            <path class="cls-13" d="M771.9,615.83l-.12,40.76q-.71.07-1.35.09l.11-40.75c.43,0,.89,0,1.36-.1"/>
            <path class="cls-12" d="M770.54,615.93l-.11,40.75c-.34,0-.67,0-1,0l.11-40.76c.32,0,.64,0,1,0"/>
            <path class="cls-11" d="M769.56,615.93l-.11,40.76-.78,0,.11-40.76.78,0"/>
            <path class="cls-10" d="M768.78,615.89l-.11,40.76-.23,0-.66-.08.12-40.76.65.08.23,0"/>
            <path class="cls-9" d="M767.9,615.79l-.12,40.76c-.4-.06-.82-.13-1.25-.22l.12-40.76c.43.09.85.16,1.25.22"/>
            <path class="cls-8" d="M766.65,615.57l-.12,40.76c-.6-.13-1.24-.28-1.9-.47l.11-40.76c.67.19,1.3.34,1.91.47"/>
            <path class="cls-7" d="M764.74,615.1l-.11,40.76c-1.19-.34-2.48-.79-3.87-1.33l.12-40.76c1.38.54,2.67,1,3.86,1.33"/>
            <path class="cls-4" d="M760.88,613.77l-.12,40.76a106.32,106.32,0,0,1-13.64-6.83Q737,641.86,737,636.84l.12-40.76q0,5,10.08,10.86a106.36,106.36,0,0,0,13.65,6.83"/>
          </g>
        </g>
      </g>
      <polygon class="cls-5" points="262.32 673.99 262.2 714.74 70.12 603.85 70.24 563.09 262.32 673.99"/>
      <g class="cls-2">
        <g class="cls-21">
          <g class="cls-2">
            <path class="cls-9" d="M273.06,678.59l-.12,40.76-.22-.05.11-40.76.23.05"/>
            <path class="cls-8" d="M272.83,678.54l-.11,40.76c-.4-.08-.81-.18-1.24-.3l.11-40.76c.43.12.84.22,1.24.3"/>
            <path class="cls-7" d="M271.59,678.24,271.48,719c-.73-.21-1.5-.48-2.32-.8l.12-40.76a23.71,23.71,0,0,0,2.31.8"/>
            <path class="cls-4" d="M269.28,677.44l-.12,40.76a53.06,53.06,0,0,1-7-3.46l.12-40.75a53.51,53.51,0,0,0,7,3.45"/>
          </g>
        </g>
      </g>
      <path class="cls-22" d="M958.22,522.18q15.59,9,2.19,16.79-.7.4-168.59,70.62-16.2,7-23.27,6.28t-21.32-8.93q-17.72-10.23-4.3-18,3.44-2,53.82-23.64T876,528.87q-16.31-15-63-42.35l-77.88-45L240.86,613.43l68.24,39.4q17,9.78,4.25,17.19-5.49,3.19-19.1,6.88t-21.19,1.69c-2.78-.53-6.35-2.07-10.74-4.6L70.24,563.09q-19-11-6.34-18.39c3.21-1.87,9-4,17.38-6.49s15.55-3.16,21.55-2.09a45.23,45.23,0,0,1,12.45,4.8l73.09,42.2L682.62,411.24l-58.21-33.61q-63.76-36-80.55-42.32t-37.09-1.71q-33.4,7.75-62.17,15.44t-43,12.17q-14.3,4.49-26.5,8c-8.16,2.32-14.17,3.69-18.08,4.08a38.66,38.66,0,0,1-11.74-.6,43.85,43.85,0,0,1-12.8-5.21l-3.81-2.2q-18.37-10.61-6.55-17.47,2-1.19,198.48-57.57,23.07-7,38.32,1.4Z"/>
      <g class="cls-2">
        <g class="cls-23">
          <g class="cls-2">
            <path class="cls-9" d="M318.8,663.25,318.69,704s0,.08,0,.12l.12-40.76v-.12"/>
            <path class="cls-10" d="M318.8,663.37l-.12,40.76a3.57,3.57,0,0,1-.09.8l.12-40.75a5.58,5.58,0,0,0,.09-.81"/>
            <path class="cls-11" d="M318.71,664.18l-.12,40.75a5.45,5.45,0,0,1-.22.79l.11-40.76a4.6,4.6,0,0,0,.23-.78"/>
            <path class="cls-12" d="M318.48,665l-.11,40.76a6,6,0,0,1-.39.81l.12-40.76a5.4,5.4,0,0,0,.38-.81"/>
            <path class="cls-13" d="M318.1,665.77,318,706.53a6.29,6.29,0,0,1-.61.91l.12-40.76a7.23,7.23,0,0,0,.61-.91"/>
            <path class="cls-14" d="M317.49,666.68l-.12,40.76a9.85,9.85,0,0,1-1.05,1.12l.12-40.76a9.85,9.85,0,0,0,1.05-1.12"/>
            <path class="cls-15" d="M316.44,667.8l-.12,40.76a16.89,16.89,0,0,1-2.76,2l.11-40.76a17,17,0,0,0,2.77-2"/>
            <path class="cls-20" d="M313.67,669.83l-.11,40.76-.32.18A59.94,59.94,0,0,1,302,715.36l.12-40.76A59.61,59.61,0,0,0,313.35,670l.32-.19"/>
            <path class="cls-15" d="M302.09,674.6,302,715.36q-3.51,1.13-7.84,2.3c-2.43.66-4.73,1.19-6.87,1.57l.11-40.76c2.15-.38,4.44-.91,6.88-1.57,2.88-.78,5.5-1.55,7.84-2.3"/>
            <path class="cls-14" d="M287.37,678.47l-.11,40.76c-1.53.28-3,.48-4.35.62l.11-40.76c1.38-.14,2.83-.34,4.35-.62"/>
            <path class="cls-13" d="M283,679.09l-.11,40.76c-.93.09-1.83.15-2.69.18l.11-40.76c.87,0,1.76-.09,2.69-.18"/>
            <path class="cls-12" d="M280.33,679.27,280.22,720c-.69,0-1.35,0-2,0l.12-40.75c.64,0,1.3,0,2,0"/>
            <path class="cls-11" d="M278.35,679.29,278.23,720c-.55,0-1.08,0-1.61-.08l.12-40.76c.52,0,1.06.07,1.61.09"/>
            <path class="cls-10" d="M276.74,679.2,276.62,720c-.48,0-.95-.09-1.4-.16l.11-40.75q.69.09,1.41.15"/>
            <path class="cls-9" d="M275.33,679.05l-.11,40.75c-.45-.06-.88-.14-1.3-.22l.12-40.76c.42.09.85.16,1.29.23"/>
            <path class="cls-8" d="M274,678.82l-.12,40.76-1-.23.12-40.76,1,.23"/>
          </g>
        </g>
      </g>
    </g>
    <g>
      <g class="cls-2">
        <g class="cls-2">
          <g class="cls-24">
            <g class="cls-2">
              <path class="cls-4" d="M385.59,658.59l-.11,40.76a10.27,10.27,0,0,1-1.17-4.42l.11-40.76a10.53,10.53,0,0,0,1.17,4.42"/>
            </g>
          </g>
        </g>
        <polygon class="cls-25" points="604.81 705.16 604.7 745.91 411.97 704.9 412.09 664.14 604.81 705.16"/>
        <g class="cls-2">
          <g class="cls-26">
            <g class="cls-2">
              <path class="cls-9" d="M626.12,701.48,626,742.24v.1l.11-40.76s0-.06,0-.1"/>
              <path class="cls-10" d="M626.11,701.58,626,742.34a3.68,3.68,0,0,1-.07.58l.12-40.76a2.78,2.78,0,0,0,.06-.58"/>
              <path class="cls-11" d="M626.05,702.16l-.12,40.76a2.46,2.46,0,0,1-.15.53l.12-40.76a4.61,4.61,0,0,0,.15-.53"/>
              <path class="cls-12" d="M625.9,702.69l-.12,40.76a2.93,2.93,0,0,1-.24.51l.12-40.76a4,4,0,0,0,.24-.51"/>
              <path class="cls-13" d="M625.66,703.2,625.54,744a4.3,4.3,0,0,1-.35.52l.12-40.75a4.41,4.41,0,0,0,.35-.53"/>
              <path class="cls-14" d="M625.31,703.73l-.12,40.75a4.48,4.48,0,0,1-.56.6l.12-40.75a7.68,7.68,0,0,0,.56-.6"/>
              <path class="cls-15" d="M624.75,704.33l-.12,40.75a7.52,7.52,0,0,1-1.25.93l.12-40.76a7.94,7.94,0,0,0,1.25-.92"/>
              <path class="cls-20" d="M623.5,705.25,623.38,746l-.14.08a10.29,10.29,0,0,1-2,.89l.11-40.76a10,10,0,0,0,2-.88l.15-.09"/>
              <path class="cls-15" d="M621.33,706.22,621.22,747a14.25,14.25,0,0,1-1.71.42l.12-40.76a12.07,12.07,0,0,0,1.7-.42"/>
              <path class="cls-14" d="M619.63,706.64l-.12,40.76c-.42.08-.85.14-1.3.18l.12-40.76c.45,0,.88-.1,1.3-.18"/>
              <path class="cls-13" d="M618.33,706.82l-.12,40.76c-.35,0-.71.06-1.07.08l-.49,0,.12-40.76.48,0c.37,0,.73,0,1.08-.08"/>
              <path class="cls-12" d="M616.77,706.92l-.12,40.76c-.8,0-1.54,0-2.21,0l.12-40.76c.67,0,1.4,0,2.21,0"/>
              <path class="cls-11" d="M614.56,706.93l-.12,40.76q-.69,0-1.29-.06l.11-40.76c.4,0,.83,0,1.3.06"/>
              <path class="cls-10" d="M613.26,706.87l-.11,40.76-.86-.1.11-40.76.86.1"/>
              <path class="cls-9" d="M612.4,706.77l-.11,40.76c-.23,0-.44-.07-.63-.11l.11-40.76.63.11"/>
              <path class="cls-8" d="M611.77,706.66l-.11,40.76-.09,0-6.87-1.49.11-40.75q5,1.07,6.87,1.49h.09"/>
            </g>
          </g>
        </g>
        <polygon class="cls-27" points="431.12 760.83 431.01 801.58 385.48 699.35 385.59 658.59 431.12 760.83"/>
        <g class="cls-2">
          <g class="cls-28">
            <g class="cls-2">
              <path class="cls-9" d="M453.73,760.78l-.12,40.76v.18l.11-40.76c0-.06,0-.12,0-.18"/>
              <path class="cls-10" d="M453.72,761l-.11,40.76a5.69,5.69,0,0,1-.12,1l.12-40.76a6.77,6.77,0,0,0,.11-1"/>
              <path class="cls-11" d="M453.61,762l-.12,40.76a4.42,4.42,0,0,1-.23.81l.12-40.76a5.39,5.39,0,0,0,.23-.81"/>
              <path class="cls-12" d="M453.38,762.8l-.12,40.76a4.32,4.32,0,0,1-.32.69l.12-40.76a5.42,5.42,0,0,0,.32-.69"/>
              <path class="cls-13" d="M453.06,763.49l-.12,40.76a4.31,4.31,0,0,1-.42.63l.12-40.76a6.9,6.9,0,0,0,.42-.63"/>
              <path class="cls-14" d="M452.64,764.12l-.12,40.76a6.53,6.53,0,0,1-.57.62l.11-40.76a4.8,4.8,0,0,0,.58-.62"/>
              <path class="cls-15" d="M452.06,764.74,452,805.5a6.31,6.31,0,0,1-1.07.79l.11-40.75a6.94,6.94,0,0,0,1.07-.8"/>
              <path class="cls-20" d="M451,765.54l-.11,40.75-.1.06a12.15,12.15,0,0,1-2.49,1.1l.12-40.76a12.86,12.86,0,0,0,2.48-1.09l.1-.06"/>
              <path class="cls-15" d="M448.41,766.69l-.12,40.76a14,14,0,0,1-1.91.47l.12-40.75a14.42,14.42,0,0,0,1.91-.48"/>
              <path class="cls-14" d="M446.5,767.17l-.12,40.75c-.44.08-.89.15-1.35.19l.11-40.76c.47,0,.92-.11,1.36-.18"/>
              <path class="cls-13" d="M445.14,767.35,445,808.11c-.42,0-.84.07-1.28.09l.12-40.76c.43,0,.86-.05,1.27-.09"/>
              <path class="cls-12" d="M443.87,767.44l-.12,40.76h-1.26l.12-40.76h1.26"/>
              <path class="cls-11" d="M442.61,767.44l-.12,40.76c-.39,0-.77,0-1.15-.06l.12-40.76c.37,0,.76,0,1.15.06"/>
              <path class="cls-10" d="M441.46,767.38l-.12,40.76c-.36,0-.72-.07-1.07-.12l.12-40.76c.35,0,.7.09,1.07.12"/>
              <path class="cls-9" d="M440.39,767.26,440.27,808c-.36,0-.71-.11-1.06-.18l.12-40.76c.34.07.7.13,1.06.18"/>
              <path class="cls-8" d="M439.33,767.08l-.12,40.76c-.38-.08-.76-.17-1.13-.28l.12-40.76c.37.11.74.2,1.13.28"/>
              <path class="cls-7" d="M438.2,766.8l-.12,40.76c-.46-.13-.92-.29-1.36-.46l.12-40.76a12.07,12.07,0,0,0,1.36.46"/>
              <path class="cls-4" d="M436.84,766.34l-.12,40.76a13.69,13.69,0,0,1-1.85-.89c-1.12-.65-2.4-2.19-3.86-4.63l.11-40.75c1.47,2.44,2.75,4,3.86,4.62a13.25,13.25,0,0,0,1.86.89"/>
            </g>
          </g>
        </g>
        <path class="cls-22" d="M622.69,696.57a6.1,6.1,0,0,1,3.39,4.36q.36,2.61-2.73,4.41a13.23,13.23,0,0,1-6.1,1.56,23.36,23.36,0,0,1-5.57-.25q-1.87-.42-6.87-1.49l-192.72-41c1.39,2.81,2.35,4.85,2.91,6.14l37.78,86.28c1.73,4.29,1.09,7.3-1.89,9a15.26,15.26,0,0,1-7.85,1.85,16,16,0,0,1-8.06-2c-1.11-.64-2.39-2.18-3.86-4.62L385.59,658.59q-3-6.42,1.82-9.24a14.13,14.13,0,0,1,2.63-1.17,10.7,10.7,0,0,1,3-.48l2.85,0A20.2,20.2,0,0,1,399,648c1.21.17,2.11.32,2.69.41s1.51.28,2.75.52a13.07,13.07,0,0,1,2.08.47l209.27,45.12A25.56,25.56,0,0,1,622.69,696.57Z"/>
      </g>
      <g class="cls-2">
        <g class="cls-2">
          <g class="cls-29">
            <g class="cls-2">
              <path class="cls-4" d="M675.9,745.11l-.12,40.76a10.69,10.69,0,0,1-.91-4l.11-40.76a10.72,10.72,0,0,0,.92,4"/>
            </g>
          </g>
        </g>
        <g class="cls-2">
          <g class="cls-30">
            <g class="cls-2">
              <path class="cls-9" d="M512.91,807.57l-.12,40.75-.2,0,.12-40.75.2,0"/>
              <path class="cls-8" d="M512.71,807.53l-.12,40.75c-.92-.19-1.78-.4-2.57-.62l.11-40.76c.8.23,1.65.43,2.58.63"/>
              <path class="cls-7" d="M510.13,806.9,510,847.66a22.62,22.62,0,0,1-2.2-.74l.11-40.75c.67.26,1.4.5,2.2.73"/>
              <path class="cls-4" d="M507.93,806.17l-.11,40.75a14.07,14.07,0,0,1-2-.94q-3.21-1.85-3.21-4.25l.12-40.76q0,2.4,3.2,4.26a16.71,16.71,0,0,0,2,.94"/>
            </g>
          </g>
        </g>
        <polygon class="cls-27" points="710.52 822.98 710.4 863.74 675.78 785.87 675.9 745.11 710.52 822.98"/>
        <g class="cls-2">
          <g class="cls-31">
            <g class="cls-2">
              <path class="cls-4" d="M716.92,837.44l-.12,40.76q-.84-1.92-6.4-14.46l.12-40.76q5.55,12.56,6.4,14.46"/>
            </g>
          </g>
        </g>
        <polygon class="cls-25" points="722.39 852.56 722.27 893.32 512.79 848.33 512.91 807.57 722.39 852.56"/>
        <polygon class="cls-11" points="724.47 853.04 724.35 893.8 722.27 893.32 722.39 852.56 724.47 853.04"/>
        <g class="cls-2">
          <g class="cls-32">
            <g class="cls-2">
              <path class="cls-9" d="M744.05,847.84l-.12,40.76v.16l.12-40.76v-.16"/>
              <path class="cls-10" d="M744.05,848l-.12,40.76a5.63,5.63,0,0,1-.1.93l.11-40.76a5.63,5.63,0,0,0,.11-.93"/>
              <path class="cls-11" d="M743.94,848.93l-.11,40.76a6.61,6.61,0,0,1-.22.76l.12-40.76a4.73,4.73,0,0,0,.21-.76"/>
              <path class="cls-12" d="M743.73,849.69l-.12,40.76a5.44,5.44,0,0,1-.3.65l.11-40.76a5.51,5.51,0,0,0,.31-.65"/>
              <path class="cls-13" d="M743.42,850.34l-.11,40.76a5.91,5.91,0,0,1-.41.61L743,851a4.07,4.07,0,0,0,.41-.61"/>
              <path class="cls-14" d="M743,851l-.11,40.76a5.43,5.43,0,0,1-.57.61l.11-40.75A6.53,6.53,0,0,0,743,851"/>
              <path class="cls-15" d="M742.44,851.57l-.11,40.75a6.7,6.7,0,0,1-1.1.82l.11-40.76a6.81,6.81,0,0,0,1.1-.81"/>
              <path class="cls-20" d="M741.34,852.38l-.11,40.76-.11.06a13.24,13.24,0,0,1-2.63,1.17l.12-40.76a14.39,14.39,0,0,0,2.63-1.16l.1-.07"/>
              <path class="cls-15" d="M738.61,853.61l-.12,40.76h0a10.37,10.37,0,0,1-1.25.31l.12-40.76a8.33,8.33,0,0,0,1.24-.31h0"/>
              <path class="cls-14" d="M737.36,853.92l-.12,40.76q-.4.08-.84.12l.12-40.76q.42,0,.84-.12"/>
              <path class="cls-13" d="M736.52,854l-.12,40.76-.75.05.11-40.76.76-.05"/>
              <path class="cls-12" d="M735.76,854.09l-.11,40.76h-.16l-1.56,0,.12-40.76,1.55,0h.16"/>
              <path class="cls-13" d="M734.05,854.13l-.12,40.76-1.19.05h-.1l.12-40.76h.1l1.19-.06"/>
              <path class="cls-12" d="M732.76,854.19,732.64,895h-.54l.12-40.76h.54"/>
              <path class="cls-11" d="M732.22,854.19,732.1,895c-.26,0-.54,0-.85-.05l.11-40.76c.31,0,.6,0,.86.05"/>
              <path class="cls-10" d="M731.36,854.14l-.11,40.76c-.48,0-1-.1-1.6-.18l.11-40.76c.59.08,1.13.14,1.6.18"/>
              <path class="cls-9" d="M729.76,854l-.11,40.76-.11,0-1.2-.17.12-40.76,1.19.17.11,0"/>
              <path class="cls-10" d="M728.46,853.77l-.12,40.76-1.4-.19h-.1l.11-40.76h.1l1.41.19"/>
              <path class="cls-9" d="M727,853.57l-.11,40.76-.75-.14.11-40.76.75.14"/>
              <path class="cls-8" d="M726.2,853.43l-.11,40.76-1.74-.39.12-40.76,1.73.39"/>
            </g>
          </g>
        </g>
        <path class="cls-22" d="M693.66,736.35q1.67,1,3.87,4.62l45.32,102.35c2,4.29,1.49,7.32-1.61,9.13a14.19,14.19,0,0,1-2.64,1.16,10.35,10.35,0,0,1-3,.48c-1.07,0-2,0-2.74.1a18.69,18.69,0,0,1-3.21-.25l-2.6-.36q-.51-.06-2.58-.54l-2.08-.48-209.48-45a23.71,23.71,0,0,1-7-2.34c-2.28-1.32-3.35-2.86-3.19-4.59s1.25-3.19,3.25-4.35a16,16,0,0,1,4.23-1.74,14.87,14.87,0,0,1,5.44-.1c2.18.31,3.55.51,4.15.61s2.23.41,4.92.93l192.17,41.45q-.84-1.92-6.4-14.46L675.9,745.11c-1.68-4.08-1-7,1.92-8.7a15.91,15.91,0,0,1,7.81-1.95A15.17,15.17,0,0,1,693.66,736.35Z"/>
      </g>
    </g>
  </g>
</svg>
