<svg xmlns="http://www.w3.org/2000/svg" xmlns:xlink="http://www.w3.org/1999/xlink" viewBox="0 0 1000 1000">
  <defs>
    <style>
      .cls-1 {
        fill: none;
      }

      .cls-2 {
        isolation: isolate;
      }

      .cls-3 {
        clip-path: url(#clip-path);
      }

      .cls-4 {
        fill: #858585;
      }

      .cls-5 {
        fill: #898989;
      }

      .cls-6 {
        clip-path: url(#clip-path-2);
      }

      .cls-7 {
        fill: #8a8a8a;
      }

      .cls-8 {
        fill: #8f8f8f;
      }

      .cls-9 {
        fill: #949494;
      }

      .cls-10 {
        fill: #999;
      }

      .cls-11 {
        fill: #9e9e9e;
      }

      .cls-12 {
        fill: #a3a3a3;
      }

      .cls-13 {
        fill: #a8a8a8;
      }

      .cls-14 {
        fill: #adadad;
      }

      .cls-15 {
        fill: #b3b3b3;
      }

      .cls-16 {
        clip-path: url(#clip-path-3);
      }

      .cls-17 {
        clip-path: url(#clip-path-4);
      }

      .cls-18 {
        fill: #b8b8b8;
      }

      .cls-19 {
        clip-path: url(#clip-path-5);
      }

      .cls-20 {
        clip-path: url(#clip-path-6);
      }

      .cls-21 {
        clip-path: url(#clip-path-7);
      }

      .cls-22 {
        clip-path: url(#clip-path-8);
      }

      .cls-23 {
        clip-path: url(#clip-path-9);
      }

      .cls-24 {
        fill: #dcdcdc;
      }

      .cls-25 {
        clip-path: url(#clip-path-10);
      }
    </style>
    <clipPath id="clip-path">
      <path class="cls-1" d="M379.5,458.92l.12-40.76q0,4.3,11.51,10.95L391,469.87Q379.49,463.21,379.5,458.92Z"/>
    </clipPath>
    <clipPath id="clip-path-2">
      <path class="cls-1" d="M586.66,465.79l-.11,40.76q0-11.15-19.36-22.33c-16.69-9.64-36.86-14.69-61.14-15.53a251.09,251.09,0,0,0-69.92,7.07q-16.8,4.13-22.48,4c-3.79-.07-8.09-1.52-12.94-4.31l.12-40.76q7.26,4.2,12.93,4.31t22.49-4a251.39,251.39,0,0,1,69.91-7.07c24.29.85,44.45,5.89,61.15,15.53Q586.69,454.65,586.66,465.79Z"/>
    </clipPath>
    <clipPath id="clip-path-3">
      <path class="cls-1" d="M653.53,469.85l-.12,40.76a36,36,0,0,1-2.49,12.79l.11-40.76A36.18,36.18,0,0,0,653.53,469.85Z"/>
    </clipPath>
    <clipPath id="clip-path-4">
      <path class="cls-1" d="M302.61,511.66l-.12,40.75q0,6.63-9,11.89-12.49,7.25-41.1,5.58l.11-40.76q28.62,1.68,41.1-5.58Q302.59,518.29,302.61,511.66Z"/>
    </clipPath>
    <clipPath id="clip-path-5">
      <path class="cls-1" d="M251.54,575.89l.11-40.76a24.76,24.76,0,0,1,.81-6l-.11,40.76A23.76,23.76,0,0,0,251.54,575.89Z"/>
    </clipPath>
    <clipPath id="clip-path-6">
      <path class="cls-1" d="M723.14,545.89,723,586.65q0-12.43-14.27-20.71-28.68-16.55-74.67-9.66l.12-40.76q46-6.88,74.66,9.66Q723.17,533.45,723.14,545.89Z"/>
    </clipPath>
    <clipPath id="clip-path-7">
      <path class="cls-1" d="M789.71,546.63l-.12,40.76q0,19.11-25.29,33.78Q741.71,634.29,720.18,634t-34.56-7.87c-6-3.47-9-7.43-9-11.9l.12-40.75c0,4.46,3,8.43,9,11.89q13,7.53,34.56,7.87t44.12-12.77Q789.67,565.74,789.71,546.63Z"/>
    </clipPath>
    <clipPath id="clip-path-8">
      <path class="cls-1" d="M185.46,575.53l.12-40.76a27.23,27.23,0,0,0,.18,3.36q2.3,21.14,31.67,38.1,35.65,20.58,108,23.5l-.11,40.76Q253,637.58,217.32,617q-29.37-17-31.68-38.1A31.61,31.61,0,0,1,185.46,575.53Z"/>
    </clipPath>
    <clipPath id="clip-path-9">
      <path class="cls-1" d="M389.53,654.8l.12-40.76q0-10.31,17.31-20.35,13.4-7.79,111.5-41.5T634.2,515.52l-.12,40.76Q616.44,559.22,518.34,593t-111.5,41.5Q389.56,644.48,389.53,654.8Z"/>
    </clipPath>
    <clipPath id="clip-path-10">
      <path class="cls-1" d="M599.54,665l-.11,40.76c0,1.45-1,2.75-3,3.9q-24.21,14.09-103.88,17.55T359.64,700Q323,678.78,323,653.39l.12-40.75q-.08,25.38,36.62,46.56Q413,689.94,492.68,686.47t103.88-17.54C598.54,667.77,599.54,666.47,599.54,665Z"/>
    </clipPath>
  </defs>
  <title>variable</title>
  <g id="variable">
    <g class="cls-2">
      <g class="cls-2">
        <g class="cls-3">
          <g class="cls-2">
            <path class="cls-4" d="M391.13,429.11,391,469.87q-11.52-6.66-11.51-10.95l.12-40.76q0,4.3,11.51,10.95"/>
          </g>
        </g>
      </g>
      <polygon class="cls-5" points="400.83 434.71 400.71 475.47 391.01 469.87 391.13 429.11 400.83 434.71"/>
      <g class="cls-2">
        <g class="cls-6">
          <g class="cls-2">
            <path class="cls-4" d="M586.66,465.79l-.11,40.76q0-11.15-19.36-22.33a102.58,102.58,0,0,0-13.63-6.56l.11-40.75a100.86,100.86,0,0,1,13.64,6.55q19.38,11.19,19.35,22.33"/>
            <path class="cls-7" d="M553.67,436.91l-.11,40.75q-5.09-2-10.53-3.55l.11-40.76c3.64,1,7.14,2.22,10.53,3.56"/>
            <path class="cls-8" d="M543.14,433.35,543,474.11c-3-.85-6-1.59-9.19-2.25l.12-40.75c3.14.65,6.21,1.4,9.18,2.24"/>
            <path class="cls-9" d="M534,431.11l-.12,40.75q-4.43-.92-9.07-1.57l.11-40.76q4.65.66,9.08,1.58"/>
            <path class="cls-10" d="M524.88,429.53l-.11,40.76q-4.72-.66-9.69-1.08l.12-40.75c3.31.27,6.53.63,9.68,1.07"/>
            <path class="cls-11" d="M515.2,428.46l-.12,40.75c-2.94-.24-6-.41-9-.52l-2.74-.08.12-40.76,2.73.08c3.08.11,6.09.28,9,.53"/>
            <path class="cls-12" d="M503.43,427.85l-.12,40.76q-8-.21-15.92.07l.12-40.76q7.89-.27,15.92-.07"/>
            <path class="cls-13" d="M487.51,427.92l-.12,40.76c-5.58.19-11.12.55-16.59,1.09l.11-40.75q8.22-.82,16.6-1.1"/>
            <path class="cls-14" d="M470.91,429l-.11,40.75q-9.75,1-19.28,2.69l.12-40.76q9.53-1.71,19.27-2.68"/>
            <path class="cls-15" d="M451.64,431.7l-.12,40.76q-7.77,1.4-15.39,3.3-8.28,2-13.85,3l.11-40.76q5.58-1,13.86-3,7.61-1.9,15.39-3.3"/>
            <path class="cls-14" d="M422.39,438l-.11,40.76q-3.28.58-5.64.83l.12-40.76c1.56-.16,3.44-.43,5.63-.83"/>
            <path class="cls-13" d="M416.76,438.87l-.12,40.76c-.73.07-1.4.12-2,.14l.12-40.76c.6,0,1.26-.07,2-.14"/>
            <path class="cls-12" d="M414.76,439l-.12,40.76h-1.07l.12-40.75h1.07"/>
            <path class="cls-11" d="M413.69,439l-.12,40.75c-.32,0-.64,0-1,0l.11-40.76,1,.06"/>
            <path class="cls-10" d="M412.71,439l-.11,40.76-1.05-.12.12-40.75c.35,0,.7.09,1,.11"/>
            <path class="cls-9" d="M411.67,438.85l-.12,40.75c-.41-.05-.82-.13-1.24-.21l.11-40.76c.42.09.84.16,1.25.22"/>
            <path class="cls-8" d="M410.42,438.63l-.11,40.76c-.54-.11-1.08-.25-1.63-.41l.11-40.75c.56.15,1.1.29,1.63.4"/>
            <path class="cls-7" d="M408.79,438.23,408.68,479a26.86,26.86,0,0,1-2.57-.87l.11-40.76c.88.35,1.74.64,2.57.88"/>
            <path class="cls-4" d="M406.22,437.35l-.11,40.76a41.65,41.65,0,0,1-5.4-2.64l.12-40.76a42.19,42.19,0,0,0,5.39,2.64"/>
          </g>
        </g>
      </g>
      <g class="cls-2">
        <g class="cls-16">
          <g class="cls-2">
            <path class="cls-9" d="M653.53,469.85l-.12,40.76c0,.29,0,.57,0,.86l.11-40.76c0-.29,0-.57,0-.86"/>
            <path class="cls-10" d="M653.51,470.71l-.11,40.76a34.6,34.6,0,0,1-.66,5.68l.12-40.75a33.75,33.75,0,0,0,.65-5.69"/>
            <path class="cls-11" d="M652.86,476.4l-.12,40.75a38.75,38.75,0,0,1-1.74,6l.11-40.76a40.14,40.14,0,0,0,1.75-6"/>
            <path class="cls-12" d="M651.11,482.43,651,523.19l-.08.21.11-40.76a1.8,1.8,0,0,0,.08-.21"/>
          </g>
        </g>
      </g>
      <g class="cls-2">
        <g class="cls-17">
          <g class="cls-2">
            <path class="cls-9" d="M302.61,511.66l-.12,40.75v.26l.12-40.76v-.25"/>
            <path class="cls-10" d="M302.61,511.91l-.12,40.76a10.6,10.6,0,0,1-.18,1.59l.11-40.76a9.33,9.33,0,0,0,.19-1.59"/>
            <path class="cls-11" d="M302.42,513.5l-.11,40.76a9.86,9.86,0,0,1-.43,1.5L302,515a8.84,8.84,0,0,0,.43-1.5"/>
            <path class="cls-12" d="M302,515l-.11,40.76a10.23,10.23,0,0,1-.71,1.5l.12-40.75A10.77,10.77,0,0,0,302,515"/>
            <path class="cls-13" d="M301.29,516.51l-.12,40.75a11.32,11.32,0,0,1-1.08,1.61l.12-40.76a13.22,13.22,0,0,0,1.08-1.6"/>
            <path class="cls-14" d="M300.21,518.11l-.12,40.76a16.05,16.05,0,0,1-1.8,1.93l.12-40.76a16.9,16.9,0,0,0,1.8-1.93"/>
            <path class="cls-15" d="M298.41,520l-.12,40.76A25.37,25.37,0,0,1,294,564l.12-40.75a26.37,26.37,0,0,0,4.3-3.18"/>
            <path class="cls-18" d="M294.11,523.22,294,564l-.54.33a34.26,34.26,0,0,1-6.56,2.85l.11-40.76a32.79,32.79,0,0,0,6.56-2.85l.55-.32"/>
            <path class="cls-15" d="M287,526.39l-.11,40.76a53.87,53.87,0,0,1-6.89,1.69l.12-40.76a52.08,52.08,0,0,0,6.88-1.69"/>
            <path class="cls-14" d="M280.12,528.08,280,568.84c-1.91.34-3.95.62-6.1.84l.11-40.76c2.16-.22,4.19-.5,6.11-.84"/>
            <path class="cls-13" d="M274,528.92l-.11,40.76c-2.17.21-4.45.36-6.86.44l.12-40.76c2.4-.08,4.69-.23,6.85-.44"/>
            <path class="cls-12" d="M267.16,529.36,267,570.12c-2.68.09-5.52.1-8.5,0l.11-40.75c3,.07,5.82.06,8.51,0"/>
            <path class="cls-11" d="M258.65,529.39l-.11,40.75c-2,0-4.06-.13-6.19-.26l.11-40.76c2.13.13,4.2.22,6.19.27"/>
          </g>
        </g>
      </g>
      <g class="cls-2">
        <g class="cls-19">
          <g class="cls-2">
            <path class="cls-11" d="M252.46,529.12l-.11,40.76c-.13.49-.24,1-.34,1.46l.12-40.76c.1-.48.21-1,.33-1.46"/>
            <path class="cls-10" d="M252.13,530.58,252,571.34a24.07,24.07,0,0,0-.46,4l.11-40.75a24.09,24.09,0,0,1,.47-4"/>
            <path class="cls-9" d="M251.66,534.56l-.11,40.75c0,.2,0,.39,0,.58l.11-40.76c0-.19,0-.38,0-.57"/>
          </g>
        </g>
      </g>
      <g class="cls-2">
        <g class="cls-20">
          <g class="cls-2">
            <path class="cls-4" d="M723.14,545.89,723,586.65q0-12.43-14.27-20.71a78.76,78.76,0,0,0-10.46-5l.12-40.76a79.89,79.89,0,0,1,10.45,5q14.31,8.27,14.28,20.71"/>
            <path class="cls-7" d="M698.41,520.15l-.12,40.76a83.44,83.44,0,0,0-8-2.7l.12-40.76q4.13,1.18,8,2.7"/>
            <path class="cls-8" d="M690.41,517.45l-.12,40.76c-2.19-.63-4.45-1.18-6.75-1.66l.11-40.75c2.31.47,4.56,1,6.76,1.65"/>
            <path class="cls-9" d="M683.65,515.8l-.11,40.75c-2.12-.43-4.28-.81-6.48-1.12l.11-40.76q3.32.47,6.48,1.13"/>
            <path class="cls-10" d="M677.17,514.67l-.11,40.76q-3.28-.46-6.69-.75l.12-40.75q3.4.27,6.68.74"/>
            <path class="cls-11" d="M670.49,513.93l-.12,40.75c-2.38-.19-4.82-.32-7.3-.38l.11-40.76c2.49.06,4.92.19,7.31.39"/>
            <path class="cls-12" d="M663.18,513.54l-.11,40.76c-2.79-.07-5.63-.06-8.54,0l.12-40.76c2.91-.09,5.75-.11,8.53,0"/>
            <path class="cls-13" d="M654.65,513.58l-.12,40.76q-5.28.18-10.83.74l.12-40.76c3.7-.37,7.31-.61,10.83-.74"/>
            <path class="cls-14" d="M643.82,514.32l-.12,40.76q-4.71.46-9.62,1.2l.12-40.76c3.27-.49,6.47-.89,9.62-1.2"/>
          </g>
        </g>
      </g>
      <g class="cls-2">
        <g class="cls-21">
          <g class="cls-2">
            <path class="cls-9" d="M789.71,546.63l-.12,40.76c0,.25,0,.51,0,.76l.12-40.76c0-.25,0-.5,0-.76"/>
            <path class="cls-10" d="M789.7,547.39l-.12,40.76a27.27,27.27,0,0,1-.53,4.69l.12-40.76a29.28,29.28,0,0,0,.53-4.69"/>
            <path class="cls-11" d="M789.17,552.08l-.12,40.76a28.86,28.86,0,0,1-1.25,4.37l.11-40.76a28.25,28.25,0,0,0,1.26-4.37"/>
            <path class="cls-12" d="M787.91,556.45l-.11,40.76a30.83,30.83,0,0,1-2,4.33l.11-40.76a29.75,29.75,0,0,0,2-4.33"/>
            <path class="cls-13" d="M785.88,560.78l-.11,40.76a36.19,36.19,0,0,1-3.09,4.59l.11-40.76a35.16,35.16,0,0,0,3.09-4.59"/>
            <path class="cls-14" d="M782.79,565.37l-.11,40.76a47.77,47.77,0,0,1-5,5.43l.12-40.76a46.77,46.77,0,0,0,5-5.43"/>
            <path class="cls-15" d="M777.75,570.8l-.12,40.76a73.72,73.72,0,0,1-11.85,8.74l.11-40.76a72.8,72.8,0,0,0,11.86-8.74"/>
            <path class="cls-18" d="M765.89,579.54l-.11,40.76-1.48.87a101.87,101.87,0,0,1-20,9.06l.11-40.76a102.73,102.73,0,0,0,20-9.05l1.47-.88"/>
            <path class="cls-15" d="M744.4,589.47l-.11,40.76A80.17,80.17,0,0,1,734,632.8l.11-40.76a80.17,80.17,0,0,0,10.26-2.57"/>
            <path class="cls-14" d="M734.14,592,734,632.8q-2.91.53-5.79.81l.11-40.76q2.89-.29,5.79-.81"/>
            <path class="cls-13" d="M728.35,592.85l-.11,40.76c-1.54.15-3.06.26-4.59.31l.12-40.76c1.52,0,3.05-.15,4.58-.31"/>
            <path class="cls-12" d="M723.77,593.16l-.12,40.76c-1.16,0-2.31.05-3.47,0l-1.11,0,.12-40.76,1.11,0c1.15,0,2.31,0,3.47,0"/>
            <path class="cls-11" d="M719.19,593.17l-.12,40.76c-2.2-.06-4.34-.17-6.4-.34l.11-40.76c2.07.17,4.2.28,6.41.34"/>
            <path class="cls-10" d="M712.78,592.83l-.11,40.76q-2.83-.24-5.49-.61l.12-40.76c1.77.25,3.6.46,5.48.61"/>
            <path class="cls-9" d="M707.3,592.22,707.18,633c-1.71-.24-3.38-.53-5-.86l.12-40.76c1.61.33,3.27.62,5,.86"/>
            <path class="cls-8" d="M702.31,591.36l-.12,40.76q-2.52-.52-4.87-1.19l.12-40.76c1.56.44,3.19.84,4.87,1.19"/>
            <path class="cls-7" d="M697.44,590.17l-.12,40.76c-1.86-.53-3.63-1.13-5.33-1.8l.12-40.76q2.53,1,5.33,1.8"/>
            <path class="cls-4" d="M692.11,588.37,692,629.13a47.46,47.46,0,0,1-6.37-3c-6-3.47-9-7.43-9-11.9l.12-40.75c0,4.46,3,8.43,9,11.89a46.88,46.88,0,0,0,6.37,3"/>
          </g>
        </g>
      </g>
      <g class="cls-2">
        <g class="cls-22">
          <g class="cls-2">
            <path class="cls-11" d="M325.45,599.73l-.11,40.76q-10.65-.42-20.5-1.24l.11-40.76q9.85.81,20.5,1.24"/>
            <path class="cls-10" d="M305,598.49l-.11,40.76q-11.61-1-22.1-2.44l.12-40.76q10.49,1.49,22.09,2.44"/>
            <path class="cls-9" d="M282.86,596.05l-.12,40.76q-9.48-1.35-18.06-3.12l.12-40.75q8.58,1.77,18.06,3.11"/>
            <path class="cls-8" d="M264.8,592.94l-.12,40.75q-8.35-1.73-15.85-3.86l.11-40.76q7.5,2.14,15.86,3.87"/>
            <path class="cls-7" d="M248.94,589.07l-.11,40.76q-8.22-2.34-15.41-5.17l.11-40.76q7.2,2.83,15.41,5.17"/>
            <path class="cls-4" d="M233.53,583.9l-.11,40.76a118.6,118.6,0,0,1-16.1-7.68q-29.37-17-31.68-38.1a31.61,31.61,0,0,1-.18-3.35l.12-40.76a27.23,27.23,0,0,0,.18,3.36q2.3,21.14,31.67,38.1a121,121,0,0,0,16.1,7.67"/>
          </g>
        </g>
      </g>
      <g class="cls-2">
        <g class="cls-23">
          <g class="cls-2">
            <path class="cls-14" d="M634.2,515.52l-.12,40.76-.63.11.12-40.76.63-.11"/>
            <path class="cls-15" d="M633.57,515.63l-.12,40.76q-10,1.83-42.23,12.16l.12-40.76q32.24-10.34,42.23-12.16"/>
            <path class="cls-18" d="M591.34,527.79l-.12,40.76q-28,9-72.88,24.4-98.11,33.7-111.5,41.5l-1.28.76.11-40.76,1.29-.76q13.4-7.79,111.5-41.5,44.85-15.42,72.88-24.4"/>
            <path class="cls-15" d="M405.67,594.45l-.11,40.76a56,56,0,0,0-9.06,6.63l.12-40.76a56.36,56.36,0,0,1,9.05-6.63"/>
            <path class="cls-14" d="M396.62,601.08l-.12,40.76a31.34,31.34,0,0,0-3.25,3.48l.12-40.76a29.55,29.55,0,0,1,3.25-3.48"/>
            <path class="cls-13" d="M393.37,604.56l-.12,40.76a20.4,20.4,0,0,0-1.78,2.64l.11-40.75a19.92,19.92,0,0,1,1.79-2.65"/>
            <path class="cls-12" d="M391.58,607.21,391.47,648a17.48,17.48,0,0,0-1.08,2.29l.12-40.76a15.59,15.59,0,0,1,1.07-2.28"/>
            <path class="cls-11" d="M390.51,609.49l-.12,40.76a14.2,14.2,0,0,0-.61,2.13l.12-40.76a13.11,13.11,0,0,1,.61-2.13"/>
            <path class="cls-10" d="M389.9,611.62l-.12,40.76a12.51,12.51,0,0,0-.24,2.1l.12-40.76a12.51,12.51,0,0,1,.24-2.1"/>
            <path class="cls-9" d="M389.66,613.72l-.12,40.76c0,.1,0,.21,0,.32l.12-40.76c0-.11,0-.21,0-.32"/>
          </g>
        </g>
      </g>
      <path class="cls-24" d="M757.78,505.26q29.54,17.06,31.76,38.15t-25.12,37q-22.59,13.13-44.12,12.77t-34.56-7.87c-6.1-3.52-9.12-7.56-9-12.11s3.19-8.62,9.34-12.19q13.3-7.72,36.18-8.75,4.46-16.77-13.39-27.09-28.67-16.54-74.66-9.66-17.64,2.94-115.74,36.67T407,593.69q-20.28,11.79-16.8,23.94t19.92,21.64q23.78,13.74,62.83,15.34a262.77,262.77,0,0,0,79.25-9.2q9.65-2.34,14.33-1.4t17,8l7.39,4.26q13.71,7.92,5.65,12.62Q572.34,683,492.68,686.47T359.76,659.2q-45.83-26.46-34.31-59.47-72.36-2.91-108-23.5-29.37-17-31.67-38.1t25.06-37.05q22.56-13.11,44.42-12.59t36,8.69c7,4,10.76,8.5,11.31,13.37s-2.47,9.2-9,13q-12.48,7.26-41.1,5.58-4.29,16.68,14.25,27.38,28,16.14,72.94,9.87Q358,563.82,456.24,529.6t111.67-42q37.8-22-.6-44.14c-16.7-9.64-36.86-14.68-61.15-15.53A251.39,251.39,0,0,0,436.25,435q-16.8,4.14-22.49,4t-12.93-4.31l-9.7-5.6q-17-9.81-8.91-14.49Q407,400.23,485.41,396.77T615.8,423.29q47.43,27.39,35.23,59.35Q720,483.48,757.78,505.26Z"/>
      <g class="cls-2">
        <g class="cls-25">
          <g class="cls-2">
            <path class="cls-9" d="M599.54,665l-.11,40.76v.07l.11-40.76V665"/>
            <path class="cls-10" d="M599.54,665.09l-.11,40.76a4.35,4.35,0,0,1-.06.52l.11-40.75a2.39,2.39,0,0,0,.06-.53"/>
            <path class="cls-11" d="M599.48,665.62l-.11,40.75a4.1,4.1,0,0,1-.14.5l.11-40.76a3,3,0,0,0,.14-.49"/>
            <path class="cls-12" d="M599.34,666.11l-.11,40.76c-.07.17-.15.33-.24.5l.12-40.76a3.22,3.22,0,0,0,.23-.5"/>
            <path class="cls-13" d="M599.11,666.61,599,707.37a3.54,3.54,0,0,1-.36.53l.12-40.76a4.5,4.5,0,0,0,.36-.53"/>
            <path class="cls-14" d="M598.75,667.14l-.12,40.76a5.07,5.07,0,0,1-.6.64l.12-40.76a6,6,0,0,0,.6-.64"/>
            <path class="cls-15" d="M598.15,667.78,598,708.54a8.53,8.53,0,0,1-1.44,1.06l.12-40.76a9,9,0,0,0,1.44-1.06"/>
            <path class="cls-18" d="M596.71,668.84l-.12,40.76-.15.08A68.71,68.71,0,0,1,583,715.39l.12-40.76a69.35,69.35,0,0,0,13.41-5.7l.15-.09"/>
            <path class="cls-15" d="M583.15,674.63,583,715.39a172,172,0,0,1-21.78,5.21l.12-40.76a170.33,170.33,0,0,0,21.78-5.21"/>
            <path class="cls-14" d="M561.37,679.84l-.12,40.76q-12.76,2.29-29.11,3.92l.12-40.76q16.34-1.62,29.11-3.92"/>
            <path class="cls-13" d="M532.26,683.76l-.12,40.76q-17.7,1.76-39.58,2.71l-3.64.14.12-40.76,3.64-.14q21.88-1,39.58-2.71"/>
            <path class="cls-12" d="M489,686.61l-.12,40.76q-10.57.36-20.69.11l.12-40.76q10.11.25,20.69-.11"/>
            <path class="cls-11" d="M468.35,686.72l-.12,40.76q-9-.22-17.59-.94l.11-40.75q8.61.71,17.6.93"/>
            <path class="cls-10" d="M450.75,685.79l-.11,40.75q-8.19-.67-16-1.78l.12-40.76q7.84,1.11,16,1.79"/>
            <path class="cls-9" d="M434.73,684l-.12,40.76q-7.91-1.12-15.47-2.69l.11-40.75q7.58,1.56,15.48,2.68"/>
            <path class="cls-8" d="M419.25,681.32l-.11,40.75q-8.26-1.7-16.11-3.94l.12-40.76q7.85,2.24,16.1,4"/>
            <path class="cls-7" d="M403.15,677.37,403,718.13q-9.7-2.77-18.8-6.35l.11-40.76q9.09,3.59,18.81,6.35"/>
            <path class="cls-4" d="M384.34,671l-.11,40.76A184.54,184.54,0,0,1,359.64,700Q323,678.78,323,653.39l.12-40.75q-.08,25.38,36.62,46.56A183.19,183.19,0,0,0,384.34,671"/>
          </g>
        </g>
      </g>
    </g>
  </g>
</svg>
