<svg xmlns="http://www.w3.org/2000/svg" viewBox="0 0 1000 1000">
  <defs>
    <style>
      .cls-1 {
        fill: #fff;
      }
    </style>
  </defs>
  <title>loop</title>
  <g id="loop">
    <path class="cls-1" d="M994.5,494.87v14.48c0,119.2-97,216.14-216.16,216.14H637.5s.17-27.49.17-84.38H778.34c72.67,0,131.79-59.1,131.79-131.77V494.86c0-72.68-59.13-131.79-131.79-131.79H533.78l29.78,75.4a6.36,6.36,0,0,1-9.79,7.38L397.78,326a6.36,6.36,0,0,1-1.17-8.92,6.48,6.48,0,0,1,1.17-1.17L553.77,196a6.21,6.21,0,0,1,3.88-1.33A6.36,6.36,0,0,1,564,201a6.3,6.3,0,0,1-.45,2.35L533.8,278.72H778.34C897.5,278.7,994.5,375.68,994.5,494.87ZM447.24,554.13a6.37,6.37,0,0,0-9.79,7.38l29.78,75.41H222.66c-72.67,0-131.78-59.13-131.78-131.79V490.64C90.88,418,150,358.86,222.66,358.86H363.33c0-62.86.17-84.38.17-84.38H222.66c-119.16,0-216.16,97-216.16,216.16v14.49c0,119.2,97,216.16,216.16,216.16H467.2l-29.77,75.4a6.35,6.35,0,0,0,5.92,8.7,6.19,6.19,0,0,0,3.88-1.33l156-119.9a6.35,6.35,0,0,0,1.2-8.9,6.2,6.2,0,0,0-1.2-1.2Z"/>
  </g>
</svg>
