<svg xmlns="http://www.w3.org/2000/svg" viewBox="0 0 1000 1000">
  <defs>
    <style>
      .cls-1 {
        fill: #fff;
      }
    </style>
  </defs>
  <title>volume middle</title>
  <g id="volume_middle" data-name="volume middle">
    <g>
      <path class="cls-1" d="M10,348.47c40,.19,80,.06,120,.79,11.38.2,20.31-2.7,29.53-9.63Q282.4,247.2,406,155.75a122.68,122.68,0,0,1,29.13-15.43c9.28-3.54,14.51.85,15.49,10.68.38,3.78.34,7.61.34,11.42V840.58c-.61,20-8.58,25-26.82,16A122.07,122.07,0,0,1,405.66,845Q279.73,751.81,153.85,658.61a29.79,29.79,0,0,0-16.28-5.56c-42.52-.26-85,.14-127.57.33Z"/>
      <path class="cls-1" d="M754.87,496.81c-1.8-97.1-36-184.76-104.39-259-7.06-7.66-13.91-17-16.75-26.73-4.36-15,4.12-29.39,17.7-36.43,13.75-7.11,30-5.3,40.85,7.25,20.1,23.24,41.13,46.12,57.94,71.66,59,89.67,82.56,188.83,71.17,295.46-11.16,104.52-54.23,194.63-127.73,270-14.74,15.1-36,16.08-50.25,2.72s-14.57-35,0-50.22c31.42-32.83,57.31-69.21,76.24-110.73C743,609.68,754,556.16,754.87,496.81Z"/>
      <path class="cls-1" d="M684.66,506.68c-1.4,74.71-29.73,144-85.28,202.1-13.8,14.43-34.5,15.71-48.78,3.22C536,699.23,534.31,677.89,548,662.69c19.26-21.33,37-43.65,47.82-70.48Q648.22,462.73,561.39,353c-4.53-5.7-9.85-10.78-14.42-16.46-12.22-15.17-10.65-35.21,3.52-47.85,13.79-12.29,33.83-12,47.31,1.56a294.86,294.86,0,0,1,65.66,99.33C677.66,425.31,684.57,462.57,684.66,506.68Z"/>
    </g>
  </g>
</svg>
