<svg xmlns="http://www.w3.org/2000/svg" viewBox="0 0 1000 1000">
  <defs>
    <style>
      .cls-1 {
        fill: #fff;
      }
    </style>
  </defs>
  <title>volume high</title>
  <g id="volume_high" data-name="volume high">
    <g>
      <path class="cls-1" d="M10,347.57c40,.19,80,.06,120,.79,11.38.2,20.31-2.7,29.53-9.63Q282.4,246.3,406,154.85a123.41,123.41,0,0,1,29.13-15.43c9.28-3.54,14.51.85,15.49,10.68.38,3.78.34,7.61.34,11.42V839.68c-.61,20-8.58,25-26.82,16a122.07,122.07,0,0,1-18.51-11.62Q279.73,750.91,153.85,657.71a29.79,29.79,0,0,0-16.28-5.56c-42.52-.26-85,.14-127.57.33Z"/>
      <path class="cls-1" d="M916.41,488.56C914.33,357.1,866.08,233.28,769,128.9c-3.89-4.19-7.93-8.24-11.7-12.54-13.24-15.11-12.7-35.61,1.18-48.83s34.46-13,48.75,1.25a598.55,598.55,0,0,1,78.67,96.58c49.42,75.46,81.67,157.81,93.38,247.16,23.84,181.84-23,343.88-140.76,484.91-9.56,11.44-19.88,22.28-30.31,32.94-14.76,15.09-36,15.65-50.2,1.83-13.87-13.54-14.23-34.51.34-49.5,42.15-43.37,77.06-91.72,103.71-146.11C896.79,665.72,916.66,580.05,916.41,488.56Z"/>
      <path class="cls-1" d="M754.87,495.91c-1.8-97.1-36-184.76-104.39-259-7.06-7.66-13.91-17-16.75-26.73-4.36-15,4.12-29.39,17.7-36.43,13.75-7.11,30-5.3,40.85,7.25,20.1,23.24,41.13,46.12,57.94,71.66,59,89.67,82.56,188.83,71.17,295.46-11.16,104.52-54.23,194.63-127.73,270-14.74,15.1-36,16.08-50.25,2.72s-14.57-35,0-50.22c31.42-32.83,57.31-69.21,76.24-110.73C743,608.78,754,555.26,754.87,495.91Z"/>
      <path class="cls-1" d="M684.66,505.78c-1.4,74.71-29.73,144-85.28,202.1-13.8,14.43-34.5,15.71-48.78,3.22C536,698.33,534.31,677,548,661.79c19.26-21.33,37-43.65,47.82-70.48q52.36-129.48-34.47-239.2c-4.53-5.7-9.85-10.78-14.42-16.46-12.22-15.17-10.65-35.21,3.52-47.85,13.79-12.29,33.83-12,47.31,1.56a294.86,294.86,0,0,1,65.66,99.33C677.66,424.41,684.57,461.67,684.66,505.78Z"/>
    </g>
  </g>
</svg>
