<svg xmlns="http://www.w3.org/2000/svg" viewBox="0 0 1000 1000">
  <defs>
    <style>
      .cls-1 {
        fill: #fff;
      }
    </style>
  </defs>
  <title>volume low</title>
  <g id="volume_low" data-name="volume low">
    <g>
      <path class="cls-1" d="M10,348.47c40,.19,80,.06,120,.79,11.38.2,20.31-2.7,29.53-9.63Q282.4,247.2,406,155.75a122.68,122.68,0,0,1,29.13-15.43c9.28-3.54,14.51.85,15.49,10.68.38,3.78.34,7.61.34,11.42V840.58c-.61,20-8.58,25-26.82,16A122.07,122.07,0,0,1,405.66,845Q279.73,751.81,153.85,658.61a29.79,29.79,0,0,0-16.28-5.56c-42.52-.26-85,.14-127.57.33Z"/>
      <path class="cls-1" d="M684.66,506.68c-1.4,74.71-29.73,144-85.28,202.1-13.8,14.43-34.5,15.71-48.78,3.22C536,699.23,534.31,677.89,548,662.69c19.26-21.33,37-43.65,47.82-70.48Q648.22,462.73,561.39,353c-4.53-5.7-9.85-10.78-14.42-16.46-12.22-15.17-10.65-35.21,3.52-47.85,13.79-12.29,33.83-12,47.31,1.56a294.86,294.86,0,0,1,65.66,99.33C677.66,425.31,684.57,462.57,684.66,506.68Z"/>
    </g>
  </g>
</svg>
