<svg id="volume_muted" data-name="volume muted" xmlns="http://www.w3.org/2000/svg" viewBox="0 0 1000 1000">
  <defs>
    <style>
      .cls-1 {
        fill: #fff;
      }
    </style>
  </defs>
  <title>volume muted</title>
  <path class="cls-1" d="M10,348.47c40,.19,80,.06,120,.79,11.38.2,20.31-2.7,29.53-9.63Q282.4,247.2,406,155.75a122.68,122.68,0,0,1,29.13-15.43c9.28-3.54,14.51.85,15.49,10.68.38,3.78.34,7.61.34,11.42V840.58c-.61,20-8.58,25-26.82,16A122.07,122.07,0,0,1,405.66,845Q279.73,751.81,153.85,658.61a29.79,29.79,0,0,0-16.28-5.56c-42.52-.26-85,.14-127.57.33Z"/>
</svg>
