<svg xmlns="http://www.w3.org/2000/svg" viewBox="0 0 1000 1000">
  <defs>
    <style>
      .cls-1 {
        fill: #fff;
      }
    </style>
  </defs>
  <title>first person</title>
  <g id="first_person" data-name="first person">
    <path class="cls-1" d="M543.35,69,983,298C884.89,477.18,787.59,654.88,689.44,834.16c-46.29-15.34-91.21-29.78-135.64-45.59-4.9-1.75-9.17-11.06-9.95-17.33-1.56-12.51-.5-25.34-.5-38Z"/>
    <path class="cls-1" d="M457.5,68.82v30c0,218.79-.33,437.59.54,656.38.08,20.53-5.6,29.77-25.38,35.06C397.8,799.57,363.89,812.4,329.09,822c-6.93,1.9-20.58-1.79-23.57-7.13-96-171.63-191.07-343.77-287.48-518Z"/>
    <path class="cls-1" d="M386.88,893.24c35.43-11.29,70.76-22.91,106.38-33.54,6.16-1.84,14-.85,20.33,1.16,33.82,10.73,67.4,22.19,102.22,38.54-38.19,11.44-76.43,31.93-114.58,31.78S425,910.24,386.91,898.5Z"/>
  </g>
</svg>
