<svg xmlns="http://www.w3.org/2000/svg" viewBox="0 0 1000 1000">
  <defs>
    <style>
      .cls-1 {
        fill: #fff;
      }
    </style>
  </defs>
  <title>global</title>
  <g id="global">
    <path class="cls-1" d="M485.6,983.23C215.6,974.4,10.76,753.41,13,494.75,15.42,207.81,247,6.45,501.63,8.52,786.5,10.83,989.69,240.18,988,497.07,986.2,784,749.7,992.05,485.6,983.23Zm15.28-879.58a39.11,39.11,0,0,0-3.59,3.46A609.72,609.72,0,0,0,385.11,351.88c-6.5,31.3-11.27,62.82-12.18,94.84-.22,8.08-.09,8.12,7.84,8.12H619c9.2,0,9.32-.07,8.83-9.18a618.12,618.12,0,0,0-21.37-130.91c-19.36-70.38-50.54-135-92.89-194.41-4-5.56-8.24-10.89-12.65-16.69Zm-.23,784.91c1.74-2.26,2.63-3.37,3.48-4.5a614.76,614.76,0,0,0,71.08-120A604,604,0,0,0,615.67,639,637.28,637.28,0,0,0,628,545.39c.33-5.82-1.7-7.19-7.19-7.18-25.24,0-50.47-.42-75.71-.51-55-.19-109.93-.2-164.89-.47-5.62,0-7.72,1.77-7.14,7.44,1.88,18.4,2.87,36.91,5.39,55.21A596.6,596.6,0,0,0,410,725.57a614.7,614.7,0,0,0,82.34,152.54c2.37,3.18,4.95,6.23,8.29,10.45ZM608.13,107.22l-1,1.5c1.46,2.76,3,5.51,4.38,8.29,13.68,26.8,28.49,53.09,40.76,80.52,21,47.08,35.93,96.28,45.72,147,6.48,33.59,11,67.38,12.36,101.56.34,8.28.69,8.75,8.67,8.75H893.7c7.8,0,8.52-.89,7.42-8.45-4.22-29.23-10.55-57.95-20.63-85.8a403.88,403.88,0,0,0-84-138.4c-46.38-50.11-102.13-86-166.61-108.39C622.75,111.32,615.39,109.4,608.13,107.22Zm-213.82,0c-4.63,1-7.38,1.32-9.95,2.2-10.57,3.61-21.2,7.11-31.61,11.14-53.34,20.67-99.94,51.73-140,92.42-46.2,46.93-79.55,101.86-98.24,165-6.77,22.89-10.24,46.74-15.23,70.15-1,4.66.54,6.7,5.6,6.7q89.15-.15,178.27,0c4.63,0,6.3-1.58,6.69-6.29,1.82-21.66,2.71-43.52,6.42-64.88C302,351,308.5,318.22,316.86,286c14.27-55.17,36.2-107.42,64.78-156.8,3.91-6.75,7.86-13.52,12.67-21.95ZM392,884.7l1.25-1.59-3.68-6.75c-9.55-17.48-19.68-34.67-28.52-52.49-24.6-49.59-42.2-101.71-53.83-155.77-4.77-22.21-8.44-44.69-11.64-67.18-2.68-18.89-4.08-38-5.72-57-.39-4.51-2.05-5.76-6.39-5.75q-89.43.17-178.85,0c-4.81,0-6.23,1.65-5.32,6.09,4,19.87,7,40,12.29,59.58,18.46,69,53.9,128.33,104.4,178.53a395.68,395.68,0,0,0,165.18,99.17c3.6,1.11,7.22,2.13,10.83,3.19Zm214.58.12c4.6-1,7.32-1.32,9.89-2.13,6.2-2,12.34-4.07,18.48-6.21,58.22-20.34,108.9-52.74,152.28-96.38a400,400,0,0,0,90.68-140.42,413.17,413.17,0,0,0,23.75-95c.69-5.3-1.07-6.56-6.13-6.55q-88.51.23-177,0c-5,0-7.16,1.11-7.6,6.53-1.71,21.26-2.54,42.72-6.22,63.66-5.79,33-12.5,65.85-20.83,98.26-14.15,55-36.14,107-64.54,156.21-3.92,6.84-7.85,13.6-12.76,22.06Z"/>
  </g>
</svg>
