<svg xmlns="http://www.w3.org/2000/svg" viewBox="0 0 1000 1000">
  <defs>
    <style>
      .cls-1 {
        fill: #fff;
      }
    </style>
  </defs>
  <title>revert</title>
  <g id="revert">
    <g>
      <path class="cls-1" d="M765.78,463.5H751.9c-24.6,0-49.28.06-73.91-.1-12.57-.08-22.39,4.75-27.9,16.09-5.42,11.17-3.81,22.05,3.58,32.15q26.4,36.08,52.53,72.24l85.48,117.84c17,23.37,38.28,23.24,55.3-.15q69.07-95,138.23-189.92c7.44-10.19,8.95-20.94,3.62-32.09-5.2-10.92-14.45-16.12-26.67-16.09-27.56.06-55.17,0-82.75,0H866.62c-4.92-22-8-43.13-14.29-63.32C799,228.22,684.23,121.92,506.75,91.49,282.64,53.08,72.11,196.34,19.51,417.37-35.69,649.3,113.23,885.12,347.37,935c29.24,6.24,59.64,8,89.62,9.64,28.24,1.54,49.92-19.84,50.73-46.91.83-27.65-19.91-49.61-48.66-50.32-101.81-2.56-188.16-39.91-253.33-118.51C105.86,632.6,84.55,522.33,126.51,404.47,168.27,287.18,253.45,213.9,375.91,190c176.32-34.44,343.26,74.79,385.15,248.67C762.85,446.12,763.93,453.66,765.78,463.5Z"/>
      <path class="cls-1" d="M438.15,477.67l-47-47.29c-7.7-7.75-16.67-12.13-27.79-9.72-10.82,2.34-18.95,8.55-22.16,19.28-3.37,11.26-1.43,21.86,7.3,30.5,15.9,15.75,31.83,31.49,48.83,48.22-12.05,12.08-23.28,23.48-34.55,34.81-4.66,4.7-9.5,9.22-14,14-12,12.7-12,31.16-.28,42.46,11.53,11.1,29.34,10.82,41.62-1.09,14.49-14.07,28.62-28.53,42.93-42.79,1.53-1.54,3.24-3,6.44-5.76,9,9.34,17.71,18.7,26.66,27.67,31.72,31.87,47.13,37.16,62.62,21.75,16-15.9,10.83-31-21.65-63.47-8.78-8.77-17.71-17.39-28.23-27.68,16.53-16,32.26-30.81,47.42-46.16A40.87,40.87,0,0,0,536.12,457c4.08-12.69-1.48-25.7-12.42-32.47-11.73-7.25-24.88-6.26-35.48,3.79-13.85,13.15-27.11,26.92-40.65,40.4C444.73,471.51,441.79,474.2,438.15,477.67Z"/>
    </g>
  </g>
</svg>
