<svg xmlns="http://www.w3.org/2000/svg" viewBox="0 0 1000 1000">
  <defs>
    <style>
      .cls-1 {
        fill: #fff;
      }
    </style>
  </defs>
  <title>add album</title>
  <g id="add_album" data-name="add album">
    <g>
      <path class="cls-1" d="M812.94,10c28.1,7.56,42.47,27.37,48.5,54.53.64,2.88.6,5.91.95,9.55h-5.26c-19.49,0-39,.09-58.47-.12a12.56,12.56,0,0,1-7-2.59A24.13,24.13,0,0,0,776.42,66Q497.81,66,219.19,66a22.62,22.62,0,0,0-15.93,6A7.31,7.31,0,0,1,199,74c-21.47.12-42.94.08-65,.08-.61-8.38,1.44-16,4.44-23.34C146.84,30.2,160.72,15.5,182.93,10Z"/>
      <path class="cls-1" d="M69,179.67a77.65,77.65,0,0,1,16.11-45.46C99,116,117,106.75,140.47,106.77q358.18.39,716.35.16c32.76,0,57.35,17.29,68,48.4,2.6,7.55,3.79,15.59,5.78,24.07-3.13.14-4.75.27-6.37.27q-31,0-62,.07a7.87,7.87,0,0,1-7.11-3.37,31.23,31.23,0,0,0-25-12.52h-5.49q-325.44,0-650.87-.11c-13.17,0-24.27,3.17-32.3,14.22a4.65,4.65,0,0,1-3.29,1.68C115.4,179.69,92.6,179.67,69,179.67Z"/>
      <path class="cls-1" d="M734.16,557.13H542.84V365.81A42.84,42.84,0,0,0,500,323h0a42.84,42.84,0,0,0-42.84,42.84V557.13H265.84A42.84,42.84,0,0,0,223,600h0a42.84,42.84,0,0,0,42.84,42.84H457.16V834.13A42.84,42.84,0,0,0,500,877h0a42.84,42.84,0,0,0,42.84-42.84h0V642.81H734.16A42.84,42.84,0,0,0,777,600h0a42.84,42.84,0,0,0-42.84-42.84Z"/>
      <path class="cls-1" d="M977.53,260.32a66.18,66.18,0,0,0-63.41-49.43h-4.5q-409.74,0-819.47-.09c-24.48,0-44.05,9-58.31,28.87-8.31,11.6-11.78,24.83-11.78,39v643c0,33,20.48,59.45,51.71,66.62A73.71,73.71,0,0,0,88.13,990q411.74.12,823.47,0c35.52,0,61.77-22.63,67.52-57.72a13.71,13.71,0,0,1,.82-2.33V271C979.14,267.39,978.46,263.82,977.53,260.32ZM922.24,896.46c0,17.3-9.58,30.08-25.31,33.84a46,46,0,0,1-10.4.92c-17.65.09-35.31,0-53,.11a12.33,12.33,0,0,1-3.2-.36H744l.31.29H113.88c-18.44,0-31.23-8.92-35.27-24.8a43.24,43.24,0,0,1-1.11-10.39V864H77V326h.46V305.52c0-22.79,13.54-36.25,36.54-36.25H885.83c18.66,0,31.78,9.53,35.5,25.91a43.23,43.23,0,0,1,.79,9.43q.06,193.72,0,387.44V698l-.16-.15v83.3a24.23,24.23,0,0,1,.32,4.42C922,822.51,922.28,859.48,922.24,896.46Z"/>
    </g>
  </g>
</svg>
