<svg xmlns="http://www.w3.org/2000/svg" viewBox="0 0 1000 1000">
  <defs>
    <style>
      .cls-1 {
        fill: #fff;
      }
    </style>
  </defs>
  <title>apps</title>
  <g id="apps">
    <path class="cls-1" d="M982,499.78c.36,265.28-215.78,487.08-492.3,481.87-259-4.88-477-217-471.6-492.38,5.1-258.28,215-470.43,482.21-471C766.08,17.65,982.2,234.64,982,499.78Zm-708.85,4H273v16.05c0,5.35-.13,10.71.05,16,.47,14.57,8.46,23.36,23,23.74,21.05.53,42.13.48,63.19.07,13.58-.27,23.12-9.27,23.46-22.62.56-21.72.62-43.48-.08-65.19-.44-13.54-9.29-21.64-22.74-21.83q-32.6-.47-65.2.1c-13.05.22-21.07,8.46-21.48,21.53-.32,10.76-.05,21.47-.05,32.17ZM666.55,450v-.12c-10,0-20.06-.09-30.09,0-16.91.2-25.47,8.3-25.74,25.12-.32,19.71-.25,39.44,0,59.16.24,15.89,8,24.74,23.72,25.3,21,.76,42.12.62,63.16.08,13.37-.35,22.3-8.51,22.62-20.92.58-22.71.6-45.46-.1-68.17-.41-13.05-9.1-20.2-22.54-20.45-10.31-.13-20.67,0-31,0Zm.4,166.6H652c-5.35,0-10.7-.14-16,0-16.23.28-24.84,8.4-25.12,24.71-.35,20.39-.3,40.78,0,61.17.22,13.42,9.18,23.37,22.32,23.74,21.71.61,43.46.63,65.17-.1,13.58-.45,21.68-8.53,22-21.39.54-22.38.6-44.79,0-67.17-.33-12.83-9.35-20.66-22.25-20.9-10.39-.14-20.76,0-31.07,0ZM553.87,504h-.07c0-9.36.14-18.72,0-28.07-.33-18.32-7.47-25.69-25.58-25.91q-29.58-.36-59.15,0c-16,.15-24.75,8.68-25,24.87q-.48,29.58,0,59.15c.25,16.47,8.17,25.05,24.52,25.55,20.7.63,41.44.62,62.14.08,15-.39,22.88-9.29,23.15-24.57C554,524.71,553.87,514.35,553.87,504ZM273.07,671.44c0,10.69-.31,21.39.07,32.07.49,13.62,8.27,22.23,21.84,22.66,21.7.67,43.44.64,65.14.13,13-.31,22.25-9.45,22.59-22.37q.84-32.55-.09-65.14c-.4-13.64-8.95-21.76-22.48-22q-32.06-.63-64.14,0c-14.37.27-22.27,8.29-22.83,22.58C272.75,650,273.09,660.74,273.07,671.44Zm226.49-54.71v-.12c-10,0-20.05-.12-30.08,0-16.8.23-25.24,8.41-25.47,25.35q-.4,29.58.07,59.15c.25,15.78,8.12,24.56,23.9,25.1,21,.73,42.11.6,63.14,0,12.53-.32,22-8.72,22.35-20.21q1-34.56-.05-69.15c-.38-12.57-9.09-19.87-21.78-20.15C521,616.54,510.25,616.73,499.56,616.73ZM665.32,387.52h15.06c5.36,0,10.71.15,16.07.08,16.38-.24,24-7.62,24.09-24,.17-20.41.1-40.83-.08-61.24-.13-15.22-7.53-23-22.74-23.26-21.07-.34-42.16-.28-63.24,0-14.21.17-22.94,7.73-23.47,22-.8,21.39-.81,42.85,0,64.23.54,14.85,9.27,22,24.22,22.14C645.24,387.59,655.28,387.52,665.32,387.52Zm-337.78.08v-.11c10.69,0,21.37.14,32,0,13.39-.22,22.17-7,22.74-20.2,1-22.32,1-44.74.17-67.07-.5-13.55-9.56-21-23.12-21.08q-31.56-.28-63.1,0c-15.09.13-23,7.9-23.19,22.76-.2,21-.24,42.06,0,63.09.17,14.3,8.25,22.3,22.4,22.6C306.17,387.78,316.86,387.6,327.54,387.6Zm171.82,0v-.06h15c5.36,0,10.71.16,16.06,0,15.61-.39,23.23-8,23.36-23.78q.24-30.63,0-61.24c-.12-14.69-8.33-23.26-22.88-23.43q-31.62-.37-63.24.08c-14.85.2-22.84,7.12-23.35,21.77-.75,21.73-.72,43.51-.16,65.24.35,13.24,9.51,21.11,23,21.34,10.79.23,21.5.08,32.21.08Z"/>
  </g>
</svg>
