<svg xmlns="http://www.w3.org/2000/svg" viewBox="0 0 1000 1000">
  <defs>
    <style>
      .cls-1 {
        fill: #fff;
      }
    </style>
  </defs>
  <title>brain circuits</title>
  <g id="brain_circuits" data-name="brain circuits">
    <path class="cls-1" d="M117.6,671.5a68,68,0,0,0,8.9-85.2l44.9-44.9,129.4,7.8L424.5,425.4l1.4-1.4L549.6,300.3l-7.8-129.4L586.7,126a68,68,0,1,0-19.3-19l-53.2,53.2,4.9,129.4L404.7,402.8h0l-.7.7-.7.7h0L290.1,518.7l-129.4-4.9L107.5,567a68,68,0,1,0,10.1,104.5Z"/>
    <path class="cls-1" d="M128.9,462.2A68,68,0,0,0,148,424.7H251.3l86.3-86.3L339,337l86.3-86.3V147.5a68,68,0,1,0-58.7-19.1,67.31,67.31,0,0,0,29.8,17.4l.6,90.8-67.9,67.9-67.7-67.7c14.7-25.6,10.8-59.2-11.5-81.5-26.6-26.6-69.1-27-95.1-1.1s-25.5,68.6,1.1,95.1c22.3,22.3,55.9,26.2,81.5,11.5l67.7,67.7-67.9,67.9-90.8-.6a68,68,0,1,0-17.5,66.4Z"/>
    <path class="cls-1" d="M872.8,537.1a68,68,0,0,0-19.1,37.5H753.3L664.9,663l-1.4,1.4-88.4,88.4V853.2a68.34,68.34,0,1,0,31.8,2.6l-2.8-89.5L673.4,697l66.3,66.3c-14.7,25.6-10.8,59.2,11.5,81.5,26.6,26.6,69.1,27,95.1,1.1s25.5-68.6-1.1-95.1c-22.3-22.3-55.9-26.2-81.5-11.5L697.4,673l69.3-69.3,89.5,2.8a68,68,0,1,0,16.6-69.4Z"/>
    <path class="cls-1" d="M883.4,327.1a68.08,68.08,0,0,0-9.4,84.4l-45.7,45.7-126.6-7.8L576.5,574.6l-1.4,1.4L449.9,701.2l7.8,126.6L412,873.5a68,68,0,1,0,21.2,21.2l53.5-53.5-6.4-128,116-116,1.4-1.4,116-116,128,6.4,53.5-53.5a68,68,0,1,0-11.8-105.6Z"/>
  </g>
</svg>
