<svg xmlns="http://www.w3.org/2000/svg" viewBox="0 0 1000 1000">
  <defs>
    <style>
      .cls-1 {
        fill: #fff;
      }
    </style>
  </defs>
  <title>contact</title>
  <g id="contact">
    <path class="cls-1" d="M966.9,70.9a9.37,9.37,0,0,0-10.2-1l-921,471a9.49,9.49,0,0,0,1.45,17.5l308.3,98a9.48,9.48,0,0,0,9.24-2L781.17,270.1,440.63,673.19a9.51,9.51,0,0,0,1.13,13.39,9.76,9.76,0,0,0,3.35,1.82L787.22,792.6A9.1,9.1,0,0,0,790,793a9.72,9.72,0,0,0,4.71-1.24,9.53,9.53,0,0,0,4.52-6l171-705.17a9.49,9.49,0,0,0-3.33-9.69ZM545.21,763.24l-94.55-29.09a9.33,9.33,0,0,0-8.42,1.43,9.52,9.52,0,0,0-3.86,7.64V921.67a9.49,9.49,0,0,0,6.86,9.12,9.84,9.84,0,0,0,2.64.37,9.44,9.44,0,0,0,8-4.41l94.54-149.37a9.46,9.46,0,0,0-5.22-14.14Z"/>
  </g>
</svg>
