<svg xmlns="http://www.w3.org/2000/svg" viewBox="0 0 1000 1000">
  <defs>
    <style>
      .cls-1 {
        fill: #fff;
      }
    </style>
  </defs>
  <title>copy</title>
  <g id="copy">
    <path class="cls-1" d="M762.5,103h-167v-.5a100.5,100.5,0,0,0-201,0v.5h-157a80,80,0,0,0-80,80V917a80,80,0,0,0,80,80h525a80,80,0,0,0,80-80V183A80,80,0,0,0,762.5,103ZM495,31a71.5,71.5,0,1,1-71.5,71.5A71.5,71.5,0,0,1,495,31ZM762.5,917h-525V183H332a79.85,79.85,0,0,0,77.32,60H588.7A79.85,79.85,0,0,0,666,183H762.5Z"/>
  </g>
</svg>
