<svg xmlns="http://www.w3.org/2000/svg" viewBox="0 0 1000 1000">
  <defs>
    <style>
      .cls-1 {
        fill: #fff;
      }
    </style>
  </defs>
  <title>delete</title>
  <g id="delete">
    <g>
      <g>
        <path class="cls-1" d="M500.5,50C252,50,50.5,251.47,50.5,500S252,950,500.5,950s450-201.47,450-450S749,50,500.5,50Zm0,803c-195,0-353-158-353-353s158-353,353-353,353,158,353,353S695.5,853,500.5,853Z"/>
        <path class="cls-1" d="M500.5,50C252,50,50.5,251.47,50.5,500S252,950,500.5,950s450-201.47,450-450S749,50,500.5,50Zm0,803c-195,0-353-158-353-353s158-353,353-353,353,158,353,353S695.5,853,500.5,853Z"/>
      </g>
      <path class="cls-1" d="M702.5,639.52,563,500,702.5,360.48a44.19,44.19,0,0,0,0-62.48h0A44.19,44.19,0,0,0,640,298L500.5,437.52,361,298a44.19,44.19,0,0,0-62.48,0h0a44.19,44.19,0,0,0,0,62.48L438,500,298.5,639.52a44.19,44.19,0,0,0,0,62.48h0A44.19,44.19,0,0,0,361,702L500.5,562.48,640,702a44.19,44.19,0,0,0,62.48,0h0A44.19,44.19,0,0,0,702.5,639.52Z"/>
    </g>
  </g>
</svg>
