<svg xmlns="http://www.w3.org/2000/svg" viewBox="0 0 1000 1000">
  <defs>
    <style>
      .cls-1 {
        fill: #fff;
      }
    </style>
  </defs>
  <title>email</title>
  <g id="email">
    <path class="cls-1" d="M501.66,561.49h.19a35.48,35.48,0,0,0,19.39-5.69l1.51-1c.32-.21.67-.41,1-.64l17.57-14.53L960.5,193.72a4.9,4.9,0,0,0-3.92-2H44.37a4.77,4.77,0,0,0-3,1.09L479.94,554.3C485.5,558.88,493.36,561.49,501.66,561.49ZM39.5,240.72V753.5L353.69,499.7Zm608.14,260.7L961.5,753.64V242.43Zm-99.79,82.32C535.34,594,519,599.67,501.79,599.67s-33.6-5.63-46.08-15.85l-72-59.35L39.5,802.52v.89a5,5,0,0,0,4.94,4.88H956.63a5,5,0,0,0,4.87-4.9v-.82l-344-276.36Z"/>
  </g>
</svg>
