<svg xmlns="http://www.w3.org/2000/svg" viewBox="0 0 1000 1000">
  <defs>
    <style>
      .cls-1 {
        fill: #fff;
      }
    </style>
  </defs>
  <title>enter</title>
  <g id="enter">
    <g>
      <path class="cls-1" d="M813.87,71H329.13C226.5,71,142.5,155,142.5,257.63V392.75h94.63V257.63a92.57,92.57,0,0,1,92-92H813.87a92.57,92.57,0,0,1,92,92V742.37a92.57,92.57,0,0,1-92,92H329.13a92.57,92.57,0,0,1-92-92V608.3H142.5V742.37C142.5,845,226.5,929,329.13,929H813.87c102.63,0,186.63-84,186.63-186.63V257.63C1000.5,155,916.5,71,813.87,71Z"/>
      <polygon class="cls-1" points="661.5 455 -0.49 455 -0.49 545 661.5 545 661.5 455 661.5 455"/>
      <g>
        <polygon class="cls-1" points="459.5 374.06 678.5 500.5 459.5 626.94 459.5 374.06"/>
        <path class="cls-1" d="M504.5,452l42,24.25,42,24.25-42,24.25L504.5,549V452m-90-155.88V704.88l177-102.19,177-102.19-177-102.19Z"/>
      </g>
    </g>
  </g>
</svg>
