<svg id="exit" xmlns="http://www.w3.org/2000/svg" viewBox="0 0 1000 1000">
  <defs>
    <style>
      .cls-1 {
        fill: #fff;
      }
    </style>
  </defs>
  <title>exit</title>
  <g>
    <path class="cls-1" d="M257.63,929H742.37C845,929,929,845,929,742.37V607.25H834.37V742.37a92.57,92.57,0,0,1-92,92H257.63a92.57,92.57,0,0,1-92-92V257.63a92.57,92.57,0,0,1,92-92H742.37a92.57,92.57,0,0,1,92,92V391.7H929V257.63C929,155,845,71,742.37,71H257.63C155,71,71,155,71,257.63V742.37C71,845,155,929,257.63,929Z"/>
    <g>
      <rect class="cls-1" x="231.01" y="455" width="414.99" height="90"/>
      <polygon class="cls-1" points="823 398.31 646 296.12 646 455 893 455 893 545 646 545 646 704.88 823 602.69 1000 500.5 823 398.31"/>
      <rect class="cls-1" x="646" y="455" width="247" height="90"/>
    </g>
  </g>
</svg>
