<svg xmlns="http://www.w3.org/2000/svg" viewBox="0 0 1000 1000">
  <defs>
    <style>
      .cls-1 {
        fill: #fff;
      }
    </style>
  </defs>
  <title>expand plus</title>
  <g id="expand_plus" data-name="expand plus">
    <path class="cls-1" d="M922.33,422.83H577.67V78.17A77.17,77.17,0,0,0,500.5,1h0a77.17,77.17,0,0,0-77.17,77.17V422.83H78.67A77.17,77.17,0,0,0,1.5,500h0a77.17,77.17,0,0,0,77.17,77.17H423.33V921.83A77.17,77.17,0,0,0,500.5,999h0a77.17,77.17,0,0,0,77.17-77.17V577.17H922.33A77.17,77.17,0,0,0,999.5,500h0a77.17,77.17,0,0,0-77.17-77.17Z"/>
  </g>
</svg>
