<svg xmlns="http://www.w3.org/2000/svg" viewBox="0 0 1000 1000">
  <defs>
    <style>
      .cls-1 {
        fill: #fff;
      }
    </style>
  </defs>
  <title>explore</title>
  <g id="explore">
    <path class="cls-1" d="M700.5,0c-165.69,0-300,134.31-300,300a298.64,298.64,0,0,0,56.61,175.39L.5,932l68,68L525.11,543.39A298.64,298.64,0,0,0,700.5,600c165.69,0,300-134.31,300-300S866.19,0,700.5,0ZM856.06,455.56c-85.92,85.91-225.21,85.91-311.13,0s-85.91-225.21,0-311.12,225.21-85.91,311.13,0a220,220,0,0,1,0,311.13Z"/>
  </g>
</svg>
