<svg xmlns="http://www.w3.org/2000/svg" viewBox="0 0 1000 1000">
  <defs>
    <style>
      .cls-1 {
        fill: #fff;
      }
    </style>
  </defs>
  <title>external link</title>
  <g id="external_link" data-name="external link">
    <path class="cls-1" d="M393.89,925.09c-76.16,0-152.33.44-228.48-.12-69.55-.52-118.08-34.72-148.16-96.24C8.5,810.89,4.82,791.43,4.76,771.57,4.5,705.4,4.6,639.24,4.6,573.08c0-91-.36-182,.2-273,.46-75.75,60.76-143,135.8-152.66a214.16,214.16,0,0,1,26.9-1.75q191.24-.16,382.48,0a31.14,31.14,0,0,1,11.67,1.92c7.13,2.94,9.67,9.23,9.71,16.6.07,11,.1,22,0,33-.11,12.81-6.76,19.33-19.55,19.33H166.33c-37.47,0-64.43,17.3-82.1,49.73C78.6,276.62,76,288,75.6,299.82c-.1,2.18-.1,4.34-.1,6.5v458c0,37.39,17.88,63.86,50.15,81.26,12,6.45,25.12,8.69,38.61,8.7q230,0,460,.11c49.48.07,89.48-42.13,88.9-89.1-.71-57.66-.17-115.33-.16-173,0-15.47,6-21.54,21.44-21.56,10.17,0,20.34-.1,30.5,0,12.31.15,18.9,6.74,18.91,18.93,0,59,.14,118,0,177-.17,53.7-23.5,95.79-65.64,127.92C690.21,916,658,925.15,623,925.12Q508.38,925,393.89,925.09Z"/>
    <path class="cls-1" d="M838.71,321.34c-1.38,1.28-2.6,2.35-3.75,3.5q-177.81,177.8-355.6,355.6c-9.63,9.64-19,9.65-28.58,0q-29.85-29.9-59.73-59.75c-9.92-9.91-10-19.05-.14-29Q537.78,444.89,684.65,298l66.6-66.6c-2-1.21-4.2-2-5.69-3.49q-46-45.85-91.93-91.88c-16.92-17-14.77-41.95,4.52-55.27,7-4.86,15-6,23.29-6q81,.06,162,0c38.33,0,76.66.07,115,0,12.66,0,23,4.33,30.86,14.46a34.75,34.75,0,0,1,7.2,21.85v282c0,15.74-7.85,27.24-22.13,33.27-14.48,6.12-27.75,2.74-38.89-8.41q-46.32-46.29-92.6-92.63C841.55,324,840.22,322.77,838.71,321.34Z"/>
  </g>
</svg>
