<svg xmlns="http://www.w3.org/2000/svg" viewBox="0 0 1000 1000">
  <defs>
    <style>
      .cls-1 {
        fill: #fff;
      }
    </style>
  </defs>
  <title>imagelists</title>
  <g id="imagelists">
    <path class="cls-1" d="M980.44,271V930a13.71,13.71,0,0,0-.82,2.33c-5.75,35.09-32,57.71-67.52,57.72q-411.73.08-823.47,0a74.19,74.19,0,0,1-16.34-1.67c-31.23-7.17-51.71-33.65-51.71-66.62v-643c0-14.21,3.47-27.44,11.78-39,14.26-19.91,33.83-28.88,58.31-28.87q409.74.2,819.47.09h4.5a66.18,66.18,0,0,1,63.41,49.43C979,263.85,979.64,267.42,980.44,271ZM922.66,698V304.65a43.23,43.23,0,0,0-.79-9.43c-3.72-16.38-16.84-25.91-35.5-25.91H114.5C91.59,269.31,78,282.77,78,305.56V707.5c0,1.72.17,3.44.3,5.91,1.63-1.12,2.58-1.72,3.47-2.4Q210.5,613.7,339.32,516.43c4.76-3.59,9.61-7.29,14.95-9.83,16.9-8,28.4-5.85,41.76,7.09l1.07,1L615.44,729c5.18,5.09,10.4,10.15,14.79,14.43,3.7-3.13,7.13-5.78,10.28-8.72q67.38-63,134.69-126c17.89-16.78,39.12-16.72,56.76.51q30.4,29.68,60.72,59.46C902.3,678.1,911.93,687.5,922.66,698ZM366.84,572.53c-1.35,1-2.3,1.63-3.21,2.33Q222.28,681.62,81,788.49c-1.72,1.3-2.94,4.38-3,6.64-.19,33.66-.16,67.32-.08,101a43.24,43.24,0,0,0,1.11,10.39c4,15.88,16.83,24.8,35.27,24.8h630.5Zm310.4,212.64c2.33,2.16,4.18,3.84,6,5.57Q754.51,859.32,825.74,928a10.89,10.89,0,0,0,8.33,3.39c17.65-.15,35.31,0,53-.11a46,46,0,0,0,10.4-.92c15.73-3.76,25.29-16.54,25.31-33.84,0-37-.22-74,.08-110.93.06-6.55-1.82-10.83-6.67-15.3C879.6,736.51,843.33,702.38,807,668.37c-1.43-1.35-2.89-2.65-4.62-4.23Z"/>
    <path class="cls-1" d="M813.44,10c28.1,7.56,42.47,27.37,48.5,54.53.64,2.88.6,5.91.95,9.55h-5.26c-19.49,0-39,.09-58.47-.12a12.56,12.56,0,0,1-7-2.59A24.13,24.13,0,0,0,776.92,66q-278.61.06-557.23,0a22.62,22.62,0,0,0-15.93,6,7.31,7.31,0,0,1-4.26,2c-21.47.12-42.94.08-65,.08-.61-8.38,1.44-16,4.44-23.34,8.4-20.51,22.28-35.21,44.49-40.73Z"/>
    <path class="cls-1" d="M69.5,179.7a77.65,77.65,0,0,1,16.11-45.46C99.5,116,117.5,106.78,141,106.8q358.18.39,716.35.16c32.76,0,57.35,17.29,68,48.4,2.6,7.55,3.79,15.59,5.78,24.07-3.13.14-4.75.27-6.37.27q-31,0-62,.07a7.87,7.87,0,0,1-7.11-3.37,31.23,31.23,0,0,0-25-12.52h-5.49q-325.44,0-650.87-.11c-13.17,0-24.27,3.17-32.3,14.22a4.65,4.65,0,0,1-3.29,1.68C115.9,179.72,93.1,179.7,69.5,179.7Z"/>
    <path class="cls-1" d="M572.24,447.17a94.51,94.51,0,0,1,94.63-94.39h.37c52.54.05,94.93,42.22,95,94.49,0,52.55-42.82,94.92-95.87,94.73A94.65,94.65,0,0,1,572.24,447.17Zm94.47-50.62a51.1,51.1,0,1,0,.1,0Z"/>
  </g>
</svg>
