<svg xmlns="http://www.w3.org/2000/svg" viewBox="0 0 1000 1000">
  <defs>
    <style>
      .cls-1 {
        fill: #fff;
      }
    </style>
  </defs>
  <title>info</title>
  <g id="info">
    <path class="cls-1" d="M500.5,88c227.61.17,412,184.83,411.82,412.44A412.12,412.12,0,0,1,660.84,879.66C451,967.85,209.41,869.23,121.22,659.4c-88-209.32,9.93-450.36,218.94-539.06A409.24,409.24,0,0,1,500.5,88m0-80C228.78,8,8.5,228.28,8.5,500s220.28,492,492,492,492-220.28,492-492S772.22,8,500.5,8Z"/>
    <path class="cls-1" d="M540,376H460V783.11a40,40,0,1,0,80,0Z"/>
    <path class="cls-1" d="M500,186a43,43,0,1,0,43,43,43,43,0,0,0-43-43Z"/>
  </g>
</svg>
