<svg xmlns="http://www.w3.org/2000/svg" viewBox="0 0 1000 1000">
  <defs>
    <style>
      .cls-1 {
        fill: #fff;
      }
    </style>
  </defs>
  <title>link</title>
  <g id="link">
    <path class="cls-1" d="M905.05,455.06,725.21,634.84c-99.26,99.31-260.28,99.31-359.55,0-15.64-15.6-27.87-33.17-38.61-51.29L410.61,500c4-4,8.87-6.3,13.56-9,5.78,19.73,15.86,38.42,31.39,53.94,49.56,49.61,130.22,49.54,179.76,0L815.11,365.17c49.6-49.61,49.6-130.25,0-179.81a127.28,127.28,0,0,0-179.79,0l-63.93,64c-51.89-20.2-107.77-25.64-162.18-17.66L545.44,95.47c99.32-99.29,260.29-99.29,359.61,0S1004.31,355.77,905.05,455.06ZM429.63,750.68l-64,64c-49.57,49.54-130.23,49.54-179.8,0a127.33,127.33,0,0,1,0-179.84l179.8-179.78a127.21,127.21,0,0,1,179.78,0c15.48,15.49,25.58,34.17,31.41,53.88,4.71-2.74,9.56-5,13.53-8.94l83.55-83.52c-10.67-18.19-23-35.7-38.61-51.31-99.25-99.3-260.28-99.3-359.58,0L96,545C-3.32,644.33-3.32,805.28,96,904.6s260.29,99.27,359.58,0L591.82,768.3C537.38,776.32,481.5,770.84,429.63,750.68Z"/>
  </g>
</svg>
