<svg xmlns="http://www.w3.org/2000/svg" viewBox="0 0 1000 1000">
  <defs>
    <style>
      .cls-1 {
        fill: #fff;
      }
    </style>
  </defs>
  <title>obliterate</title>
  <g id="obliterate">
    <g>
      <path class="cls-1" d="M214.44,352.28V42.59c3.92-.19,7.12-.48,10.32-.48q180.87,0,361.73-.17c6.93,0,11.6,2.21,16.37,7,59.12,59.4,118.51,118.54,177.52,178a23,23,0,0,1,6,14.45c.5,36.4.27,72.82.27,110.85h11c37.1,0,74.2-.09,111.3,0,42.32.08,68.56,26.53,68.57,69V666.7c0,39.81-27,66.84-66.57,66.9H850.54V551.48H150.9V732c-26.82,0-52.81,2.6-78-.69-29.1-3.79-49.1-30.65-49.17-60.18q-.35-127.7,0-255.4c.12-35.79,27.89-63,64.19-63.31,36.76-.35,73.54-.09,110.3-.1Zm63.71-.68H722.61V232.18h-127V106.12H278.15ZM150,479.3V416.38H87.76V479.3Z"/>
      <g>
        <path class="cls-1" d="M361.81,820.92c0,87-30.59,136.62-89.3,136.62-58.9,0-89.3-49.6-89.3-136.62,0-86.64,30.4-136,89.3-136C331.22,684.88,361.81,734.28,361.81,820.92Zm-136.23,0c0,26.79,1.52,47.5,4.94,63.08l74.1-151.24c-7.41-10.83-17.86-15.39-32.11-15.39C242.5,717.37,225.58,747,225.58,820.92ZM315.5,763,242.3,912.31c7.2,9.12,17.29,12.69,30.2,12.69,30.4,0,46.93-29.26,46.93-104.12C319.44,797,318.11,777.79,315.5,763Z"/>
        <path class="cls-1" d="M589.8,820.92c0,87-30.59,136.62-89.3,136.62-58.9,0-89.3-49.6-89.3-136.62,0-86.64,30.4-136,89.3-136C559.21,684.88,589.8,734.28,589.8,820.92Zm-136.23,0c0,26.79,1.52,47.5,4.94,63.08l74.1-151.24c-7.41-10.83-17.86-15.39-32.11-15.39C470.5,717.37,453.57,747,453.57,820.92ZM543.44,763,470.29,912.31C477.5,921.43,487.58,925,500.5,925c30.4,0,46.93-29.26,46.93-104.12C547.43,797,546.1,777.79,543.44,763Z"/>
        <path class="cls-1" d="M817.8,820.92c0,87-30.59,136.62-89.3,136.62-58.9,0-89.3-49.6-89.3-136.62,0-86.64,30.4-136,89.3-136C787.21,684.88,817.8,734.28,817.8,820.92Zm-136.23,0c0,26.79,1.52,47.5,4.94,63.08l74.1-151.24c-7.41-10.83-17.86-15.39-32.11-15.39C698.5,717.37,681.57,747,681.57,820.92ZM771.44,763,698.29,912.31C705.5,921.43,715.58,925,728.5,925c30.4,0,46.93-29.26,46.93-104.12C775.43,797,774.1,777.79,771.44,763Z"/>
      </g>
    </g>
  </g>
</svg>
