<svg xmlns="http://www.w3.org/2000/svg" viewBox="0 0 1000 1000">
  <defs>
    <style>
      .cls-1 {
        fill: #fff;
      }
    </style>
  </defs>
  <title>palette</title>
  <g id="palette">
    <path class="cls-1" d="M402,717,608.77,216.79a58.51,58.51,0,0,0-31.44-76.29L402,67Z"/>
    <path class="cls-1" d="M427.5,790.5,802.89,413.3a58.49,58.49,0,0,0,1.46-81L667.5,184.5Z"/>
    <path class="cls-1" d="M414.5,870.5,917.23,665.25a58.48,58.48,0,0,0,32.39-75.37L875.5,399.5Z"/>
    <path class="cls-1" d="M378.5,944.5H923A58.49,58.49,0,0,0,981.5,886h0V694.5Z"/>
    <path class="cls-1" d="M286,54H97.33A77.33,77.33,0,0,0,20,131.33V867.67A77.33,77.33,0,0,0,97.33,945H286a66,66,0,0,0,66-66V120A66,66,0,0,0,286,54ZM224.5,863.5a51,51,0,1,1,51-51,51,51,0,0,1-51,51Z"/>
  </g>
</svg>
