<svg xmlns="http://www.w3.org/2000/svg" viewBox="0 0 1000 1000">
  <defs>
    <style>
      .cls-1 {
        fill: #fff;
      }
    </style>
  </defs>
  <title>policies</title>
  <g id="policies">
    <path class="cls-1" d="M472.33,463.7c-17.67,15.39-20.64,43.26-3.74,59.55,9.68,9.34,11.63,18.6,10.74,30.39-.43,5.76-.08,11.57-.07,17.36,0,9.83-.08,19.67,0,29.51.13,14.22,6.32,20,21.09,20s21.21-5.77,21.31-19.86c.13-19.39.24-38.78-.1-58.16-.11-6.26,1.5-10.42,6.62-14.62,18.26-15,20.09-41.72,4.81-59.75S490.2,448.14,472.33,463.7Z"/>
    <path class="cls-1" d="M491.71,222.86c-53.15,5.58-94.54,45.88-97.32,97.69-.3,5.71-.52,12-.67,18.65H394v.09H606.91c-.41-13.63-1.09-27.29-4.41-40.2C589.81,250.52,540.5,217.73,491.71,222.86Z"/>
    <path class="cls-1" d="M892.44,133.3c0-9.81-2.25-14.3-12.36-17.15-122.8-34.65-245.41-70-368.21-104.64a46.31,46.31,0,0,0-23.95.13C365.5,46.18,243.33,81.32,121,115.9c-9.06,2.56-12.42,5.91-12.4,15.74.34,152.68.19,305.37.39,458.06a111,111,0,0,0,3.23,27.16c47.65,185.73,160.56,309.42,346.64,362.8,16.07,4.6,34.27,10.67,49.65,7.42,180-38,301.79-144.5,364.83-317.21,8.86-24.26,16.51-50.41,17.27-75.9,2.26-75.85.81-151.8.81-227.71h.84C892.22,288.61,892,211,892.44,133.3Zm-143,524.58c-.06,42.93-24.7,75.4-64.22,84.74A101.87,101.87,0,0,1,662,745.09q-162.48.21-324.95,0c-42.74-.06-76-27.25-84.17-68.41a94.22,94.22,0,0,1-1.28-18.14q-.1-150.28-.1-300.6c0-14.2,4.43-18.61,18.73-18.64h53.54v-.09h.28c.19-8.5.5-17,1-25.47,4.74-81.74,75.6-151.94,157-160.08,91.75-9.17,179.59,55.27,193,151.1a254.47,254.47,0,0,1,2.12,34.57h52c16.45,0,20.25,3.71,20.25,19.67q.08,149.45,0,298.88Z"/>
  </g>
</svg>
