<svg xmlns="http://www.w3.org/2000/svg" viewBox="0 0 1000 1000">
  <defs>
    <style>
      .cls-1 {
        fill: #fff;
      }
    </style>
  </defs>
  <title>save</title>
  <g id="save">
    <g>
      <path class="cls-1" d="M506.21,691.14,267.62,385.87h11.23c48.9-.12,97.8-.5,146.7-.14,9.33.07,11-3.12,11-11.59q-.42-144.94-.22-289.9V69.91H569.87v9.57c0,98.39.17,196.79-.21,295.18,0,9.33,2.85,11,11.37,11,49.78-.38,99.57-.21,149.35-.23h10.37Z"/>
      <path class="cls-1" d="M506.21,691.14,267.62,385.87h11.23c48.9-.12,97.8-.5,146.7-.14,9.33.07,11-3.12,11-11.59q-.42-144.94-.22-289.9V69.91H569.87v9.57c0,98.39.17,196.79-.21,295.18,0,9.33,2.85,11,11.37,11,49.78-.38,99.57-.21,149.35-.23h10.37Z"/>
    </g>
    <g>
      <polygon class="cls-1" points="51.5 618 51.5 930.32 948.08 930.32 948.5 618 833.5 618 833.5 816 161.5 816 161.5 618 51.5 618"/>
      <polygon class="cls-1" points="51.5 618 51.5 930.32 948.08 930.32 948.5 618 833.5 618 833.5 816 161.5 816 161.5 618 51.5 618"/>
    </g>
  </g>
</svg>
