<svg xmlns="http://www.w3.org/2000/svg" viewBox="0 0 1000 1000">
  <defs>
    <style>
      .cls-1 {
        fill: #fff;
      }
    </style>
  </defs>
  <title>settings</title>
  <g id="settings">
    <g>
      <rect class="cls-1" x="15.18" y="137.44" width="969.82" height="52.61" rx="15"/>
      <rect class="cls-1" x="15.18" y="468.9" width="969.82" height="52.61" rx="15"/>
      <rect class="cls-1" x="15.18" y="807.37" width="969.82" height="52.61" rx="15"/>
      <g>
        <circle class="cls-1" cx="771.91" cy="164.62" r="134.95"/>
        <path class="cls-1" d="M771.92,44.68a120,120,0,1,1-84.81,35.13,120,120,0,0,1,84.81-35.13m0-30a150,150,0,1,0,149.94,150v0A150,150,0,0,0,771.92,14.68Z"/>
      </g>
      <g>
        <circle class="cls-1" cx="273.85" cy="492.57" r="134.95"/>
        <path class="cls-1" d="M273.85,372.63A119.94,119.94,0,1,1,189,407.76a119.94,119.94,0,0,1,84.81-35.13m0-30a150,150,0,1,0,.06,0Z"/>
      </g>
      <g>
        <circle class="cls-1" cx="621.1" cy="834.55" r="134.95"/>
        <path class="cls-1" d="M621.1,714.61a119.94,119.94,0,1,1-84.82,35.13,119.94,119.94,0,0,1,84.82-35.13m0-30A150,150,0,1,0,771,834.57v0A149.94,149.94,0,0,0,621.1,684.61Z"/>
      </g>
    </g>
  </g>
</svg>
