<svg xmlns="http://www.w3.org/2000/svg" viewBox="0 0 1000 1000">
  <defs>
    <style>
      .cls-1 {
        fill: #fff;
      }
    </style>
  </defs>
  <title>share</title>
  <g id="share">
    <path class="cls-1" d="M813.5,626a159.57,159.57,0,0,0-119.76,53.92L367.32,544.53c.11-2.49.18-5,.18-7.53a160.49,160.49,0,0,0-3.83-34.89L588.23,358.67a159.71,159.71,0,1,0-56.14-90.87L306.92,411.64A160,160,0,1,0,327,643.42l326.69,135.5c-.1,2.35-.16,4.71-.16,7.08a160,160,0,1,0,160-160Zm-606,10a99,99,0,1,1,99-99h0A99,99,0,0,1,207.5,636Z"/>
  </g>
</svg>
