<svg xmlns="http://www.w3.org/2000/svg" viewBox="0 0 1000 1000">
  <defs>
    <style>
      .cls-1 {
        fill: #fff;
      }
    </style>
  </defs>
  <title>space</title>
  <g id="space">
    <path class="cls-1" d="M475.6,990c-25.56-12.8-51-25.79-76.71-38.36q-169-82.8-338.26-165.27c-5.89-2.87-8.14-6.09-8.13-12.86q.33-256,.18-512v-9.77C56.9,253.67,60,255,63.07,256.5q203,99.22,406.14,198.3c6.39,3.11,8.48,6.56,8.47,13.64Q477.35,729.2,477.5,990Z"/>
    <path class="cls-1" d="M523.5,990q0-260.28-.19-520.58c0-7.81,2.43-11.66,9.35-15Q735.36,355.65,937.9,256.5c3.06-1.5,6.19-2.84,10.39-4.77v10.74q0,254.55.21,509.1c0,8.24-2.5,12.1-9.85,15.67Q736.3,885.67,534.24,984.71c-3.08,1.5-5.92,3.5-8.88,5.26Z"/>
    <path class="cls-1" d="M502.4,10c8.68,4.55,17.25,9.31,26.05,13.61q190.11,93,380.25,185.92c2.76,1.35,5.43,2.91,9.44,5.08-4.38,2.28-7.63,4.07-10.95,5.69Q708.5,317.46,509.8,414.69c-6.71,3.29-11.81,3.35-18.55.05Q292.25,317.1,93,219.94c-3-1.48-5.94-3.25-9.94-5.46,4.09-2.16,7-3.82,10.09-5.3L489.7,15.3c3.08-1.51,5.92-3.51,8.87-5.27Z"/>
  </g>
</svg>
