<svg xmlns="http://www.w3.org/2000/svg" viewBox="0 0 1000 1000">
  <defs>
    <style>
      .cls-1 {
        fill: #fff;
      }
    </style>
  </defs>
  <title>speak</title>
  <g id="speak">
    <path class="cls-1" d="M170.5,317h0a60,60,0,0,1,60,60V623a60,60,0,0,1-60,60h0a60,60,0,0,1-60-60V377A60,60,0,0,1,170.5,317Z"/>
    <path class="cls-1" d="M390.5,24h0a60,60,0,0,1,60,60V916a60,60,0,0,1-60,60h0a60,60,0,0,1-60-60V84A60,60,0,0,1,390.5,24Z"/>
    <path class="cls-1" d="M610.5,235h0a60,60,0,0,1,60,60V711a60,60,0,0,1-60,60h0a60,60,0,0,1-60-60V295A60,60,0,0,1,610.5,235Z"/>
    <path class="cls-1" d="M830.5,294h0a60,60,0,0,1,60,60V652a60,60,0,0,1-60,60h0a60,60,0,0,1-60-60V354A60,60,0,0,1,830.5,294Z"/>
  </g>
</svg>
