<svg xmlns="http://www.w3.org/2000/svg" viewBox="0 0 1000 1000">
  <defs>
    <style>
      .cls-1 {
        fill: #fff;
      }
    </style>
  </defs>
  <title>subscription</title>
  <g id="subscription">
    <polygon class="cls-1" points="254.84 433.05 127.42 560.47 0 433.05 254.84 433.05"/>
    <polygon class="cls-1" points="746.16 562.63 873.58 435.21 1001 562.63 746.16 562.63"/>
    <path class="cls-1" d="M167.65,433.05C204.8,249.2,384,130.28,567.81,167.43A339.64,339.64,0,0,1,813.28,367.9q6.15,14.55,10.87,29.52H904C858.34,217.12,695,83.73,500.5,83.73,293.39,83.73,121.61,235,89.59,433.05Z"/>
    <path class="cls-1" d="M834.16,562.63C799.66,746.91,622.3,868.33,438,833.83A339.45,339.45,0,0,1,175.5,598.26H95.9c44.16,182.48,208.55,318,404.6,318,208.61,0,381.38-153.45,411.59-353.64Z"/>
    <path class="cls-1" d="M391.22,629.61l27.86-42.33c25.27,20.3,51,33.69,80.12,33.69,35.21,0,52.05-17.17,52.05-46.22,0-71.27-146.64-61.44-146.64-162.62,0-58.53,41.57-97,104.31-97,44.49,0,73.21,18.58,96.86,43.63l-31.85,36.06c-19.87-18.57-36.39-28.94-62.2-28.94-29.48,0-47.08,15.55-47.08,43.2,0,64.79,146.64,51.83,146.64,161.32,0,59.83-41,101.29-112.09,101.29C462.92,671.72,419.3,655.31,391.22,629.61Zm93.51-367.36H527.5v73.64H484.73Zm0,385.28H527.5v77.1H484.73Z"/>
  </g>
</svg>
