<svg xmlns="http://www.w3.org/2000/svg" viewBox="0 0 1000 1000">
  <defs>
    <style>
      .cls-1 {
        fill: #fff;
      }
    </style>
  </defs>
  <title>users</title>
  <g id="users">
    <g>
      <path class="cls-1" d="M244,886.65c4.08-59.85-8.74-119.52,15.18-176.3C282.5,655.08,323.27,618.51,380,600c5.7-1.86,13.93-.8,19.35,2,69.15,36.14,138,36,207.41.67,6.15-3.13,15.23-4.25,21.75-2.31,74,22,128.56,89.89,132.88,166.75,2.09,37.08,1,74.34,1.3,111.51,0,2.51-.82,5-1.34,8Z"/>
      <path class="cls-1" d="M503.09,570.6c-91.11-.86-163.28-73.76-162.73-164.39.54-91.07,74.61-163.59,166-162.48,89.6,1.09,161.39,74.81,160.75,165C666.42,498.62,592.62,571.45,503.09,570.6Z"/>
      <path class="cls-1" d="M287.65,458.39c-68.31,10-145.14-44.1-166.49-117.14C98.5,263.88,137.21,180.51,211.27,147c72.56-32.88,160.26-7.52,202.53,58.67C312.72,260.39,269.31,344,287.65,458.39Z"/>
      <path class="cls-1" d="M718,458.32c24.41-118.48-40.29-212.81-124.53-252.45,18.42-41.1,95.2-93.91,181.79-67.36C855.62,163.15,905.74,250,886.4,332.3,865,423.22,779.39,466.43,718,458.32Z"/>
      <path class="cls-1" d="M668.44,554.49c9.24-13.21,16.82-25,25.54-35.83,2.28-2.85,8.27-4.27,12.32-3.89,45.87,4.3,88.46-5.64,128.78-27.53,4.5-2.44,11.81-2,17.07-.38,75.3,22.78,130.06,92,134.11,171.81,1.93,37.9.33,76,.33,115.06H819c-3-47-16.63-91.09-43.68-130.48S712.71,574.35,668.44,554.49Z"/>
      <path class="cls-1" d="M339.11,553.75c-92.52,44.92-142.71,117.44-151,219.38H20C23.55,718.54,12.57,663.9,30,611c20.65-62.49,63.4-103.51,125.55-124.15,5.71-1.9,14-1,19.34,1.82,38.06,20.35,78.28,29.94,121.34,26,10.11-.92,16.83.52,22.06,10.64S331.55,543.67,339.11,553.75Z"/>
    </g>
  </g>
</svg>
