<svg xmlns="http://www.w3.org/2000/svg" viewBox="0 0 1000 1000">
  <defs>
    <style>
      .cls-1 {
        fill: #fff;
      }
    </style>
  </defs>
  <title>branch</title>
  <g id="branch">
    <path class="cls-1" d="M868.5,589.5a132,132,0,0,0-128.57,102H616.5c-19.59,0-22.21-3.83-25-7.89-7.54-11-14.08-35.2-23.14-68.7-8.64-32-20.49-75.8-39.51-131.16C515,443.32,504.57,410,496.22,383.21c-10-32-17.4-55.8-25.31-74.21H740.05a132,132,0,1,0-.24-60H393.5c-4.33-.33-8.95-.5-13.95-.5v.5H261.19a132,132,0,1,0-.24,60H391c11.75,1.23,14.12,4.58,17,8.6,9.09,12.89,17.84,41,31.09,83.47,8.46,27.15,19,60.93,33.17,102.18,18.29,53.45,29.36,94.41,38.29,127.32,11,40.66,18.26,67.52,31.54,86.93,20.62,30.14,50.65,34,74.5,34H739.93a132,132,0,1,0,128.57-162Z"/>
  </g>
</svg>
