<svg xmlns="http://www.w3.org/2000/svg" viewBox="0 0 1000 1000">
  <defs>
    <style>
      .cls-1 {
        fill: #fff;
      }
    </style>
  </defs>
  <title>copy state history</title>
  <g id="copy_state_history" data-name="copy state history">
    <path class="cls-1" d="M565.67,19q-30,8.49-48.06,24.74a91,91,0,0,0-25.79,39.93Q484,107.35,484,137.74V244.46q0,29.68-14.13,48.06T424,310.9v.1q-26.75-5.69-63.21-5.69H346.63v84.1H364.3q31.8,0,42.76,14.13T418,447.36v94q0,36.75,9.9,62.19T467.5,647.4q-29.69,18.39-39.57,43.82T418,753.41v94q0,29.69-10.95,43.82T364.3,905.37H346.63v84.1h14.13q44.53,0,74.57-8.48t48.06-24.74a91,91,0,0,0,25.79-39.93Q517,892.64,517,862.25V755.53q0-29.67,14.13-48T577,689.15V689q26.75,5.68,63.21,5.69h14.13v-84.1H636.7q-31.8,0-42.76-14.13t-11-43.82v-94q0-36.74-9.9-62.19T533.5,352.6q29.68-18.37,39.57-43.82t9.9-62.19v-94q0-29.68,11-43.82T636.7,94.63h17.67V10.53H640.24Q595.7,10.53,565.67,19Z"/>
    <path class="cls-1" d="M916.56,292.52q-14.14-18.36-14.13-48.06V137.75q0-30.39-7.78-54.07a91,91,0,0,0-25.79-39.93Q850.83,27.51,820.8,19t-74.56-8.48H732.1v84.1h17.67q31.8,0,42.76,14.14t11,43.82v94q0,36.75,9.9,62.19T853,352.59Q823.25,371,813.38,396.42t-9.88,62.19v94q0,29.68-11,43.82t-42.76,14.13H732.1v84.1h14.14q44.52,0,74.56-8.48t48.06-24.73a91.13,91.13,0,0,0,25.79-39.94q7.77-23.68,7.78-54.06V460.73q0-29.69,14.13-48.06T962.5,394.3V310.9Q930.7,310.9,916.56,292.52Z"/>
    <path class="cls-1" d="M180.2,313.82q-30,8.48-48.06,24.73a91,91,0,0,0-25.79,39.93q-7.78,23.7-7.78,54.07V539.27q0,29.68-14.13,48.06T38.5,605.7v83.4q31.8,0,45.94,18.38t14.13,48V862.25q0,30.39,7.78,54.07a91,91,0,0,0,25.79,39.93q18,16.25,48.06,24.74t74.56,8.48H268.9v-84.1H251.23q-31.8,0-42.76-14.14t-11-43.82v-94q0-36.74-9.9-62.19T148.05,647.4q29.67-18.36,39.57-43.82t9.9-62.19v-94q0-29.68,10.95-43.82t42.76-14.13H268.9v-84.1H254.76Q210.24,305.34,180.2,313.82Z"/>
  </g>
</svg>
