<svg xmlns="http://www.w3.org/2000/svg" viewBox="0 0 1000 1000">
  <defs>
    <style>
      .cls-1 {
        fill: #fff;
      }
    </style>
  </defs>
  <title>new stateline</title>
  <g id="new_stateline" data-name="new stateline">
    <polygon class="cls-1" points="1000.5 500 797.85 617 595.2 734 595.2 500 595.2 266 797.85 383 1000.5 500"/>
    <path class="cls-1" d="M600.24,449.74H375.76V225.26A50.26,50.26,0,0,0,325.5,175h0a50.26,50.26,0,0,0-50.26,50.26h0V449.74H50.76A50.26,50.26,0,0,0,.5,500h0a50.26,50.26,0,0,0,50.26,50.26H275.24V774.74A50.26,50.26,0,0,0,325.5,825h0a50.26,50.26,0,0,0,50.26-50.26h0V550.26H600.24A50.26,50.26,0,0,0,650.5,500h0a50.26,50.26,0,0,0-50.26-50.26Z"/>
  </g>
</svg>
