<svg id="state_share_image" data-name="state share image" xmlns="http://www.w3.org/2000/svg" viewBox="0 0 1000 1000">
  <defs>
    <style>
      .cls-1 {
        fill: #fff;
      }
    </style>
  </defs>
  <title>state share image</title>
  <path class="cls-1" d="M572.12,527.55,509,594.27c-24.13,25.52-63.54,26.06-76.68-15.42l-57.11-182.8c-6.81-21.81-22.51-36-39.88-36h0c-21.24,0-39.35,21-42.78,49.61L253.21,737.81C250.87,757.32,261.9,775,276.38,775H727.75c19.27,0,30.34-29.92,18.9-51.08L648.29,542C630.37,508.85,596,502.33,572.12,527.55Z"/>
  <circle class="cls-1" cx="653.17" cy="284.93" r="98.11"/>
  <path class="cls-1" d="M991.34,524.46c-71,0-81,43-81,74,0,27,4,54,8,81s8,55,8,82c0,101-63,137-145,137h-21v-55h17c56-1,80-31,80-87,0-24-4-47-7-72-4-24-8-49-8-76,0-64,28-98,72-109v-2c-44-12-72-44-72-108,0-27,4-51,8-76,3-24,7-48,7-71,0-54-21-85-79-86h-18v-55h20c85,0,146,39,146,131,0,28-4,55-8,83s-8,56-8,84c0,35,10,74,81,74Z"/>
  <path class="cls-1" d="M10,475.46c71,0,81-43,81-74,0-27-4-54-8-81s-8-55-8-82c0-101,63-137,145-137h21v55H224c-56,1-80,31-80,87,0,24,4,47,7,72,4,24,8,49,8,76,0,64-28,98-72,109v2c44,12,72,44,72,108,0,27-4,51-8,76-3,24-7,48-7,71,0,54,21,85,79,86h18v55H221c-85,0-146-39-146-131,0-28,4-55,8-83s8-56,8-84c0-35-10-74-81-74Z"/>
</svg>
